<?xml version="1.0" encoding="UTF-8" standalone="no"?>
<!-- Created with Inkscape (http://www.inkscape.org/) -->

<svg
        xmlns:svg="http://www.w3.org/2000/svg"
        version="1.1"
        id="svg2"
        width="1843.2"
        height="936"
        viewBox="0 0 1843.2 936"
        xmlns="http://www.w3.org/2000/svg">
    <defs
            id="defs6">
        <clipPath
                clipPathUnits="userSpaceOnUse"
                id="clipPath120">
            <path
                    d="M 172.8,77.22 H 1244.16 V 617.76 H 172.8 Z"
                    id="path118"/>
        </clipPath>
        <clipPath
                clipPathUnits="userSpaceOnUse"
                id="clipPath130">
            <path
                    d="M 172.8,77.22 H 1244.16 V 617.76 H 172.8 Z"
                    id="path128"/>
        </clipPath>
    </defs>
    <g
            id="g8"
            transform="matrix(1.3333333,0,0,-1.3333333,0,936)">
        <path
                d="M 0,0 H 1382.4 V 702 H 0 Z"
                style="fill:#ffffff;fill-opacity:1;fill-rule:nonzero;stroke:none"
                id="path10"/>
        <path
                d="M 172.8,77.22 H 1244.16 V 617.76 H 172.8 Z"
                style="fill:#ffffff;fill-opacity:1;fill-rule:nonzero;stroke:none"
                id="path12"/>
        <path
                d="m 221.49818,77.22 v -3.5"
                style="fill:#000000;fill-opacity:1;fill-rule:nonzero;stroke:#000000;stroke-width:0.8;stroke-linecap:butt;stroke-linejoin:round;stroke-miterlimit:10;stroke-dasharray:none;stroke-opacity:1"
                id="path14"/>
        <g
                id="g16"
                transform="translate(215.13881,55.016875)">
            <text
                    xml:space="preserve"
                    transform="scale(1,-1)"
                    style="font-variant:normal;font-weight:normal;font-size:20px;font-family:'DejaVu Sans';-inkscape-font-specification:DejaVuSans;writing-mode:lr-tb;fill:#000000;fill-opacity:1;fill-rule:nonzero;stroke:none"
                    id="text20"><tspan
           x="0"
           y="0"
           id="tspan18">0</tspan></text>
        </g>
        <path
                d="m 418.25851,77.22 v -3.5"
                style="fill:#000000;fill-opacity:1;fill-rule:nonzero;stroke:#000000;stroke-width:0.8;stroke-linecap:butt;stroke-linejoin:round;stroke-miterlimit:10;stroke-dasharray:none;stroke-opacity:1"
                id="path22"/>
        <g
                id="g24"
                transform="translate(405.53976,55.016875)">
            <text
                    xml:space="preserve"
                    transform="scale(1,-1)"
                    style="font-variant:normal;font-weight:normal;font-size:20px;font-family:'DejaVu Sans';-inkscape-font-specification:DejaVuSans;writing-mode:lr-tb;fill:#000000;fill-opacity:1;fill-rule:nonzero;stroke:none"
                    id="text28"><tspan
           x="0 12.72"
           y="0"
           id="tspan26">20</tspan></text>
        </g>
        <path
                d="m 615.01884,77.22 v -3.5"
                style="fill:#000000;fill-opacity:1;fill-rule:nonzero;stroke:#000000;stroke-width:0.8;stroke-linecap:butt;stroke-linejoin:round;stroke-miterlimit:10;stroke-dasharray:none;stroke-opacity:1"
                id="path30"/>
        <g
                id="g32"
                transform="translate(602.30009,55.016875)">
            <text
                    xml:space="preserve"
                    transform="scale(1,-1)"
                    style="font-variant:normal;font-weight:normal;font-size:20px;font-family:'DejaVu Sans';-inkscape-font-specification:DejaVuSans;writing-mode:lr-tb;fill:#000000;fill-opacity:1;fill-rule:nonzero;stroke:none"
                    id="text36"><tspan
           x="0 12.72"
           y="0"
           id="tspan34">40</tspan></text>
        </g>
        <path
                d="m 811.77917,77.22 v -3.5"
                style="fill:#000000;fill-opacity:1;fill-rule:nonzero;stroke:#000000;stroke-width:0.8;stroke-linecap:butt;stroke-linejoin:round;stroke-miterlimit:10;stroke-dasharray:none;stroke-opacity:1"
                id="path38"/>
        <g
                id="g40"
                transform="translate(799.06042,55.016875)">
            <text
                    xml:space="preserve"
                    transform="scale(1,-1)"
                    style="font-variant:normal;font-weight:normal;font-size:20px;font-family:'DejaVu Sans';-inkscape-font-specification:DejaVuSans;writing-mode:lr-tb;fill:#000000;fill-opacity:1;fill-rule:nonzero;stroke:none"
                    id="text44"><tspan
           x="0 12.72"
           y="0"
           id="tspan42">60</tspan></text>
        </g>
        <path
                d="m 1008.5395,77.22 v -3.5"
                style="fill:#000000;fill-opacity:1;fill-rule:nonzero;stroke:#000000;stroke-width:0.8;stroke-linecap:butt;stroke-linejoin:round;stroke-miterlimit:10;stroke-dasharray:none;stroke-opacity:1"
                id="path46"/>
        <g
                id="g48"
                transform="translate(995.82075,55.016875)">
            <text
                    xml:space="preserve"
                    transform="scale(1,-1)"
                    style="font-variant:normal;font-weight:normal;font-size:20px;font-family:'DejaVu Sans';-inkscape-font-specification:DejaVuSans;writing-mode:lr-tb;fill:#000000;fill-opacity:1;fill-rule:nonzero;stroke:none"
                    id="text52"><tspan
           x="0 12.72"
           y="0"
           id="tspan50">80</tspan></text>
        </g>
        <path
                d="m 1205.2998,77.22 v -3.5"
                style="fill:#000000;fill-opacity:1;fill-rule:nonzero;stroke:#000000;stroke-width:0.8;stroke-linecap:butt;stroke-linejoin:round;stroke-miterlimit:10;stroke-dasharray:none;stroke-opacity:1"
                id="path54"/>
        <g
                id="g56"
                transform="translate(1186.2217,55.016875)">
            <text
                    xml:space="preserve"
                    transform="scale(1,-1)"
                    style="font-variant:normal;font-weight:normal;font-size:20px;font-family:'DejaVu Sans';-inkscape-font-specification:DejaVuSans;writing-mode:lr-tb;fill:#000000;fill-opacity:1;fill-rule:nonzero;stroke:none"
                    id="text60"><tspan
           x="0 12.72 25.440001"
           y="0"
           id="tspan58">100</tspan></text>
        </g>
        <g
                id="g62"
                transform="translate(649.98781,31.6575)">
            <text
                    xml:space="preserve"
                    transform="scale(1,-1)"
                    style="font-variant:normal;font-weight:normal;font-size:20px;font-family:'DejaVu Sans';-inkscape-font-specification:DejaVuSans;writing-mode:lr-tb;fill:#000000;fill-opacity:1;fill-rule:nonzero;stroke:none"
                    id="text66"><tspan
           x="0 9.2825003 17.502501 29.762501 42.462502 54.762501 61.982498 67.8825 80.5625 93.262497 105.21875"
           y="0"
           id="tspan64">Trade-Index</tspan></text>
        </g>
        <path
                d="m 172.8,119.07 h -3.5"
                style="fill:#000000;fill-opacity:1;fill-rule:nonzero;stroke:#000000;stroke-width:0.8;stroke-linecap:butt;stroke-linejoin:round;stroke-miterlimit:10;stroke-dasharray:none;stroke-opacity:1"
                id="path68"/>
        <g
                id="g70"
                transform="translate(114.925,111.46844)">
            <text
                    xml:space="preserve"
                    transform="scale(1,-1)"
                    style="font-variant:normal;font-weight:normal;font-size:20px;font-family:'DejaVu Sans';-inkscape-font-specification:DejaVuSans;writing-mode:lr-tb;fill:#000000;fill-opacity:1;fill-rule:nonzero;stroke:none"
                    id="text74"><tspan
           x="0 12.72 25.440001 38.16"
           y="0"
           id="tspan72">5000</tspan></text>
        </g>
        <path
                d="m 172.8,227.07 h -3.5"
                style="fill:#000000;fill-opacity:1;fill-rule:nonzero;stroke:#000000;stroke-width:0.8;stroke-linecap:butt;stroke-linejoin:round;stroke-miterlimit:10;stroke-dasharray:none;stroke-opacity:1"
                id="path76"/>
        <g
                id="g78"
                transform="translate(114.925,219.46844)">
            <text
                    xml:space="preserve"
                    transform="scale(1,-1)"
                    style="font-variant:normal;font-weight:normal;font-size:20px;font-family:'DejaVu Sans';-inkscape-font-specification:DejaVuSans;writing-mode:lr-tb;fill:#000000;fill-opacity:1;fill-rule:nonzero;stroke:none"
                    id="text82"><tspan
           x="0 12.72 25.440001 38.16"
           y="0"
           id="tspan80">5500</tspan></text>
        </g>
        <path
                d="m 172.8,335.07 h -3.5"
                style="fill:#000000;fill-opacity:1;fill-rule:nonzero;stroke:#000000;stroke-width:0.8;stroke-linecap:butt;stroke-linejoin:round;stroke-miterlimit:10;stroke-dasharray:none;stroke-opacity:1"
                id="path84"/>
        <g
                id="g86"
                transform="translate(114.925,327.46844)">
            <text
                    xml:space="preserve"
                    transform="scale(1,-1)"
                    style="font-variant:normal;font-weight:normal;font-size:20px;font-family:'DejaVu Sans';-inkscape-font-specification:DejaVuSans;writing-mode:lr-tb;fill:#000000;fill-opacity:1;fill-rule:nonzero;stroke:none"
                    id="text90"><tspan
           x="0 12.72 25.440001 38.16"
           y="0"
           id="tspan88">6000</tspan></text>
        </g>
        <path
                d="m 172.8,443.07 h -3.5"
                style="fill:#000000;fill-opacity:1;fill-rule:nonzero;stroke:#000000;stroke-width:0.8;stroke-linecap:butt;stroke-linejoin:round;stroke-miterlimit:10;stroke-dasharray:none;stroke-opacity:1"
                id="path92"/>
        <g
                id="g94"
                transform="translate(114.925,435.46844)">
            <text
                    xml:space="preserve"
                    transform="scale(1,-1)"
                    style="font-variant:normal;font-weight:normal;font-size:20px;font-family:'DejaVu Sans';-inkscape-font-specification:DejaVuSans;writing-mode:lr-tb;fill:#000000;fill-opacity:1;fill-rule:nonzero;stroke:none"
                    id="text98"><tspan
           x="0 12.72 25.440001 38.16"
           y="0"
           id="tspan96">6500</tspan></text>
        </g>
        <path
                d="m 172.8,551.07 h -3.5"
                style="fill:#000000;fill-opacity:1;fill-rule:nonzero;stroke:#000000;stroke-width:0.8;stroke-linecap:butt;stroke-linejoin:round;stroke-miterlimit:10;stroke-dasharray:none;stroke-opacity:1"
                id="path100"/>
        <g
                id="g102"
                transform="translate(114.925,543.46844)">
            <text
                    xml:space="preserve"
                    transform="scale(1,-1)"
                    style="font-variant:normal;font-weight:normal;font-size:20px;font-family:'DejaVu Sans';-inkscape-font-specification:DejaVuSans;writing-mode:lr-tb;fill:#000000;fill-opacity:1;fill-rule:nonzero;stroke:none"
                    id="text106"><tspan
           x="0 12.72 25.440001 38.16"
           y="0"
           id="tspan104">7000</tspan></text>
        </g>
        <g
                id="g108"
                transform="rotate(90,-82.770781,189.53953)">
            <text
                    xml:space="preserve"
                    transform="scale(1,-1)"
                    style="font-variant:normal;font-weight:normal;font-size:20px;font-family:'DejaVu Sans';-inkscape-font-specification:DejaVuSans;writing-mode:lr-tb;fill:#000000;fill-opacity:1;fill-rule:nonzero;stroke:none"
                    id="text112"><tspan
           x="0 13.33625 24.33625 35.33625 47.576248 60.256248 72.936249 80.776253 87.136253 99.776253 112.47625 125.15625 130.71625 138.55624"
           y="0"
           id="tspan110">Account Equity</tspan></text>
        </g>
        <g
                id="g114">
            <g
                    id="g116"
                    clip-path="url(#clipPath120)">
                <path
                        d="m 221.49818,111.51 9.83802,-3.888 9.83801,-5.832 9.83802,20.736 9.83802,-5.184 9.83801,-9.72 9.83802,12.528 9.83802,10.8 9.83801,-6.48 9.83802,2.808 9.83802,19.872 9.83801,1.512 9.83802,-8.856 9.83802,-3.24 9.83801,6.912 9.83802,13.176 9.83802,0.648 9.83801,21.168 9.83802,-5.184 9.83802,0.648 9.83801,-7.776 9.83802,4.32 9.83801,7.776 9.83802,0.216 9.83802,17.496 9.83801,-1.944 9.83802,-7.344 9.83802,17.496 9.83801,16.848 9.83802,1.728 9.83802,-10.152 9.83801,-10.152 9.83802,11.232 9.83802,6.912 9.83801,5.184 9.83802,11.448 9.83802,5.832 9.83801,-1.512 9.83802,7.344 9.83802,19.872 9.83801,20.736 9.83802,7.344 9.83802,2.376 9.83801,-7.776 9.83802,-4.32 9.83802,6.048 9.83801,-6.696 9.83802,14.688 9.83802,10.152 9.83801,13.176 9.83802,0.648 9.83801,6.048 9.83802,-6.264 9.83802,16.416 9.83801,0.216 9.83802,14.688 9.83802,15.984 9.83801,-10.8 9.83802,-1.296 9.83802,14.904 9.83801,-3.456 9.83802,-1.08 9.83802,-2.808 9.83801,-9.72 9.83802,-0.432 9.83802,17.496 9.83801,-3.24 9.83802,13.392 9.83802,17.28 9.83801,4.752 9.83802,-7.344 9.83801,-6.264 9.83802,-6.912 9.83802,0.216 9.83801,-3.024 9.83802,-4.752 9.83802,14.472 9.83801,20.952 9.83802,15.768 9.83802,14.256 9.83801,17.928 9.838,10.8 9.838,7.128 9.8381,0.648 9.838,4.752 9.838,-2.808 9.838,6.696 h 9.838 l 9.838,19.656 9.8381,2.592 9.838,17.928 9.838,-4.752 9.838,13.392 9.838,-10.152 9.838,18.144 9.8381,17.064 9.838,14.256 9.838,15.336 9.838,-9.72 9.838,-8.856"
                        style="fill:none;stroke:#1f77b4;stroke-width:1.5;stroke-linecap:square;stroke-linejoin:round;stroke-miterlimit:10;stroke-dasharray:none;stroke-opacity:1"
                        id="path122"/>
            </g>
        </g>
        <g
                id="g124">
            <g
                    id="g126"
                    clip-path="url(#clipPath130)">
                <path
                        d="m 221.49818,123.39 9.83802,11.88 9.83801,19.44 9.83802,-0.216 9.83802,-0.648 9.83801,7.992 9.83802,18.792 9.83802,17.064 9.83801,18.36 9.83802,-5.4 9.83802,-1.512 9.83801,-7.344 9.83802,20.52 9.83802,-5.184 9.83801,12.744 9.83802,8.208 9.83802,-6.912 9.83801,-6.264 9.83802,-13.824 9.83802,15.552 9.83801,-21.6 9.83802,13.824 9.83801,0.864 9.83802,-8.208 9.83802,3.024 9.83801,-6.048 9.83802,-0.216 9.83802,9.288 9.83801,-3.672 9.83802,10.584 9.83802,-3.024 9.83801,-1.944 9.83802,8.64 h 9.83802 l 9.83801,14.688 9.83802,1.296 9.83802,-10.8 9.83801,20.52 9.83802,8.424 9.83802,19.44 9.83801,14.256 9.83802,-11.448 9.83802,-10.368 9.83801,-11.664 9.83802,11.232 9.83802,-10.584 9.83801,15.984 9.83802,4.536 9.83802,15.336 9.83801,3.672 9.83802,-108 9.83801,12.096 9.83802,19.224 9.83802,-4.32 9.83801,19.44 9.83802,-5.832 9.83802,9.504 9.83801,3.024 9.83802,13.176 9.83802,1.944 9.83801,2.808 9.83802,-12.312 9.83802,16.2 9.83801,2.16 9.83802,-5.4 9.83802,11.232 9.83801,13.176 9.83802,9.72 9.83802,4.32 9.83801,-7.344 9.83802,-86.4 9.83801,14.256 9.83802,-7.344 9.83802,10.152 9.83801,-6.48 9.83802,9.936 9.83802,2.376 9.83801,20.304 h 9.83802 l 9.83802,-15.12 h 9.83801 l 9.838,12.528 9.838,-6.048 9.8381,7.128 9.838,2.808 9.838,-10.8 9.838,18.36 9.838,5.4 9.838,-9.072 9.8381,-7.128 9.838,11.232 9.838,-3.024 9.838,17.496 9.838,18.36 9.838,-14.04 9.8381,4.536 9.838,20.952 9.838,20.736 9.838,8.64 9.838,15.768"
                        style="fill:none;stroke:#ff7f0e;stroke-width:1.5;stroke-linecap:square;stroke-linejoin:round;stroke-miterlimit:10;stroke-dasharray:none;stroke-opacity:1"
                        id="path132"/>
            </g>
        </g>
        <g
                id="g134">
            <path
                    d="M 172.8,77.22 V 617.76"
                    style="fill:none;stroke:#000000;stroke-width:0.8;stroke-linecap:square;stroke-linejoin:miter;stroke-miterlimit:10;stroke-dasharray:none;stroke-opacity:1"
                    id="path136"/>
            <path
                    d="M 1244.16,77.22 V 617.76"
                    style="fill:none;stroke:#000000;stroke-width:0.8;stroke-linecap:square;stroke-linejoin:miter;stroke-miterlimit:10;stroke-dasharray:none;stroke-opacity:1"
                    id="path138"/>
            <path
                    d="M 172.8,77.22 H 1244.16"
                    style="fill:none;stroke:#000000;stroke-width:0.8;stroke-linecap:square;stroke-linejoin:miter;stroke-miterlimit:10;stroke-dasharray:none;stroke-opacity:1"
                    id="path140"/>
            <path
                    d="M 172.8,617.76 H 1244.16"
                    style="fill:none;stroke:#000000;stroke-width:0.8;stroke-linecap:square;stroke-linejoin:miter;stroke-miterlimit:10;stroke-dasharray:none;stroke-opacity:1"
                    id="path142"/>
            <g
                    id="g144"
                    transform="translate(549.26125,623.76)">
                <text
                        xml:space="preserve"
                        transform="scale(1,-1)"
                        style="font-variant:normal;font-weight:normal;font-size:25px;font-family:'DejaVu Sans';-inkscape-font-specification:DejaVuSans;writing-mode:lr-tb;fill:#000000;fill-opacity:1;fill-rule:nonzero;stroke:none"
                        id="text148"><tspan
             x="0 15.8 31.674999 47.525002 54.474998 64.275002 79.074997 87.025002 104.475 120.325 130.60001 145.39999 160.77499 168.72501 186.175 201.47501 225.825 241.7 257.02499 267.29999 274.25 287.27499 302.57501"
             y="0"
             id="tspan146">Equity Curve Comparison</tspan></text>
            </g>
            <path
                    d="m 186.8,543.04125 h 290.65625 c 2.66667,0 4,1.33333 4,4 V 603.76 c 0,2.66667 -1.33333,4 -4,4 H 186.8 c -2.66667,0 -4,-1.33333 -4,-4 v -56.71875 c 0,-2.66667 1.33333,-4 4,-4 z"
                    style="fill:#ffffff;fill-opacity:0.8;fill-rule:nonzero;stroke:#cccccc;stroke-width:1;stroke-linecap:butt;stroke-linejoin:miter;stroke-miterlimit:10;stroke-dasharray:none;stroke-opacity:0.8"
                    id="path150"/>
            <path
                    d="m 190.8,591.55687 h 20 20"
                    style="fill:none;stroke:#1f77b4;stroke-width:1.5;stroke-linecap:square;stroke-linejoin:round;stroke-miterlimit:10;stroke-dasharray:none;stroke-opacity:1"
                    id="path152"/>
            <g
                    id="g154"
                    transform="translate(246.8,584.55687)">
                <text
                        xml:space="preserve"
                        transform="scale(1,-1)"
                        style="font-variant:normal;font-weight:normal;font-size:20px;font-family:'DejaVu Sans';-inkscape-font-specification:DejaVuSans;writing-mode:lr-tb;fill:#000000;fill-opacity:1;fill-rule:nonzero;stroke:none"
                        id="text158"><tspan
             x="0 11.71625 19.498751 31.79875 38.838749 51.138748 59.014999 66.797501 79.097504 91.797501 98.157501 110.7975 123.4975 136.17751 141.7375 149.5775 161.4175 167.7775 181.7375 194.4175 202.6375 214.47749"
             y="0"
             id="tspan156">Preferred Equity Curve</tspan></text>
            </g>
            <path
                    d="m 190.8,562.1975 h 20 20"
                    style="fill:none;stroke:#ff7f0e;stroke-width:1.5;stroke-linecap:square;stroke-linejoin:round;stroke-miterlimit:10;stroke-dasharray:none;stroke-opacity:1"
                    id="path160"/>
            <g
                    id="g162"
                    transform="translate(246.8,555.1975)">
                <text
                        xml:space="preserve"
                        transform="scale(1,-1)"
                        style="font-variant:normal;font-weight:normal;font-size:20px;font-family:'DejaVu Sans';-inkscape-font-specification:DejaVuSans;writing-mode:lr-tb;fill:#000000;fill-opacity:1;fill-rule:nonzero;stroke:none"
                        id="text166"><tspan
             x="0 12.133125 24.373125 29.933125 42.193127 50.033127 55.593124 61.153126 73.453125 79.813126 92.453125 105.15312 117.83312 123.39313 131.23312 143.07312 149.43312 163.39313 176.07312 184.29312 196.13312"
             y="0"
             id="tspan164">Volatile Equity Curve</tspan></text>
            </g>
        </g>
    </g>
</svg>
