<svg xmlns="http://www.w3.org/2000/svg" contentStyleType="text/css"
     height="776px" preserveAspectRatio="none" style="width:1584px;height:776px;background:#FFFFFF;" version="1.1"
     viewBox="0 0 1584 776" width="1584px" zoomAndPan="magnify">
    <defs/>
    <g><!--cluster Trading Engine-->
        <g id="cluster_Trading Engine">
            <path d="M315.6,124.0172 L444.4898,124.0172 A3,3 0 0 1 446.4898,126.0172 L452.0898,152.2266 L1381.2,152.2266 A2,2 0 0 1 1383.2,154.2266 L1383.2,621.2172 A2,2 0 0 1 1381.2,623.2172 L315.6,623.2172 A2,2 0 0 1 313.6,621.2172 L313.6,126.0172 A2,2 0 0 1 315.6,124.0172 "
                  fill="none" style="stroke:#000000;stroke-width:1.2000000000000002;"/>
            <line style="stroke:#000000;stroke-width:1.2000000000000002;" x1="313.6" x2="452.0898" y1="152.2266"
                  y2="152.2266"/>
            <text fill="#000000" font-family="sans-serif" font-size="17.6" font-weight="bold" lengthAdjust="spacing"
                  textLength="128.0898" x="316.8" y="144.6094">Trading Engine
            </text>
        </g><!--cluster Applications-->
        <g id="cluster_Applications">
            <path d="M554,6.4172 L660.4086,6.4172 A3,3 0 0 1 662.4086,8.4172 L668.0086,34.6266 L1002.8,34.6266 A2,2 0 0 1 1004.8,36.6266 L1004.8,102.8172 A2,2 0 0 1 1002.8,104.8172 L554,104.8172 A2,2 0 0 1 552,102.8172 L552,8.4172 A2,2 0 0 1 554,6.4172 "
                  fill="none" style="stroke:#000000;stroke-width:1.2000000000000002;"/>
            <line style="stroke:#000000;stroke-width:1.2000000000000002;" x1="552" x2="668.0086" y1="34.6266"
                  y2="34.6266"/>
            <text fill="#000000" font-family="sans-serif" font-size="17.6" font-weight="bold" lengthAdjust="spacing"
                  textLength="105.6086" x="555.2" y="27.0094">Applications
            </text>
        </g><!--cluster Adapters-->
        <g id="cluster_Adapters">
            <path d="M6.8,672.0172 L83.8867,672.0172 A3,3 0 0 1 85.8867,674.0172 L91.4867,700.2266 L1576.4,700.2266 A2,2 0 0 1 1578.4,702.2266 L1578.4,768.4172 A2,2 0 0 1 1576.4,770.4172 L6.8,770.4172 A2,2 0 0 1 4.8,768.4172 L4.8,674.0172 A2,2 0 0 1 6.8,672.0172 "
                  fill="none" style="stroke:#000000;stroke-width:1.2000000000000002;"/>
            <line style="stroke:#000000;stroke-width:1.2000000000000002;" x1="4.8" x2="91.4867" y1="700.2266"
                  y2="700.2266"/>
            <text fill="#000000" font-family="sans-serif" font-size="17.6" font-weight="bold" lengthAdjust="spacing"
                  textLength="76.2867" x="8" y="692.6094">Adapters
            </text>
        </g><!--entity Data-Provider-->
        <g id="elem_Data-Provider">
            <ellipse cx="896" cy="576.8172" fill="#F1F1F1" rx="6.4" ry="6.4"
                     style="stroke:#181818;stroke-width:0.4000000000000001;"/>
            <text fill="#000000" font-family="sans-serif" font-size="17.6" lengthAdjust="spacing" textLength="108.5734"
                  x="841.7133" y="609.4094">Data-Provider
            </text>
        </g><!--entity Trading-Strategy-->
        <g id="elem_Trading-Strategy">
            <ellipse cx="397.6" cy="576.8172" fill="#F1F1F1" rx="6.4" ry="6.4"
                     style="stroke:#181818;stroke-width:0.4000000000000001;"/>
            <text fill="#000000" font-family="sans-serif" font-size="17.6" lengthAdjust="spacing" textLength="131.0805"
                  x="332.0598" y="609.4094">Trading-Strategy
            </text>
        </g><!--entity Broker-Requestor-->
        <g id="elem_Broker-Requestor">
            <ellipse cx="572" cy="576.8172" fill="#F1F1F1" rx="6.4" ry="6.4"
                     style="stroke:#181818;stroke-width:0.4000000000000001;"/>
            <text fill="#000000" font-family="sans-serif" font-size="17.6" lengthAdjust="spacing" textLength="138.9008"
                  x="502.5496" y="609.4094">Broker-Requestor
            </text>
        </g><!--entity Trade-Executor-->
        <g id="elem_Trade-Executor">
            <ellipse cx="741.6" cy="576.8172" fill="#F1F1F1" rx="6.4" ry="6.4"
                     style="stroke:#181818;stroke-width:0.4000000000000001;"/>
            <text fill="#000000" font-family="sans-serif" font-size="17.6" lengthAdjust="spacing" textLength="121.2922"
                  x="680.9539" y="609.4094">Trade-Executor
            </text>
        </g><!--entity Entry-Signal-Adaptor-->
        <g id="elem_Entry-Signal-Adaptor">
            <ellipse cx="1282.4" cy="576.8172" fill="#F1F1F1" rx="6.4" ry="6.4"
                     style="stroke:#181818;stroke-width:0.4000000000000001;"/>
            <text fill="#000000" font-family="sans-serif" font-size="17.6" lengthAdjust="spacing" textLength="163.3672"
                  x="1200.7164" y="609.4094">Entry-Signal-Adaptor
            </text>
        </g><!--entity Entry-Signal-Validator-->
        <g id="elem_Entry-Signal-Validator">
            <ellipse cx="1075.2" cy="576.8172" fill="#F1F1F1" rx="6.4" ry="6.4"
                     style="stroke:#181818;stroke-width:0.4000000000000001;"/>
            <text fill="#000000" font-family="sans-serif" font-size="17.6" lengthAdjust="spacing" textLength="171.1875"
                  x="989.6063" y="609.4094">Entry-Signal-Validator
            </text>
        </g><!--entity Strategy-Engine-->
        <g id="elem_Strategy-Engine">
            <rect fill="#F1F1F1" height="47.4094" rx="2" ry="2" style="stroke:#181818;stroke-width:0.4000000000000001;"
                  width="158.2078" x="706.4" y="352.8172"/>
            <rect fill="#F1F1F1" height="8" style="stroke:#181818;stroke-width:0.4000000000000001;" width="12"
                  x="848.6078" y="356.8172"/>
            <rect fill="#F1F1F1" height="1.6" style="stroke:#181818;stroke-width:0.4000000000000001;" width="3.2"
                  x="847.0078" y="358.4172"/>
            <rect fill="#F1F1F1" height="1.6" style="stroke:#181818;stroke-width:0.4000000000000001;" width="3.2"
                  x="847.0078" y="361.6172"/>
            <text fill="#000000" font-family="sans-serif" font-size="17.6" lengthAdjust="spacing" textLength="126.2078"
                  x="718.4" y="387.8094">Strategy-Engine
            </text>
        </g><!--entity Datasource-API-->
        <g id="elem_Datasource-API">
            <rect fill="#F1F1F1" height="47.4094" rx="2" ry="2" style="stroke:#181818;stroke-width:0.4000000000000001;"
                  width="156.2313" x="812.4" y="448.0172"/>
            <rect fill="#F1F1F1" height="8" style="stroke:#181818;stroke-width:0.4000000000000001;" width="12"
                  x="952.6313" y="452.0172"/>
            <rect fill="#F1F1F1" height="1.6" style="stroke:#181818;stroke-width:0.4000000000000001;" width="3.2"
                  x="951.0313" y="453.6172"/>
            <rect fill="#F1F1F1" height="1.6" style="stroke:#181818;stroke-width:0.4000000000000001;" width="3.2"
                  x="951.0313" y="456.8172"/>
            <text fill="#000000" font-family="sans-serif" font-size="17.6" lengthAdjust="spacing" textLength="124.2313"
                  x="824.4" y="483.0094">Datasource-API
            </text>
        </g><!--entity Strategies-API-->
        <g id="elem_Strategies-API">
            <rect fill="#F1F1F1" height="47.4094" rx="2" ry="2" style="stroke:#181818;stroke-width:0.4000000000000001;"
                  width="145.4719" x="368.8" y="448.0172"/>
            <rect fill="#F1F1F1" height="8" style="stroke:#181818;stroke-width:0.4000000000000001;" width="12"
                  x="498.2719" y="452.0172"/>
            <rect fill="#F1F1F1" height="1.6" style="stroke:#181818;stroke-width:0.4000000000000001;" width="3.2"
                  x="496.6719" y="453.6172"/>
            <rect fill="#F1F1F1" height="1.6" style="stroke:#181818;stroke-width:0.4000000000000001;" width="3.2"
                  x="496.6719" y="456.8172"/>
            <text fill="#000000" font-family="sans-serif" font-size="17.6" lengthAdjust="spacing" textLength="113.4719"
                  x="380.8" y="483.0094">Strategies-API
            </text>
        </g><!--entity Broker-Connector-API-->
        <g id="elem_Broker-Connector-API">
            <rect fill="#F1F1F1" height="47.4094" rx="2" ry="2" style="stroke:#181818;stroke-width:0.4000000000000001;"
                  width="205.1297" x="579.2" y="448.0172"/>
            <rect fill="#F1F1F1" height="8" style="stroke:#181818;stroke-width:0.4000000000000001;" width="12"
                  x="768.3297" y="452.0172"/>
            <rect fill="#F1F1F1" height="1.6" style="stroke:#181818;stroke-width:0.4000000000000001;" width="3.2"
                  x="766.7297" y="453.6172"/>
            <rect fill="#F1F1F1" height="1.6" style="stroke:#181818;stroke-width:0.4000000000000001;" width="3.2"
                  x="766.7297" y="456.8172"/>
            <text fill="#000000" font-family="sans-serif" font-size="17.6" lengthAdjust="spacing" textLength="173.1297"
                  x="591.2" y="483.0094">Broker-Connector-API
            </text>
        </g><!--entity Management-API-->
        <g id="elem_Management-API">
            <rect fill="#F1F1F1" height="47.4094" rx="2" ry="2" style="stroke:#181818;stroke-width:0.4000000000000001;"
                  width="168.9586" x="996.4" y="448.0172"/>
            <rect fill="#F1F1F1" height="8" style="stroke:#181818;stroke-width:0.4000000000000001;" width="12"
                  x="1149.3586" y="452.0172"/>
            <rect fill="#F1F1F1" height="1.6" style="stroke:#181818;stroke-width:0.4000000000000001;" width="3.2"
                  x="1147.7586" y="453.6172"/>
            <rect fill="#F1F1F1" height="1.6" style="stroke:#181818;stroke-width:0.4000000000000001;" width="3.2"
                  x="1147.7586" y="456.8172"/>
            <text fill="#000000" font-family="sans-serif" font-size="17.6" lengthAdjust="spacing" textLength="136.9586"
                  x="1008.4" y="483.0094">Management-API
            </text>
        </g><!--entity Backtest-Engine-->
        <g id="elem_Backtest-Engine">
            <rect fill="#F1F1F1" height="47.4094" rx="2" ry="2" style="stroke:#181818;stroke-width:0.4000000000000001;"
                  width="160.1586" x="836.8" y="257.6172"/>
            <rect fill="#F1F1F1" height="8" style="stroke:#181818;stroke-width:0.4000000000000001;" width="12"
                  x="980.9586" y="261.6172"/>
            <rect fill="#F1F1F1" height="1.6" style="stroke:#181818;stroke-width:0.4000000000000001;" width="3.2"
                  x="979.3586" y="263.2172"/>
            <rect fill="#F1F1F1" height="1.6" style="stroke:#181818;stroke-width:0.4000000000000001;" width="3.2"
                  x="979.3586" y="266.4172"/>
            <text fill="#000000" font-family="sans-serif" font-size="17.6" lengthAdjust="spacing" textLength="128.1586"
                  x="848.8" y="292.6094">Backtest-Engine
            </text>
        </g><!--entity Remote-Execution-Engine-->
        <g id="elem_Remote-Execution-Engine">
            <rect fill="#F1F1F1" height="47.4094" rx="2" ry="2" style="stroke:#181818;stroke-width:0.4000000000000001;"
                  width="237.4422" x="535.6" y="257.6172"/>
            <rect fill="#F1F1F1" height="8" style="stroke:#181818;stroke-width:0.4000000000000001;" width="12"
                  x="757.0422" y="261.6172"/>
            <rect fill="#F1F1F1" height="1.6" style="stroke:#181818;stroke-width:0.4000000000000001;" width="3.2"
                  x="755.4422" y="263.2172"/>
            <rect fill="#F1F1F1" height="1.6" style="stroke:#181818;stroke-width:0.4000000000000001;" width="3.2"
                  x="755.4422" y="266.4172"/>
            <text fill="#000000" font-family="sans-serif" font-size="17.6" lengthAdjust="spacing" textLength="205.4422"
                  x="547.6" y="292.6094">Remote-Execution-Engine
            </text>
        </g><!--entity Abstract-Local-Backtest-App-->
        <g id="elem_Abstract-Local-Backtest-App">
            <rect fill="#F1F1F1" height="47.4094" rx="2" ry="2" style="stroke:#181818;stroke-width:0.4000000000000001;"
                  width="255.025" x="806.8" y="162.4172"/>
            <rect fill="#F1F1F1" height="8" style="stroke:#181818;stroke-width:0.4000000000000001;" width="12"
                  x="1045.825" y="166.4172"/>
            <rect fill="#F1F1F1" height="1.6" style="stroke:#181818;stroke-width:0.4000000000000001;" width="3.2"
                  x="1044.225" y="168.0172"/>
            <rect fill="#F1F1F1" height="1.6" style="stroke:#181818;stroke-width:0.4000000000000001;" width="3.2"
                  x="1044.225" y="171.2172"/>
            <text fill="#000000" font-family="sans-serif" font-size="17.6" lengthAdjust="spacing" textLength="223.025"
                  x="818.8" y="197.4094">Abstract-Local-Backtest-App
            </text>
        </g><!--entity Abstract-Remote-Execution-App-->
        <g id="elem_Abstract-Remote-Execution-App">
            <rect fill="#F1F1F1" height="47.4094" rx="2" ry="2" style="stroke:#181818;stroke-width:0.4000000000000001;"
                  width="284.3727" x="494.8" y="162.4172"/>
            <rect fill="#F1F1F1" height="8" style="stroke:#181818;stroke-width:0.4000000000000001;" width="12"
                  x="763.1727" y="166.4172"/>
            <rect fill="#F1F1F1" height="1.6" style="stroke:#181818;stroke-width:0.4000000000000001;" width="3.2"
                  x="761.5727" y="168.0172"/>
            <rect fill="#F1F1F1" height="1.6" style="stroke:#181818;stroke-width:0.4000000000000001;" width="3.2"
                  x="761.5727" y="171.2172"/>
            <text fill="#000000" font-family="sans-serif" font-size="17.6" lengthAdjust="spacing" textLength="252.3727"
                  x="506.8" y="197.4094">Abstract-Remote-Execution-App
            </text>
        </g><!--entity Local-Backtest-App-->
        <g id="elem_Local-Backtest-App">
            <rect fill="#F1F1F1" height="47.4094" rx="2" ry="2" style="stroke:#181818;stroke-width:0.4000000000000001;"
                  width="184.6078" x="806.8" y="44.8172"/>
            <rect fill="#F1F1F1" height="8" style="stroke:#181818;stroke-width:0.4000000000000001;" width="12"
                  x="975.4078" y="48.8172"/>
            <rect fill="#F1F1F1" height="1.6" style="stroke:#181818;stroke-width:0.4000000000000001;" width="3.2"
                  x="973.8078" y="50.4172"/>
            <rect fill="#F1F1F1" height="1.6" style="stroke:#181818;stroke-width:0.4000000000000001;" width="3.2"
                  x="973.8078" y="53.6172"/>
            <text fill="#000000" font-family="sans-serif" font-size="17.6" lengthAdjust="spacing" textLength="152.6078"
                  x="818.8" y="79.8094">Local-Backtest-App
            </text>
        </g><!--entity Remote-Execution-App-->
        <g id="elem_Remote-Execution-App">
            <rect fill="#F1F1F1" height="47.4094" rx="2" ry="2" style="stroke:#181818;stroke-width:0.4000000000000001;"
                  width="213.9555" x="565.2" y="44.8172"/>
            <rect fill="#F1F1F1" height="8" style="stroke:#181818;stroke-width:0.4000000000000001;" width="12"
                  x="763.1555" y="48.8172"/>
            <rect fill="#F1F1F1" height="1.6" style="stroke:#181818;stroke-width:0.4000000000000001;" width="3.2"
                  x="761.5555" y="50.4172"/>
            <rect fill="#F1F1F1" height="1.6" style="stroke:#181818;stroke-width:0.4000000000000001;" width="3.2"
                  x="761.5555" y="53.6172"/>
            <text fill="#000000" font-family="sans-serif" font-size="17.6" lengthAdjust="spacing" textLength="181.9555"
                  x="577.2" y="79.8094">Remote-Execution-App
            </text>
        </g><!--entity Local-CSV-Datasource-->
        <g id="elem_Local-CSV-Datasource">
            <rect fill="#F1F1F1" height="47.4094" rx="2" ry="2" style="stroke:#181818;stroke-width:0.4000000000000001;"
                  width="211.9875" x="790" y="710.4172"/>
            <rect fill="#F1F1F1" height="8" style="stroke:#181818;stroke-width:0.4000000000000001;" width="12"
                  x="985.9875" y="714.4172"/>
            <rect fill="#F1F1F1" height="1.6" style="stroke:#181818;stroke-width:0.4000000000000001;" width="3.2"
                  x="984.3875" y="716.0172"/>
            <rect fill="#F1F1F1" height="1.6" style="stroke:#181818;stroke-width:0.4000000000000001;" width="3.2"
                  x="984.3875" y="719.2172"/>
            <text fill="#000000" font-family="sans-serif" font-size="17.6" lengthAdjust="spacing" textLength="179.9875"
                  x="802" y="745.4094">Local-CSV-Datasource
            </text>
        </g><!--entity ByBit-Remote-Datasource-->
        <g id="elem_ByBit-Remote-Datasource">
            <rect fill="#F1F1F1" height="47.4094" rx="2" ry="2" style="stroke:#181818;stroke-width:0.4000000000000001;"
                  width="236.4281" x="1030.4" y="710.4172"/>
            <rect fill="#F1F1F1" height="8" style="stroke:#181818;stroke-width:0.4000000000000001;" width="12"
                  x="1250.8281" y="714.4172"/>
            <rect fill="#F1F1F1" height="1.6" style="stroke:#181818;stroke-width:0.4000000000000001;" width="3.2"
                  x="1249.2281" y="716.0172"/>
            <rect fill="#F1F1F1" height="1.6" style="stroke:#181818;stroke-width:0.4000000000000001;" width="3.2"
                  x="1249.2281" y="719.2172"/>
            <text fill="#000000" font-family="sans-serif" font-size="17.6" lengthAdjust="spacing" textLength="204.4281"
                  x="1042.4" y="745.4094">ByBit-Remote-Datasource
            </text>
        </g><!--entity Strategies-Implementations-->
        <g id="elem_Strategies-Implementations">
            <rect fill="#F1F1F1" height="47.4094" rx="2" ry="2" style="stroke:#181818;stroke-width:0.4000000000000001;"
                  width="246.2336" x="17.6" y="710.4172"/>
            <rect fill="#F1F1F1" height="8" style="stroke:#181818;stroke-width:0.4000000000000001;" width="12"
                  x="247.8336" y="714.4172"/>
            <rect fill="#F1F1F1" height="1.6" style="stroke:#181818;stroke-width:0.4000000000000001;" width="3.2"
                  x="246.2336" y="716.0172"/>
            <rect fill="#F1F1F1" height="1.6" style="stroke:#181818;stroke-width:0.4000000000000001;" width="3.2"
                  x="246.2336" y="719.2172"/>
            <text fill="#000000" font-family="sans-serif" font-size="17.6" lengthAdjust="spacing" textLength="214.2336"
                  x="29.6" y="745.4094">Strategies-Implementations
            </text>
        </g><!--entity Demo-Broker-Connector-->
        <g id="elem_Demo-Broker-Connector">
            <rect fill="#F1F1F1" height="47.4094" rx="2" ry="2" style="stroke:#181818;stroke-width:0.4000000000000001;"
                  width="223.7094" x="292" y="710.4172"/>
            <rect fill="#F1F1F1" height="8" style="stroke:#181818;stroke-width:0.4000000000000001;" width="12"
                  x="499.7094" y="714.4172"/>
            <rect fill="#F1F1F1" height="1.6" style="stroke:#181818;stroke-width:0.4000000000000001;" width="3.2"
                  x="498.1094" y="716.0172"/>
            <rect fill="#F1F1F1" height="1.6" style="stroke:#181818;stroke-width:0.4000000000000001;" width="3.2"
                  x="498.1094" y="719.2172"/>
            <text fill="#000000" font-family="sans-serif" font-size="17.6" lengthAdjust="spacing" textLength="191.7094"
                  x="304" y="745.4094">Demo-Broker-Connector
            </text>
        </g><!--entity ByBit-Broker-Connector-->
        <g id="elem_ByBit-Broker-Connector">
            <rect fill="#F1F1F1" height="47.4094" rx="2" ry="2" style="stroke:#181818;stroke-width:0.4000000000000001;"
                  width="217.8398" x="544" y="710.4172"/>
            <rect fill="#F1F1F1" height="8" style="stroke:#181818;stroke-width:0.4000000000000001;" width="12"
                  x="745.8398" y="714.4172"/>
            <rect fill="#F1F1F1" height="1.6" style="stroke:#181818;stroke-width:0.4000000000000001;" width="3.2"
                  x="744.2398" y="716.0172"/>
            <rect fill="#F1F1F1" height="1.6" style="stroke:#181818;stroke-width:0.4000000000000001;" width="3.2"
                  x="744.2398" y="719.2172"/>
            <text fill="#000000" font-family="sans-serif" font-size="17.6" lengthAdjust="spacing" textLength="185.8398"
                  x="556" y="745.4094">ByBit-Broker-Connector
            </text>
        </g><!--entity Management-Implementations-->
        <g id="elem_Management-Implementations">
            <rect fill="#F1F1F1" height="47.4094" rx="2" ry="2" style="stroke:#181818;stroke-width:0.4000000000000001;"
                  width="269.7203" x="1295.6" y="710.4172"/>
            <rect fill="#F1F1F1" height="8" style="stroke:#181818;stroke-width:0.4000000000000001;" width="12"
                  x="1549.3203" y="714.4172"/>
            <rect fill="#F1F1F1" height="1.6" style="stroke:#181818;stroke-width:0.4000000000000001;" width="3.2"
                  x="1547.7203" y="716.0172"/>
            <rect fill="#F1F1F1" height="1.6" style="stroke:#181818;stroke-width:0.4000000000000001;" width="3.2"
                  x="1547.7203" y="719.2172"/>
            <text fill="#000000" font-family="sans-serif" font-size="17.6" lengthAdjust="spacing" textLength="237.7203"
                  x="1307.6" y="745.4094">Management-Implementations
            </text>
        </g><!--link Datasource-API to Data-Provider-->
        <g id="link_Datasource-API_Data-Provider">
            <path d="M891.64,495.4092 C892.928,519.2572 894.864,555.0412 895.648,569.5532 " fill="none"
                  id="Datasource-API-Data-Provider" style="stroke:#181818;stroke-width:0.8000000000000002;"/>
        </g><!--link Strategies-API to Trading-Strategy-->
        <g id="link_Strategies-API_Trading-Strategy">
            <path d="M431.832,495.4092 C421.704,519.2572 406.512,555.0412 400.344,569.5532 " fill="none"
                  id="Strategies-API-Trading-Strategy" style="stroke:#181818;stroke-width:0.8000000000000002;"/>
        </g><!--link Broker-Connector-API to Broker-Requestor-->
        <g id="link_Broker-Connector-API_Broker-Requestor">
            <path d="M657.28,495.4092 C632.048,519.2572 594.192,555.0412 578.832,569.5532 " fill="none"
                  id="Broker-Connector-API-Broker-Requestor" style="stroke:#181818;stroke-width:0.8000000000000002;"/>
        </g><!--link Broker-Connector-API to Trade-Executor-->
        <g id="link_Broker-Connector-API_Trade-Executor">
            <path d="M694.912,495.4092 C708.728,519.2572 729.448,555.0412 737.856,569.5532 " fill="none"
                  id="Broker-Connector-API-Trade-Executor" style="stroke:#181818;stroke-width:0.8000000000000002;"/>
        </g><!--link Management-API to Entry-Signal-Adaptor-->
        <g id="link_Management-API_Entry-Signal-Adaptor">
            <path d="M1125.288,495.2812 C1174.92,520.7852 1251.36,560.0652 1275.112,572.2732 " fill="none"
                  id="Management-API-Entry-Signal-Adaptor" style="stroke:#181818;stroke-width:0.8000000000000002;"/>
        </g><!--link Management-API to Entry-Signal-Validator-->
        <g id="link_Management-API_Entry-Signal-Validator">
            <path d="M1079.56,495.4092 C1078.272,519.2572 1076.336,555.0412 1075.552,569.5532 " fill="none"
                  id="Management-API-Entry-Signal-Validator" style="stroke:#181818;stroke-width:0.8000000000000002;"/>
        </g><!--link Backtest-Engine to Strategy-Engine-->
        <g id="link_Backtest-Engine_Strategy-Engine">
            <path d="M884.704,304.9132 C864.296,319.4732 841.8834,335.4613 821.4994,350.0053 " fill="none"
                  id="Backtest-Engine-to-Strategy-Engine"
                  style="stroke:#181818;stroke-width:0.8000000000000002;stroke-dasharray:7.0,7.0;"/>
            <polygon fill="#181818"
                     points="817.592,352.7932,825.3117,351.2162,820.8481,350.4699,821.5944,346.0064,817.592,352.7932"
                     style="stroke:#181818;stroke-width:0.8000000000000002;"/>
        </g><!--link Remote-Execution-Engine to Strategy-Engine-->
        <g id="link_Remote-Execution-Engine_Strategy-Engine">
            <path d="M686.496,304.9132 C706.904,319.4732 729.3166,335.4613 749.7006,350.0053 " fill="none"
                  id="Remote-Execution-Engine-to-Strategy-Engine"
                  style="stroke:#181818;stroke-width:0.8000000000000002;stroke-dasharray:7.0,7.0;"/>
            <polygon fill="#181818"
                     points="753.608,352.7932,749.6056,346.0064,750.3519,350.4699,745.8883,351.2162,753.608,352.7932"
                     style="stroke:#181818;stroke-width:0.8000000000000002;"/>
        </g><!--link Abstract-Local-Backtest-App to Backtest-Engine-->
        <g id="link_Abstract-Local-Backtest-App_Backtest-Engine">
            <path d="M930.096,209.7132 C927.368,224.2172 924.7448,238.1962 922.0088,252.7162 " fill="none"
                  id="Abstract-Local-Backtest-App-to-Backtest-Engine"
                  style="stroke:#181818;stroke-width:0.8000000000000002;stroke-dasharray:7.0,7.0;"/>
            <polygon fill="#181818"
                     points="921.12,257.4332,925.5979,250.9502,921.8607,253.5024,919.3086,249.7652,921.12,257.4332"
                     style="stroke:#181818;stroke-width:0.8000000000000002;"/>
        </g><!--link Abstract-Remote-Execution-App to Remote-Execution-Engine-->
        <g id="link_Abstract-Remote-Execution-App_Remote-Execution-Engine">
            <path d="M641.104,209.7132 C643.832,224.2172 646.4552,238.1962 649.1912,252.7162 " fill="none"
                  id="Abstract-Remote-Execution-App-to-Remote-Execution-Engine"
                  style="stroke:#181818;stroke-width:0.8000000000000002;stroke-dasharray:7.0,7.0;"/>
            <polygon fill="#181818"
                     points="650.08,257.4332,651.8914,249.7652,649.3393,253.5024,645.6021,250.9502,650.08,257.4332"
                     style="stroke:#181818;stroke-width:0.8000000000000002;"/>
        </g><!--link Local-Backtest-App to Abstract-Local-Backtest-App-->
        <g id="link_Local-Backtest-App_Abstract-Local-Backtest-App">
            <path d="M906.152,92.1372 C912.328,112.4732 919.9018,137.4321 926.0698,157.7521 " fill="none"
                  id="Local-Backtest-App-to-Abstract-Local-Backtest-App"
                  style="stroke:#181818;stroke-width:0.8000000000000002;stroke-dasharray:7.0,7.0;"/>
            <polygon fill="#181818"
                     points="927.464,162.3452,928.4348,154.5261,926.3022,158.5176,922.3107,156.3851,927.464,162.3452"
                     style="stroke:#181818;stroke-width:0.8000000000000002;"/>
        </g><!--link Remote-Execution-App to Abstract-Remote-Execution-App-->
        <g id="link_Remote-Execution-App_Abstract-Remote-Execution-App">
            <path d="M665.048,92.1372 C658.872,112.4732 651.2982,137.4321 645.1302,157.7521 " fill="none"
                  id="Remote-Execution-App-to-Abstract-Remote-Execution-App"
                  style="stroke:#181818;stroke-width:0.8000000000000002;stroke-dasharray:7.0,7.0;"/>
            <polygon fill="#181818"
                     points="643.736,162.3452,648.8893,156.3851,644.8978,158.5176,642.7652,154.5261,643.736,162.3452"
                     style="stroke:#181818;stroke-width:0.8000000000000002;"/>
        </g><!--link Strategy-Engine to Datasource-API-->
        <g id="link_Strategy-Engine_Datasource-API">
            <path d="M811.24,400.1132 C827.48,414.6172 844.8281,430.1156 861.0841,444.6356 " fill="none"
                  id="Strategy-Engine-to-Datasource-API"
                  style="stroke:#181818;stroke-width:0.8000000000000002;stroke-dasharray:7.0,7.0;"/>
            <polygon fill="#181818"
                     points="864.664,447.8332,861.4259,440.6502,861.6808,445.1685,857.1625,445.4234,864.664,447.8332"
                     style="stroke:#181818;stroke-width:0.8000000000000002;"/>
        </g><!--link Strategy-Engine to Strategies-API-->
        <g id="link_Strategy-Engine_Strategies-API">
            <path d="M706.248,398.8092 C648.504,414.5212 575.5437,434.3733 519.3117,449.6693 " fill="none"
                  id="Strategy-Engine-to-Strategies-API"
                  style="stroke:#181818;stroke-width:0.8000000000000002;stroke-dasharray:7.0,7.0;"/>
            <polygon fill="#181818"
                     points="514.68,450.9292,522.4675,452.1271,518.5398,449.8793,520.7876,445.9515,514.68,450.9292"
                     style="stroke:#181818;stroke-width:0.8000000000000002;"/>
        </g><!--link Strategy-Engine to Broker-Connector-API-->
        <g id="link_Strategy-Engine_Broker-Connector-API">
            <path d="M760.16,400.1132 C744.04,414.6172 726.8401,430.1025 710.7041,444.6225 " fill="none"
                  id="Strategy-Engine-to-Broker-Connector-API"
                  style="stroke:#181818;stroke-width:0.8000000000000002;stroke-dasharray:7.0,7.0;"/>
            <polygon fill="#181818"
                     points="707.136,447.8332,714.6286,445.3958,710.1094,445.1576,710.3476,440.6384,707.136,447.8332"
                     style="stroke:#181818;stroke-width:0.8000000000000002;"/>
        </g><!--link Strategy-Engine to Management-API-->
        <g id="link_Strategy-Engine_Management-API">
            <path d="M857.816,400.1132 C903.728,414.6732 958.3765,431.9985 1004.2485,446.5425 " fill="none"
                  id="Strategy-Engine-to-Management-API"
                  style="stroke:#181818;stroke-width:0.8000000000000002;stroke-dasharray:7.0,7.0;"/>
            <polygon fill="#181818"
                     points="1008.824,447.9932,1002.9278,442.7668,1005.0111,446.7843,1000.9936,448.8675,1008.824,447.9932"
                     style="stroke:#181818;stroke-width:0.8000000000000002;"/>
        </g><!--reverse link Entry-Signal-Adaptor to Management-Implementations-->
        <g id="link_Entry-Signal-Adaptor_Management-Implementations">
            <path d="M1292.0684,587.7829 C1312.5404,609.3029 1374.08,674.0092 1408.48,710.1772 " fill="none"
                  id="Entry-Signal-Adaptor-backto-Management-Implementations"
                  style="stroke:#181818;stroke-width:0.8000000000000002;"/>
            <polygon fill="#181818"
                     points="1288.76,584.3052,1291.4041,591.7274,1291.517,587.2033,1296.0411,587.3162,1288.76,584.3052"
                     style="stroke:#181818;stroke-width:0.8000000000000002;"/>
        </g><!--reverse link Entry-Signal-Validator to Management-Implementations-->
        <g id="link_Entry-Signal-Validator_Management-Implementations">
            <path d="M1086.7164,583.8409 C1103.6764,592.9529 1142.968,613.6092 1180.8,629.6172 C1224.608,648.1532 1237.504,647.7612 1281.6,665.6172 C1315.792,679.4572 1353.624,696.6732 1382.592,710.2732 "
                  fill="none" id="Entry-Signal-Validator-backto-Management-Implementations"
                  style="stroke:#181818;stroke-width:0.8000000000000002;"/>
            <polygon fill="#181818"
                     points="1082.488,581.5692,1087.3161,587.7957,1086.0116,583.4623,1090.3451,582.1579,1082.488,581.5692"
                     style="stroke:#181818;stroke-width:0.8000000000000002;"/>
        </g><!--reverse link Data-Provider to Local-CSV-Datasource-->
        <g id="link_Data-Provider_Local-CSV-Datasource">
            <path d="M896,589.1052 C896,610.6252 896,674.0092 896,710.1772 " fill="none"
                  id="Data-Provider-backto-Local-CSV-Datasource"
                  style="stroke:#181818;stroke-width:0.8000000000000002;"/>
            <polygon fill="#181818" points="896,584.3052,892.8,591.5052,896,588.3052,899.2,591.5052,896,584.3052"
                     style="stroke:#181818;stroke-width:0.8000000000000002;"/>
        </g><!--reverse link Data-Provider to ByBit-Remote-Datasource-->
        <g id="link_Data-Provider_ByBit-Remote-Datasource">
            <path d="M907.1221,585.8381 C920.2661,595.5101 945.16,613.5052 970.4,629.6172 C1016.288,658.9052 1070.576,689.9372 1107.112,710.3132 "
                  fill="none" id="Data-Provider-backto-ByBit-Remote-Datasource"
                  style="stroke:#181818;stroke-width:0.8000000000000002;"/>
            <polygon fill="#181818"
                     points="903.256,582.9932,907.1586,589.8379,906.4778,585.3639,910.9517,584.6831,903.256,582.9932"
                     style="stroke:#181818;stroke-width:0.8000000000000002;"/>
        </g><!--reverse link Trade-Executor to ByBit-Broker-Connector-->
        <g id="link_Trade-Executor_ByBit-Broker-Connector">
            <path d="M735.405,588.4742 C723.125,609.9942 686.592,674.0092 665.952,710.1772 " fill="none"
                  id="Trade-Executor-backto-ByBit-Broker-Connector"
                  style="stroke:#181818;stroke-width:0.8000000000000002;"/>
            <polygon fill="#181818"
                     points="737.784,584.3052,731.4362,588.9727,735.8015,587.7794,736.9949,592.1447,737.784,584.3052"
                     style="stroke:#181818;stroke-width:0.8000000000000002;"/>
        </g><!--reverse link Broker-Requestor to ByBit-Broker-Connector-->
        <g id="link_Broker-Requestor_ByBit-Broker-Connector">
            <path d="M577.6842,588.565 C588.8602,610.085 622.056,674.0092 640.832,710.1772 " fill="none"
                  id="Broker-Requestor-backto-ByBit-Broker-Connector"
                  style="stroke:#181818;stroke-width:0.8000000000000002;"/>
            <polygon fill="#181818"
                     points="575.472,584.3052,575.9505,592.1697,577.3155,587.855,581.6302,589.2201,575.472,584.3052"
                     style="stroke:#181818;stroke-width:0.8000000000000002;"/>
        </g><!--reverse link Trade-Executor to Demo-Broker-Connector-->
        <g id="link_Trade-Executor_Demo-Broker-Connector">
            <path d="M730.5521,586.4368 C717.0161,597.0608 690.472,616.6812 661.6,629.6172 C606.112,654.4892 586.072,643.0652 529.6,665.6172 C498.672,677.9692 465.568,696.0012 441.12,710.3372 "
                  fill="none" id="Trade-Executor-backto-Demo-Broker-Connector"
                  style="stroke:#181818;stroke-width:0.8000000000000002;"/>
            <polygon fill="#181818"
                     points="734.328,583.4732,726.6885,585.4013,731.1814,585.9428,730.6399,590.4358,734.328,583.4732"
                     style="stroke:#181818;stroke-width:0.8000000000000002;"/>
        </g><!--reverse link Broker-Requestor to Demo-Broker-Connector-->
        <g id="link_Broker-Requestor_Demo-Broker-Connector">
            <path d="M561.4702,587.3666 C538.4302,608.7026 467.776,674.1532 428.664,710.3772 " fill="none"
                  id="Broker-Requestor-backto-Demo-Broker-Connector"
                  style="stroke:#181818;stroke-width:0.8000000000000002;"/>
            <polygon fill="#181818"
                     points="564.992,584.1052,557.535,586.6494,562.0571,586.823,561.8835,591.3452,564.992,584.1052"
                     style="stroke:#181818;stroke-width:0.8000000000000002;"/>
        </g><!--reverse link Trading-Strategy to Strategies-Implementations-->
        <g id="link_Trading-Strategy_Strategies-Implementations">
            <path d="M386.0869,584.5928 C355.2869,603.2568 240.224,672.9772 178.432,710.4172 " fill="none"
                  id="Trading-Strategy-backto-Strategies-Implementations"
                  style="stroke:#181818;stroke-width:0.8000000000000002;"/>
            <polygon fill="#181818"
                     points="390.192,582.1052,382.3759,583.0998,386.7711,584.1782,385.6927,588.5733,390.192,582.1052"
                     style="stroke:#181818;stroke-width:0.8000000000000002;"/>
        </g><!--SRC=[bLHDRzim3BtxLmY-R3ie0NhSeK2IPa20hGYQePTW1qtcF26sfCfoqMpOVvzYA_wGJ6SB420X-SX7yedlVbghgu_BfIwOj7LPBBWgb-whbGHfQIPORbYPL2SXDNE_oERg-wIaFOXVGExk1kwTj61-C0xJxaTb4S-UyHFBHyuaqQsHf5yDouJCoLRcGa9AVYV4VTv_8Ea3iupkZNeL6PYqCti0FLZ3BEJdthCswWI6Fi5B3PLL0GRezWruFR9lfJLdUX2vP0LTPKpZtcTMY8mr_YRWUArFM-RV6cj0cj1QKtAy62jL6mvqjT_voAWF7-p_2wZQuBQQxssZf0JkM0mIHMtxH3EGO1wpWBR-5oRTkigBSleqa-FpoMu3-eaY4D-vKufrZLtdJ1QBUsJwnoSedGnzOqB9Vy6ilbVEpYtzhBXZrPLRQUrn8OC05nNjaHYVvC_W1RZmGd1syLTN_HzHCdDqaI5CW2TZngmkwmHJfID2cyCpxTNi2wxFQz6bZBm3FUzANJJxRPlr0GyEI4FjZL8Zpe5UeiokbIHQU3k4y3KYOU4xHCAc7mqI72dSaPpfedaNz1wxK_yF7HwnwOrskE3weal600cskmuG7kMRWFY-8zh1Izo8ZoiaS_eTrHdTyhy0]-->
    </g>
</svg>