<?xml version="1.0" encoding="UTF-8" standalone="no"?>
<!-- Created with Inkscape (http://www.inkscape.org/) -->

<svg
        xmlns:svg="http://www.w3.org/2000/svg"
        version="1.1"
        id="svg2"
        width="1843.2"
        height="928.32001"
        viewBox="0 0 1843.2 928.32001"
        xmlns="http://www.w3.org/2000/svg">
    <defs
            id="defs6">
        <clipPath
                clipPathUnits="userSpaceOnUse"
                id="clipPath20">
            <path
                    d="M 198.9312,94.30184 H 1340.928 v 510.9628 H 198.9312 Z"
                    id="path18"/>
        </clipPath>
        <clipPath
                clipPathUnits="userSpaceOnUse"
                id="clipPath30">
            <path
                    d="M 198.9312,94.30184 H 1340.928 v 510.9628 H 198.9312 Z"
                    id="path28"/>
        </clipPath>
        <clipPath
                clipPathUnits="userSpaceOnUse"
                id="clipPath40">
            <path
                    d="M 198.9312,94.30184 H 1340.928 v 510.9628 H 198.9312 Z"
                    id="path38"/>
        </clipPath>
        <clipPath
                clipPathUnits="userSpaceOnUse"
                id="clipPath50">
            <path
                    d="M 198.9312,94.30184 H 1340.928 v 510.9628 H 198.9312 Z"
                    id="path48"/>
        </clipPath>
        <clipPath
                clipPathUnits="userSpaceOnUse"
                id="clipPath60">
            <path
                    d="M 198.9312,94.30184 H 1340.928 v 510.9628 H 198.9312 Z"
                    id="path58"/>
        </clipPath>
        <clipPath
                clipPathUnits="userSpaceOnUse"
                id="clipPath70">
            <path
                    d="M 198.9312,94.30184 H 1340.928 v 510.9628 H 198.9312 Z"
                    id="path68"/>
        </clipPath>
        <clipPath
                clipPathUnits="userSpaceOnUse"
                id="clipPath80">
            <path
                    d="M 198.9312,94.30184 H 1340.928 v 510.9628 H 198.9312 Z"
                    id="path78"/>
        </clipPath>
        <clipPath
                clipPathUnits="userSpaceOnUse"
                id="clipPath90">
            <path
                    d="M 198.9312,94.30184 H 1340.928 v 510.9628 H 198.9312 Z"
                    id="path88"/>
        </clipPath>
        <clipPath
                clipPathUnits="userSpaceOnUse"
                id="clipPath100">
            <path
                    d="M 198.9312,94.30184 H 1340.928 v 510.9628 H 198.9312 Z"
                    id="path98"/>
        </clipPath>
        <clipPath
                clipPathUnits="userSpaceOnUse"
                id="clipPath110">
            <path
                    d="M 198.9312,94.30184 H 1340.928 v 510.9628 H 198.9312 Z"
                    id="path108"/>
        </clipPath>
        <clipPath
                clipPathUnits="userSpaceOnUse"
                id="clipPath120">
            <path
                    d="M 198.9312,94.30184 H 1340.928 v 510.9628 H 198.9312 Z"
                    id="path118"/>
        </clipPath>
        <clipPath
                clipPathUnits="userSpaceOnUse"
                id="clipPath130">
            <path
                    d="M 198.9312,94.30184 H 1340.928 v 510.9628 H 198.9312 Z"
                    id="path128"/>
        </clipPath>
        <clipPath
                clipPathUnits="userSpaceOnUse"
                id="clipPath140">
            <path
                    d="M 198.9312,94.30184 H 1340.928 v 510.9628 H 198.9312 Z"
                    id="path138"/>
        </clipPath>
        <clipPath
                clipPathUnits="userSpaceOnUse"
                id="clipPath150">
            <path
                    d="M 198.9312,94.30184 H 1340.928 v 510.9628 H 198.9312 Z"
                    id="path148"/>
        </clipPath>
        <clipPath
                clipPathUnits="userSpaceOnUse"
                id="clipPath160">
            <path
                    d="M 198.9312,94.30184 H 1340.928 v 510.9628 H 198.9312 Z"
                    id="path158"/>
        </clipPath>
        <clipPath
                clipPathUnits="userSpaceOnUse"
                id="clipPath170">
            <path
                    d="M 198.9312,94.30184 H 1340.928 v 510.9628 H 198.9312 Z"
                    id="path168"/>
        </clipPath>
        <clipPath
                clipPathUnits="userSpaceOnUse"
                id="clipPath284">
            <path
                    d="M 198.9312,94.30184 H 1340.928 v 510.9628 H 198.9312 Z"
                    id="path282"/>
        </clipPath>
        <clipPath
                clipPathUnits="userSpaceOnUse"
                id="clipPath294">
            <path
                    d="M 198.9312,94.30184 H 1340.928 v 510.9628 H 198.9312 Z"
                    id="path292"/>
        </clipPath>
        <clipPath
                clipPathUnits="userSpaceOnUse"
                id="clipPath304">
            <path
                    d="M 198.9312,94.30184 H 1340.928 v 510.9628 H 198.9312 Z"
                    id="path302"/>
        </clipPath>
    </defs>
    <g
            id="g8"
            transform="matrix(1.3333333,0,0,-1.3333333,0,928.32)">
        <path
                d="M 0,0 H 1382.4 V 696.24 H 0 Z"
                style="fill:#ffffff;fill-opacity:1;fill-rule:nonzero;stroke:none"
                id="path10"/>
        <path
                d="M 198.9312,94.30184 H 1340.928 v 510.9628 H 198.9312 Z"
                style="fill:#ffffff;fill-opacity:1;fill-rule:nonzero;stroke:none"
                id="path12"/>
        <g
                id="g14">
            <g
                    id="g16"
                    clip-path="url(#clipPath20)">
                <path
                        d="m 250.84014,94.30184 h 147.03822 v 510.9628 H 250.84014 Z"
                        style="fill:#0000ff;fill-opacity:0.3;fill-rule:nonzero;stroke:#0000ff;stroke-width:1;stroke-linecap:butt;stroke-linejoin:miter;stroke-miterlimit:10;stroke-dasharray:none;stroke-opacity:0.3"
                        id="path22"/>
            </g>
        </g>
        <g
                id="g24">
            <g
                    id="g26"
                    clip-path="url(#clipPath30)">
                <path
                        d="M 397.87836,94.30184 H 408.275 v 510.9628 h -10.39664 z"
                        style="fill:#008000;fill-opacity:0.3;fill-rule:nonzero;stroke:#008000;stroke-width:1;stroke-linecap:butt;stroke-linejoin:miter;stroke-miterlimit:10;stroke-dasharray:none;stroke-opacity:0.3"
                        id="path32"/>
            </g>
        </g>
        <g
                id="g34">
            <g
                    id="g36"
                    clip-path="url(#clipPath40)">
                <path
                        d="m 408.275,94.30184 h 22.27852 v 510.9628 H 408.275 Z"
                        style="fill:#0000ff;fill-opacity:0.3;fill-rule:nonzero;stroke:#0000ff;stroke-width:1;stroke-linecap:butt;stroke-linejoin:miter;stroke-miterlimit:10;stroke-dasharray:none;stroke-opacity:0.3"
                        id="path42"/>
            </g>
        </g>
        <g
                id="g44">
            <g
                    id="g46"
                    clip-path="url(#clipPath50)">
                <path
                        d="m 430.55352,94.30184 h 43.0718 v 510.9628 h -43.0718 z"
                        style="fill:#ff0000;fill-opacity:0.3;fill-rule:nonzero;stroke:#ff0000;stroke-width:1;stroke-linecap:butt;stroke-linejoin:miter;stroke-miterlimit:10;stroke-dasharray:none;stroke-opacity:0.3"
                        id="path52"/>
            </g>
        </g>
        <g
                id="g54">
            <g
                    id="g56"
                    clip-path="url(#clipPath60)">
                <path
                        d="m 473.62532,94.30184 h 4.4557 v 510.9628 h -4.4557 z"
                        style="fill:#0000ff;fill-opacity:0.3;fill-rule:nonzero;stroke:#0000ff;stroke-width:1;stroke-linecap:butt;stroke-linejoin:miter;stroke-miterlimit:10;stroke-dasharray:none;stroke-opacity:0.3"
                        id="path62"/>
            </g>
        </g>
        <g
                id="g64">
            <g
                    id="g66"
                    clip-path="url(#clipPath70)">
                <path
                        d="m 478.08102,94.30184 h 53.46844 v 510.9628 h -53.46844 z"
                        style="fill:#008000;fill-opacity:0.3;fill-rule:nonzero;stroke:#008000;stroke-width:1;stroke-linecap:butt;stroke-linejoin:miter;stroke-miterlimit:10;stroke-dasharray:none;stroke-opacity:0.3"
                        id="path72"/>
            </g>
        </g>
        <g
                id="g74">
            <g
                    id="g76"
                    clip-path="url(#clipPath80)">
                <path
                        d="m 531.54946,94.30184 h 25.24899 v 510.9628 h -25.24899 z"
                        style="fill:#0000ff;fill-opacity:0.3;fill-rule:nonzero;stroke:#0000ff;stroke-width:1;stroke-linecap:butt;stroke-linejoin:miter;stroke-miterlimit:10;stroke-dasharray:none;stroke-opacity:0.3"
                        id="path82"/>
            </g>
        </g>
        <g
                id="g84">
            <g
                    id="g86"
                    clip-path="url(#clipPath90)">
                <path
                        d="m 556.79845,94.30184 h 28.21946 v 510.9628 h -28.21946 z"
                        style="fill:#ff0000;fill-opacity:0.3;fill-rule:nonzero;stroke:#ff0000;stroke-width:1;stroke-linecap:butt;stroke-linejoin:miter;stroke-miterlimit:10;stroke-dasharray:none;stroke-opacity:0.3"
                        id="path92"/>
            </g>
        </g>
        <g
                id="g94">
            <g
                    id="g96"
                    clip-path="url(#clipPath100)">
                <path
                        d="m 585.01791,94.30184 h 242.09322 v 510.9628 H 585.01791 Z"
                        style="fill:#008000;fill-opacity:0.3;fill-rule:nonzero;stroke:#008000;stroke-width:1;stroke-linecap:butt;stroke-linejoin:miter;stroke-miterlimit:10;stroke-dasharray:none;stroke-opacity:0.3"
                        id="path102"/>
            </g>
        </g>
        <g
                id="g104">
            <g
                    id="g106"
                    clip-path="url(#clipPath110)">
                <path
                        d="m 827.11113,94.30184 h 8.9114 v 510.9628 h -8.9114 z"
                        style="fill:#0000ff;fill-opacity:0.3;fill-rule:nonzero;stroke:#0000ff;stroke-width:1;stroke-linecap:butt;stroke-linejoin:miter;stroke-miterlimit:10;stroke-dasharray:none;stroke-opacity:0.3"
                        id="path112"/>
            </g>
        </g>
        <g
                id="g114">
            <g
                    id="g116"
                    clip-path="url(#clipPath120)">
                <path
                        d="m 836.02253,94.30184 h 197.53617 v 510.9628 H 836.02253 Z"
                        style="fill:#ff0000;fill-opacity:0.3;fill-rule:nonzero;stroke:#ff0000;stroke-width:1;stroke-linecap:butt;stroke-linejoin:miter;stroke-miterlimit:10;stroke-dasharray:none;stroke-opacity:0.3"
                        id="path122"/>
            </g>
        </g>
        <g
                id="g124">
            <g
                    id="g126"
                    clip-path="url(#clipPath130)">
                <path
                        d="m 1033.5587,94.30184 h 20.7933 v 510.9628 h -20.7933 z"
                        style="fill:#0000ff;fill-opacity:0.3;fill-rule:nonzero;stroke:#0000ff;stroke-width:1;stroke-linecap:butt;stroke-linejoin:miter;stroke-miterlimit:10;stroke-dasharray:none;stroke-opacity:0.3"
                        id="path132"/>
            </g>
        </g>
        <g
                id="g134">
            <g
                    id="g136"
                    clip-path="url(#clipPath140)">
                <path
                        d="m 1054.352,94.30184 h 129.2154 v 510.9628 H 1054.352 Z"
                        style="fill:#008000;fill-opacity:0.3;fill-rule:nonzero;stroke:#008000;stroke-width:1;stroke-linecap:butt;stroke-linejoin:miter;stroke-miterlimit:10;stroke-dasharray:none;stroke-opacity:0.3"
                        id="path142"/>
            </g>
        </g>
        <g
                id="g144">
            <g
                    id="g146"
                    clip-path="url(#clipPath150)">
                <path
                        d="m 1183.5674,94.30184 h 2.9705 v 510.9628 h -2.9705 z"
                        style="fill:#ff0000;fill-opacity:0.3;fill-rule:nonzero;stroke:#ff0000;stroke-width:1;stroke-linecap:butt;stroke-linejoin:miter;stroke-miterlimit:10;stroke-dasharray:none;stroke-opacity:0.3"
                        id="path152"/>
            </g>
        </g>
        <g
                id="g154">
            <g
                    id="g156"
                    clip-path="url(#clipPath160)">
                <path
                        d="m 1186.5379,94.30184 h 1.4852 v 510.9628 h -1.4852 z"
                        style="fill:#0000ff;fill-opacity:0.3;fill-rule:nonzero;stroke:#0000ff;stroke-width:1;stroke-linecap:butt;stroke-linejoin:miter;stroke-miterlimit:10;stroke-dasharray:none;stroke-opacity:0.3"
                        id="path162"/>
            </g>
        </g>
        <g
                id="g164">
            <g
                    id="g166"
                    clip-path="url(#clipPath170)">
                <path
                        d="m 1188.0231,94.30184 h 100.996 v 510.9628 h -100.996 z"
                        style="fill:#ff0000;fill-opacity:0.3;fill-rule:nonzero;stroke:#ff0000;stroke-width:1;stroke-linecap:butt;stroke-linejoin:miter;stroke-miterlimit:10;stroke-dasharray:none;stroke-opacity:0.3"
                        id="path172"/>
            </g>
        </g>
        <g
                id="g174">
            <path
                    d="m 290.94148,94.30184 v -3.5"
                    style="fill:#000000;fill-opacity:1;fill-rule:nonzero;stroke:#000000;stroke-width:0.8;stroke-linecap:butt;stroke-linejoin:round;stroke-miterlimit:10;stroke-dasharray:none;stroke-opacity:1"
                    id="path176"/>
            <g
                    id="g178"
                    transform="translate(260.38679,72.098715)">
                <text
                        xml:space="preserve"
                        transform="scale(1,-1)"
                        style="font-variant:normal;font-weight:normal;font-size:20px;font-family:'DejaVu Sans';-inkscape-font-specification:DejaVuSans;writing-mode:lr-tb;fill:#000000;fill-opacity:1;fill-rule:nonzero;stroke:none"
                        id="text182"><tspan
             x="0 12.72 25.440001 31.799999 43.860001"
             y="0"
             id="tspan180">02 PM</tspan></text>
            </g>
            <path
                    d="m 469.16962,94.30184 v -3.5"
                    style="fill:#000000;fill-opacity:1;fill-rule:nonzero;stroke:#000000;stroke-width:0.8;stroke-linecap:butt;stroke-linejoin:round;stroke-miterlimit:10;stroke-dasharray:none;stroke-opacity:1"
                    id="path184"/>
            <g
                    id="g186"
                    transform="translate(438.61493,72.098715)">
                <text
                        xml:space="preserve"
                        transform="scale(1,-1)"
                        style="font-variant:normal;font-weight:normal;font-size:20px;font-family:'DejaVu Sans';-inkscape-font-specification:DejaVuSans;writing-mode:lr-tb;fill:#000000;fill-opacity:1;fill-rule:nonzero;stroke:none"
                        id="text190"><tspan
             x="0 12.72 25.440001 31.799999 43.860001"
             y="0"
             id="tspan188">04 PM</tspan></text>
            </g>
            <path
                    d="m 647.39775,94.30184 v -3.5"
                    style="fill:#000000;fill-opacity:1;fill-rule:nonzero;stroke:#000000;stroke-width:0.8;stroke-linecap:butt;stroke-linejoin:round;stroke-miterlimit:10;stroke-dasharray:none;stroke-opacity:1"
                    id="path192"/>
            <g
                    id="g194"
                    transform="translate(616.84307,72.098715)">
                <text
                        xml:space="preserve"
                        transform="scale(1,-1)"
                        style="font-variant:normal;font-weight:normal;font-size:20px;font-family:'DejaVu Sans';-inkscape-font-specification:DejaVuSans;writing-mode:lr-tb;fill:#000000;fill-opacity:1;fill-rule:nonzero;stroke:none"
                        id="text198"><tspan
             x="0 12.72 25.440001 31.799999 43.860001"
             y="0"
             id="tspan196">06 PM</tspan></text>
            </g>
            <path
                    d="m 825.62589,94.30184 v -3.5"
                    style="fill:#000000;fill-opacity:1;fill-rule:nonzero;stroke:#000000;stroke-width:0.8;stroke-linecap:butt;stroke-linejoin:round;stroke-miterlimit:10;stroke-dasharray:none;stroke-opacity:1"
                    id="path200"/>
            <g
                    id="g202"
                    transform="translate(795.07121,72.098715)">
                <text
                        xml:space="preserve"
                        transform="scale(1,-1)"
                        style="font-variant:normal;font-weight:normal;font-size:20px;font-family:'DejaVu Sans';-inkscape-font-specification:DejaVuSans;writing-mode:lr-tb;fill:#000000;fill-opacity:1;fill-rule:nonzero;stroke:none"
                        id="text206"><tspan
             x="0 12.72 25.440001 31.799999 43.860001"
             y="0"
             id="tspan204">08 PM</tspan></text>
            </g>
            <path
                    d="m 1003.854,94.30184 v -3.5"
                    style="fill:#000000;fill-opacity:1;fill-rule:nonzero;stroke:#000000;stroke-width:0.8;stroke-linecap:butt;stroke-linejoin:round;stroke-miterlimit:10;stroke-dasharray:none;stroke-opacity:1"
                    id="path208"/>
            <g
                    id="g210"
                    transform="translate(973.29934,72.098715)">
                <text
                        xml:space="preserve"
                        transform="scale(1,-1)"
                        style="font-variant:normal;font-weight:normal;font-size:20px;font-family:'DejaVu Sans';-inkscape-font-specification:DejaVuSans;writing-mode:lr-tb;fill:#000000;fill-opacity:1;fill-rule:nonzero;stroke:none"
                        id="text214"><tspan
             x="0 12.72 25.440001 31.799999 43.860001"
             y="0"
             id="tspan212">10 PM</tspan></text>
            </g>
            <path
                    d="m 1182.0822,94.30184 v -3.5"
                    style="fill:#000000;fill-opacity:1;fill-rule:nonzero;stroke:#000000;stroke-width:0.8;stroke-linecap:butt;stroke-linejoin:round;stroke-miterlimit:10;stroke-dasharray:none;stroke-opacity:1"
                    id="path216"/>
            <g
                    id="g218"
                    transform="translate(1150.715,72.098715)">
                <text
                        xml:space="preserve"
                        transform="scale(1,-1)"
                        style="font-variant:normal;font-weight:normal;font-size:20px;font-family:'DejaVu Sans';-inkscape-font-specification:DejaVuSans;writing-mode:lr-tb;fill:#000000;fill-opacity:1;fill-rule:nonzero;stroke:none"
                        id="text222"><tspan
             x="0 12.72 25.440001 31.799999 45.48"
             y="0"
             id="tspan220">12 AM</tspan></text>
            </g>
            <path
                    d="m 198.9312,169.78498 h -3.5"
                    style="fill:#000000;fill-opacity:1;fill-rule:nonzero;stroke:#000000;stroke-width:0.8;stroke-linecap:butt;stroke-linejoin:round;stroke-miterlimit:10;stroke-dasharray:none;stroke-opacity:1"
                    id="path224"/>
            <g
                    id="g226"
                    transform="translate(141.0562,162.18342)">
                <text
                        xml:space="preserve"
                        transform="scale(1,-1)"
                        style="font-variant:normal;font-weight:normal;font-size:20px;font-family:'DejaVu Sans';-inkscape-font-specification:DejaVuSans;writing-mode:lr-tb;fill:#000000;fill-opacity:1;fill-rule:nonzero;stroke:none"
                        id="text230"><tspan
             x="0 12.72 25.440001 38.16"
             y="0"
             id="tspan228">1610</tspan></text>
            </g>
            <path
                    d="m 198.9312,252.73349 h -3.5"
                    style="fill:#000000;fill-opacity:1;fill-rule:nonzero;stroke:#000000;stroke-width:0.8;stroke-linecap:butt;stroke-linejoin:round;stroke-miterlimit:10;stroke-dasharray:none;stroke-opacity:1"
                    id="path232"/>
            <g
                    id="g234"
                    transform="translate(141.0562,245.13192)">
                <text
                        xml:space="preserve"
                        transform="scale(1,-1)"
                        style="font-variant:normal;font-weight:normal;font-size:20px;font-family:'DejaVu Sans';-inkscape-font-specification:DejaVuSans;writing-mode:lr-tb;fill:#000000;fill-opacity:1;fill-rule:nonzero;stroke:none"
                        id="text238"><tspan
             x="0 12.72 25.440001 38.16"
             y="0"
             id="tspan236">1620</tspan></text>
            </g>
            <path
                    d="m 198.9312,335.68199 h -3.5"
                    style="fill:#000000;fill-opacity:1;fill-rule:nonzero;stroke:#000000;stroke-width:0.8;stroke-linecap:butt;stroke-linejoin:round;stroke-miterlimit:10;stroke-dasharray:none;stroke-opacity:1"
                    id="path240"/>
            <g
                    id="g242"
                    transform="translate(141.0562,328.08043)">
                <text
                        xml:space="preserve"
                        transform="scale(1,-1)"
                        style="font-variant:normal;font-weight:normal;font-size:20px;font-family:'DejaVu Sans';-inkscape-font-specification:DejaVuSans;writing-mode:lr-tb;fill:#000000;fill-opacity:1;fill-rule:nonzero;stroke:none"
                        id="text246"><tspan
             x="0 12.72 25.440001 38.16"
             y="0"
             id="tspan244">1630</tspan></text>
            </g>
            <path
                    d="m 198.9312,418.6305 h -3.5"
                    style="fill:#000000;fill-opacity:1;fill-rule:nonzero;stroke:#000000;stroke-width:0.8;stroke-linecap:butt;stroke-linejoin:round;stroke-miterlimit:10;stroke-dasharray:none;stroke-opacity:1"
                    id="path248"/>
            <g
                    id="g250"
                    transform="translate(141.0562,411.02894)">
                <text
                        xml:space="preserve"
                        transform="scale(1,-1)"
                        style="font-variant:normal;font-weight:normal;font-size:20px;font-family:'DejaVu Sans';-inkscape-font-specification:DejaVuSans;writing-mode:lr-tb;fill:#000000;fill-opacity:1;fill-rule:nonzero;stroke:none"
                        id="text254"><tspan
             x="0 12.72 25.440001 38.16"
             y="0"
             id="tspan252">1640</tspan></text>
            </g>
            <path
                    d="m 198.9312,501.57901 h -3.5"
                    style="fill:#000000;fill-opacity:1;fill-rule:nonzero;stroke:#000000;stroke-width:0.8;stroke-linecap:butt;stroke-linejoin:round;stroke-miterlimit:10;stroke-dasharray:none;stroke-opacity:1"
                    id="path256"/>
            <g
                    id="g258"
                    transform="translate(141.0562,493.97744)">
                <text
                        xml:space="preserve"
                        transform="scale(1,-1)"
                        style="font-variant:normal;font-weight:normal;font-size:20px;font-family:'DejaVu Sans';-inkscape-font-specification:DejaVuSans;writing-mode:lr-tb;fill:#000000;fill-opacity:1;fill-rule:nonzero;stroke:none"
                        id="text262"><tspan
             x="0 12.72 25.440001 38.16"
             y="0"
             id="tspan260">1650</tspan></text>
            </g>
            <path
                    d="m 198.9312,584.52751 h -3.5"
                    style="fill:#000000;fill-opacity:1;fill-rule:nonzero;stroke:#000000;stroke-width:0.8;stroke-linecap:butt;stroke-linejoin:round;stroke-miterlimit:10;stroke-dasharray:none;stroke-opacity:1"
                    id="path264"/>
            <g
                    id="g266"
                    transform="translate(141.0562,576.92595)">
                <text
                        xml:space="preserve"
                        transform="scale(1,-1)"
                        style="font-variant:normal;font-weight:normal;font-size:20px;font-family:'DejaVu Sans';-inkscape-font-specification:DejaVuSans;writing-mode:lr-tb;fill:#000000;fill-opacity:1;fill-rule:nonzero;stroke:none"
                        id="text270"><tspan
             x="0 12.72 25.440001 38.16"
             y="0"
             id="tspan268">1660</tspan></text>
            </g>
            <g
                    id="g272"
                    transform="rotate(90,-73.51977,206.41972)">
                <text
                        xml:space="preserve"
                        transform="scale(1,-1)"
                        style="font-variant:normal;font-weight:normal;font-size:20px;font-family:'DejaVu Sans';-inkscape-font-specification:DejaVuSans;writing-mode:lr-tb;fill:#000000;fill-opacity:1;fill-rule:nonzero;stroke:none"
                        id="text276"><tspan
             x="0 12.64 24.860001 39.900002 46.639999 61.279999 73.980003 89.379997 103.34 109.7 126.96"
             y="0"
             id="tspan274">ETH/USDC M1</tspan></text>
            </g>
        </g>
        <g
                id="g278">
            <g
                    id="g280"
                    clip-path="url(#clipPath284)">
                <path
                        d="m 250.84014,184.71571 1.48524,-11.19805 1.48523,18.24867 1.48524,-0.41474 h 1.48523 l 1.48524,-21.56661 1.48523,-2.9032 2.97047,33.17941 1.48524,5.39165 1.48523,-4.14743 1.48523,-3.31794 1.48524,4.56217 1.48523,-2.07371 1.48524,-14.10125 1.48523,2.9032 1.48524,7.88011 1.48523,12.44227 1.48524,1.65897 1.48523,-4.14742 1.48524,-6.22114 1.48523,14.10125 1.48523,-15.34548 1.48524,0.41475 1.48523,1.24422 1.48524,8.29485 2.97047,-13.6865 1.48523,0.41474 1.48524,30.69095 1.48523,14.51599 1.48523,20.73713 1.48524,31.10569 1.48523,-2.07372 1.48524,-27.78775 1.48523,6.22114 1.48524,2.07371 1.48523,8.29485 1.48524,12.85702 1.48523,-6.22114 1.48523,-8.29485 1.48524,1.65897 1.48523,14.93074 1.48524,-0.82949 1.48523,14.93073 1.48524,-13.27176 1.48523,1.65897 1.48524,-0.41474 1.48523,-21.56661 1.48524,7.05062 1.48523,-5.8064 1.48523,-7.05062 1.48524,-5.80639 1.48523,-7.88011 1.48524,10.36856 1.48523,-6.63588 1.48524,2.48846 1.48523,-5.8064 1.48524,-8.70959 1.48523,3.31794 1.48523,24.88455 1.48524,11.61279 1.48523,1.65897 1.48524,-11.19805 1.48523,3.31794 1.48524,2.48846 1.48523,-6.22114 1.48524,-1.24423 1.48523,-0.41474 1.48523,9.12433 1.48524,2.9032 1.48523,-7.46536 1.48524,-2.48846 1.48523,9.95382 1.48524,2.48846 1.48523,-23.22558 1.48524,-4.97691 1.48523,19.90764 1.48524,11.61279 1.48523,-14.51599 1.48523,2.07371 1.48524,5.8064 1.48523,-3.73269 1.48524,-1.65897 1.48523,6.63588 1.48524,4.97692 1.48523,4.14742 1.48524,4.97691 1.48523,-7.46536 1.48523,1.24422 1.48524,-19.90764 1.48523,-4.56217 1.48524,-1.24422 1.48523,-9.53908 1.48524,4.14742 1.48523,0.82949 1.48524,3.73268 1.48523,-14.51599 1.48524,3.31794 1.48523,-1.65897 1.48523,7.05063 1.48524,-0.82949 1.48523,-0.41474 1.48524,-9.53908 1.48523,-3.73268 1.48524,0.82948 1.48523,-4.14742 1.48524,-44.7922 1.48523,9.12434 1.48523,4.56217 1.48524,-7.88011 1.48523,-28.61724 1.48524,-5.39165 2.97047,68.43252 1.48523,-7.05062 1.48524,-13.68651 1.48523,15.76022 1.48523,5.80639 1.48524,-3.73268 1.48523,-21.15187 1.48524,-15.34547 1.48523,-2.07371 1.48524,-0.82949 1.48523,-10.78331 1.48524,2.48846 1.48523,-31.10569 1.48524,21.56661 1.48523,-0.41474 1.48523,3.31794 1.48524,2.07371 1.48523,-27.37301 1.48524,0.82949 1.48523,15.76022 1.48524,3.31794 1.48523,7.46536 1.48524,4.14743 1.48523,4.56216 1.48523,8.7096 1.48524,1.65897 1.48523,4.14742 1.48524,-6.63588 1.48523,-1.24422 1.48524,-3.73269 1.48523,23.64033 1.48524,33.59414 1.48523,27.78775 1.48524,-14.51599 1.48523,-8.29485 1.48524,35.25312 1.48523,4.56217 1.48523,8.70959 1.48524,-14.51599 1.48523,5.8064 1.48524,-14.51599 1.48523,32.34992 1.48524,-4.56217 1.48523,4.14742 1.48523,40.23003 1.48524,7.46536 1.48523,-29.86146 1.48524,19.4929 1.48523,-0.41474 1.48524,60.55241 1.48523,26.95826 1.48524,-35.66786 2.97046,-49.35436 1.48524,-9.95382 1.48523,-37.32683 1.48524,16.17496 1.48523,-19.4929 1.48524,24.88456 1.48523,-1.65897 1.48524,8.29485 1.48523,2.90319 1.48524,-19.90764 1.48523,-9.53908 1.48524,-2.90319 1.48523,-29.86147 1.48523,-41.47425 1.48524,28.61724 1.48523,2.07371 1.48524,9.12433 1.48523,-11.19804 1.48524,9.53907 1.48523,4.56217 1.48524,-17.00444 1.48523,17.41918 1.48523,3.31794 1.48524,-2.07371 1.48523,-12.85702 2.97047,-31.93517 1.48524,0.82948 1.48523,-22.81084 1.48524,15.34548 1.48523,4.97691 1.48523,-13.68651 1.48524,13.68651 1.48523,2.07371 1.48524,-19.90764 1.48523,21.56661 1.48524,-3.31794 1.48523,7.05062 1.48524,-4.56216 1.48523,-3.73269 1.48524,7.05063 1.48523,-5.8064 1.48523,-12.44228 1.48524,-3.31794 1.48523,20.32239 1.48524,46.03642 1.48523,-7.05062 1.48524,-2.9032 1.48523,-3.73268 1.48524,-12.85702 1.48523,5.39165 1.48523,9.53908 1.48524,-9.12434 1.48523,2.9032 1.48524,9.12434 1.48523,-22.3961 1.48524,13.27176 1.48523,1.24423 1.48524,37.74157 1.48523,-8.29485 1.48524,-4.14743 1.48523,4.97691 1.48523,5.39166 1.48524,2.07371 1.48523,5.39165 1.48524,-6.63588 1.48523,4.14743 2.97047,19.90764 1.48523,38.9858 1.48524,-23.22559 1.48523,0.82949 1.48524,-19.4929 2.97047,41.889 1.48523,26.54352 1.48524,-5.8064 2.97047,-72.99468 1.48523,-43.96271 1.48524,43.54796 1.48523,-9.12433 h 1.48523 l 2.97047,35.66786 1.48524,-25.2993 1.48523,8.7096 1.48524,-4.97692 1.48523,0.41475 1.48523,-12.85702 1.48524,3.31794 1.48523,-6.22114 1.48524,9.12434 1.48523,-4.56217 1.48524,-4.14743 1.48523,26.54353 2.97047,22.81083 1.48524,-7.46536 1.48523,-2.9032 1.48523,-3.73268 1.48524,51.84282 1.48523,31.52043 2.97047,-80.04531 1.48524,-15.34547 2.97047,70.50623 1.48523,-12.85702 1.48523,19.07815 1.48524,-3.73268 1.48523,7.05062 h 1.48524 l 1.48523,1.65897 h 1.48524 l 1.48523,7.46537 1.48524,-30.69095 1.48523,-0.82948 1.48523,14.93073 1.48524,-9.53908 1.48523,11.61279 1.48524,-2.9032 1.48523,-24.05506 2.97047,13.6865 1.48524,18.24867 1.48523,-19.4929 1.48524,-12.02753 1.48523,-0.41474 1.48523,-8.7096 1.48524,-5.80639 1.48523,1.24423 1.48524,9.95382 1.48523,23.64032 2.97047,-30.69095 1.48524,12.85702 1.48523,-8.70959 1.48523,-27.37301 1.48524,8.70959 1.48523,12.85702 1.48524,-8.70959 1.48523,-0.82949 1.48524,10.36857 1.48523,12.85702 1.48524,6.22113 1.48523,-4.56216 1.48524,7.46536 1.48523,11.61279 1.48524,-18.24867 1.48523,20.32239 2.97047,-9.95382 1.48523,-1.65897 1.48524,2.07371 1.48523,21.56661 1.48524,-29.44672 1.48523,-23.22558 1.48523,1.24423 1.48524,-10.78331 1.48523,-3.73268 1.48524,-4.97691 1.48523,7.46536 1.48524,-0.82948 1.48523,28.61723 1.48524,17.41919 1.48523,-9.12434 1.48523,-0.82948 1.48524,-9.53908 1.48523,5.39165 1.48524,16.5897 1.48523,-1.24422 h 1.48524 l 1.48523,-0.41475 1.48524,2.48846 1.48523,15.76021 1.48524,-10.36856 1.48523,-8.70959 1.48523,-14.51599 1.48524,-2.9032 1.48523,-9.12433 h 1.48524 l 1.48523,6.63588 1.48524,5.39165 1.48523,-5.8064 1.48524,-1.65897 1.48523,2.48846 h 1.48523 l 1.48524,-4.56217 1.48523,-1.24423 1.48524,-10.7833 1.48523,-13.68651 1.48524,8.7096 1.48523,14.93073 1.48524,25.29929 1.48523,-3.31794 1.48524,21.98136 1.48523,-12.85702 1.48523,4.97691 1.48524,-12.85702 1.48523,8.70959 1.48524,0.82949 1.48523,9.12433 1.48524,6.22114 1.48523,-7.88011 1.48524,33.17941 1.48523,-14.10125 1.48523,-5.80639 1.48524,-8.29486 1.48523,48.11014 1.48524,90.41387 1.48523,29.03198 1.48524,-77.55686 1.48523,-109.49202 1.48524,-54.74602 1.48523,-22.81084 1.48524,-34.83837 1.48523,37.74157 1.48523,21.15187 1.48524,-23.22558 1.48523,-53.50179 1.48524,-14.51599 1.48523,35.66786 1.48524,14.10125 1.48523,48.52487 1.48524,26.95827 1.48523,-23.64033 1.48523,-7.46536 1.48524,-9.53908 1.48523,-19.90764 1.48524,17.00444 1.48523,-5.39165 1.48524,24.88455 1.48523,-17.00444 1.48524,9.53907 2.97046,29.03198 1.48524,-21.15187 1.48523,-9.12433 1.48524,-14.51599 1.48523,-2.48846 1.48524,-16.5897 1.48523,-6.63588 1.48524,12.85702 1.48523,-27.37301 1.48524,16.17496 1.48523,8.70959 1.48523,15.34548 1.48524,12.02753 1.48523,7.88011 1.48524,-19.07816 1.48523,-4.97691 1.48524,-2.9032 1.48523,-31.52043 1.48524,11.61279 1.48523,-12.44227 1.48524,-22.81084 1.48523,22.39609 1.48523,10.36857 1.48524,9.12433 1.48523,7.88011 1.48524,5.8064 1.48523,4.97691 1.48524,4.14742 1.48523,18.66342 1.48523,-7.46537 1.48524,-3.73268 1.48523,-14.93073 1.48524,10.36856 1.48523,12.85702 1.48524,-0.82949 1.48523,-0.41474 1.48524,-9.12433 1.48523,12.02753 1.48524,-9.95382 1.48523,-1.24423 1.48524,-17.00444 1.48523,-12.02754 1.48523,17.41919 1.48524,4.14743 1.48523,-14.51599 1.48524,12.44227 1.48523,-8.29485 1.48524,-21.15187 1.48523,-7.05062 1.48523,7.46537 1.48524,-18.24868 1.48523,26.95827 1.48524,-4.97691 1.48523,-6.63588 1.48524,4.56217 1.48523,-12.85702 1.48524,-15.76022 1.48523,7.88011 1.48524,-0.41474 1.48523,-18.24867 1.48524,14.51598 1.48523,18.66342 1.48523,2.48845 1.48524,-43.54796 1.48523,0.41474 1.48524,9.12434 1.48523,14.10124 1.48524,10.36856 1.48523,-1.65897 1.48523,-15.76021 1.48524,-7.05062 1.48523,19.49289 1.48524,9.95383 1.48523,4.56216 1.48524,-9.95382 1.48523,-14.51599 1.48524,-9.53907 1.48523,15.76021 1.48524,-15.76021 1.48523,-5.8064 1.48524,-10.78331 1.48523,17.00445 1.48523,-10.36857 1.48524,1.24423 h 1.48523 l 1.48524,-8.29485 1.48523,-11.19805 1.48524,-9.53908 1.48523,23.64033 1.48523,14.93073 1.48524,5.39165 1.48523,-16.17496 1.48524,-2.90319 1.48523,-7.05063 1.48524,3.73269 1.48523,17.41918 1.48524,6.63588 1.48523,19.4929 1.48523,-2.9032 1.48524,-7.46536 1.48523,9.53908 1.48524,-2.07372 1.48527,-8.70959 1.4852,-2.9032 1.4852,3.31794 1.4853,7.05063 1.4852,-12.85702 1.4852,-1.65897 1.4853,-8.29485 1.4852,-6.22114 1.4852,6.63588 1.4853,2.9032 1.4852,-5.8064 1.4852,9.12434 2.9705,24.88455 1.4852,4.14743 1.4853,2.07371 1.4852,-5.8064 1.4853,10.78331 h 1.4852 l 1.4852,-2.9032 1.4853,-8.29485 1.4852,-4.97691 1.4852,21.56661 1.4853,19.90764 1.4852,8.7096 1.4852,-7.88011 1.4853,-15.76022 h 1.4852 l 1.4852,-1.65897 1.4853,-3.31794 1.4852,4.56217 1.4852,-7.05062 1.4853,6.63588 1.4852,-6.63588 1.4852,-2.07372 1.4853,7.46537 1.4852,14.93073 1.4852,-2.48845 1.4853,2.07371 1.4852,-11.19805 1.4852,-5.8064 1.4853,-26.95826 1.4852,15.76022 1.4852,12.85701 1.4853,-4.56216 1.4852,-3.31794 h 1.4853 l 1.4852,14.10124 1.4852,-2.07371 1.4853,7.88011 1.4852,-6.63588 1.4852,7.05062 1.4853,-15.34547 1.4852,-1.24423 1.4852,-3.31794 1.4853,12.85702 1.4852,-5.39166 1.4852,-12.02753 1.4853,-1.65897 1.4852,-1.24423 1.4852,-0.41474 1.4853,7.05062 1.4852,-5.39165 1.4852,1.24423 1.4853,7.88011 1.4852,-9.95382 1.4852,-1.24423 1.4853,-9.95382 2.9704,16.17496 1.4853,10.36856 1.4852,2.48845 1.4852,28.61724 1.4853,-13.27176 1.4852,-3.31794 1.4853,-6.63588 1.4852,16.5897 1.4852,-5.39165 h 1.4853 l 1.4852,-0.41475 1.4852,-9.95382 1.4853,9.12434 1.4852,-9.95382 1.4852,5.80639 1.4853,-6.22114 1.4852,-9.95382 1.4852,4.97691 1.4853,2.07372 1.4852,-2.9032 1.4852,0.82948 1.4853,-9.95382 1.4852,-1.24422 1.4852,-3.31794 1.4853,-4.97691 2.9704,14.10124 1.4853,-1.65897 h 1.4852 l 1.4852,12.85702 1.4853,-3.31794 2.9704,1.65897 1.4853,2.9032 1.4852,2.48845 h 1.4853 l 1.4852,-5.80639 1.4852,-7.05063 1.4853,0.41475 1.4852,-0.41475 1.4852,-2.48845 1.4853,2.48845 1.4852,-2.48845 1.4852,-7.88011 1.4853,-4.97691 1.4852,3.31794 1.4852,-3.31794 1.4853,-3.73268 1.4852,7.88011 1.4852,2.48845 1.4853,-1.24423 1.4852,-4.97691 1.4852,-0.41474 1.4853,-4.97691 1.4852,-7.05062 1.4852,23.64032 1.4853,4.56217 1.4852,-12.44228 1.4852,-31.93517 1.4853,7.46536 1.4852,-5.39165 1.4852,-14.93073 1.4853,-0.41474 1.4852,0.41474 1.4853,-2.9032 1.4852,-19.4929 1.4852,6.63588 1.4853,18.66342 1.4852,-1.65897 1.4852,-8.29485 1.4853,-11.61279 2.9704,14.10124 1.4853,-0.82948 1.4852,-13.68651 1.4852,-17.83393 1.4853,-13.27176 1.4852,15.34548 1.4852,-4.97691 1.4853,12.44227 1.4852,1.24423 1.4852,12.44228 1.4853,-12.85702 1.4852,0.82948 1.4852,16.17496 1.4853,1.24423 1.4852,-8.29485 1.4852,7.46536 1.4853,-3.73268 1.4852,-0.41474 1.4852,9.95382 1.4853,-8.29485 1.4852,4.97691 1.4853,-12.44228 1.4852,3.73269 1.4852,4.56216 1.4853,-15.76021 1.4852,-17.00445 1.4852,-3.73268 1.4853,12.85702 1.4852,-21.56661 1.4852,-42.30374 1.4853,9.95382 1.4852,-47.28065 1.4852,12.85702 1.4853,4.97691 1.4852,-21.15187 1.4852,10.36856 1.4853,12.85702 1.4852,2.9032 1.4852,19.90764 1.4853,17.83393 1.4852,-5.39165 1.4852,-2.07371 1.4853,-4.14743 1.4852,-7.05062 1.4852,-2.9032 1.4853,-3.73268 1.4852,7.8801 1.4852,-11.61279 1.4853,-8.29485 1.4852,12.44228 1.4853,0.82948 1.4852,-3.31794 1.4852,11.6128 1.4853,15.34547 v 0"
                        style="fill:none;stroke:#000000;stroke-width:1.5;stroke-linecap:square;stroke-linejoin:round;stroke-miterlimit:10;stroke-dasharray:none;stroke-opacity:1"
                        id="path286"/>
            </g>
        </g>
        <g
                id="g288">
            <g
                    id="g290"
                    clip-path="url(#clipPath294)">
                <path
                        d="m 323.61664,231.38254 1.48523,1.78063 1.48523,1.4343 1.48524,1.15036 1.48523,0.79622 1.48524,1.1716 2.97047,1.79451 1.48523,0.66494 1.48524,0.29732 1.48523,0.41577 1.48523,1.37532 2.97047,3.54898 2.97047,2.60765 1.48524,1.38898 2.97047,2.08953 1.48523,0.94354 2.97047,2.593 1.48523,0.98376 1.48524,0.8476 2.97047,2.45976 1.48523,0.29503 1.48524,0.0883 1.48523,0.86551 1.48524,1.28698 2.97046,1.38966 1.48524,0.92178 4.4557,2.26458 2.97047,2.20341 1.48524,1.3122 2.97046,1.94679 1.48524,0.15973 2.97047,-0.0987 1.48523,-0.44444 2.97047,-0.48585 1.48524,-0.0664 1.48523,-0.63306 2.97047,-1.00254 4.4557,-0.73574 1.48524,-0.62138 4.4557,-2.24274 1.48524,-2.54212 1.48523,-2.08461 1.48523,-1.82396 1.48524,-2.06145 2.97047,-6.29546 1.48523,-1.71746 1.48524,-0.31643 1.48523,-0.58052 1.48524,-1.09447 1.48523,-0.43351 1.48523,-0.1888 1.48524,-0.32779 1.48523,-1.14441 4.45571,-5.09839 2.97047,-3.8987 1.48523,-3.00746 2.97047,-4.02366 2.97047,-3.39344 2.97047,-5.12665 1.48523,-1.77956 1.48524,-1.57966 1.48523,-1.22495 1.48524,-1.01427 1.48523,-0.79558 2.97047,-0.76403 1.48523,-0.16517 2.97047,-0.87021 1.48524,-0.57998 1.48523,0.36985 1.48524,1.67276 1.48523,2.69687 1.48524,2.02187 1.48523,1.61728 2.97047,5.93643 1.48523,3.224 2.97047,5.18517 1.48524,1.98342 1.48523,3.17426 2.97047,5.79181 2.97047,8.8889 1.48523,3.15717 2.97047,7.43038 1.48524,5.86474 1.48523,6.69194 1.48524,5.03077 1.48523,3.87389 1.48523,2.7461 1.48524,2.24807 1.48523,0.6961 1.48524,1.30313 1.48523,0.48759 4.45571,4.36303 1.48523,1.64732 1.48524,0.80203 1.48523,0.39649 1.48524,0.26709 1.48523,-0.91442 1.48523,-2.505 2.97047,-2.43734 1.48524,-0.7498 1.48523,-1.15954 1.48524,-0.73998 1.48523,-0.53205 1.48524,-1.17803 1.48523,-0.44873 2.97047,-0.67155 1.48523,-0.8602 1.48524,-1.44451 2.97047,-3.93253 1.48523,-2.72997 1.48524,-2.02114 1.48523,-1.7467 1.48523,-2.21492 2.97047,-3.03896 1.48524,-2.17154 2.97047,-2.56272 1.48523,-0.99375 4.45571,-3.27996 1.48523,-1.10265 2.97047,-3.16412 1.48523,-0.75642 1.48524,1.0786 1.48523,0.7598 1.48524,0.61616 1.48523,0.44561 1.48524,-0.0761 1.48523,0.13837 1.48523,0.50701 2.97047,0.36742 1.48524,0.58657 1.48523,-0.3147 2.97047,0.47644 1.48524,1.72827 1.48523,1.3352 1.48524,1.1202 1.48523,1.27145 2.97047,2.89116 1.48523,1.6124 2.97047,2.68998 1.48524,1.73644 1.48523,2.05869 1.48523,3.50681 2.97047,4.85308 1.48524,1.53627 1.48523,2.28924 1.48524,3.02896 1.48523,3.95109 1.48524,3.56845 1.48523,2.02976 1.48524,0.48638 1.48523,-1.25673 1.48524,0.50031 2.97046,0.24095 1.48524,0.82906 1.48523,1.47966 1.48524,0.4295 1.48523,0.75422 2.97047,1.05442 1.48523,1.8e-4 1.48524,0.13029 1.48523,-0.11878 1.48524,0.24369 1.48523,0.0552 1.48524,-0.10959 1.48523,0.93564 1.48524,1.33808 1.48523,1.74101 1.48524,1.37998 1.48523,1.21201 1.48523,1.0181 1.48524,3.01122 1.48523,4.12924 1.48524,2.42218 1.48523,0.73328 1.48524,0.10275 1.48523,1.44866 1.48524,2.80685 1.48523,2.19259 1.48523,2.85476 2.97047,5.36755 5.94094,10.51988 2.97047,2.7207 1.48523,1.85043 1.48524,1.4038 1.48523,1.80414 1.48524,1.61954 1.48523,0.6127 1.48524,0.86516 1.48523,1.09147 1.48524,1.76429 1.48523,0.93068 2.97047,0.8122 1.48523,0.0328 2.97047,-0.3358 1.48524,0.25617 1.48523,1.17319 1.48524,0.54167 1.48523,-0.0976 1.48524,0.4104 1.48523,0.0528 1.48523,-1.02277 1.48524,-0.6411 1.48523,-0.11177 2.97047,-0.91279 1.48524,-0.0391 1.48523,0.46667 1.48524,0.69233 1.48523,0.48628 1.48524,0.75996 1.48523,1.18557 1.48524,0.42344 1.48523,1.20379 1.48523,0.96141 2.97047,1.36344 1.48524,0.69134 1.48523,1.50997 1.48524,0.29598 2.97046,-1.17951 2.97047,-2.01747 1.48524,-1.2167 2.97047,-1.75061 1.48523,0.28214 1.48524,0.95419 2.97046,1.06345 1.48524,0.11064 1.48523,0.31773 2.97047,1.82543 4.45571,2.4751 1.48523,1.43778 1.48524,0.97479 1.48523,0.595 1.48523,0.002 1.48524,-0.11153 2.97047,-0.91171 1.48523,-0.16899 1.48524,0.0491 7.42617,-0.97746 1.48523,-0.3374 1.48524,-0.74703 1.48523,-1.25446 1.48524,-0.86372 1.48523,-0.24433 1.48524,0.75738 1.48523,0.59757 1.48524,1.43615 1.48523,0.87563 1.48523,1.03646 1.48524,0.49163 2.97047,1.6284 1.48523,1.14038 1.48524,1.33963 1.48523,0.97807 1.48524,2.24087 1.48523,1.6 1.48523,1.30955 1.48524,0.93291 1.48523,2.783 1.48524,6.2195 1.48523,7.11411 1.48524,3.79368 1.48523,-0.6489 1.48524,-2.77035 1.48523,-3.55626 1.48524,-4.783 1.48523,-3.11538 1.48523,-2.16371 1.48524,-2.98968 2.97047,-10.31541 1.48523,-3.73653 1.48524,-3.03701 1.48523,-1.01497 1.48524,0.082 1.48523,-0.84828 1.48523,-1.10776 1.48524,-1.43841 1.48523,-2.16269 1.48524,-1.41103 1.48523,-1.56714 1.48524,-0.52982 1.48523,-1.17588 1.48524,-0.75569 1.48523,-0.14053 1.48523,0.41796 1.48524,-0.42791 1.48523,-0.76894 2.97047,-2.66238 1.48524,-1.9518 1.48523,-2.13549 1.48524,-1.54755 1.48523,-2.56031 1.48524,-1.8256 1.48523,-1.41245 1.48523,-0.75527 1.48524,-0.254 1.48523,0.065 1.48524,-0.68572 2.97047,-1.78836 1.48523,-2.13381 1.48524,-1.59474 1.48523,-2.02012 1.48524,-2.83545 1.48523,-1.84598 1.48523,-1.36697 1.48524,-0.95555 1.48523,-0.60905 1.48524,-0.35747 1.48523,-0.14828 1.48524,0.0202 1.48523,0.75129 1.48523,0.42906 1.48524,0.26587 1.48523,-0.33009 1.48524,0.0895 2.97047,1.12464 1.48523,0.49727 1.48524,0.11994 1.48523,0.58691 2.97047,0.2915 1.48524,-0.55352 1.48523,-1.00348 1.48523,-0.28102 1.48524,-0.10736 1.48523,-0.6724 1.48524,-0.1581 1.48523,-0.47719 1.48524,-1.28796 1.48523,-1.51395 1.48523,-1.16181 1.48524,-1.83189 1.48523,-0.70287 1.48524,-0.87047 1.48523,-1.09657 1.48524,-0.87466 1.48523,-1.34455 1.48524,-1.90987 2.97047,-3.00833 1.48523,-2.13988 1.48524,-1.48671 1.48523,-0.6965 1.48523,-0.57161 2.97047,-4.40913 1.48524,-1.70996 1.48523,-1.08992 2.97047,-1.32107 1.48523,-1.27186 1.48524,-1.49848 1.48523,-0.67529 1.48524,-0.25846 1.48523,-0.0694 1.48524,-0.45704 1.48523,-1.00838 1.48524,-1.34291 1.48523,-0.6722 1.48524,-1.26388 1.48523,-1.44203 1.48524,-1.80834 1.48523,-1.0706 2.97047,-2.76536 1.48523,-1.27798 1.48524,-1.55315 1.48523,-1.93138 1.48524,-2.22972 1.48523,-1.21521 1.48523,-0.58204 1.48524,-0.34778 2.97047,-2.01277 1.48523,-1.27986 1.48524,-1.08329 1.48523,-0.35771 1.48524,-0.0834 1.48523,0.68425 1.48523,0.54357 1.48524,0.22949 2.97047,1.08451 1.48527,0.12917 1.4852,0.0103 1.4852,0.13996 1.4853,0.41098 2.9704,-0.27945 1.4853,-0.48873 1.4852,-0.71353 1.4852,-0.42532 1.4853,-0.29478 1.4852,-0.51093 1.4852,-0.13307 1.4853,0.36007 1.4852,0.83389 2.9705,1.97119 1.4852,0.74015 2.9705,2.22353 1.4852,0.93295 1.4853,0.57108 1.4852,0.35351 1.4852,1.18539 1.4853,1.9196 1.4852,2.18588 1.4852,1.79113 2.9705,2.16243 1.4852,0.95299 1.4853,0.7855 1.4852,0.9336 1.4852,0.62049 1.4853,0.85639 4.4557,1.75572 1.4852,1.29068 2.9705,2.32148 1.4852,0.69362 1.4852,0.43872 1.4853,-0.63566 1.4852,0.007 1.4852,0.51122 1.4853,0.31226 2.9705,0.33313 7.4261,3.63225 2.9705,0.36213 1.4852,0.0164 1.4853,0.52001 1.4852,0.28818 2.9705,-0.447 2.9704,-0.58707 1.4853,-0.008 2.9704,-0.38059 1.4853,0.15375 2.9704,-0.52452 1.4853,-0.66119 1.4852,-0.32623 1.4852,0.0118 2.9705,0.91718 1.4852,1.60185 1.4853,1.01857 1.4852,0.84852 1.4853,0.55501 1.4852,1.18382 4.4557,2.6541 1.4852,0.41527 1.4853,0.75679 1.4852,0.33678 1.4852,0.55127 1.4853,0.28568 1.4852,-0.11586 5.9409,0.36 2.9705,-0.67744 1.4852,-0.47296 1.4853,-0.64957 1.4852,-0.34762 2.9705,-0.17777 1.4852,-0.11557 1.4852,0.39316 4.4557,0.81044 2.9705,0.87161 1.4853,0.45816 1.4852,0.21248 7.4262,-0.41375 1.4852,-0.1537 1.4852,-0.45669 1.4853,-0.63396 2.9704,-1.0693 1.4853,-0.71354 2.9704,-0.64073 1.4853,-0.30262 2.9704,-0.96906 1.4853,-0.65936 1.4852,-0.90999 1.4852,0.0528 1.4853,0.2296 1.4852,-0.26734 1.4852,-1.50921 1.4853,-1.15727 1.4852,-1.32332 2.9705,-3.65734 2.9705,-3.4737 1.4852,-2.45557 1.4852,-2.09905 2.9705,-2.58434 1.4852,-1.57384 1.4853,-1.96752 1.4852,-1.61386 2.9705,-2.53073 1.4852,-1.74409 1.4852,-2.37507 1.4853,-2.80239 2.9704,-4.29459 2.9705,-3.14637 1.4852,-0.96942 2.9705,-2.78237 2.9705,-1.24463 1.4852,-0.88733 1.4852,-0.55978 2.9705,-1.35784 1.4852,-0.25687 1.4853,-0.57209 1.4852,-0.35448 1.4853,-0.82851 1.4852,-0.64964 1.4852,-0.44525 1.4853,-1.04585 2.9704,-3.42416 1.4853,-1.17957 1.4852,-1.97907 1.4852,-3.56042 1.4853,-3.03045 1.4852,-4.76576 1.4852,-4.07466 1.4853,-3.71971 1.4852,-4.40331 1.4852,-3.82403 2.9705,-6.10158 1.4852,-2.03605 1.4853,-1.25683 2.9704,-2.86364 1.4853,-1.55065 7.4261,-8.86656 1.4853,-2.15052 4.4557,-4.61786 1.4852,-1.03935 1.4853,-0.39681 v 0"
                        style="fill:none;stroke:#1f77b4;stroke-width:1.5;stroke-linecap:square;stroke-linejoin:round;stroke-miterlimit:10;stroke-dasharray:none;stroke-opacity:1"
                        id="path296"/>
            </g>
        </g>
        <g
                id="g298">
            <g
                    id="g300"
                    clip-path="url(#clipPath304)">
                <path
                        d="m 397.87836,253.58371 4.4557,0.56189 2.97047,-0.11302 2.97047,-0.23065 1.48524,-1.03953 4.4557,-2.44249 2.97047,-2.92317 1.48523,-0.78951 1.48524,-0.10043 1.48523,-0.23806 1.48524,-0.50437 1.48523,-0.18229 2.97047,-0.20006 1.48523,-0.55251 4.45571,-2.58416 2.97047,-2.06021 1.48523,-1.59116 4.4557,-3.28152 1.48524,-0.96906 2.97047,-2.93787 2.97047,-2.12287 2.97047,-1.60037 1.48523,-0.64551 2.97047,-0.87855 1.48523,-0.32788 4.45571,-1.45435 1.48523,-0.0544 1.48524,0.61189 1.48523,1.15002 1.48524,0.83981 1.48523,0.65892 2.97047,2.75164 1.48523,1.55227 4.45571,3.56968 2.97047,3.14041 1.48523,1.56113 2.97047,4.75546 1.48523,1.7892 2.97047,4.22894 1.48524,3.24687 1.48523,3.7164 1.48524,2.93652 1.48523,2.39381 1.48523,1.85365 1.48524,1.61984 1.48523,0.84862 1.48524,1.15211 1.48523,0.74329 5.94094,5.0283 1.48524,0.91645 2.97047,1.34729 1.48523,0.0339 1.48523,-0.78801 2.97047,-0.36633 1.48524,0.0233 1.48523,-0.19894 2.97047,0.0782 1.48524,-0.25404 4.4557,0.37116 1.48523,-0.14138 1.48524,-0.45067 2.97047,-1.49255 1.48523,-1.16776 5.94094,-3.24027 1.48523,-0.63698 1.48524,-1.01857 7.42617,-2.84311 2.97047,-1.0373 2.97047,-1.66291 1.48523,-0.43693 1.48524,0.48332 2.97047,0.60417 1.48523,0.19077 2.97047,-0.0271 1.48523,0.2286 2.97047,0.1434 1.48524,0.27872 1.48523,-0.17029 2.97047,0.21452 1.48524,0.86364 7.42617,3.50239 1.48523,0.88395 2.97047,1.53765 1.48524,0.98382 1.48523,1.16145 1.48523,1.91044 2.97047,2.81386 1.48524,0.9874 1.48523,1.3785 1.48524,1.77004 2.97047,4.36148 1.48523,1.35297 1.48524,0.58703 1.48523,-0.29514 1.48524,0.57304 2.97046,0.75448 1.48524,0.72744 1.48523,1.05796 1.48524,0.53603 2.97047,1.28341 1.48523,0.58214 8.91141,1.91245 1.48523,0.75448 1.48524,0.96129 1.48523,1.1722 2.97047,1.92502 1.48523,0.83164 1.48524,1.84176 1.48523,2.42946 1.48524,1.60115 1.48523,0.76459 1.48524,0.44558 1.48523,1.11841 1.48524,1.81077 1.48523,1.52032 5.94094,7.31207 4.4557,5.5056 2.97047,2.46442 1.48523,1.48326 1.48524,1.26499 2.97047,2.85321 2.97047,1.88135 1.48523,1.11334 1.48524,1.45265 1.48523,1.03789 2.97047,1.5347 1.48523,0.5681 2.97047,0.89963 1.48524,0.6458 1.48523,1.10114 1.48524,0.78367 1.48523,0.45608 1.48524,0.70163 1.48523,0.51528 1.48523,-0.037 1.48524,0.13623 1.48523,0.38813 2.97047,0.39541 1.48524,0.38904 4.4557,2.02386 1.48524,0.77653 1.48523,0.99111 1.48524,0.61013 2.97046,1.88257 4.45571,2.22905 1.48523,1.15722 1.48524,0.5512 2.97046,0.18379 2.97047,-0.29601 1.48524,-0.27877 2.97047,-0.26477 1.48523,0.43008 1.48524,0.7665 2.97046,1.11355 2.97047,0.78651 4.45571,2.1951 2.97047,1.40898 1.48523,1.02011 1.48524,0.7946 1.48523,0.60639 2.97047,0.55031 2.97047,0.1146 10.39664,1.21796 1.48523,0.0561 1.48524,-0.15852 1.48523,-0.4264 1.48524,-0.24549 1.48523,0.055 2.97047,1.03315 1.48524,0.90403 5.94093,2.41025 1.48524,0.61666 4.4557,2.39694 1.48524,1.36183 2.97046,1.97538 1.48524,0.73728 1.48523,1.67536 1.48524,3.43255 1.48523,3.93948 1.48524,2.32569 1.48523,0.11147 1.48524,-0.97481 1.48523,-1.40721 1.48524,-2.06922 1.48523,-1.28088 1.48523,-0.83666 1.48524,-1.28002 1.48523,-2.3141 1.48524,-2.55573 1.48523,-1.79883 1.48524,-1.48397 1.48523,-0.4937 1.48524,0.0499 1.48523,-0.41921 1.48523,-0.55874 1.48524,-0.73656 1.48523,-1.1162 2.97047,-1.6065 1.48524,-0.33955 1.48523,-0.66955 1.48524,-0.46741 1.48523,-0.16249 1.48523,0.11996 1.48524,-0.30126 1.48523,-0.47598 2.97047,-1.54234 4.45571,-3.24435 1.48523,-1.45584 1.48524,-1.10672 1.48523,-0.91234 1.48523,-0.5904 1.48524,-0.34055 1.48523,-0.17775 2.97047,-1.19167 1.48524,-0.68446 1.48523,-1.29508 1.48524,-1.03948 1.48523,-1.26528 1.48524,-1.69192 1.48523,-1.21493 1.48523,-0.98555 1.48524,-0.78536 1.48523,-0.61377 2.97047,-0.86507 1.48524,-0.28883 1.48523,0.0865 2.97047,-0.19881 1.48523,-0.42871 1.48524,-0.2149 4.4557,0.0885 1.48524,-0.16312 1.48523,0.0783 2.97047,-0.26301 1.48524,-0.47653 1.48523,-0.70526 5.94094,-1.42612 1.48523,-0.44131 4.4557,-2.63267 1.48524,-1.15244 2.97047,-1.27833 4.4557,-2.42977 1.48524,-1.22866 2.97047,-2.08402 1.48523,-1.37659 1.48524,-1.06189 2.97046,-1.28 2.97047,-2.8809 1.48524,-1.21306 1.48523,-0.9098 2.97047,-1.3922 2.97047,-2.12742 1.48523,-0.71532 4.45571,-1.50065 1.48523,-0.86855 1.48524,-1.04025 1.48523,-0.70756 2.97047,-2.10634 1.48524,-1.29244 1.48523,-0.93012 5.94094,-4.42891 1.48523,-1.39068 1.48524,-1.55203 1.48523,-1.05318 4.4557,-2.27539 2.97047,-2.04581 1.48524,-0.98781 1.48523,-0.62333 1.48524,-0.47957 2.97046,-0.22398 1.48524,-0.28497 2.97047,-0.22012 4.45567,-0.92926 1.4853,-0.13337 2.9704,-0.79587 7.4262,-2.81633 1.4852,-0.37949 1.4853,-0.1256 2.9704,0.32622 1.4853,0.24 1.4852,0.12027 4.4557,0.91721 2.9705,0.0827 1.4852,0.41839 1.4853,0.80431 1.4852,0.96085 1.4852,0.78578 4.4557,1.31453 7.4262,1.67199 1.4852,0.21011 1.4853,0.35377 4.4557,1.83286 1.4852,0.37618 1.4852,0.25375 1.4853,-0.2851 1.4852,0.0326 2.9705,0.47714 2.9705,0.23977 7.4261,2.07995 2.9705,0.31933 1.4852,0.077 2.9705,0.54692 4.4557,-0.16514 1.4852,-0.0881 2.9705,-0.001 1.4852,-0.0288 1.4853,0.12779 2.9704,-0.16692 1.4853,-0.29029 1.4852,-0.1285 1.4852,0.0383 2.9705,0.53019 1.4852,0.84831 2.9705,1.06046 1.4853,0.3506 2.9704,1.22427 2.9705,1.0634 1.4852,0.31478 1.4853,0.48924 4.4557,0.93514 2.9704,0.2146 4.4557,0.47306 2.9705,-0.13071 4.4557,-0.47115 4.4557,0.0782 2.9705,0.46675 4.4557,0.70871 2.9705,0.63273 1.4852,0.19202 8.9114,0.1885 2.9705,-0.41627 2.9704,-0.43215 1.4853,-0.31612 7.4261,-0.82371 1.4853,-0.31819 1.4852,-0.45149 4.4557,0.008 1.4852,-0.76301 2.9705,-1.29502 5.941,-3.85824 1.4852,-1.34394 1.4852,-1.18592 2.9705,-1.60287 1.4852,-0.95823 1.4853,-1.16921 1.4852,-1.00644 2.9705,-1.69345 1.4852,-1.1008 1.4852,-1.43216 1.4853,-1.6666 4.4557,-3.85949 1.4852,-1.08084 1.4852,-0.81305 2.9705,-2.06585 8.9114,-4.08771 1.4852,-0.46978 7.4262,-3.10763 1.4853,-0.85886 2.9704,-2.40771 1.4853,-0.95021 1.4852,-1.35846 1.4852,-2.16926 1.4853,-1.92919 1.4852,-2.82725 5.9409,-10.10581 2.9705,-4.25327 1.4852,-1.64101 2.9705,-2.59264 2.9705,-2.75907 7.4261,-7.6615 1.4853,-1.73682 4.4557,-4.3154 1.4852,-1.18992 1.4853,-0.86248 v 0"
                        style="fill:none;stroke:#ff7f0e;stroke-width:1.5;stroke-linecap:square;stroke-linejoin:round;stroke-miterlimit:10;stroke-dasharray:none;stroke-opacity:1"
                        id="path306"/>
            </g>
        </g>
        <g
                id="g308">
            <path
                    d="m 198.9312,94.30184 v 510.9628"
                    style="fill:none;stroke:#000000;stroke-width:0.8;stroke-linecap:square;stroke-linejoin:miter;stroke-miterlimit:10;stroke-dasharray:none;stroke-opacity:1"
                    id="path310"/>
            <path
                    d="m 1340.928,94.30184 v 510.9628"
                    style="fill:none;stroke:#000000;stroke-width:0.8;stroke-linecap:square;stroke-linejoin:miter;stroke-miterlimit:10;stroke-dasharray:none;stroke-opacity:1"
                    id="path312"/>
            <path
                    d="M 198.9312,94.30184 H 1340.928"
                    style="fill:none;stroke:#000000;stroke-width:0.8;stroke-linecap:square;stroke-linejoin:miter;stroke-miterlimit:10;stroke-dasharray:none;stroke-opacity:1"
                    id="path314"/>
            <path
                    d="M 198.9312,605.26464 H 1340.928"
                    style="fill:none;stroke:#000000;stroke-width:0.8;stroke-linecap:square;stroke-linejoin:miter;stroke-miterlimit:10;stroke-dasharray:none;stroke-opacity:1"
                    id="path316"/>
            <g
                    id="g318"
                    transform="translate(648.96085,611.26464)">
                <text
                        xml:space="preserve"
                        transform="scale(1,-1)"
                        style="font-variant:normal;font-weight:normal;font-size:25px;font-family:'DejaVu Sans';-inkscape-font-specification:DejaVuSans;writing-mode:lr-tb;fill:#000000;fill-opacity:1;fill-rule:nonzero;stroke:none"
                        id="text322"><tspan
             x="0 11.603125 21.331249 36.706249 52.556252 68.431252 76.381248 93.831253 100.78125 116.10625 129.13126 142.15625 149.10625 157.90625 164.85625 178.60625 193.93124 203.73125 210.68124 225.98125"
             y="0"
             id="tspan320">Trend Classification</tspan></text>
            </g>
            <path
                    d="m 212.9312,413.10839 h 219.14062 c 2.66667,0 4,1.33333 4,4 v 174.15625 c 0,2.66667 -1.33333,4 -4,4 H 212.9312 c -2.66667,0 -4,-1.33333 -4,-4 V 417.10839 c 0,-2.66667 1.33333,-4 4,-4 z"
                    style="fill:#ffffff;fill-opacity:0.8;fill-rule:nonzero;stroke:#cccccc;stroke-width:1;stroke-linecap:butt;stroke-linejoin:miter;stroke-miterlimit:10;stroke-dasharray:none;stroke-opacity:0.8"
                    id="path324"/>
            <path
                    d="m 216.9312,572.06151 h 40 v 14 h -40 z"
                    style="fill:#0000ff;fill-opacity:1;fill-rule:nonzero;stroke:#0000ff;stroke-width:1;stroke-linecap:butt;stroke-linejoin:miter;stroke-miterlimit:10;stroke-dasharray:none;stroke-opacity:1"
                    id="path326"/>
            <g
                    id="g328"
                    transform="translate(272.9312,572.06151)">
                <text
                        xml:space="preserve"
                        transform="scale(1,-1)"
                        style="font-variant:normal;font-weight:normal;font-size:20px;font-family:'DejaVu Sans';-inkscape-font-specification:DejaVuSans;writing-mode:lr-tb;fill:#000000;fill-opacity:1;fill-rule:nonzero;stroke:none"
                        id="text332"><tspan
             x="0 12.7 18.26 30.959999 43.259998 59.619999 71.879997 83.720001 94.139999 100.5 109.7825 117.565 129.86501 142.545"
             y="0"
             id="tspan330">Sideways Trend</tspan></text>
            </g>
            <path
                    d="m 216.9312,542.70214 h 40 v 14 h -40 z"
                    style="fill:#ff0000;fill-opacity:1;fill-rule:nonzero;stroke:#ff0000;stroke-width:1;stroke-linecap:butt;stroke-linejoin:miter;stroke-miterlimit:10;stroke-dasharray:none;stroke-opacity:1"
                    id="path334"/>
            <g
                    id="g336"
                    transform="translate(272.9312,542.70214)">
                <text
                        xml:space="preserve"
                        transform="scale(1,-1)"
                        style="font-variant:normal;font-weight:normal;font-size:20px;font-family:'DejaVu Sans';-inkscape-font-specification:DejaVuSans;writing-mode:lr-tb;fill:#000000;fill-opacity:1;fill-rule:nonzero;stroke:none"
                        id="text340"><tspan
             x="0 15.4 27.639999 44 56.68 64.519997 72.302498 84.602501 97.282501"
             y="0"
             id="tspan338">Downtrend</tspan></text>
            </g>
            <path
                    d="m 216.9312,513.34276 h 40 v 14 h -40 z"
                    style="fill:#008000;fill-opacity:1;fill-rule:nonzero;stroke:#008000;stroke-width:1;stroke-linecap:butt;stroke-linejoin:miter;stroke-miterlimit:10;stroke-dasharray:none;stroke-opacity:1"
                    id="path342"/>
            <g
                    id="g344"
                    transform="translate(272.9312,513.34276)">
                <text
                        xml:space="preserve"
                        transform="scale(1,-1)"
                        style="font-variant:normal;font-weight:normal;font-size:20px;font-family:'DejaVu Sans';-inkscape-font-specification:DejaVuSans;writing-mode:lr-tb;fill:#000000;fill-opacity:1;fill-rule:nonzero;stroke:none"
                        id="text348"><tspan
             x="0 14.64 27.34 35.18 42.962502 55.262501 67.942497"
             y="0"
             id="tspan346">Uptrend</tspan></text>
            </g>
            <path
                    d="m 216.9312,490.98339 h 20 20"
                    style="fill:none;stroke:#000000;stroke-width:1.5;stroke-linecap:square;stroke-linejoin:round;stroke-miterlimit:10;stroke-dasharray:none;stroke-opacity:1"
                    id="path350"/>
            <g
                    id="g352"
                    transform="translate(272.9312,483.98339)">
                <text
                        xml:space="preserve"
                        transform="scale(1,-1)"
                        style="font-variant:normal;font-weight:normal;font-size:20px;font-family:'DejaVu Sans';-inkscape-font-specification:DejaVuSans;writing-mode:lr-tb;fill:#000000;fill-opacity:1;fill-rule:nonzero;stroke:none"
                        id="text356"><tspan
             x="0 13.96 19.52 31.76 42.18 47.740002 60.419998 73.120003 79.480003 91.196251 99.416252 104.97625 115.97625"
             y="0"
             id="tspan354">Closing Price</tspan></text>
            </g>
            <path
                    d="m 216.9312,461.62401 h 20 20"
                    style="fill:none;stroke:#1f77b4;stroke-width:1.5;stroke-linecap:square;stroke-linejoin:round;stroke-miterlimit:10;stroke-dasharray:none;stroke-opacity:1"
                    id="path358"/>
            <g
                    id="g360"
                    transform="translate(272.9312,454.62401)">
                <text
                        xml:space="preserve"
                        transform="scale(1,-1)"
                        style="font-variant:normal;font-weight:normal;font-size:20px;font-family:'DejaVu Sans';-inkscape-font-specification:DejaVuSans;writing-mode:lr-tb;fill:#000000;fill-opacity:1;fill-rule:nonzero;stroke:none"
                        id="text364"><tspan
             x="0 12.64 29.9 43.580002 51.380001 64.099998 76.82"
             y="0"
             id="tspan362">EMA(50)</tspan></text>
            </g>
            <path
                    d="m 216.9312,432.26464 h 20 20"
                    style="fill:none;stroke:#ff7f0e;stroke-width:1.5;stroke-linecap:square;stroke-linejoin:round;stroke-miterlimit:10;stroke-dasharray:none;stroke-opacity:1"
                    id="path366"/>
            <g
                    id="g368"
                    transform="translate(272.9312,425.26464)">
                <text
                        xml:space="preserve"
                        transform="scale(1,-1)"
                        style="font-variant:normal;font-weight:normal;font-size:20px;font-family:'DejaVu Sans';-inkscape-font-specification:DejaVuSans;writing-mode:lr-tb;fill:#000000;fill-opacity:1;fill-rule:nonzero;stroke:none"
                        id="text372"><tspan
             x="0 12.64 29.9 43.580002 51.380001 64.099998 76.82 89.540001"
             y="0"
             id="tspan370">EMA(100)</tspan></text>
            </g>
        </g>
    </g>
</svg>
