<?xml version="1.0" encoding="utf-8" standalone="no"?>
<!DOCTYPE svg PUBLIC "-//W3C//DTD SVG 1.1//EN"
        "http://www.w3.org/Graphics/SVG/1.1/DTD/svg11.dtd">
<svg xmlns:xlink="http://www.w3.org/1999/xlink" width="1382.4pt" height="702pt" viewBox="0 0 1382.4 702"
     xmlns="http://www.w3.org/2000/svg" version="1.1">
    <metadata>
        <rdf:RDF xmlns:dc="http://purl.org/dc/elements/1.1/" xmlns:cc="http://creativecommons.org/ns#"
                 xmlns:rdf="http://www.w3.org/1999/02/22-rdf-syntax-ns#">
            <cc:Work>
                <dc:type rdf:resource="http://purl.org/dc/dcmitype/StillImage"/>
                <dc:date>2025-06-25T13:27:09.430062</dc:date>
                <dc:format>image/svg+xml</dc:format>
                <dc:creator>
                    <cc:Agent>
                        <dc:title>Matplotlib v3.9.2, https://matplotlib.org/</dc:title>
                    </cc:Agent>
                </dc:creator>
            </cc:Work>
        </rdf:RDF>
    </metadata>
    <defs>
        <style type="text/css">*{stroke-linejoin: round; stroke-linecap: butt}</style>
    </defs>
    <g id="figure_1">
        <g id="patch_1">
            <path d="M 0 702
L 1382.4 702 
L 1382.4 0 
L 0 0 
z
" style="fill: #ffffff"/>
        </g>
        <g id="axes_1">
            <g id="patch_2">
                <path d="M 110.112 647.634
L 1361.664 647.634 
L 1361.664 52.416 
L 110.112 52.416 
z
" style="fill: #ffffff"/>
            </g>
            <g id="patch_3">
                <path d="M 167.000727 647.634
L 328.144762 647.634 
L 328.144762 52.416 
L 167.000727 52.416 
z
" clip-path="url(#pa5731bb7c7)" style="fill: #0000ff; opacity: 0.3; stroke: #0000ff; stroke-linejoin: miter"/>
            </g>
            <g id="patch_4">
                <path d="M 328.144762 647.634
L 339.538784 647.634 
L 339.538784 52.416 
L 328.144762 52.416 
z
" clip-path="url(#pa5731bb7c7)" style="fill: #008000; opacity: 0.3; stroke: #008000; stroke-linejoin: miter"/>
            </g>
            <g id="patch_5">
                <path d="M 339.538784 647.634
L 363.954547 647.634 
L 363.954547 52.416 
L 339.538784 52.416 
z
" clip-path="url(#pa5731bb7c7)" style="fill: #0000ff; opacity: 0.3; stroke: #0000ff; stroke-linejoin: miter"/>
            </g>
            <g id="patch_6">
                <path d="M 363.954547 647.634
L 411.158355 647.634 
L 411.158355 52.416 
L 363.954547 52.416 
z
" clip-path="url(#pa5731bb7c7)" style="fill: #ff0000; opacity: 0.3; stroke: #ff0000; stroke-linejoin: miter"/>
            </g>
            <g id="patch_7">
                <path d="M 411.158355 647.634
L 416.041508 647.634 
L 416.041508 52.416 
L 411.158355 52.416 
z
" clip-path="url(#pa5731bb7c7)" style="fill: #0000ff; opacity: 0.3; stroke: #0000ff; stroke-linejoin: miter"/>
            </g>
            <g id="patch_8">
                <path d="M 416.041508 647.634
L 474.639338 647.634 
L 474.639338 52.416 
L 416.041508 52.416 
z
" clip-path="url(#pa5731bb7c7)" style="fill: #008000; opacity: 0.3; stroke: #008000; stroke-linejoin: miter"/>
            </g>
            <g id="patch_9">
                <path d="M 474.639338 647.634
L 502.310536 647.634 
L 502.310536 52.416 
L 474.639338 52.416 
z
" clip-path="url(#pa5731bb7c7)" style="fill: #0000ff; opacity: 0.3; stroke: #0000ff; stroke-linejoin: miter"/>
            </g>
            <g id="patch_10">
                <path d="M 502.310536 647.634
L 533.237169 647.634 
L 533.237169 52.416 
L 502.310536 52.416 
z
" clip-path="url(#pa5731bb7c7)" style="fill: #ff0000; opacity: 0.3; stroke: #ff0000; stroke-linejoin: miter"/>
            </g>
            <g id="patch_11">
                <path d="M 533.237169 647.634
L 798.555124 647.634 
L 798.555124 52.416 
L 533.237169 52.416 
z
" clip-path="url(#pa5731bb7c7)" style="fill: #008000; opacity: 0.3; stroke: #008000; stroke-linejoin: miter"/>
            </g>
            <g id="patch_12">
                <path d="M 798.555124 647.634
L 808.32143 647.634 
L 808.32143 52.416 
L 798.555124 52.416 
z
" clip-path="url(#pa5731bb7c7)" style="fill: #0000ff; opacity: 0.3; stroke: #0000ff; stroke-linejoin: miter"/>
            </g>
            <g id="patch_13">
                <path d="M 808.32143 647.634
L 1024.80786 647.634 
L 1024.80786 52.416 
L 808.32143 52.416 
z
" clip-path="url(#pa5731bb7c7)" style="fill: #ff0000; opacity: 0.3; stroke: #ff0000; stroke-linejoin: miter"/>
            </g>
            <g id="patch_14">
                <path d="M 1024.80786 647.634
L 1047.595905 647.634 
L 1047.595905 52.416 
L 1024.80786 52.416 
z
" clip-path="url(#pa5731bb7c7)" style="fill: #0000ff; opacity: 0.3; stroke: #0000ff; stroke-linejoin: miter"/>
            </g>
            <g id="patch_15">
                <path d="M 1047.595905 647.634
L 1189.207329 647.634 
L 1189.207329 52.416 
L 1047.595905 52.416 
z
" clip-path="url(#pa5731bb7c7)" style="fill: #008000; opacity: 0.3; stroke: #008000; stroke-linejoin: miter"/>
            </g>
            <g id="patch_16">
                <path d="M 1189.207329 647.634
L 1192.462764 647.634 
L 1192.462764 52.416 
L 1189.207329 52.416 
z
" clip-path="url(#pa5731bb7c7)" style="fill: #ff0000; opacity: 0.3; stroke: #ff0000; stroke-linejoin: miter"/>
            </g>
            <g id="patch_17">
                <path d="M 1192.462764 647.634
L 1194.090481 647.634 
L 1194.090481 52.416 
L 1192.462764 52.416 
z
" clip-path="url(#pa5731bb7c7)" style="fill: #0000ff; opacity: 0.3; stroke: #0000ff; stroke-linejoin: miter"/>
            </g>
            <g id="patch_18">
                <path d="M 1194.090481 647.634
L 1304.775273 647.634 
L 1304.775273 52.416 
L 1194.090481 52.416 
z
" clip-path="url(#pa5731bb7c7)" style="fill: #ff0000; opacity: 0.3; stroke: #ff0000; stroke-linejoin: miter"/>
            </g>
            <g id="matplotlib.axis_1">
                <g id="xtick_1">
                    <g id="line2d_1">
                        <defs>
                            <path id="m3f9b960e88" d="M 0 0
L 0 3.5 
" style="stroke: #000000; stroke-width: 0.8"/>
                        </defs>
                        <g>
                            <use xlink:href="#m3f9b960e88" x="210.9491" y="647.634"
                                 style="stroke: #000000; stroke-width: 0.8"/>
                        </g>
                    </g>
                    <g id="text_1">
                        <!-- 14:00 -->
                        <g transform="translate(196.539725 662.232438) scale(0.1 -0.1)">
                            <defs>
                                <path id="DejaVuSans-31" d="M 794 531
L 1825 531 
L 1825 4091 
L 703 3866 
L 703 4441 
L 1819 4666 
L 2450 4666 
L 2450 531 
L 3481 531 
L 3481 0 
L 794 0 
L 794 531 
z
" transform="scale(0.015625)"/>
                                <path id="DejaVuSans-34" d="M 2419 4116
L 825 1625 
L 2419 1625 
L 2419 4116 
z
M 2253 4666 
L 3047 4666 
L 3047 1625 
L 3713 1625 
L 3713 1100 
L 3047 1100 
L 3047 0 
L 2419 0 
L 2419 1100 
L 313 1100 
L 313 1709 
L 2253 4666 
z
" transform="scale(0.015625)"/>
                                <path id="DejaVuSans-3a" d="M 750 794
L 1409 794 
L 1409 0 
L 750 0 
L 750 794 
z
M 750 3309 
L 1409 3309 
L 1409 2516 
L 750 2516 
L 750 3309 
z
" transform="scale(0.015625)"/>
                                <path id="DejaVuSans-30" d="M 2034 4250
Q 1547 4250 1301 3770 
Q 1056 3291 1056 2328 
Q 1056 1369 1301 889 
Q 1547 409 2034 409 
Q 2525 409 2770 889 
Q 3016 1369 3016 2328 
Q 3016 3291 2770 3770 
Q 2525 4250 2034 4250 
z
M 2034 4750 
Q 2819 4750 3233 4129 
Q 3647 3509 3647 2328 
Q 3647 1150 3233 529 
Q 2819 -91 2034 -91 
Q 1250 -91 836 529 
Q 422 1150 422 2328 
Q 422 3509 836 4129 
Q 1250 4750 2034 4750 
z
" transform="scale(0.015625)"/>
                            </defs>
                            <use xlink:href="#DejaVuSans-31"/>
                            <use xlink:href="#DejaVuSans-34" x="63.623047"/>
                            <use xlink:href="#DejaVuSans-3a" x="127.246094"/>
                            <use xlink:href="#DejaVuSans-30" x="160.9375"/>
                            <use xlink:href="#DejaVuSans-30" x="224.560547"/>
                        </g>
                    </g>
                </g>
                <g id="xtick_2">
                    <g id="line2d_2">
                        <g>
                            <use xlink:href="#m3f9b960e88" x="406.275203" y="647.634"
                                 style="stroke: #000000; stroke-width: 0.8"/>
                        </g>
                    </g>
                    <g id="text_2">
                        <!-- 16:00 -->
                        <g transform="translate(391.865828 662.232438) scale(0.1 -0.1)">
                            <defs>
                                <path id="DejaVuSans-36" d="M 2113 2584
Q 1688 2584 1439 2293 
Q 1191 2003 1191 1497 
Q 1191 994 1439 701 
Q 1688 409 2113 409 
Q 2538 409 2786 701 
Q 3034 994 3034 1497 
Q 3034 2003 2786 2293 
Q 2538 2584 2113 2584 
z
M 3366 4563 
L 3366 3988 
Q 3128 4100 2886 4159 
Q 2644 4219 2406 4219 
Q 1781 4219 1451 3797 
Q 1122 3375 1075 2522 
Q 1259 2794 1537 2939 
Q 1816 3084 2150 3084 
Q 2853 3084 3261 2657 
Q 3669 2231 3669 1497 
Q 3669 778 3244 343 
Q 2819 -91 2113 -91 
Q 1303 -91 875 529 
Q 447 1150 447 2328 
Q 447 3434 972 4092 
Q 1497 4750 2381 4750 
Q 2619 4750 2861 4703 
Q 3103 4656 3366 4563 
z
" transform="scale(0.015625)"/>
                            </defs>
                            <use xlink:href="#DejaVuSans-31"/>
                            <use xlink:href="#DejaVuSans-36" x="63.623047"/>
                            <use xlink:href="#DejaVuSans-3a" x="127.246094"/>
                            <use xlink:href="#DejaVuSans-30" x="160.9375"/>
                            <use xlink:href="#DejaVuSans-30" x="224.560547"/>
                        </g>
                    </g>
                </g>
                <g id="xtick_3">
                    <g id="line2d_3">
                        <g>
                            <use xlink:href="#m3f9b960e88" x="601.601305" y="647.634"
                                 style="stroke: #000000; stroke-width: 0.8"/>
                        </g>
                    </g>
                    <g id="text_3">
                        <!-- 18:00 -->
                        <g transform="translate(587.19193 662.232438) scale(0.1 -0.1)">
                            <defs>
                                <path id="DejaVuSans-38" d="M 2034 2216
Q 1584 2216 1326 1975 
Q 1069 1734 1069 1313 
Q 1069 891 1326 650 
Q 1584 409 2034 409 
Q 2484 409 2743 651 
Q 3003 894 3003 1313 
Q 3003 1734 2745 1975 
Q 2488 2216 2034 2216 
z
M 1403 2484 
Q 997 2584 770 2862 
Q 544 3141 544 3541 
Q 544 4100 942 4425 
Q 1341 4750 2034 4750 
Q 2731 4750 3128 4425 
Q 3525 4100 3525 3541 
Q 3525 3141 3298 2862 
Q 3072 2584 2669 2484 
Q 3125 2378 3379 2068 
Q 3634 1759 3634 1313 
Q 3634 634 3220 271 
Q 2806 -91 2034 -91 
Q 1263 -91 848 271 
Q 434 634 434 1313 
Q 434 1759 690 2068 
Q 947 2378 1403 2484 
z
M 1172 3481 
Q 1172 3119 1398 2916 
Q 1625 2713 2034 2713 
Q 2441 2713 2670 2916 
Q 2900 3119 2900 3481 
Q 2900 3844 2670 4047 
Q 2441 4250 2034 4250 
Q 1625 4250 1398 4047 
Q 1172 3844 1172 3481 
z
" transform="scale(0.015625)"/>
                            </defs>
                            <use xlink:href="#DejaVuSans-31"/>
                            <use xlink:href="#DejaVuSans-38" x="63.623047"/>
                            <use xlink:href="#DejaVuSans-3a" x="127.246094"/>
                            <use xlink:href="#DejaVuSans-30" x="160.9375"/>
                            <use xlink:href="#DejaVuSans-30" x="224.560547"/>
                        </g>
                    </g>
                </g>
                <g id="xtick_4">
                    <g id="line2d_4">
                        <g>
                            <use xlink:href="#m3f9b960e88" x="796.927407" y="647.634"
                                 style="stroke: #000000; stroke-width: 0.8"/>
                        </g>
                    </g>
                    <g id="text_4">
                        <!-- 20:00 -->
                        <g transform="translate(782.518032 662.232438) scale(0.1 -0.1)">
                            <defs>
                                <path id="DejaVuSans-32" d="M 1228 531
L 3431 531 
L 3431 0 
L 469 0 
L 469 531 
Q 828 903 1448 1529 
Q 2069 2156 2228 2338 
Q 2531 2678 2651 2914 
Q 2772 3150 2772 3378 
Q 2772 3750 2511 3984 
Q 2250 4219 1831 4219 
Q 1534 4219 1204 4116 
Q 875 4013 500 3803 
L 500 4441 
Q 881 4594 1212 4672 
Q 1544 4750 1819 4750 
Q 2544 4750 2975 4387 
Q 3406 4025 3406 3419 
Q 3406 3131 3298 2873 
Q 3191 2616 2906 2266 
Q 2828 2175 2409 1742 
Q 1991 1309 1228 531 
z
" transform="scale(0.015625)"/>
                            </defs>
                            <use xlink:href="#DejaVuSans-32"/>
                            <use xlink:href="#DejaVuSans-30" x="63.623047"/>
                            <use xlink:href="#DejaVuSans-3a" x="127.246094"/>
                            <use xlink:href="#DejaVuSans-30" x="160.9375"/>
                            <use xlink:href="#DejaVuSans-30" x="224.560547"/>
                        </g>
                    </g>
                </g>
                <g id="xtick_5">
                    <g id="line2d_5">
                        <g>
                            <use xlink:href="#m3f9b960e88" x="992.253509" y="647.634"
                                 style="stroke: #000000; stroke-width: 0.8"/>
                        </g>
                    </g>
                    <g id="text_5">
                        <!-- 22:00 -->
                        <g transform="translate(977.844134 662.232438) scale(0.1 -0.1)">
                            <use xlink:href="#DejaVuSans-32"/>
                            <use xlink:href="#DejaVuSans-32" x="63.623047"/>
                            <use xlink:href="#DejaVuSans-3a" x="127.246094"/>
                            <use xlink:href="#DejaVuSans-30" x="160.9375"/>
                            <use xlink:href="#DejaVuSans-30" x="224.560547"/>
                        </g>
                    </g>
                </g>
                <g id="xtick_6">
                    <g id="line2d_6">
                        <g>
                            <use xlink:href="#m3f9b960e88" x="1187.579611" y="647.634"
                                 style="stroke: #000000; stroke-width: 0.8"/>
                        </g>
                    </g>
                    <g id="text_6">
                        <!-- 00:00 -->
                        <g transform="translate(1173.170236 662.232438) scale(0.1 -0.1)">
                            <use xlink:href="#DejaVuSans-30"/>
                            <use xlink:href="#DejaVuSans-30" x="63.623047"/>
                            <use xlink:href="#DejaVuSans-3a" x="127.246094"/>
                            <use xlink:href="#DejaVuSans-30" x="160.9375"/>
                            <use xlink:href="#DejaVuSans-30" x="224.560547"/>
                        </g>
                    </g>
                </g>
            </g>
            <g id="matplotlib.axis_2">
                <g id="ytick_1">
                    <g id="line2d_7">
                        <defs>
                            <path id="mb841fbdb1b" d="M 0 0
L -3.5 0 
" style="stroke: #000000; stroke-width: 0.8"/>
                        </defs>
                        <g>
                            <use xlink:href="#mb841fbdb1b" x="110.112" y="559.704068"
                                 style="stroke: #000000; stroke-width: 0.8"/>
                        </g>
                    </g>
                    <g id="text_7">
                        <!-- 1610 -->
                        <g transform="translate(77.662 563.503287) scale(0.1 -0.1)">
                            <use xlink:href="#DejaVuSans-31"/>
                            <use xlink:href="#DejaVuSans-36" x="63.623047"/>
                            <use xlink:href="#DejaVuSans-31" x="127.246094"/>
                            <use xlink:href="#DejaVuSans-30" x="190.869141"/>
                        </g>
                    </g>
                </g>
                <g id="ytick_2">
                    <g id="line2d_8">
                        <g>
                            <use xlink:href="#mb841fbdb1b" x="110.112" y="463.077769"
                                 style="stroke: #000000; stroke-width: 0.8"/>
                        </g>
                    </g>
                    <g id="text_8">
                        <!-- 1620 -->
                        <g transform="translate(77.662 466.876988) scale(0.1 -0.1)">
                            <use xlink:href="#DejaVuSans-31"/>
                            <use xlink:href="#DejaVuSans-36" x="63.623047"/>
                            <use xlink:href="#DejaVuSans-32" x="127.246094"/>
                            <use xlink:href="#DejaVuSans-30" x="190.869141"/>
                        </g>
                    </g>
                </g>
                <g id="ytick_3">
                    <g id="line2d_9">
                        <g>
                            <use xlink:href="#mb841fbdb1b" x="110.112" y="366.451471"
                                 style="stroke: #000000; stroke-width: 0.8"/>
                        </g>
                    </g>
                    <g id="text_9">
                        <!-- 1630 -->
                        <g transform="translate(77.662 370.25069) scale(0.1 -0.1)">
                            <defs>
                                <path id="DejaVuSans-33" d="M 2597 2516
Q 3050 2419 3304 2112 
Q 3559 1806 3559 1356 
Q 3559 666 3084 287 
Q 2609 -91 1734 -91 
Q 1441 -91 1130 -33 
Q 819 25 488 141 
L 488 750 
Q 750 597 1062 519 
Q 1375 441 1716 441 
Q 2309 441 2620 675 
Q 2931 909 2931 1356 
Q 2931 1769 2642 2001 
Q 2353 2234 1838 2234 
L 1294 2234 
L 1294 2753 
L 1863 2753 
Q 2328 2753 2575 2939 
Q 2822 3125 2822 3475 
Q 2822 3834 2567 4026 
Q 2313 4219 1838 4219 
Q 1578 4219 1281 4162 
Q 984 4106 628 3988 
L 628 4550 
Q 988 4650 1302 4700 
Q 1616 4750 1894 4750 
Q 2613 4750 3031 4423 
Q 3450 4097 3450 3541 
Q 3450 3153 3228 2886 
Q 3006 2619 2597 2516 
z
" transform="scale(0.015625)"/>
                            </defs>
                            <use xlink:href="#DejaVuSans-31"/>
                            <use xlink:href="#DejaVuSans-36" x="63.623047"/>
                            <use xlink:href="#DejaVuSans-33" x="127.246094"/>
                            <use xlink:href="#DejaVuSans-30" x="190.869141"/>
                        </g>
                    </g>
                </g>
                <g id="ytick_4">
                    <g id="line2d_10">
                        <g>
                            <use xlink:href="#mb841fbdb1b" x="110.112" y="269.825172"
                                 style="stroke: #000000; stroke-width: 0.8"/>
                        </g>
                    </g>
                    <g id="text_10">
                        <!-- 1640 -->
                        <g transform="translate(77.662 273.624391) scale(0.1 -0.1)">
                            <use xlink:href="#DejaVuSans-31"/>
                            <use xlink:href="#DejaVuSans-36" x="63.623047"/>
                            <use xlink:href="#DejaVuSans-34" x="127.246094"/>
                            <use xlink:href="#DejaVuSans-30" x="190.869141"/>
                        </g>
                    </g>
                </g>
                <g id="ytick_5">
                    <g id="line2d_11">
                        <g>
                            <use xlink:href="#mb841fbdb1b" x="110.112" y="173.198873"
                                 style="stroke: #000000; stroke-width: 0.8"/>
                        </g>
                    </g>
                    <g id="text_11">
                        <!-- 1650 -->
                        <g transform="translate(77.662 176.998092) scale(0.1 -0.1)">
                            <defs>
                                <path id="DejaVuSans-35" d="M 691 4666
L 3169 4666 
L 3169 4134 
L 1269 4134 
L 1269 2991 
Q 1406 3038 1543 3061 
Q 1681 3084 1819 3084 
Q 2600 3084 3056 2656 
Q 3513 2228 3513 1497 
Q 3513 744 3044 326 
Q 2575 -91 1722 -91 
Q 1428 -91 1123 -41 
Q 819 9 494 109 
L 494 744 
Q 775 591 1075 516 
Q 1375 441 1709 441 
Q 2250 441 2565 725 
Q 2881 1009 2881 1497 
Q 2881 1984 2565 2268 
Q 2250 2553 1709 2553 
Q 1456 2553 1204 2497 
Q 953 2441 691 2322 
L 691 4666 
z
" transform="scale(0.015625)"/>
                            </defs>
                            <use xlink:href="#DejaVuSans-31"/>
                            <use xlink:href="#DejaVuSans-36" x="63.623047"/>
                            <use xlink:href="#DejaVuSans-35" x="127.246094"/>
                            <use xlink:href="#DejaVuSans-30" x="190.869141"/>
                        </g>
                    </g>
                </g>
                <g id="ytick_6">
                    <g id="line2d_12">
                        <g>
                            <use xlink:href="#mb841fbdb1b" x="110.112" y="76.572575"
                                 style="stroke: #000000; stroke-width: 0.8"/>
                        </g>
                    </g>
                    <g id="text_12">
                        <!-- 1660 -->
                        <g transform="translate(77.662 80.371793) scale(0.1 -0.1)">
                            <use xlink:href="#DejaVuSans-31"/>
                            <use xlink:href="#DejaVuSans-36" x="63.623047"/>
                            <use xlink:href="#DejaVuSans-36" x="127.246094"/>
                            <use xlink:href="#DejaVuSans-30" x="190.869141"/>
                        </g>
                    </g>
                </g>
                <g id="text_13">
                    <!-- ETH/USDC M1 -->
                    <g transform="translate(71.582312 384.942187) rotate(-90) scale(0.1 -0.1)">
                        <defs>
                            <path id="DejaVuSans-45" d="M 628 4666
L 3578 4666 
L 3578 4134 
L 1259 4134 
L 1259 2753 
L 3481 2753 
L 3481 2222 
L 1259 2222 
L 1259 531 
L 3634 531 
L 3634 0 
L 628 0 
L 628 4666 
z
" transform="scale(0.015625)"/>
                            <path id="DejaVuSans-54" d="M -19 4666
L 3928 4666 
L 3928 4134 
L 2272 4134 
L 2272 0 
L 1638 0 
L 1638 4134 
L -19 4134 
L -19 4666 
z
" transform="scale(0.015625)"/>
                            <path id="DejaVuSans-48" d="M 628 4666
L 1259 4666 
L 1259 2753 
L 3553 2753 
L 3553 4666 
L 4184 4666 
L 4184 0 
L 3553 0 
L 3553 2222 
L 1259 2222 
L 1259 0 
L 628 0 
L 628 4666 
z
" transform="scale(0.015625)"/>
                            <path id="DejaVuSans-2f" d="M 1625 4666
L 2156 4666 
L 531 -594 
L 0 -594 
L 1625 4666 
z
" transform="scale(0.015625)"/>
                            <path id="DejaVuSans-55" d="M 556 4666
L 1191 4666 
L 1191 1831 
Q 1191 1081 1462 751 
Q 1734 422 2344 422 
Q 2950 422 3222 751 
Q 3494 1081 3494 1831 
L 3494 4666 
L 4128 4666 
L 4128 1753 
Q 4128 841 3676 375 
Q 3225 -91 2344 -91 
Q 1459 -91 1007 375 
Q 556 841 556 1753 
L 556 4666 
z
" transform="scale(0.015625)"/>
                            <path id="DejaVuSans-53" d="M 3425 4513
L 3425 3897 
Q 3066 4069 2747 4153 
Q 2428 4238 2131 4238 
Q 1616 4238 1336 4038 
Q 1056 3838 1056 3469 
Q 1056 3159 1242 3001 
Q 1428 2844 1947 2747 
L 2328 2669 
Q 3034 2534 3370 2195 
Q 3706 1856 3706 1288 
Q 3706 609 3251 259 
Q 2797 -91 1919 -91 
Q 1588 -91 1214 -16 
Q 841 59 441 206 
L 441 856 
Q 825 641 1194 531 
Q 1563 422 1919 422 
Q 2459 422 2753 634 
Q 3047 847 3047 1241 
Q 3047 1584 2836 1778 
Q 2625 1972 2144 2069 
L 1759 2144 
Q 1053 2284 737 2584 
Q 422 2884 422 3419 
Q 422 4038 858 4394 
Q 1294 4750 2059 4750 
Q 2388 4750 2728 4690 
Q 3069 4631 3425 4513 
z
" transform="scale(0.015625)"/>
                            <path id="DejaVuSans-44" d="M 1259 4147
L 1259 519 
L 2022 519 
Q 2988 519 3436 956 
Q 3884 1394 3884 2338 
Q 3884 3275 3436 3711 
Q 2988 4147 2022 4147 
L 1259 4147 
z
M 628 4666 
L 1925 4666 
Q 3281 4666 3915 4102 
Q 4550 3538 4550 2338 
Q 4550 1131 3912 565 
Q 3275 0 1925 0 
L 628 0 
L 628 4666 
z
" transform="scale(0.015625)"/>
                            <path id="DejaVuSans-43" d="M 4122 4306
L 4122 3641 
Q 3803 3938 3442 4084 
Q 3081 4231 2675 4231 
Q 1875 4231 1450 3742 
Q 1025 3253 1025 2328 
Q 1025 1406 1450 917 
Q 1875 428 2675 428 
Q 3081 428 3442 575 
Q 3803 722 4122 1019 
L 4122 359 
Q 3791 134 3420 21 
Q 3050 -91 2638 -91 
Q 1578 -91 968 557 
Q 359 1206 359 2328 
Q 359 3453 968 4101 
Q 1578 4750 2638 4750 
Q 3056 4750 3426 4639 
Q 3797 4528 4122 4306 
z
" transform="scale(0.015625)"/>
                            <path id="DejaVuSans-20" transform="scale(0.015625)"/>
                            <path id="DejaVuSans-4d" d="M 628 4666
L 1569 4666 
L 2759 1491 
L 3956 4666 
L 4897 4666 
L 4897 0 
L 4281 0 
L 4281 4097 
L 3078 897 
L 2444 897 
L 1241 4097 
L 1241 0 
L 628 0 
L 628 4666 
z
" transform="scale(0.015625)"/>
                        </defs>
                        <use xlink:href="#DejaVuSans-45"/>
                        <use xlink:href="#DejaVuSans-54" x="63.183594"/>
                        <use xlink:href="#DejaVuSans-48" x="124.267578"/>
                        <use xlink:href="#DejaVuSans-2f" x="199.462891"/>
                        <use xlink:href="#DejaVuSans-55" x="233.154297"/>
                        <use xlink:href="#DejaVuSans-53" x="306.347656"/>
                        <use xlink:href="#DejaVuSans-44" x="369.824219"/>
                        <use xlink:href="#DejaVuSans-43" x="446.826172"/>
                        <use xlink:href="#DejaVuSans-20" x="516.650391"/>
                        <use xlink:href="#DejaVuSans-4d" x="548.4375"/>
                        <use xlink:href="#DejaVuSans-31" x="634.716797"/>
                    </g>
                </g>
            </g>
            <g id="line2d_13">
                <path d="M 167.000727 542.311334
L 168.628445 555.355885 
L 170.256162 534.098099 
L 171.88388 534.581231 
L 173.511597 534.581231 
L 175.139315 559.704068 
L 176.767032 563.085989 
L 180.022467 524.435469 
L 181.650185 518.15476 
L 183.277902 522.986075 
L 184.90562 526.851127 
L 186.533338 521.53668 
L 188.161055 523.952338 
L 189.788773 540.378808 
L 191.41649 536.996888 
L 193.044208 527.81739 
L 194.671925 513.323445 
L 196.299643 511.390919 
L 197.92736 516.222234 
L 199.555078 523.469206 
L 201.182795 507.042735 
L 202.810513 524.918601 
L 204.43823 524.435469 
L 206.065948 522.986075 
L 207.693665 513.323445 
L 210.9491 529.266784 
L 212.576818 528.783653 
L 214.204535 493.031922 
L 215.832253 476.12232 
L 217.45997 451.965745 
L 219.087688 415.730883 
L 220.715405 418.146541 
L 222.343123 450.516351 
L 223.97084 443.269378 
L 225.598558 440.853721 
L 227.226275 431.191091 
L 228.853993 416.214015 
L 230.481711 423.460987 
L 232.109428 433.123617 
L 233.737146 431.191091 
L 235.364863 413.798357 
L 236.992581 414.76462 
L 238.620298 397.371886 
L 240.248016 412.832094 
L 241.875733 410.899568 
L 243.503451 411.3827 
L 245.131168 436.505537 
L 246.758886 428.292302 
L 248.386603 435.056143 
L 250.014321 443.269378 
L 251.642038 450.033219 
L 253.269756 459.212718 
L 254.897473 447.13443 
L 256.525191 454.864534 
L 258.152908 451.965745 
L 259.780626 458.729586 
L 261.408343 468.875347 
L 263.036061 465.010295 
L 264.663778 436.022406 
L 266.291496 422.494724 
L 267.919213 420.562198 
L 269.546931 433.606748 
L 271.174648 429.741696 
L 272.802366 426.842907 
L 274.430083 434.08988 
L 276.057801 435.539274 
L 277.685519 436.022406 
L 279.313236 425.393513 
L 280.940954 422.011593 
L 282.568671 430.707959 
L 284.196389 433.606748 
L 285.824106 422.011593 
L 287.451824 419.112804 
L 289.079541 446.168167 
L 290.707259 451.965745 
L 292.334976 428.775433 
L 293.962694 415.247752 
L 295.590411 432.157354 
L 297.218129 429.741696 
L 298.845846 422.977856 
L 300.473564 427.326039 
L 302.101281 429.258565 
L 303.728999 421.528461 
L 305.356716 415.730883 
L 306.984434 410.899568 
L 308.612151 405.10199 
L 310.239869 413.798357 
L 311.867586 412.348963 
L 313.495304 435.539274 
L 315.123021 440.853721 
L 316.750739 442.303115 
L 318.378456 453.41514 
L 320.006174 448.583825 
L 321.633892 447.617562 
L 323.261609 443.269378 
L 324.889327 460.178981 
L 326.517044 456.313929 
L 328.144762 458.246455 
L 329.772479 450.033219 
L 331.400197 450.999482 
L 333.027914 451.482614 
L 334.655632 462.594638 
L 336.283349 466.942821 
L 337.911067 465.976558 
L 339.538784 470.807873 
L 341.166502 522.986075 
L 342.794219 512.357182 
L 344.421937 507.042735 
L 346.049654 516.222234 
L 347.677372 549.558307 
L 349.305089 555.839016 
L 352.560524 476.12232 
L 354.188242 484.335555 
L 355.815959 500.278894 
L 357.443677 481.919898 
L 359.071394 475.156057 
L 360.699112 479.50424 
L 362.326829 504.143946 
L 363.954547 522.019812 
L 365.582265 524.435469 
L 367.209982 525.401732 
L 368.8377 537.963151 
L 370.465417 535.064362 
L 372.093135 571.299224 
L 373.720852 546.176386 
L 375.34857 546.659518 
L 376.976287 542.794466 
L 378.604005 540.378808 
L 380.231722 572.265487 
L 381.85944 571.299224 
L 383.487157 552.940227 
L 385.114875 549.075175 
L 386.742592 540.378808 
L 388.37031 535.547494 
L 389.998027 530.233047 
L 391.625745 520.087286 
L 393.253462 518.15476 
L 394.88118 513.323445 
L 396.508897 521.053549 
L 398.136615 522.502943 
L 399.764332 526.851127 
L 401.39205 499.312631 
L 403.019767 460.178981 
L 404.647485 427.80917 
L 406.275203 444.718773 
L 407.90292 454.381403 
L 409.530638 413.315226 
L 411.158355 408.000779 
L 412.786073 397.855018 
L 414.41379 414.76462 
L 416.041508 408.000779 
L 417.669225 424.910381 
L 419.296943 387.226125 
L 420.92466 392.540571 
L 422.552378 387.709256 
L 424.180095 340.845502 
L 425.807813 332.149135 
L 427.43553 366.934602 
L 429.063248 344.227422 
L 430.690965 344.710554 
L 432.318683 274.173356 
L 433.9464 242.769808 
L 435.574118 284.319117 
L 438.829553 341.811765 
L 440.45727 353.40692 
L 442.084988 396.888755 
L 443.712705 378.046627 
L 445.340423 400.753807 
L 446.96814 371.765917 
L 448.595858 373.698443 
L 450.223576 364.035813 
L 451.851293 360.653893 
L 453.479011 383.844205 
L 455.106728 394.956229 
L 456.734446 398.338149 
L 458.362163 433.123617 
L 459.989881 481.436766 
L 461.617598 448.100693 
L 463.245316 445.685036 
L 464.873033 435.056143 
L 466.500751 448.100693 
L 468.128468 436.988669 
L 469.756186 431.674222 
L 471.383903 451.482614 
L 473.011621 431.191091 
L 474.639338 427.326039 
L 476.267056 429.741696 
L 477.894773 444.718773 
L 481.150208 481.919898 
L 482.777926 480.953635 
L 484.405643 507.525867 
L 486.033361 489.650002 
L 487.661078 483.852424 
L 489.288796 499.795763 
L 490.916513 483.852424 
L 492.544231 481.436766 
L 494.171948 504.627078 
L 495.799666 479.50424 
L 497.427384 483.369292 
L 499.055101 475.156057 
L 500.682819 480.470503 
L 502.310536 484.818687 
L 503.938254 476.605451 
L 505.565971 483.369292 
L 507.193689 497.863237 
L 508.821406 501.728289 
L 510.449124 478.054846 
L 512.076841 424.42725 
L 513.704559 432.640485 
L 515.332276 436.022406 
L 516.959994 440.370589 
L 518.587711 455.347666 
L 520.215429 449.066956 
L 521.843146 437.954932 
L 523.470864 448.583825 
L 525.098581 445.201904 
L 526.726299 434.573011 
L 528.354016 460.662112 
L 529.981734 445.201904 
L 531.609451 443.75251 
L 533.237169 399.787544 
L 534.864886 409.450174 
L 536.492604 414.281489 
L 538.120321 408.483911 
L 539.748039 402.203201 
L 541.375757 399.787544 
L 543.003474 393.506834 
L 544.631192 401.236938 
L 546.258909 396.405623 
L 549.514344 373.215312 
L 551.142062 327.800951 
L 552.769779 354.856315 
L 554.397497 353.890052 
L 556.025214 376.597232 
L 559.280649 327.800951 
L 560.908367 296.880536 
L 562.536084 303.644377 
L 565.791519 388.675519 
L 567.419237 439.887458 
L 569.046954 389.158651 
L 570.674672 399.787544 
L 572.302389 399.787544 
L 575.557824 358.238235 
L 577.185542 387.709256 
L 578.813259 377.563495 
L 580.440977 383.361073 
L 582.068694 382.877942 
L 583.696412 397.855018 
L 585.32413 393.989966 
L 586.951847 401.236938 
L 588.579565 390.608045 
L 590.207282 395.922492 
L 591.835 400.753807 
L 593.462717 369.833391 
L 596.718152 343.261159 
L 598.34587 351.957526 
L 599.973587 355.339446 
L 601.601305 359.68763 
L 603.229022 299.296193 
L 604.85674 262.5782 
L 608.112175 355.822578 
L 609.739892 373.698443 
L 612.995327 291.566089 
L 614.623045 306.543166 
L 616.250762 284.319117 
L 617.87848 288.6673 
L 619.506197 280.454065 
L 621.133915 280.454065 
L 622.761632 278.521539 
L 624.38935 278.521539 
L 626.017068 269.825172 
L 627.644785 305.576903 
L 629.272503 306.543166 
L 630.90022 289.150432 
L 632.527938 300.262456 
L 634.155655 286.734774 
L 635.783373 290.116695 
L 637.41109 318.138321 
L 640.666525 302.194982 
L 642.294243 280.937196 
L 643.92196 303.644377 
L 645.549678 317.65519 
L 647.177395 318.138321 
L 648.805113 328.284083 
L 650.43283 335.047924 
L 652.060548 333.598529 
L 653.688265 322.003373 
L 655.315983 294.464878 
L 658.571418 330.216609 
L 660.199135 315.239532 
L 661.826853 325.385294 
L 663.45457 357.271972 
L 665.082288 347.126211 
L 666.710005 332.149135 
L 668.337723 342.294896 
L 669.965441 343.261159 
L 671.593158 331.182872 
L 673.220876 316.205795 
L 674.848593 308.958823 
L 676.476311 314.273269 
L 678.104028 305.576903 
L 679.731746 292.049221 
L 681.359463 313.307006 
L 682.987181 289.633563 
L 686.242616 301.228719 
L 687.870333 303.161245 
L 689.498051 300.745588 
L 691.125768 275.62275 
L 692.753486 309.925086 
L 694.381203 336.98045 
L 696.008921 335.531055 
L 697.636638 348.092474 
L 699.264356 352.440657 
L 700.892073 358.238235 
L 702.519791 349.541869 
L 704.147508 350.508131 
L 705.775226 317.172058 
L 707.402943 296.880536 
L 709.030661 307.509429 
L 710.658378 308.475692 
L 712.286096 319.587716 
L 713.913814 313.307006 
L 715.541531 293.981747 
L 717.169249 295.431141 
L 718.796966 295.431141 
L 720.424684 295.914273 
L 722.052401 293.015484 
L 723.680119 274.656487 
L 725.307836 286.734774 
L 726.935554 296.880536 
L 728.563271 313.790138 
L 730.190989 317.172058 
L 731.818706 327.800951 
L 733.446424 327.800951 
L 735.074141 320.070847 
L 736.701859 313.790138 
L 738.329576 320.553979 
L 739.957294 322.486505 
L 741.585011 319.587716 
L 743.212729 319.587716 
L 744.840446 324.902162 
L 746.468164 326.351557 
L 748.095881 338.912976 
L 749.723599 354.856315 
L 751.351316 344.710554 
L 752.979034 327.31782 
L 754.606751 297.846799 
L 756.234469 301.711851 
L 757.862186 276.105881 
L 759.489904 291.082958 
L 761.117622 285.28538 
L 762.745339 300.262456 
L 764.373057 290.116695 
L 766.000774 289.150432 
L 767.628492 278.521539 
L 769.256209 271.274567 
L 770.883927 280.454065 
L 772.511644 241.803545 
L 774.139362 258.230016 
L 775.767079 264.993857 
L 777.394797 274.656487 
L 779.022514 218.613234 
L 780.650232 113.290568 
L 782.277949 79.471364 
L 783.905667 169.816953 
L 785.533384 297.363667 
L 787.161102 361.137024 
L 788.788819 387.709256 
L 790.416537 428.292302 
L 792.044254 384.327336 
L 793.671972 359.68763 
L 795.299689 386.742994 
L 796.927407 449.066956 
L 798.555124 465.976558 
L 800.182842 424.42725 
L 801.810559 408.000779 
L 803.438277 351.474394 
L 805.065995 320.070847 
L 806.693712 347.609343 
L 808.32143 356.305709 
L 809.949147 367.417734 
L 811.576865 390.608045 
L 813.204582 370.799654 
L 814.8323 377.080364 
L 816.460017 348.092474 
L 818.087735 367.900865 
L 819.715452 356.788841 
L 822.970887 322.969636 
L 824.598605 347.609343 
L 826.226322 358.238235 
L 827.85404 375.147838 
L 829.481757 378.046627 
L 831.109475 397.371886 
L 832.737192 405.10199 
L 834.36491 390.124914 
L 835.992627 422.011593 
L 837.620345 403.169464 
L 839.248062 393.023703 
L 840.87578 375.147838 
L 842.503497 361.137024 
L 844.131215 351.957526 
L 845.758933 374.181575 
L 847.38665 379.979153 
L 849.014368 383.361073 
L 850.642085 420.079067 
L 852.269803 406.551385 
L 853.89752 421.04533 
L 855.525238 447.617562 
L 857.152955 421.528461 
L 858.780673 409.450174 
L 860.40839 398.821281 
L 862.036108 389.641782 
L 863.663825 382.877942 
L 865.291543 377.080364 
L 866.91926 372.249049 
L 868.546978 350.508131 
L 870.174695 359.204498 
L 871.802413 363.552682 
L 873.43013 380.945416 
L 875.057848 368.867128 
L 876.685565 353.890052 
L 878.313283 354.856315 
L 879.941 355.339446 
L 881.568718 365.968339 
L 883.196435 351.957526 
L 884.824153 363.552682 
L 886.45187 365.002076 
L 888.079588 384.810468 
L 889.707306 398.821281 
L 891.335023 378.529758 
L 892.962741 373.698443 
L 894.590458 390.608045 
L 896.218176 376.114101 
L 897.845893 385.776731 
L 899.473611 410.416437 
L 901.101328 418.629672 
L 902.729046 409.933305 
L 904.356763 431.191091 
L 905.984481 399.787544 
L 907.612198 405.585122 
L 909.239916 413.315226 
L 910.867633 408.000779 
L 912.495351 422.977856 
L 914.123068 441.336852 
L 915.750786 432.157354 
L 917.378503 432.640485 
L 919.006221 453.898271 
L 920.633938 436.988669 
L 922.261656 415.247752 
L 923.889373 412.348963 
L 925.517091 463.077769 
L 927.144808 462.594638 
L 928.772526 451.965745 
L 930.400243 435.539274 
L 932.027961 423.460987 
L 933.655679 425.393513 
L 935.283396 443.75251 
L 936.911114 451.965745 
L 938.538831 429.258565 
L 940.166549 417.663409 
L 941.794266 412.348963 
L 943.421984 423.944119 
L 945.049701 440.853721 
L 946.677419 451.965745 
L 948.305136 433.606748 
L 949.932854 451.965745 
L 951.560571 458.729586 
L 953.188289 471.291005 
L 954.816006 451.482614 
L 956.443724 463.560901 
L 958.071441 462.111506 
L 959.699159 462.111506 
L 961.326876 471.774136 
L 962.954594 484.818687 
L 964.582311 495.930711 
L 966.210029 468.392216 
L 967.837746 450.999482 
L 969.465464 444.718773 
L 971.093181 463.560901 
L 972.720899 466.942821 
L 974.348616 475.156057 
L 975.976334 470.807873 
L 977.604052 450.516351 
L 979.231769 442.786247 
L 980.859487 420.079067 
L 982.487204 423.460987 
L 984.114922 432.157354 
L 985.742639 421.04533 
L 987.370357 423.460987 
L 988.998074 433.606748 
L 990.625792 436.988669 
L 992.253509 433.123617 
L 993.881227 424.910381 
L 995.508944 439.887458 
L 997.136662 441.819984 
L 998.764379 451.482614 
L 1000.392097 458.729586 
L 1002.019814 450.999482 
L 1003.647532 447.617562 
L 1005.275249 454.381403 
L 1006.902967 443.75251 
L 1010.158402 414.76462 
L 1011.786119 409.933305 
L 1013.413837 407.517648 
L 1015.041554 414.281489 
L 1016.669272 401.72007 
L 1018.296989 401.72007 
L 1019.924707 405.10199 
L 1021.552424 414.76462 
L 1023.180142 420.562198 
L 1024.80786 395.43936 
L 1026.435577 372.249049 
L 1028.063295 362.103287 
L 1029.691012 371.282786 
L 1031.31873 389.641782 
L 1032.946447 389.641782 
L 1034.574165 391.574308 
L 1036.201882 395.43936 
L 1037.8296 390.124914 
L 1039.457317 398.338149 
L 1041.085035 390.608045 
L 1042.712752 398.338149 
L 1044.34047 400.753807 
L 1045.968187 392.05744 
L 1047.595905 374.664706 
L 1049.223622 377.563495 
L 1050.85134 375.147838 
L 1052.479057 388.192388 
L 1054.106775 394.956229 
L 1055.734492 426.359776 
L 1057.36221 408.000779 
L 1058.989927 393.023703 
L 1060.617645 398.338149 
L 1062.245362 402.203201 
L 1063.87308 402.203201 
L 1065.500798 385.776731 
L 1067.128515 388.192388 
L 1068.756233 379.01289 
L 1070.38395 386.742994 
L 1072.011668 378.529758 
L 1073.639385 396.405623 
L 1075.267103 397.855018 
L 1076.89482 401.72007 
L 1078.522538 386.742994 
L 1080.150255 393.023703 
L 1081.777973 407.034516 
L 1083.40569 408.967042 
L 1085.033408 410.416437 
L 1086.661125 410.899568 
L 1088.288843 402.686333 
L 1089.91656 408.967042 
L 1091.544278 407.517648 
L 1093.171995 398.338149 
L 1094.799713 409.933305 
L 1096.42743 411.3827 
L 1098.055148 422.977856 
L 1101.310583 404.135727 
L 1102.9383 392.05744 
L 1104.566018 389.158651 
L 1106.193735 355.822578 
L 1107.821453 371.282786 
L 1109.449171 375.147838 
L 1111.076888 382.877942 
L 1112.704606 363.552682 
L 1114.332323 369.833391 
L 1115.960041 369.833391 
L 1117.587758 370.316523 
L 1119.215476 381.911679 
L 1120.843193 371.282786 
L 1122.470911 382.877942 
L 1124.098628 376.114101 
L 1125.726346 383.361073 
L 1127.354063 394.956229 
L 1128.981781 389.158651 
L 1130.609498 386.742994 
L 1132.237216 390.124914 
L 1133.864933 389.158651 
L 1135.492651 400.753807 
L 1137.120368 402.203201 
L 1138.748086 406.068253 
L 1140.375803 411.865831 
L 1143.631238 395.43936 
L 1145.258956 397.371886 
L 1146.886673 397.371886 
L 1148.514391 382.39481 
L 1150.142108 386.259862 
L 1153.397544 384.327336 
L 1155.025261 380.945416 
L 1156.652979 378.046627 
L 1158.280696 378.046627 
L 1159.908414 384.810468 
L 1161.536131 393.023703 
L 1163.163849 392.540571 
L 1164.791566 393.023703 
L 1166.419284 395.922492 
L 1168.047001 393.023703 
L 1169.674719 395.922492 
L 1171.302436 405.10199 
L 1172.930154 410.899568 
L 1174.557871 407.034516 
L 1176.185589 410.899568 
L 1177.813306 415.247752 
L 1179.441024 406.068253 
L 1181.068741 403.169464 
L 1182.696459 404.618859 
L 1184.324176 410.416437 
L 1185.951894 410.899568 
L 1187.579611 416.697146 
L 1189.207329 424.910381 
L 1190.835046 397.371886 
L 1192.462764 392.05744 
L 1194.090481 406.551385 
L 1195.718199 443.75251 
L 1197.345917 435.056143 
L 1198.973634 441.336852 
L 1200.601352 458.729586 
L 1202.229069 459.212718 
L 1203.856787 458.729586 
L 1205.484504 462.111506 
L 1207.112222 484.818687 
L 1208.739939 477.088583 
L 1210.367657 455.347666 
L 1211.995374 457.280192 
L 1213.623092 466.942821 
L 1215.250809 480.470503 
L 1218.506244 464.044032 
L 1220.133962 465.010295 
L 1221.761679 480.953635 
L 1223.389397 501.728289 
L 1225.017114 517.188497 
L 1226.644832 499.312631 
L 1228.272549 505.110209 
L 1229.900267 490.616265 
L 1231.527984 489.16687 
L 1233.155702 474.672925 
L 1234.783419 489.650002 
L 1236.411137 488.683739 
L 1238.038854 469.84161 
L 1239.666572 468.392216 
L 1241.294289 478.054846 
L 1242.922007 469.358479 
L 1244.549725 473.706662 
L 1246.177442 474.189794 
L 1247.80516 462.594638 
L 1249.432877 472.257268 
L 1251.060595 466.45969 
L 1252.688312 480.953635 
L 1254.31603 476.605451 
L 1255.943747 471.291005 
L 1257.571465 489.650002 
L 1259.199182 509.458393 
L 1260.8269 513.806576 
L 1262.454617 498.8295 
L 1264.082335 523.952338 
L 1265.710052 573.23175 
L 1267.33777 561.636594 
L 1268.965487 616.713584 
L 1270.593205 601.736508 
L 1272.220922 595.93893 
L 1273.84864 620.578636 
L 1275.476357 608.500349 
L 1277.104075 593.523273 
L 1278.731792 590.141352 
L 1280.35951 566.951041 
L 1281.987227 546.176386 
L 1283.614945 552.457096 
L 1285.242663 554.872753 
L 1286.87038 559.704068 
L 1288.498098 567.917304 
L 1290.125815 571.299224 
L 1291.753533 575.647407 
L 1293.38125 566.467909 
L 1295.008968 579.995591 
L 1296.636685 589.658221 
L 1298.264403 575.164276 
L 1299.89212 574.198013 
L 1301.519838 578.063065 
L 1303.147555 564.535383 
L 1304.775273 546.659518 
L 1304.775273 546.659518 
" clip-path="url(#pa5731bb7c7)" style="fill: none; stroke: #000000; stroke-width: 1.5; stroke-linecap: square"/>
            </g>
            <g id="line2d_14">
                <path d="M 246.758886 487.949379
L 248.386603 485.875134 
L 250.014321 484.20432 
L 251.642038 482.864277 
L 253.269756 481.936765 
L 254.897473 480.571968 
L 258.152908 478.481555 
L 259.780626 477.706968 
L 261.408343 477.36063 
L 263.036061 476.876303 
L 264.663778 475.274189 
L 267.919213 471.140006 
L 271.174648 468.102372 
L 272.802366 466.484354 
L 276.057801 464.050268 
L 277.685519 462.951136 
L 280.940954 459.930575 
L 282.568671 458.78459 
L 284.196389 457.797223 
L 287.451824 454.931863 
L 289.079541 454.588189 
L 290.707259 454.485348 
L 292.334976 453.477116 
L 293.962694 451.977925 
L 297.218129 450.35912 
L 298.845846 449.285345 
L 303.728999 446.647342 
L 305.356716 445.434932 
L 306.984434 444.080604 
L 308.612151 442.552031 
L 311.867586 440.284221 
L 313.495304 440.098145 
L 316.750739 440.213083 
L 318.378456 440.73081 
L 321.633892 441.296763 
L 323.261609 441.374121 
L 324.889327 442.111566 
L 328.144762 443.279421 
L 333.027914 444.136479 
L 334.655632 444.860329 
L 339.538784 447.472885 
L 341.166502 450.434186 
L 342.794219 452.862539 
L 344.421937 454.987253 
L 346.049654 457.388624 
L 349.305089 464.722176 
L 350.932807 466.72284 
L 352.560524 467.091447 
L 354.188242 467.767687 
L 355.815959 469.042636 
L 357.443677 469.547627 
L 359.071394 469.767565 
L 360.699112 470.149396 
L 362.326829 471.482515 
L 367.209982 477.421609 
L 368.8377 479.795787 
L 370.465417 481.963182 
L 372.093135 485.466556 
L 375.34857 490.153694 
L 378.604005 494.106696 
L 381.85944 500.078706 
L 383.487157 502.151707 
L 385.114875 503.991843 
L 386.742592 505.418783 
L 388.37031 506.600301 
L 389.998027 507.527075 
L 393.253462 508.417089 
L 394.88118 508.609495 
L 398.136615 509.623201 
L 399.764332 510.298806 
L 401.39205 509.867975 
L 403.019767 507.919387 
L 404.647485 504.77781 
L 406.275203 502.422554 
L 407.90292 500.538587 
L 411.158355 493.623268 
L 412.786073 489.86765 
L 416.041508 483.827466 
L 417.669225 481.516992 
L 419.296943 477.819311 
L 422.552378 471.072467 
L 425.807813 460.717825 
L 427.43553 457.040052 
L 430.690965 448.38444 
L 432.318683 441.552633 
L 433.9464 433.757228 
L 435.574118 427.89691 
L 437.201835 423.384242 
L 438.829553 420.185321 
L 440.45727 417.56656 
L 442.084988 416.755666 
L 443.712705 415.237665 
L 445.340423 414.66967 
L 450.223576 409.587195 
L 451.851293 407.668242 
L 453.479011 406.733966 
L 455.106728 406.272094 
L 456.734446 405.960959 
L 458.362163 407.026162 
L 459.989881 409.944224 
L 461.617598 411.440557 
L 463.245316 412.783477 
L 464.873033 413.656915 
L 466.500751 415.007652 
L 468.128468 415.869652 
L 469.756186 416.489439 
L 471.383903 417.861721 
L 473.011621 418.384441 
L 476.267056 419.166724 
L 477.894773 420.168765 
L 479.522491 421.851471 
L 482.777926 426.43245 
L 484.405643 429.612584 
L 486.033361 431.966992 
L 487.661078 434.001715 
L 489.288796 436.581874 
L 492.544231 440.12194 
L 494.171948 442.651554 
L 497.427384 445.636856 
L 499.055101 446.794472 
L 503.938254 450.61528 
L 505.565971 451.899751 
L 508.821406 455.585616 
L 510.449124 456.466762 
L 512.076841 455.21031 
L 513.704559 454.325219 
L 515.332276 453.607462 
L 516.959994 453.088369 
L 518.587711 453.176969 
L 520.215429 453.015792 
L 521.843146 452.42517 
L 523.470864 452.274529 
L 525.098581 451.997171 
L 526.726299 451.313871 
L 528.354016 451.680468 
L 531.609451 451.12547 
L 533.237169 449.112218 
L 534.864886 447.556843 
L 536.492604 446.251928 
L 538.120321 444.770829 
L 541.375757 441.402923 
L 543.003474 439.524645 
L 546.258909 436.391106 
L 547.886627 434.368336 
L 549.514344 431.970178 
L 551.142062 427.88511 
L 554.397497 422.231778 
L 556.025214 420.442188 
L 557.652932 417.775461 
L 559.280649 414.247049 
L 560.908367 409.644441 
L 562.536084 405.487575 
L 564.163802 403.123109 
L 565.791519 402.556537 
L 567.419237 404.020495 
L 569.046954 403.437677 
L 572.302389 403.157006 
L 573.930107 402.191231 
L 575.557824 400.467584 
L 577.185542 399.967258 
L 578.813259 399.088679 
L 582.068694 397.860382 
L 583.696412 397.860171 
L 585.32413 397.708399 
L 586.951847 397.846773 
L 588.579565 397.562901 
L 590.207282 397.498571 
L 591.835 397.626228 
L 593.462717 396.536313 
L 595.090435 394.977588 
L 596.718152 392.949493 
L 598.34587 391.341965 
L 599.973587 389.930101 
L 601.601305 388.744122 
L 603.229022 385.23636 
L 604.85674 380.426236 
L 606.484457 377.604646 
L 608.112175 376.750447 
L 609.739892 376.630761 
L 611.36761 374.943222 
L 612.995327 371.673531 
L 614.623045 369.119399 
L 616.250762 365.793898 
L 619.506197 359.541276 
L 626.017068 347.286712 
L 629.272503 344.117391 
L 630.90022 341.961824 
L 632.527938 340.326555 
L 634.155655 338.224916 
L 635.783373 336.338319 
L 637.41109 335.624594 
L 639.038808 334.61677 
L 640.666525 333.345328 
L 642.294243 331.290107 
L 643.92196 330.20596 
L 647.177395 329.259834 
L 648.805113 329.221569 
L 652.060548 329.612739 
L 653.688265 329.314333 
L 655.315983 327.947687 
L 656.9437 327.316704 
L 658.571418 327.430426 
L 660.199135 326.952351 
L 661.826853 326.890898 
L 663.45457 328.082313 
L 665.082288 328.829132 
L 666.710005 328.959329 
L 669.965441 330.02264 
L 671.593158 330.068139 
L 673.220876 329.524518 
L 674.848593 328.71802 
L 676.476311 328.151559 
L 678.104028 327.266278 
L 679.731746 325.885217 
L 681.359463 325.391954 
L 682.987181 323.989664 
L 684.614898 322.869722 
L 687.870333 321.281455 
L 689.498051 320.476127 
L 691.125768 318.717171 
L 692.753486 318.372383 
L 696.008921 319.746384 
L 699.264356 322.096531 
L 700.892073 323.513853 
L 704.147508 325.553131 
L 705.775226 325.224461 
L 707.402943 324.112935 
L 710.658378 322.874126 
L 712.286096 322.745247 
L 713.913814 322.37512 
L 717.169249 320.248693 
L 722.052401 317.365454 
L 723.680119 315.690593 
L 725.307836 314.555071 
L 726.935554 313.861952 
L 728.563271 313.859135 
L 730.190989 313.989054 
L 733.446424 315.051099 
L 735.074141 315.247952 
L 736.701859 315.190783 
L 744.840446 316.329428 
L 746.468164 316.722453 
L 748.095881 317.592669 
L 749.723599 319.053989 
L 751.351316 320.060129 
L 752.979034 320.344744 
L 754.606751 319.462472 
L 756.234469 318.766369 
L 757.862186 317.093409 
L 759.489904 316.073391 
L 761.117622 314.866018 
L 762.745339 314.293329 
L 766.000774 312.39641 
L 767.628492 311.067984 
L 769.256209 309.507458 
L 770.883927 308.368109 
L 772.511644 305.757734 
L 774.139362 303.893902 
L 775.767079 302.36841 
L 777.394797 301.281668 
L 779.022514 298.039769 
L 780.650232 290.794702 
L 782.277949 282.507512 
L 783.905667 278.088275 
L 785.533384 278.844172 
L 787.161102 282.071343 
L 788.788819 286.214006 
L 790.416537 291.785704 
L 792.044254 295.414788 
L 793.671972 297.935291 
L 795.299689 301.417946 
L 796.927407 307.208104 
L 798.555124 313.434318 
L 800.182842 317.786982 
L 801.810559 321.324778 
L 803.438277 322.507115 
L 805.065995 322.411576 
L 806.693712 323.399723 
L 808.32143 324.690154 
L 809.949147 326.365745 
L 811.576865 328.885051 
L 813.204582 330.528761 
L 814.8323 332.354314 
L 816.460017 332.971497 
L 818.087735 334.341276 
L 819.715452 335.221573 
L 821.34317 335.38528 
L 822.970887 334.898392 
L 824.598605 335.396861 
L 826.226322 336.292601 
L 829.481757 339.393994 
L 831.109475 341.667637 
L 832.737192 344.155259 
L 834.36491 345.95799 
L 835.992627 348.940484 
L 837.620345 351.067111 
L 839.248062 352.712468 
L 840.87578 353.592286 
L 842.503497 353.888158 
L 844.131215 353.812447 
L 845.758933 354.611236 
L 849.014368 356.694489 
L 850.642085 359.180158 
L 852.269803 361.037854 
L 853.89752 363.391088 
L 855.525238 366.694087 
L 857.152955 368.844454 
L 858.780673 370.436836 
L 860.40839 371.549951 
L 862.036108 372.259435 
L 863.663825 372.675847 
L 865.291543 372.848573 
L 866.91926 372.825062 
L 868.546978 371.949888 
L 870.174695 371.450069 
L 871.802413 371.140368 
L 873.43013 371.524879 
L 875.057848 371.420654 
L 878.313283 370.110557 
L 879.941 369.531298 
L 881.568718 369.391574 
L 883.196435 368.707886 
L 886.45187 368.368323 
L 888.079588 369.013113 
L 889.707306 370.182061 
L 891.335023 370.509422 
L 892.962741 370.634481 
L 894.590458 371.417758 
L 896.218176 371.601929 
L 897.845893 372.157803 
L 899.473611 373.658142 
L 901.101328 375.421731 
L 902.729046 376.775126 
L 904.356763 378.909086 
L 905.984481 379.727849 
L 907.612198 380.741859 
L 909.239916 382.019246 
L 910.867633 383.03813 
L 912.495351 384.604394 
L 914.123068 386.829196 
L 917.378503 390.333583 
L 919.006221 392.826316 
L 920.633938 394.558173 
L 922.261656 395.369529 
L 923.889373 396.035389 
L 927.144808 401.171566 
L 928.772526 403.163495 
L 930.400243 404.433133 
L 933.655679 405.972037 
L 935.283396 407.453624 
L 936.911114 409.199197 
L 938.538831 409.985839 
L 940.166549 410.28692 
L 941.794266 410.367785 
L 943.421984 410.90019 
L 945.049701 412.074838 
L 946.677419 413.639188 
L 948.305136 414.422229 
L 949.932854 415.894524 
L 951.560571 417.57433 
L 953.188289 419.680867 
L 954.816006 420.927994 
L 958.071441 424.149348 
L 959.699159 425.638061 
L 961.326876 427.447318 
L 962.954594 429.697176 
L 964.582311 432.29457 
L 966.210029 433.710164 
L 967.837746 434.388176 
L 969.465464 434.793297 
L 972.720899 437.137964 
L 974.348616 438.628869 
L 975.976334 439.890791 
L 977.604052 440.30748 
L 979.231769 440.404686 
L 980.859487 439.607603 
L 982.487204 438.974402 
L 984.114922 438.707067 
L 985.742639 438.01445 
L 987.370357 437.443726 
L 988.998074 437.293256 
L 990.625792 437.281312 
L 992.253509 437.118265 
L 993.881227 436.639524 
L 997.136662 436.965055 
L 998.764379 437.534371 
L 1000.392097 438.365556 
L 1002.019814 438.861004 
L 1003.647532 439.204398 
L 1005.275249 439.799575 
L 1006.902967 439.954592 
L 1008.530684 439.53514 
L 1010.158402 438.563747 
L 1013.413837 436.26752 
L 1015.041554 435.405323 
L 1018.296989 432.815146 
L 1019.924707 431.728355 
L 1021.552424 431.063111 
L 1023.180142 430.65131 
L 1024.80786 429.27045 
L 1026.435577 427.034316 
L 1028.063295 424.488001 
L 1029.691012 422.401522 
L 1032.946447 419.882511 
L 1034.574165 418.772386 
L 1036.201882 417.857365 
L 1037.8296 416.769818 
L 1039.457317 416.047007 
L 1041.085035 415.049401 
L 1042.712752 414.394058 
L 1044.34047 413.859146 
L 1045.968187 413.004177 
L 1047.595905 411.500668 
L 1050.85134 408.796389 
L 1052.479057 407.988389 
L 1054.106775 407.477324 
L 1055.734492 408.217812 
L 1057.36221 408.209301 
L 1058.989927 407.613787 
L 1060.617645 407.250037 
L 1063.87308 406.861968 
L 1065.500798 406.035096 
L 1067.128515 405.335382 
L 1068.756233 404.303127 
L 1070.38395 403.614494 
L 1072.011668 402.630779 
L 1075.267103 402.208944 
L 1076.89482 402.189773 
L 1078.522538 401.584017 
L 1080.150255 401.248318 
L 1083.40569 401.769024 
L 1086.661125 402.452901 
L 1088.288843 402.462055 
L 1091.544278 402.905407 
L 1093.171995 402.726299 
L 1096.42743 403.33731 
L 1098.055148 404.107527 
L 1099.682865 404.48756 
L 1101.310583 404.473763 
L 1104.566018 403.40535 
L 1106.193735 401.539359 
L 1107.821453 400.352827 
L 1109.449171 399.364396 
L 1111.076888 398.717868 
L 1112.704606 397.338841 
L 1115.960041 395.223851 
L 1117.587758 394.247093 
L 1119.215476 393.763351 
L 1120.843193 392.88176 
L 1122.470911 392.489454 
L 1124.098628 391.847283 
L 1125.726346 391.51449 
L 1127.354063 391.649461 
L 1133.864933 391.230093 
L 1137.120368 392.019244 
L 1138.748086 392.570185 
L 1140.375803 393.326877 
L 1142.003521 393.731807 
L 1145.258956 393.938892 
L 1146.886673 394.07352 
L 1148.514391 393.615531 
L 1153.397544 392.671459 
L 1156.652979 391.656124 
L 1158.280696 391.122418 
L 1159.908414 390.874891 
L 1168.047001 391.356868 
L 1169.674719 391.535912 
L 1171.302436 392.067915 
L 1172.930154 392.806411 
L 1174.557871 393.364376 
L 1176.185589 394.052031 
L 1177.813306 394.883235 
L 1179.441024 395.321864 
L 1182.696459 395.982132 
L 1185.951894 397.110983 
L 1187.579611 397.879067 
L 1189.207329 398.939119 
L 1190.835046 398.877659 
L 1192.462764 398.610199 
L 1194.090481 398.921618 
L 1195.718199 400.679693 
L 1197.345917 402.027789 
L 1198.973634 403.569321 
L 1202.229069 407.829733 
L 1205.484504 411.876225 
L 1207.112222 414.736714 
L 1208.739939 417.181885 
L 1211.995374 420.192371 
L 1213.623092 422.025722 
L 1215.250809 424.317674 
L 1216.878527 426.197658 
L 1220.133962 429.145691 
L 1221.761679 431.177375 
L 1223.389397 433.944078 
L 1225.017114 437.208565 
L 1228.272549 442.21132 
L 1231.527984 445.876507 
L 1233.155702 447.005778 
L 1236.411137 450.246949 
L 1239.666572 451.696812 
L 1241.294289 452.730461 
L 1242.922007 453.38254 
L 1246.177442 454.964279 
L 1247.80516 455.263509 
L 1249.432877 455.929931 
L 1251.060595 456.342862 
L 1252.688312 457.307991 
L 1254.31603 458.064754 
L 1255.943747 458.58343 
L 1257.571465 459.801727 
L 1260.8269 463.790519 
L 1262.454617 465.164597 
L 1264.082335 467.469999 
L 1265.710052 471.617518 
L 1267.33777 475.147678 
L 1268.965487 480.699282 
L 1270.593205 485.44584 
L 1272.220922 489.778902 
L 1273.84864 494.908304 
L 1275.476357 499.362894 
L 1277.104075 503.055458 
L 1278.731792 506.470591 
L 1280.35951 508.842373 
L 1281.987227 510.306452 
L 1285.242663 513.642294 
L 1286.87038 515.448638 
L 1290.125815 519.615762 
L 1291.753533 521.813082 
L 1293.38125 523.564251 
L 1295.008968 525.777245 
L 1296.636685 528.282381 
L 1301.519838 533.661702 
L 1303.147555 534.872435 
L 1304.775273 535.334673 
L 1304.775273 535.334673 
" clip-path="url(#pa5731bb7c7)" style="fill: none; stroke: #1f77b4; stroke-width: 1.5; stroke-linecap: square"/>
            </g>
            <g id="line2d_15">
                <path d="M 328.144762 462.08735
L 333.027914 461.432805 
L 336.283349 461.564465 
L 339.538784 461.833141 
L 341.166502 463.044091 
L 346.049654 465.889337 
L 349.305089 469.294522 
L 350.932807 470.214217 
L 352.560524 470.331209 
L 354.188242 470.608523 
L 355.815959 471.196055 
L 357.443677 471.408408 
L 360.699112 471.641463 
L 362.326829 472.285077 
L 367.209982 475.295352 
L 370.465417 477.69527 
L 372.093135 479.548814 
L 376.976287 483.371436 
L 378.604005 484.500295 
L 381.85944 487.922596 
L 385.114875 490.395521 
L 388.37031 492.259788 
L 389.998027 493.011734 
L 393.253462 494.035148 
L 394.88118 494.417095 
L 399.764332 496.111267 
L 401.39205 496.174661 
L 403.019767 495.461875 
L 404.647485 494.122217 
L 406.275203 493.143931 
L 407.90292 492.376357 
L 411.158355 489.170987 
L 412.786073 487.36275 
L 416.041508 484.382107 
L 417.669225 483.204449 
L 420.92466 479.546198 
L 422.552378 477.727645 
L 425.807813 472.188039 
L 427.43553 470.103812 
L 430.690965 465.177534 
L 432.318683 461.395273 
L 433.9464 457.066056 
L 435.574118 453.645325 
L 437.201835 450.856781 
L 438.829553 448.697474 
L 440.45727 446.810532 
L 442.084988 445.821982 
L 443.712705 444.479896 
L 445.340423 443.614033 
L 450.223576 439.314228 
L 451.851293 437.756597 
L 453.479011 436.689025 
L 456.734446 435.119574 
L 458.362163 435.08005 
L 459.989881 435.998005 
L 463.245316 436.424739 
L 464.873033 436.397638 
L 466.500751 436.629381 
L 469.756186 436.538233 
L 471.383903 436.834162 
L 476.267056 436.401803 
L 477.894773 436.566496 
L 479.522491 437.091471 
L 482.777926 438.830143 
L 484.405643 440.190454 
L 486.033361 441.169851 
L 487.661078 442.01505 
L 489.288796 443.159223 
L 492.544231 444.707043 
L 494.171948 445.893579 
L 502.310536 449.205501 
L 503.938254 449.748074 
L 505.565971 450.413841 
L 508.821406 452.350955 
L 510.449124 452.859943 
L 512.076841 452.296919 
L 515.332276 451.593123 
L 516.959994 451.370895 
L 518.587711 451.449643 
L 520.215429 451.402461 
L 521.843146 451.136173 
L 525.098581 450.969122 
L 526.726299 450.644447 
L 528.354016 450.842816 
L 531.609451 450.592925 
L 533.237169 449.586878 
L 541.375757 445.506957 
L 543.003474 444.477251 
L 546.258909 442.686049 
L 547.886627 441.539998 
L 549.514344 440.187034 
L 551.142062 437.961567 
L 554.397497 434.683723 
L 556.025214 433.533496 
L 557.652932 431.927697 
L 559.280649 429.865781 
L 562.536084 424.785122 
L 564.163802 423.209054 
L 565.791519 422.525222 
L 567.419237 422.869028 
L 569.046954 422.201496 
L 572.302389 421.322604 
L 573.930107 420.475221 
L 575.557824 419.242805 
L 577.185542 418.618378 
L 578.813259 417.80541 
L 582.068694 416.445218 
L 588.579565 414.864493 
L 591.835 414.217412 
L 593.462717 413.33852 
L 595.090435 412.218725 
L 596.718152 410.853228 
L 599.973587 408.610788 
L 601.601305 407.642013 
L 603.229022 405.496551 
L 604.85674 402.666485 
L 606.484457 400.80132 
L 608.112175 399.910652 
L 609.739892 399.391598 
L 611.36761 398.088765 
L 612.995327 395.979406 
L 614.623045 394.208391 
L 619.506197 387.816593 
L 626.017068 379.277155 
L 629.272503 376.406366 
L 630.90022 374.678526 
L 632.527938 373.20494 
L 635.783373 369.881254 
L 637.41109 368.856642 
L 640.666525 366.392756 
L 642.294243 364.700566 
L 643.92196 363.491533 
L 647.177395 361.703772 
L 648.805113 361.041996 
L 652.060548 359.99402 
L 653.688265 359.24173 
L 655.315983 357.95902 
L 656.9437 357.046121 
L 658.571418 356.514843 
L 660.199135 355.69751 
L 661.826853 355.097269 
L 663.45457 355.140332 
L 665.082288 354.981636 
L 666.710005 354.529508 
L 669.965441 354.0689 
L 671.593158 353.615711 
L 673.220876 352.874921 
L 678.104028 350.353548 
L 679.731746 349.199007 
L 681.359463 348.488274 
L 682.987181 347.322834 
L 684.614898 346.295276 
L 689.498051 343.698662 
L 691.125768 342.350624 
L 692.753486 341.708534 
L 696.008921 341.494437 
L 699.264356 341.83926 
L 700.892073 342.163993 
L 704.147508 342.472427 
L 705.775226 341.971429 
L 707.402943 341.07854 
L 710.658378 339.781367 
L 712.286096 339.381493 
L 713.913814 338.865167 
L 718.796966 336.308109 
L 722.052401 334.66679 
L 723.680119 333.478467 
L 725.307836 332.55285 
L 726.935554 331.846467 
L 730.190989 331.205414 
L 733.446424 331.071919 
L 735.074141 330.854076 
L 736.701859 330.516176 
L 743.212729 329.7491 
L 746.468164 329.587743 
L 748.095881 329.772401 
L 749.723599 330.269112 
L 751.351316 330.555082 
L 752.979034 330.490977 
L 756.234469 329.287475 
L 757.862186 328.234374 
L 762.745339 326.140016 
L 766.000774 324.708341 
L 770.883927 321.916149 
L 772.511644 320.329761 
L 774.139362 319.100063 
L 775.767079 318.028653 
L 777.394797 317.169798 
L 779.022514 315.218183 
L 780.650232 311.219617 
L 782.277949 306.630542 
L 783.905667 303.921362 
L 785.533384 303.791507 
L 787.161102 304.927062 
L 788.788819 306.566313 
L 790.416537 308.976729 
L 792.044254 310.46882 
L 793.671972 311.44345 
L 795.299689 312.93453 
L 796.927407 315.630222 
L 798.555124 318.607377 
L 800.182842 320.70282 
L 801.810559 322.431492 
L 803.438277 323.006599 
L 805.065995 322.948466 
L 806.693712 323.4368 
L 808.32143 324.087669 
L 809.949147 324.94569 
L 811.576865 326.245935 
L 814.8323 328.117339 
L 816.460017 328.512886 
L 818.087735 329.292846 
L 819.715452 329.837321 
L 821.34317 330.026604 
L 822.970887 329.886862 
L 824.598605 330.237802 
L 826.226322 330.792266 
L 829.481757 332.588932 
L 834.36491 336.368255 
L 835.992627 338.064163 
L 837.620345 339.353377 
L 839.248062 340.416156 
L 840.87578 341.103912 
L 842.503497 341.500607 
L 844.131215 341.707675 
L 847.38665 343.09584 
L 849.014368 343.893171 
L 850.642085 345.401803 
L 852.269803 346.612685 
L 853.89752 348.086599 
L 855.525238 350.057509 
L 857.152955 351.472776 
L 858.780673 352.620843 
L 860.40839 353.535703 
L 862.036108 354.250675 
L 863.663825 354.817552 
L 866.91926 355.594848 
L 868.546978 355.494121 
L 871.802413 355.725714 
L 873.43013 356.225114 
L 875.057848 356.475451 
L 879.941 356.37234 
L 881.568718 356.56236 
L 883.196435 356.471175 
L 886.45187 356.777555 
L 888.079588 357.332662 
L 889.707306 358.154219 
L 892.962741 358.857512 
L 894.590458 359.486235 
L 896.218176 359.8155 
L 897.845893 360.329584 
L 899.473611 361.321402 
L 901.101328 362.45622 
L 902.729046 363.39636 
L 904.356763 364.73883 
L 907.612198 366.227958 
L 912.495351 369.058382 
L 914.123068 370.489639 
L 917.378503 372.917311 
L 919.006221 374.520894 
L 920.633938 375.75788 
L 923.889373 377.248949 
L 927.144808 380.604888 
L 928.772526 382.017974 
L 930.400243 383.077802 
L 933.655679 384.699569 
L 935.283396 385.868934 
L 936.911114 387.177782 
L 938.538831 388.011065 
L 943.421984 389.759156 
L 945.049701 390.77093 
L 946.677419 391.982708 
L 948.305136 392.806947 
L 951.560571 395.26061 
L 953.188289 396.766162 
L 954.816006 397.849656 
L 961.326876 403.008869 
L 962.954594 404.628865 
L 964.582311 406.436823 
L 966.210029 407.663662 
L 967.837746 408.521797 
L 969.465464 409.238569 
L 972.720899 411.435616 
L 975.976334 413.84811 
L 977.604052 414.574213 
L 979.231769 415.132867 
L 982.487204 415.393786 
L 984.114922 415.725738 
L 987.370357 415.982163 
L 992.253509 417.064648 
L 993.881227 417.220009 
L 997.136662 418.147109 
L 998.764379 418.807218 
L 1000.392097 419.59776 
L 1005.275249 421.42784 
L 1006.902967 421.869912 
L 1008.530684 422.016222 
L 1011.786119 421.636204 
L 1013.413837 421.356629 
L 1015.041554 421.216527 
L 1019.924707 420.148073 
L 1021.552424 420.04147 
L 1023.180142 420.051782 
L 1024.80786 419.564407 
L 1026.435577 418.627469 
L 1028.063295 417.508179 
L 1029.691012 416.592824 
L 1034.574165 415.061535 
L 1042.712752 413.113849 
L 1044.34047 412.869095 
L 1045.968187 412.456983 
L 1050.85134 410.321893 
L 1052.479057 409.883685 
L 1054.106775 409.588092 
L 1055.734492 409.920205 
L 1057.36221 409.882196 
L 1060.617645 409.32638 
L 1063.87308 409.047067 
L 1070.38395 407.191709 
L 1072.011668 406.624146 
L 1075.267103 406.25216 
L 1076.89482 406.162415 
L 1078.522538 405.777872 
L 1080.150255 405.525315 
L 1085.033408 405.717685 
L 1086.661125 405.820297 
L 1088.288843 405.758238 
L 1091.544278 405.85536 
L 1093.171995 405.706505 
L 1096.42743 405.900946 
L 1098.055148 406.239103 
L 1099.682865 406.388791 
L 1101.310583 406.344176 
L 1104.566018 405.726565 
L 1106.193735 404.738367 
L 1109.449171 403.503048 
L 1111.076888 403.09463 
L 1112.704606 402.311621 
L 1117.587758 400.429742 
L 1119.215476 400.063048 
L 1120.843193 399.493141 
L 1122.470911 399.164128 
L 1124.098628 398.707691 
L 1125.726346 398.403798 
L 1127.354063 398.335529 
L 1133.864933 397.602751 
L 1137.120368 397.75501 
L 1142.003521 398.303847 
L 1146.886673 398.212805 
L 1150.142108 397.669088 
L 1155.025261 396.843514 
L 1158.280696 396.106454 
L 1159.908414 395.882771 
L 1168.047001 395.657941 
L 1169.674719 395.66318 
L 1172.930154 396.148097 
L 1176.185589 396.651509 
L 1177.813306 397.019751 
L 1185.951894 397.97929 
L 1187.579611 398.349941 
L 1189.207329 398.87589 
L 1194.090481 398.866921 
L 1195.718199 399.755744 
L 1198.973634 401.264308 
L 1205.484504 405.758751 
L 1207.112222 407.324294 
L 1208.739939 408.705765 
L 1211.995374 410.572948 
L 1213.623092 411.689183 
L 1215.250809 413.051189 
L 1216.878527 414.223587 
L 1220.133962 416.196272 
L 1221.761679 417.478596 
L 1223.389397 419.146907 
L 1225.017114 421.088325 
L 1229.900267 425.584226 
L 1231.527984 426.843288 
L 1233.155702 427.79041 
L 1236.411137 430.196904 
L 1246.177442 434.958654 
L 1247.80516 435.505902 
L 1249.432877 436.233651 
L 1251.060595 436.832187 
L 1254.31603 438.476167 
L 1255.943747 439.125966 
L 1257.571465 440.126442 
L 1260.8269 442.931178 
L 1262.454617 444.038076 
L 1264.082335 445.620536 
L 1265.710052 448.147491 
L 1267.33777 450.3948 
L 1268.965487 453.688241 
L 1275.476357 465.460456 
L 1278.731792 470.415066 
L 1280.35951 472.32667 
L 1283.614945 475.346824 
L 1286.87038 478.560852 
L 1295.008968 487.485691 
L 1296.636685 489.508909 
L 1301.519838 494.535898 
L 1303.147555 495.922026 
L 1304.775273 496.926729 
L 1304.775273 496.926729 
" clip-path="url(#pa5731bb7c7)" style="fill: none; stroke: #ff7f0e; stroke-width: 1.5; stroke-linecap: square"/>
            </g>
            <g id="patch_19">
                <path d="M 110.112 647.634
L 110.112 52.416 
" style="fill: none; stroke: #000000; stroke-width: 0.8; stroke-linejoin: miter; stroke-linecap: square"/>
            </g>
            <g id="patch_20">
                <path d="M 1361.664 647.634
L 1361.664 52.416 
" style="fill: none; stroke: #000000; stroke-width: 0.8; stroke-linejoin: miter; stroke-linecap: square"/>
            </g>
            <g id="patch_21">
                <path d="M 110.112 647.634
L 1361.664 647.634 
" style="fill: none; stroke: #000000; stroke-width: 0.8; stroke-linejoin: miter; stroke-linecap: square"/>
            </g>
            <g id="patch_22">
                <path d="M 110.112 52.416
L 1361.664 52.416 
" style="fill: none; stroke: #000000; stroke-width: 0.8; stroke-linejoin: miter; stroke-linecap: square"/>
            </g>
            <g id="text_14">
                <!-- Trend Classification -->
                <g transform="translate(677.867062 46.416) scale(0.12 -0.12)">
                    <defs>
                        <path id="DejaVuSans-72" d="M 2631 2963
Q 2534 3019 2420 3045 
Q 2306 3072 2169 3072 
Q 1681 3072 1420 2755 
Q 1159 2438 1159 1844 
L 1159 0 
L 581 0 
L 581 3500 
L 1159 3500 
L 1159 2956 
Q 1341 3275 1631 3429 
Q 1922 3584 2338 3584 
Q 2397 3584 2469 3576 
Q 2541 3569 2628 3553 
L 2631 2963 
z
" transform="scale(0.015625)"/>
                        <path id="DejaVuSans-65" d="M 3597 1894
L 3597 1613 
L 953 1613 
Q 991 1019 1311 708 
Q 1631 397 2203 397 
Q 2534 397 2845 478 
Q 3156 559 3463 722 
L 3463 178 
Q 3153 47 2828 -22 
Q 2503 -91 2169 -91 
Q 1331 -91 842 396 
Q 353 884 353 1716 
Q 353 2575 817 3079 
Q 1281 3584 2069 3584 
Q 2775 3584 3186 3129 
Q 3597 2675 3597 1894 
z
M 3022 2063 
Q 3016 2534 2758 2815 
Q 2500 3097 2075 3097 
Q 1594 3097 1305 2825 
Q 1016 2553 972 2059 
L 3022 2063 
z
" transform="scale(0.015625)"/>
                        <path id="DejaVuSans-6e" d="M 3513 2113
L 3513 0 
L 2938 0 
L 2938 2094 
Q 2938 2591 2744 2837 
Q 2550 3084 2163 3084 
Q 1697 3084 1428 2787 
Q 1159 2491 1159 1978 
L 1159 0 
L 581 0 
L 581 3500 
L 1159 3500 
L 1159 2956 
Q 1366 3272 1645 3428 
Q 1925 3584 2291 3584 
Q 2894 3584 3203 3211 
Q 3513 2838 3513 2113 
z
" transform="scale(0.015625)"/>
                        <path id="DejaVuSans-64" d="M 2906 2969
L 2906 4863 
L 3481 4863 
L 3481 0 
L 2906 0 
L 2906 525 
Q 2725 213 2448 61 
Q 2172 -91 1784 -91 
Q 1150 -91 751 415 
Q 353 922 353 1747 
Q 353 2572 751 3078 
Q 1150 3584 1784 3584 
Q 2172 3584 2448 3432 
Q 2725 3281 2906 2969 
z
M 947 1747 
Q 947 1113 1208 752 
Q 1469 391 1925 391 
Q 2381 391 2643 752 
Q 2906 1113 2906 1747 
Q 2906 2381 2643 2742 
Q 2381 3103 1925 3103 
Q 1469 3103 1208 2742 
Q 947 2381 947 1747 
z
" transform="scale(0.015625)"/>
                        <path id="DejaVuSans-6c" d="M 603 4863
L 1178 4863 
L 1178 0 
L 603 0 
L 603 4863 
z
" transform="scale(0.015625)"/>
                        <path id="DejaVuSans-61" d="M 2194 1759
Q 1497 1759 1228 1600 
Q 959 1441 959 1056 
Q 959 750 1161 570 
Q 1363 391 1709 391 
Q 2188 391 2477 730 
Q 2766 1069 2766 1631 
L 2766 1759 
L 2194 1759 
z
M 3341 1997 
L 3341 0 
L 2766 0 
L 2766 531 
Q 2569 213 2275 61 
Q 1981 -91 1556 -91 
Q 1019 -91 701 211 
Q 384 513 384 1019 
Q 384 1609 779 1909 
Q 1175 2209 1959 2209 
L 2766 2209 
L 2766 2266 
Q 2766 2663 2505 2880 
Q 2244 3097 1772 3097 
Q 1472 3097 1187 3025 
Q 903 2953 641 2809 
L 641 3341 
Q 956 3463 1253 3523 
Q 1550 3584 1831 3584 
Q 2591 3584 2966 3190 
Q 3341 2797 3341 1997 
z
" transform="scale(0.015625)"/>
                        <path id="DejaVuSans-73" d="M 2834 3397
L 2834 2853 
Q 2591 2978 2328 3040 
Q 2066 3103 1784 3103 
Q 1356 3103 1142 2972 
Q 928 2841 928 2578 
Q 928 2378 1081 2264 
Q 1234 2150 1697 2047 
L 1894 2003 
Q 2506 1872 2764 1633 
Q 3022 1394 3022 966 
Q 3022 478 2636 193 
Q 2250 -91 1575 -91 
Q 1294 -91 989 -36 
Q 684 19 347 128 
L 347 722 
Q 666 556 975 473 
Q 1284 391 1588 391 
Q 1994 391 2212 530 
Q 2431 669 2431 922 
Q 2431 1156 2273 1281 
Q 2116 1406 1581 1522 
L 1381 1569 
Q 847 1681 609 1914 
Q 372 2147 372 2553 
Q 372 3047 722 3315 
Q 1072 3584 1716 3584 
Q 2034 3584 2315 3537 
Q 2597 3491 2834 3397 
z
" transform="scale(0.015625)"/>
                        <path id="DejaVuSans-69" d="M 603 3500
L 1178 3500 
L 1178 0 
L 603 0 
L 603 3500 
z
M 603 4863 
L 1178 4863 
L 1178 4134 
L 603 4134 
L 603 4863 
z
" transform="scale(0.015625)"/>
                        <path id="DejaVuSans-66" d="M 2375 4863
L 2375 4384 
L 1825 4384 
Q 1516 4384 1395 4259 
Q 1275 4134 1275 3809 
L 1275 3500 
L 2222 3500 
L 2222 3053 
L 1275 3053 
L 1275 0 
L 697 0 
L 697 3053 
L 147 3053 
L 147 3500 
L 697 3500 
L 697 3744 
Q 697 4328 969 4595 
Q 1241 4863 1831 4863 
L 2375 4863 
z
" transform="scale(0.015625)"/>
                        <path id="DejaVuSans-63" d="M 3122 3366
L 3122 2828 
Q 2878 2963 2633 3030 
Q 2388 3097 2138 3097 
Q 1578 3097 1268 2742 
Q 959 2388 959 1747 
Q 959 1106 1268 751 
Q 1578 397 2138 397 
Q 2388 397 2633 464 
Q 2878 531 3122 666 
L 3122 134 
Q 2881 22 2623 -34 
Q 2366 -91 2075 -91 
Q 1284 -91 818 406 
Q 353 903 353 1747 
Q 353 2603 823 3093 
Q 1294 3584 2113 3584 
Q 2378 3584 2631 3529 
Q 2884 3475 3122 3366 
z
" transform="scale(0.015625)"/>
                        <path id="DejaVuSans-74" d="M 1172 4494
L 1172 3500 
L 2356 3500 
L 2356 3053 
L 1172 3053 
L 1172 1153 
Q 1172 725 1289 603 
Q 1406 481 1766 481 
L 2356 481 
L 2356 0 
L 1766 0 
Q 1100 0 847 248 
Q 594 497 594 1153 
L 594 3053 
L 172 3053 
L 172 3500 
L 594 3500 
L 594 4494 
L 1172 4494 
z
" transform="scale(0.015625)"/>
                        <path id="DejaVuSans-6f" d="M 1959 3097
Q 1497 3097 1228 2736 
Q 959 2375 959 1747 
Q 959 1119 1226 758 
Q 1494 397 1959 397 
Q 2419 397 2687 759 
Q 2956 1122 2956 1747 
Q 2956 2369 2687 2733 
Q 2419 3097 1959 3097 
z
M 1959 3584 
Q 2709 3584 3137 3096 
Q 3566 2609 3566 1747 
Q 3566 888 3137 398 
Q 2709 -91 1959 -91 
Q 1206 -91 779 398 
Q 353 888 353 1747 
Q 353 2609 779 3096 
Q 1206 3584 1959 3584 
z
" transform="scale(0.015625)"/>
                    </defs>
                    <use xlink:href="#DejaVuSans-54"/>
                    <use xlink:href="#DejaVuSans-72" x="46.333984"/>
                    <use xlink:href="#DejaVuSans-65" x="85.197266"/>
                    <use xlink:href="#DejaVuSans-6e" x="146.720703"/>
                    <use xlink:href="#DejaVuSans-64" x="210.099609"/>
                    <use xlink:href="#DejaVuSans-20" x="273.576172"/>
                    <use xlink:href="#DejaVuSans-43" x="305.363281"/>
                    <use xlink:href="#DejaVuSans-6c" x="375.1875"/>
                    <use xlink:href="#DejaVuSans-61" x="402.970703"/>
                    <use xlink:href="#DejaVuSans-73" x="464.25"/>
                    <use xlink:href="#DejaVuSans-73" x="516.349609"/>
                    <use xlink:href="#DejaVuSans-69" x="568.449219"/>
                    <use xlink:href="#DejaVuSans-66" x="596.232422"/>
                    <use xlink:href="#DejaVuSans-69" x="631.4375"/>
                    <use xlink:href="#DejaVuSans-63" x="659.220703"/>
                    <use xlink:href="#DejaVuSans-61" x="714.201172"/>
                    <use xlink:href="#DejaVuSans-74" x="775.480469"/>
                    <use xlink:href="#DejaVuSans-69" x="814.689453"/>
                    <use xlink:href="#DejaVuSans-6f" x="842.472656"/>
                    <use xlink:href="#DejaVuSans-6e" x="903.654297"/>
                </g>
            </g>
            <g id="legend_1">
                <g id="patch_23">
                    <path d="M 117.112 148.48475
L 226.710438 148.48475 
Q 228.710438 148.48475 228.710438 146.48475 
L 228.710438 59.416 
Q 228.710438 57.416 226.710438 57.416 
L 117.112 57.416 
Q 115.112 57.416 115.112 59.416 
L 115.112 146.48475 
Q 115.112 148.48475 117.112 148.48475 
z
" style="fill: #ffffff; opacity: 0.8; stroke: #cccccc; stroke-linejoin: miter"/>
                </g>
                <g id="patch_24">
                    <path d="M 119.112 69.014437
L 139.112 69.014437 
L 139.112 62.014437 
L 119.112 62.014437 
z
" style="fill: #0000ff; stroke: #0000ff; stroke-linejoin: miter"/>
                </g>
                <g id="text_15">
                    <!-- Sideways Trend -->
                    <g transform="translate(147.112 69.014437) scale(0.1 -0.1)">
                        <defs>
                            <path id="DejaVuSans-77" d="M 269 3500
L 844 3500 
L 1563 769 
L 2278 3500 
L 2956 3500 
L 3675 769 
L 4391 3500 
L 4966 3500 
L 4050 0 
L 3372 0 
L 2619 2869 
L 1863 0 
L 1184 0 
L 269 3500 
z
" transform="scale(0.015625)"/>
                            <path id="DejaVuSans-79" d="M 2059 -325
Q 1816 -950 1584 -1140 
Q 1353 -1331 966 -1331 
L 506 -1331 
L 506 -850 
L 844 -850 
Q 1081 -850 1212 -737 
Q 1344 -625 1503 -206 
L 1606 56 
L 191 3500 
L 800 3500 
L 1894 763 
L 2988 3500 
L 3597 3500 
L 2059 -325 
z
" transform="scale(0.015625)"/>
                        </defs>
                        <use xlink:href="#DejaVuSans-53"/>
                        <use xlink:href="#DejaVuSans-69" x="63.476562"/>
                        <use xlink:href="#DejaVuSans-64" x="91.259766"/>
                        <use xlink:href="#DejaVuSans-65" x="154.736328"/>
                        <use xlink:href="#DejaVuSans-77" x="216.259766"/>
                        <use xlink:href="#DejaVuSans-61" x="298.046875"/>
                        <use xlink:href="#DejaVuSans-79" x="359.326172"/>
                        <use xlink:href="#DejaVuSans-73" x="418.505859"/>
                        <use xlink:href="#DejaVuSans-20" x="470.605469"/>
                        <use xlink:href="#DejaVuSans-54" x="502.392578"/>
                        <use xlink:href="#DejaVuSans-72" x="548.726562"/>
                        <use xlink:href="#DejaVuSans-65" x="587.589844"/>
                        <use xlink:href="#DejaVuSans-6e" x="649.113281"/>
                        <use xlink:href="#DejaVuSans-64" x="712.492188"/>
                    </g>
                </g>
                <g id="patch_25">
                    <path d="M 119.112 83.692563
L 139.112 83.692563 
L 139.112 76.692563 
L 119.112 76.692563 
z
" style="fill: #ff0000; stroke: #ff0000; stroke-linejoin: miter"/>
                </g>
                <g id="text_16">
                    <!-- Downtrend -->
                    <g transform="translate(147.112 83.692563) scale(0.1 -0.1)">
                        <use xlink:href="#DejaVuSans-44"/>
                        <use xlink:href="#DejaVuSans-6f" x="77.001953"/>
                        <use xlink:href="#DejaVuSans-77" x="138.183594"/>
                        <use xlink:href="#DejaVuSans-6e" x="219.970703"/>
                        <use xlink:href="#DejaVuSans-74" x="283.349609"/>
                        <use xlink:href="#DejaVuSans-72" x="322.558594"/>
                        <use xlink:href="#DejaVuSans-65" x="361.421875"/>
                        <use xlink:href="#DejaVuSans-6e" x="422.945312"/>
                        <use xlink:href="#DejaVuSans-64" x="486.324219"/>
                    </g>
                </g>
                <g id="patch_26">
                    <path d="M 119.112 98.370688
L 139.112 98.370688 
L 139.112 91.370688 
L 119.112 91.370688 
z
" style="fill: #008000; stroke: #008000; stroke-linejoin: miter"/>
                </g>
                <g id="text_17">
                    <!-- Uptrend -->
                    <g transform="translate(147.112 98.370688) scale(0.1 -0.1)">
                        <defs>
                            <path id="DejaVuSans-70" d="M 1159 525
L 1159 -1331 
L 581 -1331 
L 581 3500 
L 1159 3500 
L 1159 2969 
Q 1341 3281 1617 3432 
Q 1894 3584 2278 3584 
Q 2916 3584 3314 3078 
Q 3713 2572 3713 1747 
Q 3713 922 3314 415 
Q 2916 -91 2278 -91 
Q 1894 -91 1617 61 
Q 1341 213 1159 525 
z
M 3116 1747 
Q 3116 2381 2855 2742 
Q 2594 3103 2138 3103 
Q 1681 3103 1420 2742 
Q 1159 2381 1159 1747 
Q 1159 1113 1420 752 
Q 1681 391 2138 391 
Q 2594 391 2855 752 
Q 3116 1113 3116 1747 
z
" transform="scale(0.015625)"/>
                        </defs>
                        <use xlink:href="#DejaVuSans-55"/>
                        <use xlink:href="#DejaVuSans-70" x="73.193359"/>
                        <use xlink:href="#DejaVuSans-74" x="136.669922"/>
                        <use xlink:href="#DejaVuSans-72" x="175.878906"/>
                        <use xlink:href="#DejaVuSans-65" x="214.742188"/>
                        <use xlink:href="#DejaVuSans-6e" x="276.265625"/>
                        <use xlink:href="#DejaVuSans-64" x="339.644531"/>
                    </g>
                </g>
                <g id="line2d_16">
                    <path d="M 119.112 109.548812
L 129.112 109.548812 
L 139.112 109.548812 
" style="fill: none; stroke: #000000; stroke-width: 1.5; stroke-linecap: square"/>
                </g>
                <g id="text_18">
                    <!-- Closing Price -->
                    <g transform="translate(147.112 113.048812) scale(0.1 -0.1)">
                        <defs>
                            <path id="DejaVuSans-67" d="M 2906 1791
Q 2906 2416 2648 2759 
Q 2391 3103 1925 3103 
Q 1463 3103 1205 2759 
Q 947 2416 947 1791 
Q 947 1169 1205 825 
Q 1463 481 1925 481 
Q 2391 481 2648 825 
Q 2906 1169 2906 1791 
z
M 3481 434 
Q 3481 -459 3084 -895 
Q 2688 -1331 1869 -1331 
Q 1566 -1331 1297 -1286 
Q 1028 -1241 775 -1147 
L 775 -588 
Q 1028 -725 1275 -790 
Q 1522 -856 1778 -856 
Q 2344 -856 2625 -561 
Q 2906 -266 2906 331 
L 2906 616 
Q 2728 306 2450 153 
Q 2172 0 1784 0 
Q 1141 0 747 490 
Q 353 981 353 1791 
Q 353 2603 747 3093 
Q 1141 3584 1784 3584 
Q 2172 3584 2450 3431 
Q 2728 3278 2906 2969 
L 2906 3500 
L 3481 3500 
L 3481 434 
z
" transform="scale(0.015625)"/>
                            <path id="DejaVuSans-50" d="M 1259 4147
L 1259 2394 
L 2053 2394 
Q 2494 2394 2734 2622 
Q 2975 2850 2975 3272 
Q 2975 3691 2734 3919 
Q 2494 4147 2053 4147 
L 1259 4147 
z
M 628 4666 
L 2053 4666 
Q 2838 4666 3239 4311 
Q 3641 3956 3641 3272 
Q 3641 2581 3239 2228 
Q 2838 1875 2053 1875 
L 1259 1875 
L 1259 0 
L 628 0 
L 628 4666 
z
" transform="scale(0.015625)"/>
                        </defs>
                        <use xlink:href="#DejaVuSans-43"/>
                        <use xlink:href="#DejaVuSans-6c" x="69.824219"/>
                        <use xlink:href="#DejaVuSans-6f" x="97.607422"/>
                        <use xlink:href="#DejaVuSans-73" x="158.789062"/>
                        <use xlink:href="#DejaVuSans-69" x="210.888672"/>
                        <use xlink:href="#DejaVuSans-6e" x="238.671875"/>
                        <use xlink:href="#DejaVuSans-67" x="302.050781"/>
                        <use xlink:href="#DejaVuSans-20" x="365.527344"/>
                        <use xlink:href="#DejaVuSans-50" x="397.314453"/>
                        <use xlink:href="#DejaVuSans-72" x="455.867188"/>
                        <use xlink:href="#DejaVuSans-69" x="496.980469"/>
                        <use xlink:href="#DejaVuSans-63" x="524.763672"/>
                        <use xlink:href="#DejaVuSans-65" x="579.744141"/>
                    </g>
                </g>
                <g id="line2d_17">
                    <path d="M 119.112 124.226937
L 129.112 124.226937 
L 139.112 124.226937 
" style="fill: none; stroke: #1f77b4; stroke-width: 1.5; stroke-linecap: square"/>
                </g>
                <g id="text_19">
                    <!-- EMA(50) -->
                    <g transform="translate(147.112 127.726937) scale(0.1 -0.1)">
                        <defs>
                            <path id="DejaVuSans-41" d="M 2188 4044
L 1331 1722 
L 3047 1722 
L 2188 4044 
z
M 1831 4666 
L 2547 4666 
L 4325 0 
L 3669 0 
L 3244 1197 
L 1141 1197 
L 716 0 
L 50 0 
L 1831 4666 
z
" transform="scale(0.015625)"/>
                            <path id="DejaVuSans-28" d="M 1984 4856
Q 1566 4138 1362 3434 
Q 1159 2731 1159 2009 
Q 1159 1288 1364 580 
Q 1569 -128 1984 -844 
L 1484 -844 
Q 1016 -109 783 600 
Q 550 1309 550 2009 
Q 550 2706 781 3412 
Q 1013 4119 1484 4856 
L 1984 4856 
z
" transform="scale(0.015625)"/>
                            <path id="DejaVuSans-29" d="M 513 4856
L 1013 4856 
Q 1481 4119 1714 3412 
Q 1947 2706 1947 2009 
Q 1947 1309 1714 600 
Q 1481 -109 1013 -844 
L 513 -844 
Q 928 -128 1133 580 
Q 1338 1288 1338 2009 
Q 1338 2731 1133 3434 
Q 928 4138 513 4856 
z
" transform="scale(0.015625)"/>
                        </defs>
                        <use xlink:href="#DejaVuSans-45"/>
                        <use xlink:href="#DejaVuSans-4d" x="63.183594"/>
                        <use xlink:href="#DejaVuSans-41" x="149.462891"/>
                        <use xlink:href="#DejaVuSans-28" x="217.871094"/>
                        <use xlink:href="#DejaVuSans-35" x="256.884766"/>
                        <use xlink:href="#DejaVuSans-30" x="320.507812"/>
                        <use xlink:href="#DejaVuSans-29" x="384.130859"/>
                    </g>
                </g>
                <g id="line2d_18">
                    <path d="M 119.112 138.905062
L 129.112 138.905062 
L 139.112 138.905062 
" style="fill: none; stroke: #ff7f0e; stroke-width: 1.5; stroke-linecap: square"/>
                </g>
                <g id="text_20">
                    <!-- EMA(100) -->
                    <g transform="translate(147.112 142.405062) scale(0.1 -0.1)">
                        <use xlink:href="#DejaVuSans-45"/>
                        <use xlink:href="#DejaVuSans-4d" x="63.183594"/>
                        <use xlink:href="#DejaVuSans-41" x="149.462891"/>
                        <use xlink:href="#DejaVuSans-28" x="217.871094"/>
                        <use xlink:href="#DejaVuSans-31" x="256.884766"/>
                        <use xlink:href="#DejaVuSans-30" x="320.507812"/>
                        <use xlink:href="#DejaVuSans-30" x="384.130859"/>
                        <use xlink:href="#DejaVuSans-29" x="447.753906"/>
                    </g>
                </g>
            </g>
        </g>
    </g>
    <defs>
        <clipPath id="pa5731bb7c7">
            <rect x="110.112" y="52.416" width="1251.552" height="595.218"/>
        </clipPath>
    </defs>
</svg>
