<?xml version="1.0" encoding="utf-8" standalone="no"?>
<!DOCTYPE svg PUBLIC "-//W3C//DTD SVG 1.1//EN"
        "http://www.w3.org/Graphics/SVG/1.1/DTD/svg11.dtd">
<svg xmlns:xlink="http://www.w3.org/1999/xlink" width="1382.4pt" height="702pt" viewBox="0 0 1382.4 702"
     xmlns="http://www.w3.org/2000/svg" version="1.1">
    <metadata>
        <rdf:RDF xmlns:dc="http://purl.org/dc/elements/1.1/" xmlns:cc="http://creativecommons.org/ns#"
                 xmlns:rdf="http://www.w3.org/1999/02/22-rdf-syntax-ns#">
            <cc:Work>
                <dc:type rdf:resource="http://purl.org/dc/dcmitype/StillImage"/>
                <dc:date>2025-06-25T13:29:40.823594</dc:date>
                <dc:format>image/svg+xml</dc:format>
                <dc:creator>
                    <cc:Agent>
                        <dc:title>Matplotlib v3.9.2, https://matplotlib.org/</dc:title>
                    </cc:Agent>
                </dc:creator>
            </cc:Work>
        </rdf:RDF>
    </metadata>
    <defs>
        <style type="text/css">*{stroke-linejoin: round; stroke-linecap: butt}</style>
    </defs>
    <g id="figure_1">
        <g id="patch_1">
            <path d="M 0 702
L 1382.4 702 
L 1382.4 0 
L 0 0 
z
" style="fill: #ffffff"/>
        </g>
        <g id="axes_1">
            <g id="patch_2">
                <path d="M 110.112 647.634
L 1361.664 647.634 
L 1361.664 52.416 
L 110.112 52.416 
z
" style="fill: #ffffff"/>
            </g>
            <g id="patch_3">
                <path d="M 167.000727 647.634
L 267.919213 647.634 
L 267.919213 52.416 
L 167.000727 52.416 
z
" clip-path="url(#pefd103f57c)" style="fill: #0000ff; opacity: 0.3; stroke: #0000ff; stroke-linejoin: miter"/>
            </g>
            <g id="patch_4">
                <path d="M 267.919213 647.634
L 328.144762 647.634 
L 328.144762 52.416 
L 267.919213 52.416 
z
" clip-path="url(#pefd103f57c)" style="fill: #add8e6; opacity: 0.3; stroke: #add8e6; stroke-linejoin: miter"/>
            </g>
            <g id="patch_5">
                <path d="M 328.144762 647.634
L 339.538784 647.634 
L 339.538784 52.416 
L 328.144762 52.416 
z
" clip-path="url(#pefd103f57c)" style="fill: #90ee90; opacity: 0.3; stroke: #90ee90; stroke-linejoin: miter"/>
            </g>
            <g id="patch_6">
                <path d="M 339.538784 647.634
L 347.677372 647.634 
L 347.677372 52.416 
L 339.538784 52.416 
z
" clip-path="url(#pefd103f57c)" style="fill: #add8e6; opacity: 0.3; stroke: #add8e6; stroke-linejoin: miter"/>
            </g>
            <g id="patch_7">
                <path d="M 347.677372 647.634
L 363.954547 647.634 
L 363.954547 52.416 
L 347.677372 52.416 
z
" clip-path="url(#pefd103f57c)" style="fill: #0000ff; opacity: 0.3; stroke: #0000ff; stroke-linejoin: miter"/>
            </g>
            <g id="patch_8">
                <path d="M 363.954547 647.634
L 411.158355 647.634 
L 411.158355 52.416 
L 363.954547 52.416 
z
" clip-path="url(#pefd103f57c)" style="fill: #ffcccc; opacity: 0.3; stroke: #ffcccc; stroke-linejoin: miter"/>
            </g>
            <g id="patch_9">
                <path d="M 411.158355 647.634
L 416.041508 647.634 
L 416.041508 52.416 
L 411.158355 52.416 
z
" clip-path="url(#pefd103f57c)" style="fill: #0000ff; opacity: 0.3; stroke: #0000ff; stroke-linejoin: miter"/>
            </g>
            <g id="patch_10">
                <path d="M 416.041508 647.634
L 474.639338 647.634 
L 474.639338 52.416 
L 416.041508 52.416 
z
" clip-path="url(#pefd103f57c)" style="fill: #008000; opacity: 0.3; stroke: #008000; stroke-linejoin: miter"/>
            </g>
            <g id="patch_11">
                <path d="M 474.639338 647.634
L 502.310536 647.634 
L 502.310536 52.416 
L 474.639338 52.416 
z
" clip-path="url(#pefd103f57c)" style="fill: #0000ff; opacity: 0.3; stroke: #0000ff; stroke-linejoin: miter"/>
            </g>
            <g id="patch_12">
                <path d="M 502.310536 647.634
L 533.237169 647.634 
L 533.237169 52.416 
L 502.310536 52.416 
z
" clip-path="url(#pefd103f57c)" style="fill: #ffcccc; opacity: 0.3; stroke: #ffcccc; stroke-linejoin: miter"/>
            </g>
            <g id="patch_13">
                <path d="M 533.237169 647.634
L 741.585011 647.634 
L 741.585011 52.416 
L 533.237169 52.416 
z
" clip-path="url(#pefd103f57c)" style="fill: #008000; opacity: 0.3; stroke: #008000; stroke-linejoin: miter"/>
            </g>
            <g id="patch_14">
                <path d="M 741.585011 647.634
L 772.511644 647.634 
L 772.511644 52.416 
L 741.585011 52.416 
z
" clip-path="url(#pefd103f57c)" style="fill: #90ee90; opacity: 0.3; stroke: #90ee90; stroke-linejoin: miter"/>
            </g>
            <g id="patch_15">
                <path d="M 772.511644 647.634
L 798.555124 647.634 
L 798.555124 52.416 
L 772.511644 52.416 
z
" clip-path="url(#pefd103f57c)" style="fill: #008000; opacity: 0.3; stroke: #008000; stroke-linejoin: miter"/>
            </g>
            <g id="patch_16">
                <path d="M 798.555124 647.634
L 808.32143 647.634 
L 808.32143 52.416 
L 798.555124 52.416 
z
" clip-path="url(#pefd103f57c)" style="fill: #0000ff; opacity: 0.3; stroke: #0000ff; stroke-linejoin: miter"/>
            </g>
            <g id="patch_17">
                <path d="M 808.32143 647.634
L 993.881227 647.634 
L 993.881227 52.416 
L 808.32143 52.416 
z
" clip-path="url(#pefd103f57c)" style="fill: #ffcccc; opacity: 0.3; stroke: #ffcccc; stroke-linejoin: miter"/>
            </g>
            <g id="patch_18">
                <path d="M 993.881227 647.634
L 1024.80786 647.634 
L 1024.80786 52.416 
L 993.881227 52.416 
z
" clip-path="url(#pefd103f57c)" style="fill: #ff0000; opacity: 0.3; stroke: #ff0000; stroke-linejoin: miter"/>
            </g>
            <g id="patch_19">
                <path d="M 1024.80786 647.634
L 1047.595905 647.634 
L 1047.595905 52.416 
L 1024.80786 52.416 
z
" clip-path="url(#pefd103f57c)" style="fill: #add8e6; opacity: 0.3; stroke: #add8e6; stroke-linejoin: miter"/>
            </g>
            <g id="patch_20">
                <path d="M 1047.595905 647.634
L 1189.207329 647.634 
L 1189.207329 52.416 
L 1047.595905 52.416 
z
" clip-path="url(#pefd103f57c)" style="fill: #90ee90; opacity: 0.3; stroke: #90ee90; stroke-linejoin: miter"/>
            </g>
            <g id="patch_21">
                <path d="M 1189.207329 647.634
L 1192.462764 647.634 
L 1192.462764 52.416 
L 1189.207329 52.416 
z
" clip-path="url(#pefd103f57c)" style="fill: #ff0000; opacity: 0.3; stroke: #ff0000; stroke-linejoin: miter"/>
            </g>
            <g id="patch_22">
                <path d="M 1192.462764 647.634
L 1194.090481 647.634 
L 1194.090481 52.416 
L 1192.462764 52.416 
z
" clip-path="url(#pefd103f57c)" style="fill: #add8e6; opacity: 0.3; stroke: #add8e6; stroke-linejoin: miter"/>
            </g>
            <g id="patch_23">
                <path d="M 1194.090481 647.634
L 1225.017114 647.634 
L 1225.017114 52.416 
L 1194.090481 52.416 
z
" clip-path="url(#pefd103f57c)" style="fill: #ff0000; opacity: 0.3; stroke: #ff0000; stroke-linejoin: miter"/>
            </g>
            <g id="patch_24">
                <path d="M 1225.017114 647.634
L 1244.549725 647.634 
L 1244.549725 52.416 
L 1225.017114 52.416 
z
" clip-path="url(#pefd103f57c)" style="fill: #ffcccc; opacity: 0.3; stroke: #ffcccc; stroke-linejoin: miter"/>
            </g>
            <g id="patch_25">
                <path d="M 1244.549725 647.634
L 1265.710052 647.634 
L 1265.710052 52.416 
L 1244.549725 52.416 
z
" clip-path="url(#pefd103f57c)" style="fill: #ff0000; opacity: 0.3; stroke: #ff0000; stroke-linejoin: miter"/>
            </g>
            <g id="patch_26">
                <path d="M 1265.710052 647.634
L 1304.775273 647.634 
L 1304.775273 52.416 
L 1265.710052 52.416 
z
" clip-path="url(#pefd103f57c)" style="fill: #ffcccc; opacity: 0.3; stroke: #ffcccc; stroke-linejoin: miter"/>
            </g>
            <g id="matplotlib.axis_1">
                <g id="xtick_1">
                    <g id="line2d_1">
                        <defs>
                            <path id="mb0532d7afb" d="M 0 0
L 0 3.5 
" style="stroke: #000000; stroke-width: 0.8"/>
                        </defs>
                        <g>
                            <use xlink:href="#mb0532d7afb" x="210.9491" y="647.634"
                                 style="stroke: #000000; stroke-width: 0.8"/>
                        </g>
                    </g>
                    <g id="text_1">
                        <!-- 14:00 -->
                        <g transform="translate(196.539725 662.232438) scale(0.1 -0.1)">
                            <defs>
                                <path id="DejaVuSans-31" d="M 794 531
L 1825 531 
L 1825 4091 
L 703 3866 
L 703 4441 
L 1819 4666 
L 2450 4666 
L 2450 531 
L 3481 531 
L 3481 0 
L 794 0 
L 794 531 
z
" transform="scale(0.015625)"/>
                                <path id="DejaVuSans-34" d="M 2419 4116
L 825 1625 
L 2419 1625 
L 2419 4116 
z
M 2253 4666 
L 3047 4666 
L 3047 1625 
L 3713 1625 
L 3713 1100 
L 3047 1100 
L 3047 0 
L 2419 0 
L 2419 1100 
L 313 1100 
L 313 1709 
L 2253 4666 
z
" transform="scale(0.015625)"/>
                                <path id="DejaVuSans-3a" d="M 750 794
L 1409 794 
L 1409 0 
L 750 0 
L 750 794 
z
M 750 3309 
L 1409 3309 
L 1409 2516 
L 750 2516 
L 750 3309 
z
" transform="scale(0.015625)"/>
                                <path id="DejaVuSans-30" d="M 2034 4250
Q 1547 4250 1301 3770 
Q 1056 3291 1056 2328 
Q 1056 1369 1301 889 
Q 1547 409 2034 409 
Q 2525 409 2770 889 
Q 3016 1369 3016 2328 
Q 3016 3291 2770 3770 
Q 2525 4250 2034 4250 
z
M 2034 4750 
Q 2819 4750 3233 4129 
Q 3647 3509 3647 2328 
Q 3647 1150 3233 529 
Q 2819 -91 2034 -91 
Q 1250 -91 836 529 
Q 422 1150 422 2328 
Q 422 3509 836 4129 
Q 1250 4750 2034 4750 
z
" transform="scale(0.015625)"/>
                            </defs>
                            <use xlink:href="#DejaVuSans-31"/>
                            <use xlink:href="#DejaVuSans-34" x="63.623047"/>
                            <use xlink:href="#DejaVuSans-3a" x="127.246094"/>
                            <use xlink:href="#DejaVuSans-30" x="160.9375"/>
                            <use xlink:href="#DejaVuSans-30" x="224.560547"/>
                        </g>
                    </g>
                </g>
                <g id="xtick_2">
                    <g id="line2d_2">
                        <g>
                            <use xlink:href="#mb0532d7afb" x="406.275203" y="647.634"
                                 style="stroke: #000000; stroke-width: 0.8"/>
                        </g>
                    </g>
                    <g id="text_2">
                        <!-- 16:00 -->
                        <g transform="translate(391.865828 662.232438) scale(0.1 -0.1)">
                            <defs>
                                <path id="DejaVuSans-36" d="M 2113 2584
Q 1688 2584 1439 2293 
Q 1191 2003 1191 1497 
Q 1191 994 1439 701 
Q 1688 409 2113 409 
Q 2538 409 2786 701 
Q 3034 994 3034 1497 
Q 3034 2003 2786 2293 
Q 2538 2584 2113 2584 
z
M 3366 4563 
L 3366 3988 
Q 3128 4100 2886 4159 
Q 2644 4219 2406 4219 
Q 1781 4219 1451 3797 
Q 1122 3375 1075 2522 
Q 1259 2794 1537 2939 
Q 1816 3084 2150 3084 
Q 2853 3084 3261 2657 
Q 3669 2231 3669 1497 
Q 3669 778 3244 343 
Q 2819 -91 2113 -91 
Q 1303 -91 875 529 
Q 447 1150 447 2328 
Q 447 3434 972 4092 
Q 1497 4750 2381 4750 
Q 2619 4750 2861 4703 
Q 3103 4656 3366 4563 
z
" transform="scale(0.015625)"/>
                            </defs>
                            <use xlink:href="#DejaVuSans-31"/>
                            <use xlink:href="#DejaVuSans-36" x="63.623047"/>
                            <use xlink:href="#DejaVuSans-3a" x="127.246094"/>
                            <use xlink:href="#DejaVuSans-30" x="160.9375"/>
                            <use xlink:href="#DejaVuSans-30" x="224.560547"/>
                        </g>
                    </g>
                </g>
                <g id="xtick_3">
                    <g id="line2d_3">
                        <g>
                            <use xlink:href="#mb0532d7afb" x="601.601305" y="647.634"
                                 style="stroke: #000000; stroke-width: 0.8"/>
                        </g>
                    </g>
                    <g id="text_3">
                        <!-- 18:00 -->
                        <g transform="translate(587.19193 662.232438) scale(0.1 -0.1)">
                            <defs>
                                <path id="DejaVuSans-38" d="M 2034 2216
Q 1584 2216 1326 1975 
Q 1069 1734 1069 1313 
Q 1069 891 1326 650 
Q 1584 409 2034 409 
Q 2484 409 2743 651 
Q 3003 894 3003 1313 
Q 3003 1734 2745 1975 
Q 2488 2216 2034 2216 
z
M 1403 2484 
Q 997 2584 770 2862 
Q 544 3141 544 3541 
Q 544 4100 942 4425 
Q 1341 4750 2034 4750 
Q 2731 4750 3128 4425 
Q 3525 4100 3525 3541 
Q 3525 3141 3298 2862 
Q 3072 2584 2669 2484 
Q 3125 2378 3379 2068 
Q 3634 1759 3634 1313 
Q 3634 634 3220 271 
Q 2806 -91 2034 -91 
Q 1263 -91 848 271 
Q 434 634 434 1313 
Q 434 1759 690 2068 
Q 947 2378 1403 2484 
z
M 1172 3481 
Q 1172 3119 1398 2916 
Q 1625 2713 2034 2713 
Q 2441 2713 2670 2916 
Q 2900 3119 2900 3481 
Q 2900 3844 2670 4047 
Q 2441 4250 2034 4250 
Q 1625 4250 1398 4047 
Q 1172 3844 1172 3481 
z
" transform="scale(0.015625)"/>
                            </defs>
                            <use xlink:href="#DejaVuSans-31"/>
                            <use xlink:href="#DejaVuSans-38" x="63.623047"/>
                            <use xlink:href="#DejaVuSans-3a" x="127.246094"/>
                            <use xlink:href="#DejaVuSans-30" x="160.9375"/>
                            <use xlink:href="#DejaVuSans-30" x="224.560547"/>
                        </g>
                    </g>
                </g>
                <g id="xtick_4">
                    <g id="line2d_4">
                        <g>
                            <use xlink:href="#mb0532d7afb" x="796.927407" y="647.634"
                                 style="stroke: #000000; stroke-width: 0.8"/>
                        </g>
                    </g>
                    <g id="text_4">
                        <!-- 20:00 -->
                        <g transform="translate(782.518032 662.232438) scale(0.1 -0.1)">
                            <defs>
                                <path id="DejaVuSans-32" d="M 1228 531
L 3431 531 
L 3431 0 
L 469 0 
L 469 531 
Q 828 903 1448 1529 
Q 2069 2156 2228 2338 
Q 2531 2678 2651 2914 
Q 2772 3150 2772 3378 
Q 2772 3750 2511 3984 
Q 2250 4219 1831 4219 
Q 1534 4219 1204 4116 
Q 875 4013 500 3803 
L 500 4441 
Q 881 4594 1212 4672 
Q 1544 4750 1819 4750 
Q 2544 4750 2975 4387 
Q 3406 4025 3406 3419 
Q 3406 3131 3298 2873 
Q 3191 2616 2906 2266 
Q 2828 2175 2409 1742 
Q 1991 1309 1228 531 
z
" transform="scale(0.015625)"/>
                            </defs>
                            <use xlink:href="#DejaVuSans-32"/>
                            <use xlink:href="#DejaVuSans-30" x="63.623047"/>
                            <use xlink:href="#DejaVuSans-3a" x="127.246094"/>
                            <use xlink:href="#DejaVuSans-30" x="160.9375"/>
                            <use xlink:href="#DejaVuSans-30" x="224.560547"/>
                        </g>
                    </g>
                </g>
                <g id="xtick_5">
                    <g id="line2d_5">
                        <g>
                            <use xlink:href="#mb0532d7afb" x="992.253509" y="647.634"
                                 style="stroke: #000000; stroke-width: 0.8"/>
                        </g>
                    </g>
                    <g id="text_5">
                        <!-- 22:00 -->
                        <g transform="translate(977.844134 662.232438) scale(0.1 -0.1)">
                            <use xlink:href="#DejaVuSans-32"/>
                            <use xlink:href="#DejaVuSans-32" x="63.623047"/>
                            <use xlink:href="#DejaVuSans-3a" x="127.246094"/>
                            <use xlink:href="#DejaVuSans-30" x="160.9375"/>
                            <use xlink:href="#DejaVuSans-30" x="224.560547"/>
                        </g>
                    </g>
                </g>
                <g id="xtick_6">
                    <g id="line2d_6">
                        <g>
                            <use xlink:href="#mb0532d7afb" x="1187.579611" y="647.634"
                                 style="stroke: #000000; stroke-width: 0.8"/>
                        </g>
                    </g>
                    <g id="text_6">
                        <!-- 00:00 -->
                        <g transform="translate(1173.170236 662.232438) scale(0.1 -0.1)">
                            <use xlink:href="#DejaVuSans-30"/>
                            <use xlink:href="#DejaVuSans-30" x="63.623047"/>
                            <use xlink:href="#DejaVuSans-3a" x="127.246094"/>
                            <use xlink:href="#DejaVuSans-30" x="160.9375"/>
                            <use xlink:href="#DejaVuSans-30" x="224.560547"/>
                        </g>
                    </g>
                </g>
            </g>
            <g id="matplotlib.axis_2">
                <g id="ytick_1">
                    <g id="line2d_7">
                        <defs>
                            <path id="m72ef78bd92" d="M 0 0
L -3.5 0 
" style="stroke: #000000; stroke-width: 0.8"/>
                        </defs>
                        <g>
                            <use xlink:href="#m72ef78bd92" x="110.112" y="559.704068"
                                 style="stroke: #000000; stroke-width: 0.8"/>
                        </g>
                    </g>
                    <g id="text_7">
                        <!-- 1610 -->
                        <g transform="translate(77.662 563.503287) scale(0.1 -0.1)">
                            <use xlink:href="#DejaVuSans-31"/>
                            <use xlink:href="#DejaVuSans-36" x="63.623047"/>
                            <use xlink:href="#DejaVuSans-31" x="127.246094"/>
                            <use xlink:href="#DejaVuSans-30" x="190.869141"/>
                        </g>
                    </g>
                </g>
                <g id="ytick_2">
                    <g id="line2d_8">
                        <g>
                            <use xlink:href="#m72ef78bd92" x="110.112" y="463.077769"
                                 style="stroke: #000000; stroke-width: 0.8"/>
                        </g>
                    </g>
                    <g id="text_8">
                        <!-- 1620 -->
                        <g transform="translate(77.662 466.876988) scale(0.1 -0.1)">
                            <use xlink:href="#DejaVuSans-31"/>
                            <use xlink:href="#DejaVuSans-36" x="63.623047"/>
                            <use xlink:href="#DejaVuSans-32" x="127.246094"/>
                            <use xlink:href="#DejaVuSans-30" x="190.869141"/>
                        </g>
                    </g>
                </g>
                <g id="ytick_3">
                    <g id="line2d_9">
                        <g>
                            <use xlink:href="#m72ef78bd92" x="110.112" y="366.451471"
                                 style="stroke: #000000; stroke-width: 0.8"/>
                        </g>
                    </g>
                    <g id="text_9">
                        <!-- 1630 -->
                        <g transform="translate(77.662 370.25069) scale(0.1 -0.1)">
                            <defs>
                                <path id="DejaVuSans-33" d="M 2597 2516
Q 3050 2419 3304 2112 
Q 3559 1806 3559 1356 
Q 3559 666 3084 287 
Q 2609 -91 1734 -91 
Q 1441 -91 1130 -33 
Q 819 25 488 141 
L 488 750 
Q 750 597 1062 519 
Q 1375 441 1716 441 
Q 2309 441 2620 675 
Q 2931 909 2931 1356 
Q 2931 1769 2642 2001 
Q 2353 2234 1838 2234 
L 1294 2234 
L 1294 2753 
L 1863 2753 
Q 2328 2753 2575 2939 
Q 2822 3125 2822 3475 
Q 2822 3834 2567 4026 
Q 2313 4219 1838 4219 
Q 1578 4219 1281 4162 
Q 984 4106 628 3988 
L 628 4550 
Q 988 4650 1302 4700 
Q 1616 4750 1894 4750 
Q 2613 4750 3031 4423 
Q 3450 4097 3450 3541 
Q 3450 3153 3228 2886 
Q 3006 2619 2597 2516 
z
" transform="scale(0.015625)"/>
                            </defs>
                            <use xlink:href="#DejaVuSans-31"/>
                            <use xlink:href="#DejaVuSans-36" x="63.623047"/>
                            <use xlink:href="#DejaVuSans-33" x="127.246094"/>
                            <use xlink:href="#DejaVuSans-30" x="190.869141"/>
                        </g>
                    </g>
                </g>
                <g id="ytick_4">
                    <g id="line2d_10">
                        <g>
                            <use xlink:href="#m72ef78bd92" x="110.112" y="269.825172"
                                 style="stroke: #000000; stroke-width: 0.8"/>
                        </g>
                    </g>
                    <g id="text_10">
                        <!-- 1640 -->
                        <g transform="translate(77.662 273.624391) scale(0.1 -0.1)">
                            <use xlink:href="#DejaVuSans-31"/>
                            <use xlink:href="#DejaVuSans-36" x="63.623047"/>
                            <use xlink:href="#DejaVuSans-34" x="127.246094"/>
                            <use xlink:href="#DejaVuSans-30" x="190.869141"/>
                        </g>
                    </g>
                </g>
                <g id="ytick_5">
                    <g id="line2d_11">
                        <g>
                            <use xlink:href="#m72ef78bd92" x="110.112" y="173.198873"
                                 style="stroke: #000000; stroke-width: 0.8"/>
                        </g>
                    </g>
                    <g id="text_11">
                        <!-- 1650 -->
                        <g transform="translate(77.662 176.998092) scale(0.1 -0.1)">
                            <defs>
                                <path id="DejaVuSans-35" d="M 691 4666
L 3169 4666 
L 3169 4134 
L 1269 4134 
L 1269 2991 
Q 1406 3038 1543 3061 
Q 1681 3084 1819 3084 
Q 2600 3084 3056 2656 
Q 3513 2228 3513 1497 
Q 3513 744 3044 326 
Q 2575 -91 1722 -91 
Q 1428 -91 1123 -41 
Q 819 9 494 109 
L 494 744 
Q 775 591 1075 516 
Q 1375 441 1709 441 
Q 2250 441 2565 725 
Q 2881 1009 2881 1497 
Q 2881 1984 2565 2268 
Q 2250 2553 1709 2553 
Q 1456 2553 1204 2497 
Q 953 2441 691 2322 
L 691 4666 
z
" transform="scale(0.015625)"/>
                            </defs>
                            <use xlink:href="#DejaVuSans-31"/>
                            <use xlink:href="#DejaVuSans-36" x="63.623047"/>
                            <use xlink:href="#DejaVuSans-35" x="127.246094"/>
                            <use xlink:href="#DejaVuSans-30" x="190.869141"/>
                        </g>
                    </g>
                </g>
                <g id="ytick_6">
                    <g id="line2d_12">
                        <g>
                            <use xlink:href="#m72ef78bd92" x="110.112" y="76.572575"
                                 style="stroke: #000000; stroke-width: 0.8"/>
                        </g>
                    </g>
                    <g id="text_12">
                        <!-- 1660 -->
                        <g transform="translate(77.662 80.371793) scale(0.1 -0.1)">
                            <use xlink:href="#DejaVuSans-31"/>
                            <use xlink:href="#DejaVuSans-36" x="63.623047"/>
                            <use xlink:href="#DejaVuSans-36" x="127.246094"/>
                            <use xlink:href="#DejaVuSans-30" x="190.869141"/>
                        </g>
                    </g>
                </g>
                <g id="text_13">
                    <!-- ETH/USDC M1 -->
                    <g transform="translate(71.582312 384.942187) rotate(-90) scale(0.1 -0.1)">
                        <defs>
                            <path id="DejaVuSans-45" d="M 628 4666
L 3578 4666 
L 3578 4134 
L 1259 4134 
L 1259 2753 
L 3481 2753 
L 3481 2222 
L 1259 2222 
L 1259 531 
L 3634 531 
L 3634 0 
L 628 0 
L 628 4666 
z
" transform="scale(0.015625)"/>
                            <path id="DejaVuSans-54" d="M -19 4666
L 3928 4666 
L 3928 4134 
L 2272 4134 
L 2272 0 
L 1638 0 
L 1638 4134 
L -19 4134 
L -19 4666 
z
" transform="scale(0.015625)"/>
                            <path id="DejaVuSans-48" d="M 628 4666
L 1259 4666 
L 1259 2753 
L 3553 2753 
L 3553 4666 
L 4184 4666 
L 4184 0 
L 3553 0 
L 3553 2222 
L 1259 2222 
L 1259 0 
L 628 0 
L 628 4666 
z
" transform="scale(0.015625)"/>
                            <path id="DejaVuSans-2f" d="M 1625 4666
L 2156 4666 
L 531 -594 
L 0 -594 
L 1625 4666 
z
" transform="scale(0.015625)"/>
                            <path id="DejaVuSans-55" d="M 556 4666
L 1191 4666 
L 1191 1831 
Q 1191 1081 1462 751 
Q 1734 422 2344 422 
Q 2950 422 3222 751 
Q 3494 1081 3494 1831 
L 3494 4666 
L 4128 4666 
L 4128 1753 
Q 4128 841 3676 375 
Q 3225 -91 2344 -91 
Q 1459 -91 1007 375 
Q 556 841 556 1753 
L 556 4666 
z
" transform="scale(0.015625)"/>
                            <path id="DejaVuSans-53" d="M 3425 4513
L 3425 3897 
Q 3066 4069 2747 4153 
Q 2428 4238 2131 4238 
Q 1616 4238 1336 4038 
Q 1056 3838 1056 3469 
Q 1056 3159 1242 3001 
Q 1428 2844 1947 2747 
L 2328 2669 
Q 3034 2534 3370 2195 
Q 3706 1856 3706 1288 
Q 3706 609 3251 259 
Q 2797 -91 1919 -91 
Q 1588 -91 1214 -16 
Q 841 59 441 206 
L 441 856 
Q 825 641 1194 531 
Q 1563 422 1919 422 
Q 2459 422 2753 634 
Q 3047 847 3047 1241 
Q 3047 1584 2836 1778 
Q 2625 1972 2144 2069 
L 1759 2144 
Q 1053 2284 737 2584 
Q 422 2884 422 3419 
Q 422 4038 858 4394 
Q 1294 4750 2059 4750 
Q 2388 4750 2728 4690 
Q 3069 4631 3425 4513 
z
" transform="scale(0.015625)"/>
                            <path id="DejaVuSans-44" d="M 1259 4147
L 1259 519 
L 2022 519 
Q 2988 519 3436 956 
Q 3884 1394 3884 2338 
Q 3884 3275 3436 3711 
Q 2988 4147 2022 4147 
L 1259 4147 
z
M 628 4666 
L 1925 4666 
Q 3281 4666 3915 4102 
Q 4550 3538 4550 2338 
Q 4550 1131 3912 565 
Q 3275 0 1925 0 
L 628 0 
L 628 4666 
z
" transform="scale(0.015625)"/>
                            <path id="DejaVuSans-43" d="M 4122 4306
L 4122 3641 
Q 3803 3938 3442 4084 
Q 3081 4231 2675 4231 
Q 1875 4231 1450 3742 
Q 1025 3253 1025 2328 
Q 1025 1406 1450 917 
Q 1875 428 2675 428 
Q 3081 428 3442 575 
Q 3803 722 4122 1019 
L 4122 359 
Q 3791 134 3420 21 
Q 3050 -91 2638 -91 
Q 1578 -91 968 557 
Q 359 1206 359 2328 
Q 359 3453 968 4101 
Q 1578 4750 2638 4750 
Q 3056 4750 3426 4639 
Q 3797 4528 4122 4306 
z
" transform="scale(0.015625)"/>
                            <path id="DejaVuSans-20" transform="scale(0.015625)"/>
                            <path id="DejaVuSans-4d" d="M 628 4666
L 1569 4666 
L 2759 1491 
L 3956 4666 
L 4897 4666 
L 4897 0 
L 4281 0 
L 4281 4097 
L 3078 897 
L 2444 897 
L 1241 4097 
L 1241 0 
L 628 0 
L 628 4666 
z
" transform="scale(0.015625)"/>
                        </defs>
                        <use xlink:href="#DejaVuSans-45"/>
                        <use xlink:href="#DejaVuSans-54" x="63.183594"/>
                        <use xlink:href="#DejaVuSans-48" x="124.267578"/>
                        <use xlink:href="#DejaVuSans-2f" x="199.462891"/>
                        <use xlink:href="#DejaVuSans-55" x="233.154297"/>
                        <use xlink:href="#DejaVuSans-53" x="306.347656"/>
                        <use xlink:href="#DejaVuSans-44" x="369.824219"/>
                        <use xlink:href="#DejaVuSans-43" x="446.826172"/>
                        <use xlink:href="#DejaVuSans-20" x="516.650391"/>
                        <use xlink:href="#DejaVuSans-4d" x="548.4375"/>
                        <use xlink:href="#DejaVuSans-31" x="634.716797"/>
                    </g>
                </g>
            </g>
            <g id="line2d_13">
                <path d="M 167.000727 542.311334
L 168.628445 555.355885 
L 170.256162 534.098099 
L 171.88388 534.581231 
L 173.511597 534.581231 
L 175.139315 559.704068 
L 176.767032 563.085989 
L 180.022467 524.435469 
L 181.650185 518.15476 
L 183.277902 522.986075 
L 184.90562 526.851127 
L 186.533337 521.53668 
L 188.161055 523.952338 
L 189.788773 540.378808 
L 191.41649 536.996888 
L 193.044208 527.81739 
L 194.671925 513.323445 
L 196.299643 511.390919 
L 197.92736 516.222234 
L 199.555078 523.469206 
L 201.182795 507.042735 
L 202.810513 524.918601 
L 204.43823 524.435469 
L 206.065948 522.986075 
L 207.693665 513.323445 
L 210.9491 529.266784 
L 212.576818 528.783653 
L 214.204535 493.031922 
L 215.832253 476.12232 
L 217.45997 451.965745 
L 219.087688 415.730883 
L 220.715405 418.146541 
L 222.343123 450.516351 
L 223.97084 443.269378 
L 225.598558 440.853721 
L 227.226275 431.191091 
L 228.853993 416.214015 
L 230.481711 423.460987 
L 232.109428 433.123617 
L 233.737146 431.191091 
L 235.364863 413.798357 
L 236.992581 414.76462 
L 238.620298 397.371886 
L 240.248016 412.832094 
L 241.875733 410.899568 
L 243.503451 411.3827 
L 245.131168 436.505537 
L 246.758886 428.292302 
L 248.386603 435.056143 
L 250.014321 443.269378 
L 251.642038 450.033219 
L 253.269756 459.212718 
L 254.897473 447.13443 
L 256.525191 454.864534 
L 258.152908 451.965745 
L 259.780626 458.729586 
L 261.408343 468.875347 
L 263.036061 465.010295 
L 264.663778 436.022406 
L 266.291496 422.494724 
L 267.919213 420.562198 
L 269.546931 433.606748 
L 271.174648 429.741696 
L 272.802366 426.842907 
L 274.430083 434.08988 
L 276.057801 435.539274 
L 277.685519 436.022406 
L 279.313236 425.393513 
L 280.940954 422.011593 
L 282.568671 430.707959 
L 284.196389 433.606748 
L 285.824106 422.011593 
L 287.451824 419.112804 
L 289.079541 446.168167 
L 290.707259 451.965745 
L 292.334976 428.775433 
L 293.962694 415.247752 
L 295.590411 432.157354 
L 297.218129 429.741696 
L 298.845846 422.977856 
L 300.473564 427.326039 
L 302.101281 429.258565 
L 303.728999 421.528461 
L 305.356716 415.730883 
L 306.984434 410.899568 
L 308.612151 405.10199 
L 310.239869 413.798357 
L 311.867586 412.348963 
L 313.495304 435.539274 
L 315.123021 440.853721 
L 316.750739 442.303115 
L 318.378456 453.41514 
L 320.006174 448.583825 
L 321.633892 447.617562 
L 323.261609 443.269378 
L 324.889327 460.178981 
L 326.517044 456.313929 
L 328.144762 458.246455 
L 329.772479 450.033219 
L 331.400197 450.999482 
L 333.027914 451.482614 
L 334.655632 462.594638 
L 336.283349 466.942821 
L 337.911067 465.976558 
L 339.538784 470.807873 
L 341.166502 522.986075 
L 342.794219 512.357182 
L 344.421937 507.042735 
L 346.049654 516.222234 
L 347.677372 549.558307 
L 349.305089 555.839016 
L 352.560524 476.12232 
L 354.188242 484.335555 
L 355.815959 500.278894 
L 357.443677 481.919898 
L 359.071394 475.156057 
L 360.699112 479.50424 
L 362.326829 504.143946 
L 363.954547 522.019812 
L 365.582265 524.435469 
L 367.209982 525.401732 
L 368.8377 537.963151 
L 370.465417 535.064362 
L 372.093135 571.299224 
L 373.720852 546.176386 
L 375.34857 546.659518 
L 376.976287 542.794466 
L 378.604005 540.378808 
L 380.231722 572.265487 
L 381.85944 571.299224 
L 383.487157 552.940227 
L 385.114875 549.075175 
L 386.742592 540.378808 
L 388.37031 535.547494 
L 389.998027 530.233047 
L 391.625745 520.087286 
L 393.253462 518.15476 
L 394.88118 513.323445 
L 396.508897 521.053549 
L 398.136615 522.502943 
L 399.764332 526.851127 
L 401.39205 499.312631 
L 403.019767 460.178981 
L 404.647485 427.80917 
L 406.275203 444.718773 
L 407.90292 454.381403 
L 409.530638 413.315226 
L 411.158355 408.000779 
L 412.786073 397.855018 
L 414.41379 414.76462 
L 416.041508 408.000779 
L 417.669225 424.910381 
L 419.296943 387.226125 
L 420.92466 392.540571 
L 422.552378 387.709256 
L 424.180095 340.845502 
L 425.807813 332.149135 
L 427.43553 366.934602 
L 429.063248 344.227422 
L 430.690965 344.710554 
L 432.318683 274.173356 
L 433.9464 242.769808 
L 435.574118 284.319117 
L 438.829553 341.811765 
L 440.45727 353.40692 
L 442.084988 396.888755 
L 443.712705 378.046627 
L 445.340423 400.753807 
L 446.96814 371.765917 
L 448.595858 373.698443 
L 450.223576 364.035813 
L 451.851293 360.653893 
L 453.479011 383.844205 
L 455.106728 394.956229 
L 456.734446 398.338149 
L 458.362163 433.123617 
L 459.989881 481.436766 
L 461.617598 448.100693 
L 463.245316 445.685036 
L 464.873033 435.056143 
L 466.500751 448.100693 
L 468.128468 436.988669 
L 469.756186 431.674222 
L 471.383903 451.482614 
L 473.011621 431.191091 
L 474.639338 427.326039 
L 476.267056 429.741696 
L 477.894773 444.718773 
L 481.150208 481.919898 
L 482.777926 480.953635 
L 484.405643 507.525867 
L 486.033361 489.650002 
L 487.661078 483.852424 
L 489.288796 499.795763 
L 490.916513 483.852424 
L 492.544231 481.436766 
L 494.171948 504.627078 
L 495.799666 479.50424 
L 497.427384 483.369292 
L 499.055101 475.156057 
L 500.682819 480.470503 
L 502.310536 484.818687 
L 503.938254 476.605451 
L 505.565971 483.369292 
L 507.193689 497.863237 
L 508.821406 501.728289 
L 510.449124 478.054846 
L 512.076841 424.42725 
L 513.704559 432.640485 
L 515.332276 436.022406 
L 516.959994 440.370589 
L 518.587711 455.347666 
L 520.215429 449.066956 
L 521.843146 437.954932 
L 523.470864 448.583825 
L 525.098581 445.201904 
L 526.726299 434.573011 
L 528.354016 460.662112 
L 529.981734 445.201904 
L 531.609451 443.75251 
L 533.237169 399.787544 
L 534.864886 409.450174 
L 536.492604 414.281489 
L 538.120321 408.483911 
L 539.748039 402.203201 
L 541.375757 399.787544 
L 543.003474 393.506834 
L 544.631192 401.236938 
L 546.258909 396.405623 
L 549.514344 373.215312 
L 551.142062 327.800951 
L 552.769779 354.856315 
L 554.397497 353.890052 
L 556.025214 376.597232 
L 559.280649 327.800951 
L 560.908367 296.880536 
L 562.536084 303.644377 
L 565.791519 388.675519 
L 567.419237 439.887458 
L 569.046954 389.158651 
L 570.674672 399.787544 
L 572.302389 399.787544 
L 575.557824 358.238235 
L 577.185542 387.709256 
L 578.813259 377.563495 
L 580.440977 383.361073 
L 582.068694 382.877942 
L 583.696412 397.855018 
L 585.32413 393.989966 
L 586.951847 401.236938 
L 588.579565 390.608045 
L 590.207282 395.922492 
L 591.835 400.753807 
L 593.462717 369.833391 
L 596.718152 343.261159 
L 598.34587 351.957526 
L 599.973587 355.339446 
L 601.601305 359.68763 
L 603.229022 299.296193 
L 604.85674 262.5782 
L 608.112175 355.822578 
L 609.739892 373.698443 
L 612.995327 291.566089 
L 614.623045 306.543166 
L 616.250762 284.319117 
L 617.87848 288.6673 
L 619.506197 280.454065 
L 621.133915 280.454065 
L 622.761632 278.521539 
L 624.38935 278.521539 
L 626.017068 269.825172 
L 627.644785 305.576903 
L 629.272503 306.543166 
L 630.90022 289.150432 
L 632.527938 300.262456 
L 634.155655 286.734774 
L 635.783373 290.116695 
L 637.41109 318.138321 
L 640.666525 302.194982 
L 642.294243 280.937196 
L 643.92196 303.644377 
L 645.549678 317.65519 
L 647.177395 318.138321 
L 648.805113 328.284083 
L 650.43283 335.047924 
L 652.060548 333.598529 
L 653.688265 322.003373 
L 655.315983 294.464878 
L 658.571418 330.216609 
L 660.199135 315.239532 
L 661.826853 325.385294 
L 663.45457 357.271972 
L 665.082288 347.126211 
L 666.710005 332.149135 
L 668.337723 342.294896 
L 669.965441 343.261159 
L 671.593158 331.182872 
L 673.220876 316.205795 
L 674.848593 308.958823 
L 676.476311 314.273269 
L 678.104028 305.576903 
L 679.731746 292.049221 
L 681.359463 313.307006 
L 682.987181 289.633563 
L 686.242616 301.228719 
L 687.870333 303.161245 
L 689.498051 300.745588 
L 691.125768 275.62275 
L 692.753486 309.925086 
L 694.381203 336.98045 
L 696.008921 335.531055 
L 697.636638 348.092474 
L 699.264356 352.440657 
L 700.892073 358.238235 
L 702.519791 349.541869 
L 704.147508 350.508131 
L 705.775226 317.172058 
L 707.402943 296.880536 
L 709.030661 307.509429 
L 710.658378 308.475692 
L 712.286096 319.587716 
L 713.913814 313.307006 
L 715.541531 293.981747 
L 717.169249 295.431141 
L 718.796966 295.431141 
L 720.424684 295.914273 
L 722.052401 293.015484 
L 723.680119 274.656487 
L 725.307836 286.734774 
L 726.935554 296.880536 
L 728.563271 313.790138 
L 730.190989 317.172058 
L 731.818706 327.800951 
L 733.446424 327.800951 
L 735.074141 320.070847 
L 736.701859 313.790138 
L 738.329576 320.553979 
L 739.957294 322.486505 
L 741.585011 319.587716 
L 743.212729 319.587716 
L 744.840446 324.902162 
L 746.468164 326.351557 
L 748.095881 338.912976 
L 749.723599 354.856315 
L 751.351316 344.710554 
L 752.979034 327.31782 
L 754.606751 297.846799 
L 756.234469 301.711851 
L 757.862186 276.105881 
L 759.489904 291.082958 
L 761.117622 285.28538 
L 762.745339 300.262456 
L 764.373057 290.116695 
L 766.000774 289.150432 
L 767.628492 278.521539 
L 769.256209 271.274567 
L 770.883927 280.454065 
L 772.511644 241.803545 
L 774.139362 258.230016 
L 775.767079 264.993857 
L 777.394797 274.656487 
L 779.022514 218.613234 
L 780.650232 113.290568 
L 782.277949 79.471364 
L 783.905667 169.816953 
L 785.533384 297.363667 
L 787.161102 361.137024 
L 788.788819 387.709256 
L 790.416537 428.292302 
L 792.044254 384.327336 
L 793.671972 359.68763 
L 795.299689 386.742994 
L 796.927407 449.066956 
L 798.555124 465.976558 
L 800.182842 424.42725 
L 801.81056 408.000779 
L 803.438277 351.474394 
L 805.065995 320.070847 
L 806.693712 347.609343 
L 808.32143 356.305709 
L 809.949147 367.417734 
L 811.576865 390.608045 
L 813.204582 370.799654 
L 814.8323 377.080364 
L 816.460017 348.092474 
L 818.087735 367.900865 
L 819.715452 356.788841 
L 822.970887 322.969636 
L 824.598605 347.609343 
L 826.226322 358.238235 
L 827.85404 375.147838 
L 829.481757 378.046627 
L 831.109475 397.371886 
L 832.737192 405.10199 
L 834.36491 390.124914 
L 835.992627 422.011593 
L 837.620345 403.169464 
L 839.248062 393.023703 
L 840.87578 375.147838 
L 842.503497 361.137024 
L 844.131215 351.957526 
L 845.758933 374.181575 
L 847.38665 379.979153 
L 849.014368 383.361073 
L 850.642085 420.079067 
L 852.269803 406.551385 
L 853.89752 421.04533 
L 855.525238 447.617562 
L 857.152955 421.528461 
L 858.780673 409.450174 
L 860.40839 398.821281 
L 862.036108 389.641782 
L 863.663825 382.877942 
L 865.291543 377.080364 
L 866.91926 372.249049 
L 868.546978 350.508131 
L 870.174695 359.204498 
L 871.802413 363.552682 
L 873.43013 380.945416 
L 875.057848 368.867128 
L 876.685565 353.890052 
L 878.313283 354.856315 
L 879.941 355.339446 
L 881.568718 365.968339 
L 883.196435 351.957526 
L 884.824153 363.552682 
L 886.45187 365.002076 
L 888.079588 384.810468 
L 889.707306 398.821281 
L 891.335023 378.529758 
L 892.962741 373.698443 
L 894.590458 390.608045 
L 896.218176 376.114101 
L 897.845893 385.776731 
L 899.473611 410.416437 
L 901.101328 418.629672 
L 902.729046 409.933305 
L 904.356763 431.191091 
L 905.984481 399.787544 
L 907.612198 405.585122 
L 909.239916 413.315226 
L 910.867633 408.000779 
L 912.495351 422.977856 
L 914.123068 441.336852 
L 915.750786 432.157354 
L 917.378503 432.640485 
L 919.006221 453.898271 
L 920.633938 436.988669 
L 922.261656 415.247752 
L 923.889373 412.348963 
L 925.517091 463.077769 
L 927.144808 462.594638 
L 928.772526 451.965745 
L 930.400243 435.539274 
L 932.027961 423.460987 
L 933.655679 425.393513 
L 935.283396 443.75251 
L 936.911114 451.965745 
L 938.538831 429.258565 
L 940.166549 417.663409 
L 941.794266 412.348963 
L 943.421984 423.944119 
L 945.049701 440.853721 
L 946.677419 451.965745 
L 948.305136 433.606748 
L 949.932854 451.965745 
L 951.560571 458.729586 
L 953.188289 471.291005 
L 954.816006 451.482614 
L 956.443724 463.560901 
L 958.071441 462.111506 
L 959.699159 462.111506 
L 961.326876 471.774136 
L 962.954594 484.818687 
L 964.582311 495.930711 
L 966.210029 468.392216 
L 967.837746 450.999482 
L 969.465464 444.718773 
L 971.093181 463.560901 
L 972.720899 466.942821 
L 974.348616 475.156057 
L 975.976334 470.807873 
L 977.604052 450.516351 
L 979.231769 442.786247 
L 980.859487 420.079067 
L 982.487204 423.460987 
L 984.114922 432.157354 
L 985.742639 421.04533 
L 987.370357 423.460987 
L 988.998074 433.606748 
L 990.625792 436.988669 
L 992.253509 433.123617 
L 993.881227 424.910381 
L 995.508944 439.887458 
L 997.136662 441.819984 
L 998.764379 451.482614 
L 1000.392097 458.729586 
L 1002.019814 450.999482 
L 1003.647532 447.617562 
L 1005.275249 454.381403 
L 1006.902967 443.75251 
L 1010.158402 414.76462 
L 1011.786119 409.933305 
L 1013.413837 407.517648 
L 1015.041554 414.281489 
L 1016.669272 401.72007 
L 1018.296989 401.72007 
L 1019.924707 405.10199 
L 1021.552425 414.76462 
L 1023.180142 420.562198 
L 1024.80786 395.43936 
L 1026.435577 372.249049 
L 1028.063295 362.103287 
L 1029.691012 371.282786 
L 1031.31873 389.641782 
L 1032.946447 389.641782 
L 1034.574165 391.574308 
L 1036.201882 395.43936 
L 1037.8296 390.124914 
L 1039.457317 398.338149 
L 1041.085035 390.608045 
L 1042.712752 398.338149 
L 1044.34047 400.753807 
L 1045.968187 392.05744 
L 1047.595905 374.664706 
L 1049.223622 377.563495 
L 1050.85134 375.147838 
L 1052.479057 388.192388 
L 1054.106775 394.956229 
L 1055.734492 426.359776 
L 1057.36221 408.000779 
L 1058.989927 393.023703 
L 1060.617645 398.338149 
L 1062.245362 402.203201 
L 1063.87308 402.203201 
L 1065.500798 385.776731 
L 1067.128515 388.192388 
L 1068.756233 379.01289 
L 1070.38395 386.742994 
L 1072.011668 378.529758 
L 1073.639385 396.405623 
L 1075.267103 397.855018 
L 1076.89482 401.72007 
L 1078.522538 386.742994 
L 1080.150255 393.023703 
L 1081.777973 407.034516 
L 1083.40569 408.967042 
L 1085.033408 410.416437 
L 1086.661125 410.899568 
L 1088.288843 402.686333 
L 1089.91656 408.967042 
L 1091.544278 407.517648 
L 1093.171995 398.338149 
L 1094.799713 409.933305 
L 1096.42743 411.3827 
L 1098.055148 422.977856 
L 1101.310583 404.135727 
L 1102.9383 392.05744 
L 1104.566018 389.158651 
L 1106.193735 355.822578 
L 1107.821453 371.282786 
L 1109.449171 375.147838 
L 1111.076888 382.877942 
L 1112.704606 363.552682 
L 1114.332323 369.833391 
L 1115.960041 369.833391 
L 1117.587758 370.316523 
L 1119.215476 381.911679 
L 1120.843193 371.282786 
L 1122.470911 382.877942 
L 1124.098628 376.114101 
L 1125.726346 383.361073 
L 1127.354063 394.956229 
L 1128.981781 389.158651 
L 1130.609498 386.742994 
L 1132.237216 390.124914 
L 1133.864933 389.158651 
L 1135.492651 400.753807 
L 1137.120368 402.203201 
L 1138.748086 406.068253 
L 1140.375803 411.865831 
L 1143.631238 395.43936 
L 1145.258956 397.371886 
L 1146.886673 397.371886 
L 1148.514391 382.39481 
L 1150.142108 386.259862 
L 1153.397544 384.327336 
L 1155.025261 380.945416 
L 1156.652979 378.046627 
L 1158.280696 378.046627 
L 1159.908414 384.810468 
L 1161.536131 393.023703 
L 1163.163849 392.540571 
L 1164.791566 393.023703 
L 1166.419284 395.922492 
L 1168.047001 393.023703 
L 1169.674719 395.922492 
L 1171.302436 405.10199 
L 1172.930154 410.899568 
L 1174.557871 407.034516 
L 1176.185589 410.899568 
L 1177.813306 415.247752 
L 1179.441024 406.068253 
L 1181.068741 403.169464 
L 1182.696459 404.618859 
L 1184.324176 410.416437 
L 1185.951894 410.899568 
L 1187.579611 416.697146 
L 1189.207329 424.910381 
L 1190.835046 397.371886 
L 1192.462764 392.05744 
L 1194.090481 406.551385 
L 1195.718199 443.75251 
L 1197.345917 435.056143 
L 1198.973634 441.336852 
L 1200.601352 458.729586 
L 1202.229069 459.212718 
L 1203.856787 458.729586 
L 1205.484504 462.111506 
L 1207.112222 484.818687 
L 1208.739939 477.088583 
L 1210.367657 455.347666 
L 1211.995374 457.280192 
L 1213.623092 466.942821 
L 1215.250809 480.470503 
L 1218.506244 464.044032 
L 1220.133962 465.010295 
L 1221.761679 480.953635 
L 1223.389397 501.728289 
L 1225.017114 517.188497 
L 1226.644832 499.312631 
L 1228.272549 505.110209 
L 1229.900267 490.616265 
L 1231.527984 489.16687 
L 1233.155702 474.672925 
L 1234.783419 489.650002 
L 1236.411137 488.683739 
L 1238.038854 469.84161 
L 1239.666572 468.392216 
L 1241.29429 478.054846 
L 1242.922007 469.358479 
L 1244.549725 473.706662 
L 1246.177442 474.189794 
L 1247.80516 462.594638 
L 1249.432877 472.257268 
L 1251.060595 466.45969 
L 1252.688312 480.953635 
L 1254.31603 476.605451 
L 1255.943747 471.291005 
L 1257.571465 489.650002 
L 1259.199182 509.458393 
L 1260.8269 513.806576 
L 1262.454617 498.8295 
L 1264.082335 523.952338 
L 1265.710052 573.23175 
L 1267.33777 561.636594 
L 1268.965487 616.713584 
L 1270.593205 601.736508 
L 1272.220922 595.93893 
L 1273.84864 620.578636 
L 1275.476357 608.500349 
L 1277.104075 593.523273 
L 1278.731792 590.141352 
L 1280.35951 566.951041 
L 1281.987227 546.176386 
L 1283.614945 552.457096 
L 1285.242663 554.872753 
L 1286.87038 559.704068 
L 1288.498098 567.917304 
L 1290.125815 571.299224 
L 1291.753533 575.647407 
L 1293.38125 566.467909 
L 1295.008968 579.995591 
L 1296.636685 589.658221 
L 1298.264403 575.164276 
L 1299.89212 574.198013 
L 1301.519838 578.063065 
L 1303.147555 564.535383 
L 1304.775273 546.659518 
L 1304.775273 546.659518 
" clip-path="url(#pefd103f57c)" style="fill: none; stroke: #000000; stroke-width: 1.5; stroke-linecap: square"/>
            </g>
            <g id="patch_27">
                <path d="M 110.112 647.634
L 110.112 52.416 
" style="fill: none; stroke: #000000; stroke-width: 0.8; stroke-linejoin: miter; stroke-linecap: square"/>
            </g>
            <g id="patch_28">
                <path d="M 1361.664 647.634
L 1361.664 52.416 
" style="fill: none; stroke: #000000; stroke-width: 0.8; stroke-linejoin: miter; stroke-linecap: square"/>
            </g>
            <g id="patch_29">
                <path d="M 110.112 647.634
L 1361.664 647.634 
" style="fill: none; stroke: #000000; stroke-width: 0.8; stroke-linejoin: miter; stroke-linecap: square"/>
            </g>
            <g id="patch_30">
                <path d="M 110.112 52.416
L 1361.664 52.416 
" style="fill: none; stroke: #000000; stroke-width: 0.8; stroke-linejoin: miter; stroke-linecap: square"/>
            </g>
            <g id="text_14">
                <!-- Market Regime Classification -->
                <g transform="translate(649.1505 46.416) scale(0.12 -0.12)">
                    <defs>
                        <path id="DejaVuSans-61" d="M 2194 1759
Q 1497 1759 1228 1600 
Q 959 1441 959 1056 
Q 959 750 1161 570 
Q 1363 391 1709 391 
Q 2188 391 2477 730 
Q 2766 1069 2766 1631 
L 2766 1759 
L 2194 1759 
z
M 3341 1997 
L 3341 0 
L 2766 0 
L 2766 531 
Q 2569 213 2275 61 
Q 1981 -91 1556 -91 
Q 1019 -91 701 211 
Q 384 513 384 1019 
Q 384 1609 779 1909 
Q 1175 2209 1959 2209 
L 2766 2209 
L 2766 2266 
Q 2766 2663 2505 2880 
Q 2244 3097 1772 3097 
Q 1472 3097 1187 3025 
Q 903 2953 641 2809 
L 641 3341 
Q 956 3463 1253 3523 
Q 1550 3584 1831 3584 
Q 2591 3584 2966 3190 
Q 3341 2797 3341 1997 
z
" transform="scale(0.015625)"/>
                        <path id="DejaVuSans-72" d="M 2631 2963
Q 2534 3019 2420 3045 
Q 2306 3072 2169 3072 
Q 1681 3072 1420 2755 
Q 1159 2438 1159 1844 
L 1159 0 
L 581 0 
L 581 3500 
L 1159 3500 
L 1159 2956 
Q 1341 3275 1631 3429 
Q 1922 3584 2338 3584 
Q 2397 3584 2469 3576 
Q 2541 3569 2628 3553 
L 2631 2963 
z
" transform="scale(0.015625)"/>
                        <path id="DejaVuSans-6b" d="M 581 4863
L 1159 4863 
L 1159 1991 
L 2875 3500 
L 3609 3500 
L 1753 1863 
L 3688 0 
L 2938 0 
L 1159 1709 
L 1159 0 
L 581 0 
L 581 4863 
z
" transform="scale(0.015625)"/>
                        <path id="DejaVuSans-65" d="M 3597 1894
L 3597 1613 
L 953 1613 
Q 991 1019 1311 708 
Q 1631 397 2203 397 
Q 2534 397 2845 478 
Q 3156 559 3463 722 
L 3463 178 
Q 3153 47 2828 -22 
Q 2503 -91 2169 -91 
Q 1331 -91 842 396 
Q 353 884 353 1716 
Q 353 2575 817 3079 
Q 1281 3584 2069 3584 
Q 2775 3584 3186 3129 
Q 3597 2675 3597 1894 
z
M 3022 2063 
Q 3016 2534 2758 2815 
Q 2500 3097 2075 3097 
Q 1594 3097 1305 2825 
Q 1016 2553 972 2059 
L 3022 2063 
z
" transform="scale(0.015625)"/>
                        <path id="DejaVuSans-74" d="M 1172 4494
L 1172 3500 
L 2356 3500 
L 2356 3053 
L 1172 3053 
L 1172 1153 
Q 1172 725 1289 603 
Q 1406 481 1766 481 
L 2356 481 
L 2356 0 
L 1766 0 
Q 1100 0 847 248 
Q 594 497 594 1153 
L 594 3053 
L 172 3053 
L 172 3500 
L 594 3500 
L 594 4494 
L 1172 4494 
z
" transform="scale(0.015625)"/>
                        <path id="DejaVuSans-52" d="M 2841 2188
Q 3044 2119 3236 1894 
Q 3428 1669 3622 1275 
L 4263 0 
L 3584 0 
L 2988 1197 
Q 2756 1666 2539 1819 
Q 2322 1972 1947 1972 
L 1259 1972 
L 1259 0 
L 628 0 
L 628 4666 
L 2053 4666 
Q 2853 4666 3247 4331 
Q 3641 3997 3641 3322 
Q 3641 2881 3436 2590 
Q 3231 2300 2841 2188 
z
M 1259 4147 
L 1259 2491 
L 2053 2491 
Q 2509 2491 2742 2702 
Q 2975 2913 2975 3322 
Q 2975 3731 2742 3939 
Q 2509 4147 2053 4147 
L 1259 4147 
z
" transform="scale(0.015625)"/>
                        <path id="DejaVuSans-67" d="M 2906 1791
Q 2906 2416 2648 2759 
Q 2391 3103 1925 3103 
Q 1463 3103 1205 2759 
Q 947 2416 947 1791 
Q 947 1169 1205 825 
Q 1463 481 1925 481 
Q 2391 481 2648 825 
Q 2906 1169 2906 1791 
z
M 3481 434 
Q 3481 -459 3084 -895 
Q 2688 -1331 1869 -1331 
Q 1566 -1331 1297 -1286 
Q 1028 -1241 775 -1147 
L 775 -588 
Q 1028 -725 1275 -790 
Q 1522 -856 1778 -856 
Q 2344 -856 2625 -561 
Q 2906 -266 2906 331 
L 2906 616 
Q 2728 306 2450 153 
Q 2172 0 1784 0 
Q 1141 0 747 490 
Q 353 981 353 1791 
Q 353 2603 747 3093 
Q 1141 3584 1784 3584 
Q 2172 3584 2450 3431 
Q 2728 3278 2906 2969 
L 2906 3500 
L 3481 3500 
L 3481 434 
z
" transform="scale(0.015625)"/>
                        <path id="DejaVuSans-69" d="M 603 3500
L 1178 3500 
L 1178 0 
L 603 0 
L 603 3500 
z
M 603 4863 
L 1178 4863 
L 1178 4134 
L 603 4134 
L 603 4863 
z
" transform="scale(0.015625)"/>
                        <path id="DejaVuSans-6d" d="M 3328 2828
Q 3544 3216 3844 3400 
Q 4144 3584 4550 3584 
Q 5097 3584 5394 3201 
Q 5691 2819 5691 2113 
L 5691 0 
L 5113 0 
L 5113 2094 
Q 5113 2597 4934 2840 
Q 4756 3084 4391 3084 
Q 3944 3084 3684 2787 
Q 3425 2491 3425 1978 
L 3425 0 
L 2847 0 
L 2847 2094 
Q 2847 2600 2669 2842 
Q 2491 3084 2119 3084 
Q 1678 3084 1418 2786 
Q 1159 2488 1159 1978 
L 1159 0 
L 581 0 
L 581 3500 
L 1159 3500 
L 1159 2956 
Q 1356 3278 1631 3431 
Q 1906 3584 2284 3584 
Q 2666 3584 2933 3390 
Q 3200 3197 3328 2828 
z
" transform="scale(0.015625)"/>
                        <path id="DejaVuSans-6c" d="M 603 4863
L 1178 4863 
L 1178 0 
L 603 0 
L 603 4863 
z
" transform="scale(0.015625)"/>
                        <path id="DejaVuSans-73" d="M 2834 3397
L 2834 2853 
Q 2591 2978 2328 3040 
Q 2066 3103 1784 3103 
Q 1356 3103 1142 2972 
Q 928 2841 928 2578 
Q 928 2378 1081 2264 
Q 1234 2150 1697 2047 
L 1894 2003 
Q 2506 1872 2764 1633 
Q 3022 1394 3022 966 
Q 3022 478 2636 193 
Q 2250 -91 1575 -91 
Q 1294 -91 989 -36 
Q 684 19 347 128 
L 347 722 
Q 666 556 975 473 
Q 1284 391 1588 391 
Q 1994 391 2212 530 
Q 2431 669 2431 922 
Q 2431 1156 2273 1281 
Q 2116 1406 1581 1522 
L 1381 1569 
Q 847 1681 609 1914 
Q 372 2147 372 2553 
Q 372 3047 722 3315 
Q 1072 3584 1716 3584 
Q 2034 3584 2315 3537 
Q 2597 3491 2834 3397 
z
" transform="scale(0.015625)"/>
                        <path id="DejaVuSans-66" d="M 2375 4863
L 2375 4384 
L 1825 4384 
Q 1516 4384 1395 4259 
Q 1275 4134 1275 3809 
L 1275 3500 
L 2222 3500 
L 2222 3053 
L 1275 3053 
L 1275 0 
L 697 0 
L 697 3053 
L 147 3053 
L 147 3500 
L 697 3500 
L 697 3744 
Q 697 4328 969 4595 
Q 1241 4863 1831 4863 
L 2375 4863 
z
" transform="scale(0.015625)"/>
                        <path id="DejaVuSans-63" d="M 3122 3366
L 3122 2828 
Q 2878 2963 2633 3030 
Q 2388 3097 2138 3097 
Q 1578 3097 1268 2742 
Q 959 2388 959 1747 
Q 959 1106 1268 751 
Q 1578 397 2138 397 
Q 2388 397 2633 464 
Q 2878 531 3122 666 
L 3122 134 
Q 2881 22 2623 -34 
Q 2366 -91 2075 -91 
Q 1284 -91 818 406 
Q 353 903 353 1747 
Q 353 2603 823 3093 
Q 1294 3584 2113 3584 
Q 2378 3584 2631 3529 
Q 2884 3475 3122 3366 
z
" transform="scale(0.015625)"/>
                        <path id="DejaVuSans-6f" d="M 1959 3097
Q 1497 3097 1228 2736 
Q 959 2375 959 1747 
Q 959 1119 1226 758 
Q 1494 397 1959 397 
Q 2419 397 2687 759 
Q 2956 1122 2956 1747 
Q 2956 2369 2687 2733 
Q 2419 3097 1959 3097 
z
M 1959 3584 
Q 2709 3584 3137 3096 
Q 3566 2609 3566 1747 
Q 3566 888 3137 398 
Q 2709 -91 1959 -91 
Q 1206 -91 779 398 
Q 353 888 353 1747 
Q 353 2609 779 3096 
Q 1206 3584 1959 3584 
z
" transform="scale(0.015625)"/>
                        <path id="DejaVuSans-6e" d="M 3513 2113
L 3513 0 
L 2938 0 
L 2938 2094 
Q 2938 2591 2744 2837 
Q 2550 3084 2163 3084 
Q 1697 3084 1428 2787 
Q 1159 2491 1159 1978 
L 1159 0 
L 581 0 
L 581 3500 
L 1159 3500 
L 1159 2956 
Q 1366 3272 1645 3428 
Q 1925 3584 2291 3584 
Q 2894 3584 3203 3211 
Q 3513 2838 3513 2113 
z
" transform="scale(0.015625)"/>
                    </defs>
                    <use xlink:href="#DejaVuSans-4d"/>
                    <use xlink:href="#DejaVuSans-61" x="86.279297"/>
                    <use xlink:href="#DejaVuSans-72" x="147.558594"/>
                    <use xlink:href="#DejaVuSans-6b" x="188.671875"/>
                    <use xlink:href="#DejaVuSans-65" x="242.957031"/>
                    <use xlink:href="#DejaVuSans-74" x="304.480469"/>
                    <use xlink:href="#DejaVuSans-20" x="343.689453"/>
                    <use xlink:href="#DejaVuSans-52" x="375.476562"/>
                    <use xlink:href="#DejaVuSans-65" x="440.458984"/>
                    <use xlink:href="#DejaVuSans-67" x="501.982422"/>
                    <use xlink:href="#DejaVuSans-69" x="565.458984"/>
                    <use xlink:href="#DejaVuSans-6d" x="593.242188"/>
                    <use xlink:href="#DejaVuSans-65" x="690.654297"/>
                    <use xlink:href="#DejaVuSans-20" x="752.177734"/>
                    <use xlink:href="#DejaVuSans-43" x="783.964844"/>
                    <use xlink:href="#DejaVuSans-6c" x="853.789062"/>
                    <use xlink:href="#DejaVuSans-61" x="881.572266"/>
                    <use xlink:href="#DejaVuSans-73" x="942.851562"/>
                    <use xlink:href="#DejaVuSans-73" x="994.951172"/>
                    <use xlink:href="#DejaVuSans-69" x="1047.050781"/>
                    <use xlink:href="#DejaVuSans-66" x="1074.833984"/>
                    <use xlink:href="#DejaVuSans-69" x="1110.039062"/>
                    <use xlink:href="#DejaVuSans-63" x="1137.822266"/>
                    <use xlink:href="#DejaVuSans-61" x="1192.802734"/>
                    <use xlink:href="#DejaVuSans-74" x="1254.082031"/>
                    <use xlink:href="#DejaVuSans-69" x="1293.291016"/>
                    <use xlink:href="#DejaVuSans-6f" x="1321.074219"/>
                    <use xlink:href="#DejaVuSans-6e" x="1382.255859"/>
                </g>
            </g>
            <g id="legend_1">
                <g id="patch_31">
                    <path d="M 117.112 163.162875
L 310.79325 163.162875 
Q 312.79325 163.162875 312.79325 161.162875 
L 312.79325 59.416 
Q 312.79325 57.416 310.79325 57.416 
L 117.112 57.416 
Q 115.112 57.416 115.112 59.416 
L 115.112 161.162875 
Q 115.112 163.162875 117.112 163.162875 
z
" style="fill: #ffffff; opacity: 0.8; stroke: #cccccc; stroke-linejoin: miter"/>
                </g>
                <g id="patch_32">
                    <path d="M 119.112 69.014437
L 139.112 69.014437 
L 139.112 62.014437 
L 119.112 62.014437 
z
" style="fill: #ff0000; stroke: #ff0000; stroke-linejoin: miter"/>
                </g>
                <g id="text_15">
                    <!-- Downtrend + High Volatility -->
                    <g transform="translate(147.112 69.014437) scale(0.1 -0.1)">
                        <defs>
                            <path id="DejaVuSans-77" d="M 269 3500
L 844 3500 
L 1563 769 
L 2278 3500 
L 2956 3500 
L 3675 769 
L 4391 3500 
L 4966 3500 
L 4050 0 
L 3372 0 
L 2619 2869 
L 1863 0 
L 1184 0 
L 269 3500 
z
" transform="scale(0.015625)"/>
                            <path id="DejaVuSans-64" d="M 2906 2969
L 2906 4863 
L 3481 4863 
L 3481 0 
L 2906 0 
L 2906 525 
Q 2725 213 2448 61 
Q 2172 -91 1784 -91 
Q 1150 -91 751 415 
Q 353 922 353 1747 
Q 353 2572 751 3078 
Q 1150 3584 1784 3584 
Q 2172 3584 2448 3432 
Q 2725 3281 2906 2969 
z
M 947 1747 
Q 947 1113 1208 752 
Q 1469 391 1925 391 
Q 2381 391 2643 752 
Q 2906 1113 2906 1747 
Q 2906 2381 2643 2742 
Q 2381 3103 1925 3103 
Q 1469 3103 1208 2742 
Q 947 2381 947 1747 
z
" transform="scale(0.015625)"/>
                            <path id="DejaVuSans-2b" d="M 2944 4013
L 2944 2272 
L 4684 2272 
L 4684 1741 
L 2944 1741 
L 2944 0 
L 2419 0 
L 2419 1741 
L 678 1741 
L 678 2272 
L 2419 2272 
L 2419 4013 
L 2944 4013 
z
" transform="scale(0.015625)"/>
                            <path id="DejaVuSans-68" d="M 3513 2113
L 3513 0 
L 2938 0 
L 2938 2094 
Q 2938 2591 2744 2837 
Q 2550 3084 2163 3084 
Q 1697 3084 1428 2787 
Q 1159 2491 1159 1978 
L 1159 0 
L 581 0 
L 581 4863 
L 1159 4863 
L 1159 2956 
Q 1366 3272 1645 3428 
Q 1925 3584 2291 3584 
Q 2894 3584 3203 3211 
Q 3513 2838 3513 2113 
z
" transform="scale(0.015625)"/>
                            <path id="DejaVuSans-56" d="M 1831 0
L 50 4666 
L 709 4666 
L 2188 738 
L 3669 4666 
L 4325 4666 
L 2547 0 
L 1831 0 
z
" transform="scale(0.015625)"/>
                            <path id="DejaVuSans-79" d="M 2059 -325
Q 1816 -950 1584 -1140 
Q 1353 -1331 966 -1331 
L 506 -1331 
L 506 -850 
L 844 -850 
Q 1081 -850 1212 -737 
Q 1344 -625 1503 -206 
L 1606 56 
L 191 3500 
L 800 3500 
L 1894 763 
L 2988 3500 
L 3597 3500 
L 2059 -325 
z
" transform="scale(0.015625)"/>
                        </defs>
                        <use xlink:href="#DejaVuSans-44"/>
                        <use xlink:href="#DejaVuSans-6f" x="77.001953"/>
                        <use xlink:href="#DejaVuSans-77" x="138.183594"/>
                        <use xlink:href="#DejaVuSans-6e" x="219.970703"/>
                        <use xlink:href="#DejaVuSans-74" x="283.349609"/>
                        <use xlink:href="#DejaVuSans-72" x="322.558594"/>
                        <use xlink:href="#DejaVuSans-65" x="361.421875"/>
                        <use xlink:href="#DejaVuSans-6e" x="422.945312"/>
                        <use xlink:href="#DejaVuSans-64" x="486.324219"/>
                        <use xlink:href="#DejaVuSans-20" x="549.800781"/>
                        <use xlink:href="#DejaVuSans-2b" x="581.587891"/>
                        <use xlink:href="#DejaVuSans-20" x="665.376953"/>
                        <use xlink:href="#DejaVuSans-48" x="697.164062"/>
                        <use xlink:href="#DejaVuSans-69" x="772.359375"/>
                        <use xlink:href="#DejaVuSans-67" x="800.142578"/>
                        <use xlink:href="#DejaVuSans-68" x="863.619141"/>
                        <use xlink:href="#DejaVuSans-20" x="926.998047"/>
                        <use xlink:href="#DejaVuSans-56" x="958.785156"/>
                        <use xlink:href="#DejaVuSans-6f" x="1019.443359"/>
                        <use xlink:href="#DejaVuSans-6c" x="1080.625"/>
                        <use xlink:href="#DejaVuSans-61" x="1108.408203"/>
                        <use xlink:href="#DejaVuSans-74" x="1169.6875"/>
                        <use xlink:href="#DejaVuSans-69" x="1208.896484"/>
                        <use xlink:href="#DejaVuSans-6c" x="1236.679688"/>
                        <use xlink:href="#DejaVuSans-69" x="1264.462891"/>
                        <use xlink:href="#DejaVuSans-74" x="1292.246094"/>
                        <use xlink:href="#DejaVuSans-79" x="1331.455078"/>
                    </g>
                </g>
                <g id="patch_33">
                    <path d="M 119.112 83.692563
L 139.112 83.692563 
L 139.112 76.692563 
L 119.112 76.692563 
z
" style="fill: #ffcccc; stroke: #ffcccc; stroke-linejoin: miter"/>
                </g>
                <g id="text_16">
                    <!-- Downtrend + Low Volatility -->
                    <g transform="translate(147.112 83.692563) scale(0.1 -0.1)">
                        <defs>
                            <path id="DejaVuSans-4c" d="M 628 4666
L 1259 4666 
L 1259 531 
L 3531 531 
L 3531 0 
L 628 0 
L 628 4666 
z
" transform="scale(0.015625)"/>
                        </defs>
                        <use xlink:href="#DejaVuSans-44"/>
                        <use xlink:href="#DejaVuSans-6f" x="77.001953"/>
                        <use xlink:href="#DejaVuSans-77" x="138.183594"/>
                        <use xlink:href="#DejaVuSans-6e" x="219.970703"/>
                        <use xlink:href="#DejaVuSans-74" x="283.349609"/>
                        <use xlink:href="#DejaVuSans-72" x="322.558594"/>
                        <use xlink:href="#DejaVuSans-65" x="361.421875"/>
                        <use xlink:href="#DejaVuSans-6e" x="422.945312"/>
                        <use xlink:href="#DejaVuSans-64" x="486.324219"/>
                        <use xlink:href="#DejaVuSans-20" x="549.800781"/>
                        <use xlink:href="#DejaVuSans-2b" x="581.587891"/>
                        <use xlink:href="#DejaVuSans-20" x="665.376953"/>
                        <use xlink:href="#DejaVuSans-4c" x="697.164062"/>
                        <use xlink:href="#DejaVuSans-6f" x="751.126953"/>
                        <use xlink:href="#DejaVuSans-77" x="812.308594"/>
                        <use xlink:href="#DejaVuSans-20" x="894.095703"/>
                        <use xlink:href="#DejaVuSans-56" x="925.882812"/>
                        <use xlink:href="#DejaVuSans-6f" x="986.541016"/>
                        <use xlink:href="#DejaVuSans-6c" x="1047.722656"/>
                        <use xlink:href="#DejaVuSans-61" x="1075.505859"/>
                        <use xlink:href="#DejaVuSans-74" x="1136.785156"/>
                        <use xlink:href="#DejaVuSans-69" x="1175.994141"/>
                        <use xlink:href="#DejaVuSans-6c" x="1203.777344"/>
                        <use xlink:href="#DejaVuSans-69" x="1231.560547"/>
                        <use xlink:href="#DejaVuSans-74" x="1259.34375"/>
                        <use xlink:href="#DejaVuSans-79" x="1298.552734"/>
                    </g>
                </g>
                <g id="patch_34">
                    <path d="M 119.112 98.370688
L 139.112 98.370688 
L 139.112 91.370688 
L 119.112 91.370688 
z
" style="fill: #0000ff; stroke: #0000ff; stroke-linejoin: miter"/>
                </g>
                <g id="text_17">
                    <!-- Sideways Trend + High Volatility -->
                    <g transform="translate(147.112 98.370688) scale(0.1 -0.1)">
                        <use xlink:href="#DejaVuSans-53"/>
                        <use xlink:href="#DejaVuSans-69" x="63.476562"/>
                        <use xlink:href="#DejaVuSans-64" x="91.259766"/>
                        <use xlink:href="#DejaVuSans-65" x="154.736328"/>
                        <use xlink:href="#DejaVuSans-77" x="216.259766"/>
                        <use xlink:href="#DejaVuSans-61" x="298.046875"/>
                        <use xlink:href="#DejaVuSans-79" x="359.326172"/>
                        <use xlink:href="#DejaVuSans-73" x="418.505859"/>
                        <use xlink:href="#DejaVuSans-20" x="470.605469"/>
                        <use xlink:href="#DejaVuSans-54" x="502.392578"/>
                        <use xlink:href="#DejaVuSans-72" x="548.726562"/>
                        <use xlink:href="#DejaVuSans-65" x="587.589844"/>
                        <use xlink:href="#DejaVuSans-6e" x="649.113281"/>
                        <use xlink:href="#DejaVuSans-64" x="712.492188"/>
                        <use xlink:href="#DejaVuSans-20" x="775.96875"/>
                        <use xlink:href="#DejaVuSans-2b" x="807.755859"/>
                        <use xlink:href="#DejaVuSans-20" x="891.544922"/>
                        <use xlink:href="#DejaVuSans-48" x="923.332031"/>
                        <use xlink:href="#DejaVuSans-69" x="998.527344"/>
                        <use xlink:href="#DejaVuSans-67" x="1026.310547"/>
                        <use xlink:href="#DejaVuSans-68" x="1089.787109"/>
                        <use xlink:href="#DejaVuSans-20" x="1153.166016"/>
                        <use xlink:href="#DejaVuSans-56" x="1184.953125"/>
                        <use xlink:href="#DejaVuSans-6f" x="1245.611328"/>
                        <use xlink:href="#DejaVuSans-6c" x="1306.792969"/>
                        <use xlink:href="#DejaVuSans-61" x="1334.576172"/>
                        <use xlink:href="#DejaVuSans-74" x="1395.855469"/>
                        <use xlink:href="#DejaVuSans-69" x="1435.064453"/>
                        <use xlink:href="#DejaVuSans-6c" x="1462.847656"/>
                        <use xlink:href="#DejaVuSans-69" x="1490.630859"/>
                        <use xlink:href="#DejaVuSans-74" x="1518.414062"/>
                        <use xlink:href="#DejaVuSans-79" x="1557.623047"/>
                    </g>
                </g>
                <g id="patch_35">
                    <path d="M 119.112 113.048812
L 139.112 113.048812 
L 139.112 106.048812 
L 119.112 106.048812 
z
" style="fill: #add8e6; stroke: #add8e6; stroke-linejoin: miter"/>
                </g>
                <g id="text_18">
                    <!-- Sideways Trend + Low Volatility -->
                    <g transform="translate(147.112 113.048812) scale(0.1 -0.1)">
                        <use xlink:href="#DejaVuSans-53"/>
                        <use xlink:href="#DejaVuSans-69" x="63.476562"/>
                        <use xlink:href="#DejaVuSans-64" x="91.259766"/>
                        <use xlink:href="#DejaVuSans-65" x="154.736328"/>
                        <use xlink:href="#DejaVuSans-77" x="216.259766"/>
                        <use xlink:href="#DejaVuSans-61" x="298.046875"/>
                        <use xlink:href="#DejaVuSans-79" x="359.326172"/>
                        <use xlink:href="#DejaVuSans-73" x="418.505859"/>
                        <use xlink:href="#DejaVuSans-20" x="470.605469"/>
                        <use xlink:href="#DejaVuSans-54" x="502.392578"/>
                        <use xlink:href="#DejaVuSans-72" x="548.726562"/>
                        <use xlink:href="#DejaVuSans-65" x="587.589844"/>
                        <use xlink:href="#DejaVuSans-6e" x="649.113281"/>
                        <use xlink:href="#DejaVuSans-64" x="712.492188"/>
                        <use xlink:href="#DejaVuSans-20" x="775.96875"/>
                        <use xlink:href="#DejaVuSans-2b" x="807.755859"/>
                        <use xlink:href="#DejaVuSans-20" x="891.544922"/>
                        <use xlink:href="#DejaVuSans-4c" x="923.332031"/>
                        <use xlink:href="#DejaVuSans-6f" x="977.294922"/>
                        <use xlink:href="#DejaVuSans-77" x="1038.476562"/>
                        <use xlink:href="#DejaVuSans-20" x="1120.263672"/>
                        <use xlink:href="#DejaVuSans-56" x="1152.050781"/>
                        <use xlink:href="#DejaVuSans-6f" x="1212.708984"/>
                        <use xlink:href="#DejaVuSans-6c" x="1273.890625"/>
                        <use xlink:href="#DejaVuSans-61" x="1301.673828"/>
                        <use xlink:href="#DejaVuSans-74" x="1362.953125"/>
                        <use xlink:href="#DejaVuSans-69" x="1402.162109"/>
                        <use xlink:href="#DejaVuSans-6c" x="1429.945312"/>
                        <use xlink:href="#DejaVuSans-69" x="1457.728516"/>
                        <use xlink:href="#DejaVuSans-74" x="1485.511719"/>
                        <use xlink:href="#DejaVuSans-79" x="1524.720703"/>
                    </g>
                </g>
                <g id="patch_36">
                    <path d="M 119.112 127.726937
L 139.112 127.726937 
L 139.112 120.726937 
L 119.112 120.726937 
z
" style="fill: #008000; stroke: #008000; stroke-linejoin: miter"/>
                </g>
                <g id="text_19">
                    <!-- Uptrend + High Volatility -->
                    <g transform="translate(147.112 127.726937) scale(0.1 -0.1)">
                        <defs>
                            <path id="DejaVuSans-70" d="M 1159 525
L 1159 -1331 
L 581 -1331 
L 581 3500 
L 1159 3500 
L 1159 2969 
Q 1341 3281 1617 3432 
Q 1894 3584 2278 3584 
Q 2916 3584 3314 3078 
Q 3713 2572 3713 1747 
Q 3713 922 3314 415 
Q 2916 -91 2278 -91 
Q 1894 -91 1617 61 
Q 1341 213 1159 525 
z
M 3116 1747 
Q 3116 2381 2855 2742 
Q 2594 3103 2138 3103 
Q 1681 3103 1420 2742 
Q 1159 2381 1159 1747 
Q 1159 1113 1420 752 
Q 1681 391 2138 391 
Q 2594 391 2855 752 
Q 3116 1113 3116 1747 
z
" transform="scale(0.015625)"/>
                        </defs>
                        <use xlink:href="#DejaVuSans-55"/>
                        <use xlink:href="#DejaVuSans-70" x="73.193359"/>
                        <use xlink:href="#DejaVuSans-74" x="136.669922"/>
                        <use xlink:href="#DejaVuSans-72" x="175.878906"/>
                        <use xlink:href="#DejaVuSans-65" x="214.742188"/>
                        <use xlink:href="#DejaVuSans-6e" x="276.265625"/>
                        <use xlink:href="#DejaVuSans-64" x="339.644531"/>
                        <use xlink:href="#DejaVuSans-20" x="403.121094"/>
                        <use xlink:href="#DejaVuSans-2b" x="434.908203"/>
                        <use xlink:href="#DejaVuSans-20" x="518.697266"/>
                        <use xlink:href="#DejaVuSans-48" x="550.484375"/>
                        <use xlink:href="#DejaVuSans-69" x="625.679688"/>
                        <use xlink:href="#DejaVuSans-67" x="653.462891"/>
                        <use xlink:href="#DejaVuSans-68" x="716.939453"/>
                        <use xlink:href="#DejaVuSans-20" x="780.318359"/>
                        <use xlink:href="#DejaVuSans-56" x="812.105469"/>
                        <use xlink:href="#DejaVuSans-6f" x="872.763672"/>
                        <use xlink:href="#DejaVuSans-6c" x="933.945312"/>
                        <use xlink:href="#DejaVuSans-61" x="961.728516"/>
                        <use xlink:href="#DejaVuSans-74" x="1023.007812"/>
                        <use xlink:href="#DejaVuSans-69" x="1062.216797"/>
                        <use xlink:href="#DejaVuSans-6c" x="1090"/>
                        <use xlink:href="#DejaVuSans-69" x="1117.783203"/>
                        <use xlink:href="#DejaVuSans-74" x="1145.566406"/>
                        <use xlink:href="#DejaVuSans-79" x="1184.775391"/>
                    </g>
                </g>
                <g id="patch_37">
                    <path d="M 119.112 142.405062
L 139.112 142.405062 
L 139.112 135.405062 
L 119.112 135.405062 
z
" style="fill: #90ee90; stroke: #90ee90; stroke-linejoin: miter"/>
                </g>
                <g id="text_20">
                    <!-- Uptrend + Low Volatility -->
                    <g transform="translate(147.112 142.405062) scale(0.1 -0.1)">
                        <use xlink:href="#DejaVuSans-55"/>
                        <use xlink:href="#DejaVuSans-70" x="73.193359"/>
                        <use xlink:href="#DejaVuSans-74" x="136.669922"/>
                        <use xlink:href="#DejaVuSans-72" x="175.878906"/>
                        <use xlink:href="#DejaVuSans-65" x="214.742188"/>
                        <use xlink:href="#DejaVuSans-6e" x="276.265625"/>
                        <use xlink:href="#DejaVuSans-64" x="339.644531"/>
                        <use xlink:href="#DejaVuSans-20" x="403.121094"/>
                        <use xlink:href="#DejaVuSans-2b" x="434.908203"/>
                        <use xlink:href="#DejaVuSans-20" x="518.697266"/>
                        <use xlink:href="#DejaVuSans-4c" x="550.484375"/>
                        <use xlink:href="#DejaVuSans-6f" x="604.447266"/>
                        <use xlink:href="#DejaVuSans-77" x="665.628906"/>
                        <use xlink:href="#DejaVuSans-20" x="747.416016"/>
                        <use xlink:href="#DejaVuSans-56" x="779.203125"/>
                        <use xlink:href="#DejaVuSans-6f" x="839.861328"/>
                        <use xlink:href="#DejaVuSans-6c" x="901.042969"/>
                        <use xlink:href="#DejaVuSans-61" x="928.826172"/>
                        <use xlink:href="#DejaVuSans-74" x="990.105469"/>
                        <use xlink:href="#DejaVuSans-69" x="1029.314453"/>
                        <use xlink:href="#DejaVuSans-6c" x="1057.097656"/>
                        <use xlink:href="#DejaVuSans-69" x="1084.880859"/>
                        <use xlink:href="#DejaVuSans-74" x="1112.664062"/>
                        <use xlink:href="#DejaVuSans-79" x="1151.873047"/>
                    </g>
                </g>
                <g id="line2d_14">
                    <path d="M 119.112 153.583188
L 129.112 153.583188 
L 139.112 153.583188 
" style="fill: none; stroke: #000000; stroke-width: 1.5; stroke-linecap: square"/>
                </g>
                <g id="text_21">
                    <!-- Closing Price -->
                    <g transform="translate(147.112 157.083188) scale(0.1 -0.1)">
                        <defs>
                            <path id="DejaVuSans-50" d="M 1259 4147
L 1259 2394 
L 2053 2394 
Q 2494 2394 2734 2622 
Q 2975 2850 2975 3272 
Q 2975 3691 2734 3919 
Q 2494 4147 2053 4147 
L 1259 4147 
z
M 628 4666 
L 2053 4666 
Q 2838 4666 3239 4311 
Q 3641 3956 3641 3272 
Q 3641 2581 3239 2228 
Q 2838 1875 2053 1875 
L 1259 1875 
L 1259 0 
L 628 0 
L 628 4666 
z
" transform="scale(0.015625)"/>
                        </defs>
                        <use xlink:href="#DejaVuSans-43"/>
                        <use xlink:href="#DejaVuSans-6c" x="69.824219"/>
                        <use xlink:href="#DejaVuSans-6f" x="97.607422"/>
                        <use xlink:href="#DejaVuSans-73" x="158.789062"/>
                        <use xlink:href="#DejaVuSans-69" x="210.888672"/>
                        <use xlink:href="#DejaVuSans-6e" x="238.671875"/>
                        <use xlink:href="#DejaVuSans-67" x="302.050781"/>
                        <use xlink:href="#DejaVuSans-20" x="365.527344"/>
                        <use xlink:href="#DejaVuSans-50" x="397.314453"/>
                        <use xlink:href="#DejaVuSans-72" x="455.867188"/>
                        <use xlink:href="#DejaVuSans-69" x="496.980469"/>
                        <use xlink:href="#DejaVuSans-63" x="524.763672"/>
                        <use xlink:href="#DejaVuSans-65" x="579.744141"/>
                    </g>
                </g>
            </g>
        </g>
    </g>
    <defs>
        <clipPath id="pefd103f57c">
            <rect x="110.112" y="52.416" width="1251.552" height="595.218"/>
        </clipPath>
    </defs>
</svg>
