<?xml version="1.0" encoding="UTF-8" standalone="no"?>
<!-- Created with Inkscape (http://www.inkscape.org/) -->

<svg
        xmlns:svg="http://www.w3.org/2000/svg"
        version="1.1"
        id="svg2"
        width="1843.2"
        height="936"
        viewBox="0 0 1843.2 936"
        xmlns="http://www.w3.org/2000/svg">
    <defs
            id="defs6">
        <clipPath
                clipPathUnits="userSpaceOnUse"
                id="clipPath20">
            <path
                    d="m 124.656,78.996667 h 1143.78 V 651.04 H 124.656 Z"
                    id="path18"/>
        </clipPath>
        <clipPath
                clipPathUnits="userSpaceOnUse"
                id="clipPath40">
            <path
                    d="m 124.656,78.996667 h 1143.78 V 651.04 H 124.656 Z"
                    id="path38"/>
        </clipPath>
        <clipPath
                clipPathUnits="userSpaceOnUse"
                id="clipPath60">
            <path
                    d="m 124.656,78.996667 h 1143.78 V 651.04 H 124.656 Z"
                    id="path58"/>
        </clipPath>
        <clipPath
                clipPathUnits="userSpaceOnUse"
                id="clipPath80">
            <path
                    d="m 124.656,78.996667 h 1143.78 V 651.04 H 124.656 Z"
                    id="path78"/>
        </clipPath>
        <clipPath
                clipPathUnits="userSpaceOnUse"
                id="clipPath100">
            <path
                    d="m 124.656,78.996667 h 1143.78 V 651.04 H 124.656 Z"
                    id="path98"/>
        </clipPath>
        <clipPath
                clipPathUnits="userSpaceOnUse"
                id="clipPath126">
            <path
                    d="m 124.656,78.996667 h 1143.78 V 651.04 H 124.656 Z"
                    id="path124"/>
        </clipPath>
        <clipPath
                clipPathUnits="userSpaceOnUse"
                id="clipPath146">
            <path
                    d="m 124.656,78.996667 h 1143.78 V 651.04 H 124.656 Z"
                    id="path144"/>
        </clipPath>
        <clipPath
                clipPathUnits="userSpaceOnUse"
                id="clipPath166">
            <path
                    d="m 124.656,78.996667 h 1143.78 V 651.04 H 124.656 Z"
                    id="path164"/>
        </clipPath>
        <clipPath
                clipPathUnits="userSpaceOnUse"
                id="clipPath186">
            <path
                    d="m 124.656,78.996667 h 1143.78 V 651.04 H 124.656 Z"
                    id="path184"/>
        </clipPath>
        <clipPath
                clipPathUnits="userSpaceOnUse"
                id="clipPath206">
            <path
                    d="m 124.656,78.996667 h 1143.78 V 651.04 H 124.656 Z"
                    id="path204"/>
        </clipPath>
        <clipPath
                clipPathUnits="userSpaceOnUse"
                id="clipPath232">
            <path
                    d="m 124.656,78.996667 h 1143.78 V 651.04 H 124.656 Z"
                    id="path230"/>
        </clipPath>
        <clipPath
                clipPathUnits="userSpaceOnUse"
                id="clipPath270">
            <path
                    d="m 124.656,78.996667 h 1143.78 V 651.04 H 124.656 Z"
                    id="path268"/>
        </clipPath>
        <clipPath
                clipPathUnits="userSpaceOnUse"
                id="clipPath292">
            <path
                    d="M -1021,-463 H 1794 V 1233 H -1021 Z"
                    id="path290"/>
        </clipPath>
        <clipPath
                clipPathUnits="userSpaceOnUse"
                id="clipPath312">
            <path
                    d="M -1021,-463 H 1794 V 1233 H -1021 Z"
                    id="path310"/>
        </clipPath>
        <clipPath
                clipPathUnits="userSpaceOnUse"
                id="clipPath332">
            <path
                    d="M -1021,-463 H 1794 V 1233 H -1021 Z"
                    id="path330"/>
        </clipPath>
        <clipPath
                clipPathUnits="userSpaceOnUse"
                id="clipPath352">
            <path
                    d="M -1021,-463 H 1794 V 1233 H -1021 Z"
                    id="path350"/>
        </clipPath>
    </defs>
    <g
            id="g8"
            transform="matrix(1.3333333,0,0,-1.3333333,0,936)">
        <path
                d="M 0,0 H 1382.4 V 702 H 0 Z"
                style="fill:#ffffff;fill-opacity:1;fill-rule:nonzero;stroke:none"
                id="path10"/>
        <path
                d="m 124.656,78.996667 h 1143.78 V 651.04 H 124.656 Z"
                style="fill:#ffffff;fill-opacity:1;fill-rule:nonzero;stroke:none"
                id="path12"/>
        <g
                id="g14">
            <g
                    id="g16"
                    clip-path="url(#clipPath20)">
                <path
                        d="M 176.646,78.996667 V 651.04"
                        style="fill:none;stroke:#b0b0b0;stroke-width:0.8;stroke-linecap:square;stroke-linejoin:round;stroke-miterlimit:10;stroke-dasharray:none;stroke-opacity:1"
                        id="path22"/>
            </g>
        </g>
        <g
                id="g24">
            <path
                    d="m 176.646,78.996667 v -3.5"
                    style="fill:#000000;fill-opacity:1;fill-rule:nonzero;stroke:#000000;stroke-width:0.8;stroke-linecap:butt;stroke-linejoin:round;stroke-miterlimit:10;stroke-dasharray:none;stroke-opacity:1"
                    id="path26"/>
            <g
                    id="g28"
                    transform="translate(170.28662,56.793542)">
                <text
                        xml:space="preserve"
                        transform="scale(1,-1)"
                        style="font-variant:normal;font-weight:normal;font-size:20px;font-family:'DejaVu Sans';-inkscape-font-specification:DejaVuSans;writing-mode:lr-tb;fill:#000000;fill-opacity:1;fill-rule:nonzero;stroke:none"
                        id="text32"><tspan
             x="0"
             y="0"
             id="tspan30">0</tspan></text>
            </g>
        </g>
        <g
                id="g34">
            <g
                    id="g36"
                    clip-path="url(#clipPath40)">
                <path
                        d="M 411.36383,78.996667 V 651.04"
                        style="fill:none;stroke:#b0b0b0;stroke-width:0.8;stroke-linecap:square;stroke-linejoin:round;stroke-miterlimit:10;stroke-dasharray:none;stroke-opacity:1"
                        id="path42"/>
            </g>
        </g>
        <g
                id="g44">
            <path
                    d="m 411.36383,78.996667 v -3.5"
                    style="fill:#000000;fill-opacity:1;fill-rule:nonzero;stroke:#000000;stroke-width:0.8;stroke-linecap:butt;stroke-linejoin:round;stroke-miterlimit:10;stroke-dasharray:none;stroke-opacity:1"
                    id="path46"/>
            <g
                    id="g48"
                    transform="translate(392.28571,56.793542)">
                <text
                        xml:space="preserve"
                        transform="scale(1,-1)"
                        style="font-variant:normal;font-weight:normal;font-size:20px;font-family:'DejaVu Sans';-inkscape-font-specification:DejaVuSans;writing-mode:lr-tb;fill:#000000;fill-opacity:1;fill-rule:nonzero;stroke:none"
                        id="text52"><tspan
             x="0 12.72 25.440001"
             y="0"
             id="tspan50">100</tspan></text>
            </g>
        </g>
        <g
                id="g54">
            <g
                    id="g56"
                    clip-path="url(#clipPath60)">
                <path
                        d="M 646.08167,78.996667 V 651.04"
                        style="fill:none;stroke:#b0b0b0;stroke-width:0.8;stroke-linecap:square;stroke-linejoin:round;stroke-miterlimit:10;stroke-dasharray:none;stroke-opacity:1"
                        id="path62"/>
            </g>
        </g>
        <g
                id="g64">
            <path
                    d="m 646.08167,78.996667 v -3.5"
                    style="fill:#000000;fill-opacity:1;fill-rule:nonzero;stroke:#000000;stroke-width:0.8;stroke-linecap:butt;stroke-linejoin:round;stroke-miterlimit:10;stroke-dasharray:none;stroke-opacity:1"
                    id="path66"/>
            <g
                    id="g68"
                    transform="translate(627.00354,56.793542)">
                <text
                        xml:space="preserve"
                        transform="scale(1,-1)"
                        style="font-variant:normal;font-weight:normal;font-size:20px;font-family:'DejaVu Sans';-inkscape-font-specification:DejaVuSans;writing-mode:lr-tb;fill:#000000;fill-opacity:1;fill-rule:nonzero;stroke:none"
                        id="text72"><tspan
             x="0 12.72 25.440001"
             y="0"
             id="tspan70">200</tspan></text>
            </g>
        </g>
        <g
                id="g74">
            <g
                    id="g76"
                    clip-path="url(#clipPath80)">
                <path
                        d="M 880.7995,78.996667 V 651.04"
                        style="fill:none;stroke:#b0b0b0;stroke-width:0.8;stroke-linecap:square;stroke-linejoin:round;stroke-miterlimit:10;stroke-dasharray:none;stroke-opacity:1"
                        id="path82"/>
            </g>
        </g>
        <g
                id="g84">
            <path
                    d="m 880.7995,78.996667 v -3.5"
                    style="fill:#000000;fill-opacity:1;fill-rule:nonzero;stroke:#000000;stroke-width:0.8;stroke-linecap:butt;stroke-linejoin:round;stroke-miterlimit:10;stroke-dasharray:none;stroke-opacity:1"
                    id="path86"/>
            <g
                    id="g88"
                    transform="translate(861.72137,56.793542)">
                <text
                        xml:space="preserve"
                        transform="scale(1,-1)"
                        style="font-variant:normal;font-weight:normal;font-size:20px;font-family:'DejaVu Sans';-inkscape-font-specification:DejaVuSans;writing-mode:lr-tb;fill:#000000;fill-opacity:1;fill-rule:nonzero;stroke:none"
                        id="text92"><tspan
             x="0 12.72 25.440001"
             y="0"
             id="tspan90">300</tspan></text>
            </g>
        </g>
        <g
                id="g94">
            <g
                    id="g96"
                    clip-path="url(#clipPath100)">
                <path
                        d="M 1115.5173,78.996667 V 651.04"
                        style="fill:none;stroke:#b0b0b0;stroke-width:0.8;stroke-linecap:square;stroke-linejoin:round;stroke-miterlimit:10;stroke-dasharray:none;stroke-opacity:1"
                        id="path102"/>
            </g>
        </g>
        <g
                id="g104">
            <path
                    d="m 1115.5173,78.996667 v -3.5"
                    style="fill:#000000;fill-opacity:1;fill-rule:nonzero;stroke:#000000;stroke-width:0.8;stroke-linecap:butt;stroke-linejoin:round;stroke-miterlimit:10;stroke-dasharray:none;stroke-opacity:1"
                    id="path106"/>
            <g
                    id="g108"
                    transform="translate(1096.4392,56.793542)">
                <text
                        xml:space="preserve"
                        transform="scale(1,-1)"
                        style="font-variant:normal;font-weight:normal;font-size:20px;font-family:'DejaVu Sans';-inkscape-font-specification:DejaVuSans;writing-mode:lr-tb;fill:#000000;fill-opacity:1;fill-rule:nonzero;stroke:none"
                        id="text112"><tspan
             x="0 12.72 25.440001"
             y="0"
             id="tspan110">400</tspan></text>
            </g>
            <g
                    id="g114"
                    transform="translate(638.4835,33.434167)">
                <text
                        xml:space="preserve"
                        transform="scale(1,-1)"
                        style="font-variant:normal;font-weight:normal;font-size:20px;font-family:'DejaVu Sans';-inkscape-font-specification:DejaVuSans;writing-mode:lr-tb;fill:#000000;fill-opacity:1;fill-rule:nonzero;stroke:none"
                        id="text118"><tspan
             x="0 9.2825003 17.502501 29.762501 42.462502 54.762501 61.122501 67.022499 79.702499 92.402496 104.35875"
             y="0"
             id="tspan116">Trade Index</tspan></text>
            </g>
        </g>
        <g
                id="g120">
            <g
                    id="g122"
                    clip-path="url(#clipPath126)">
                <path
                        d="m 124.656,150.9028 h 1143.78"
                        style="fill:none;stroke:#b0b0b0;stroke-width:0.8;stroke-linecap:square;stroke-linejoin:round;stroke-miterlimit:10;stroke-dasharray:none;stroke-opacity:1"
                        id="path128"/>
            </g>
        </g>
        <g
                id="g130">
            <path
                    d="m 124.656,150.9028 h -3.5"
                    style="fill:#000000;fill-opacity:1;fill-rule:nonzero;stroke:#000000;stroke-width:0.8;stroke-linecap:butt;stroke-linejoin:round;stroke-miterlimit:10;stroke-dasharray:none;stroke-opacity:1"
                    id="path132"/>
            <g
                    id="g134"
                    transform="translate(66.781,143.30124)">
                <text
                        xml:space="preserve"
                        transform="scale(1,-1)"
                        style="font-variant:normal;font-weight:normal;font-size:20px;font-family:'DejaVu Sans';-inkscape-font-specification:DejaVuSans;writing-mode:lr-tb;fill:#0000ff;fill-opacity:1;fill-rule:nonzero;stroke:none"
                        id="text138"><tspan
             x="0 12.72 25.440001 38.16"
             y="0"
             id="tspan136">1000</tspan></text>
            </g>
        </g>
        <g
                id="g140">
            <g
                    id="g142"
                    clip-path="url(#clipPath146)">
                <path
                        d="m 124.656,272.12704 h 1143.78"
                        style="fill:none;stroke:#b0b0b0;stroke-width:0.8;stroke-linecap:square;stroke-linejoin:round;stroke-miterlimit:10;stroke-dasharray:none;stroke-opacity:1"
                        id="path148"/>
            </g>
        </g>
        <g
                id="g150">
            <path
                    d="m 124.656,272.12704 h -3.5"
                    style="fill:#000000;fill-opacity:1;fill-rule:nonzero;stroke:#000000;stroke-width:0.8;stroke-linecap:butt;stroke-linejoin:round;stroke-miterlimit:10;stroke-dasharray:none;stroke-opacity:1"
                    id="path152"/>
            <g
                    id="g154"
                    transform="translate(66.781,264.52548)">
                <text
                        xml:space="preserve"
                        transform="scale(1,-1)"
                        style="font-variant:normal;font-weight:normal;font-size:20px;font-family:'DejaVu Sans';-inkscape-font-specification:DejaVuSans;writing-mode:lr-tb;fill:#0000ff;fill-opacity:1;fill-rule:nonzero;stroke:none"
                        id="text158"><tspan
             x="0 12.72 25.440001 38.16"
             y="0"
             id="tspan156">2000</tspan></text>
            </g>
        </g>
        <g
                id="g160">
            <g
                    id="g162"
                    clip-path="url(#clipPath166)">
                <path
                        d="m 124.656,393.35129 h 1143.78"
                        style="fill:none;stroke:#b0b0b0;stroke-width:0.8;stroke-linecap:square;stroke-linejoin:round;stroke-miterlimit:10;stroke-dasharray:none;stroke-opacity:1"
                        id="path168"/>
            </g>
        </g>
        <g
                id="g170">
            <path
                    d="m 124.656,393.35129 h -3.5"
                    style="fill:#000000;fill-opacity:1;fill-rule:nonzero;stroke:#000000;stroke-width:0.8;stroke-linecap:butt;stroke-linejoin:round;stroke-miterlimit:10;stroke-dasharray:none;stroke-opacity:1"
                    id="path172"/>
            <g
                    id="g174"
                    transform="translate(66.781,385.74972)">
                <text
                        xml:space="preserve"
                        transform="scale(1,-1)"
                        style="font-variant:normal;font-weight:normal;font-size:20px;font-family:'DejaVu Sans';-inkscape-font-specification:DejaVuSans;writing-mode:lr-tb;fill:#0000ff;fill-opacity:1;fill-rule:nonzero;stroke:none"
                        id="text178"><tspan
             x="0 12.72 25.440001 38.16"
             y="0"
             id="tspan176">3000</tspan></text>
            </g>
        </g>
        <g
                id="g180">
            <g
                    id="g182"
                    clip-path="url(#clipPath186)">
                <path
                        d="m 124.656,514.57553 h 1143.78"
                        style="fill:none;stroke:#b0b0b0;stroke-width:0.8;stroke-linecap:square;stroke-linejoin:round;stroke-miterlimit:10;stroke-dasharray:none;stroke-opacity:1"
                        id="path188"/>
            </g>
        </g>
        <g
                id="g190">
            <path
                    d="m 124.656,514.57553 h -3.5"
                    style="fill:#000000;fill-opacity:1;fill-rule:nonzero;stroke:#000000;stroke-width:0.8;stroke-linecap:butt;stroke-linejoin:round;stroke-miterlimit:10;stroke-dasharray:none;stroke-opacity:1"
                    id="path192"/>
            <g
                    id="g194"
                    transform="translate(66.781,506.97397)">
                <text
                        xml:space="preserve"
                        transform="scale(1,-1)"
                        style="font-variant:normal;font-weight:normal;font-size:20px;font-family:'DejaVu Sans';-inkscape-font-specification:DejaVuSans;writing-mode:lr-tb;fill:#0000ff;fill-opacity:1;fill-rule:nonzero;stroke:none"
                        id="text198"><tspan
             x="0 12.72 25.440001 38.16"
             y="0"
             id="tspan196">4000</tspan></text>
            </g>
        </g>
        <g
                id="g200">
            <g
                    id="g202"
                    clip-path="url(#clipPath206)">
                <path
                        d="m 124.656,635.79977 h 1143.78"
                        style="fill:none;stroke:#b0b0b0;stroke-width:0.8;stroke-linecap:square;stroke-linejoin:round;stroke-miterlimit:10;stroke-dasharray:none;stroke-opacity:1"
                        id="path208"/>
            </g>
        </g>
        <g
                id="g210">
            <path
                    d="m 124.656,635.79977 h -3.5"
                    style="fill:#000000;fill-opacity:1;fill-rule:nonzero;stroke:#000000;stroke-width:0.8;stroke-linecap:butt;stroke-linejoin:round;stroke-miterlimit:10;stroke-dasharray:none;stroke-opacity:1"
                    id="path212"/>
            <g
                    id="g214"
                    transform="translate(66.781,628.19821)">
                <text
                        xml:space="preserve"
                        transform="scale(1,-1)"
                        style="font-variant:normal;font-weight:normal;font-size:20px;font-family:'DejaVu Sans';-inkscape-font-specification:DejaVuSans;writing-mode:lr-tb;fill:#0000ff;fill-opacity:1;fill-rule:nonzero;stroke:none"
                        id="text218"><tspan
             x="0 12.72 25.440001 38.16"
             y="0"
             id="tspan216">5000</tspan></text>
            </g>
            <g
                    id="g220"
                    transform="rotate(90,-115.60695,174.2317)">
                <text
                        xml:space="preserve"
                        transform="scale(1,-1)"
                        style="font-variant:normal;font-weight:normal;font-size:20px;font-family:'DejaVu Sans';-inkscape-font-specification:DejaVuSans;writing-mode:lr-tb;fill:#0000ff;fill-opacity:1;fill-rule:nonzero;stroke:none"
                        id="text224"><tspan
             x="0 13.33625 24.33625 35.33625 47.576248 60.256248 72.936249 80.776253 87.136253 99.776253 112.47625 125.15625 130.71625 138.55624"
             y="0"
             id="tspan222">Account Equity</tspan></text>
            </g>
        </g>
        <g
                id="g226">
            <g
                    id="g228"
                    clip-path="url(#clipPath232)">
                <path
                        d="m 176.646,625.03803 7.04153,-24.89472 2.34718,-7.10288 2.34718,-6.19087 2.34718,-5.73776 2.34718,-6.4291 2.34718,4.51067 2.34717,-5.89164 2.34718,8.95424 2.34718,-6.45276 4.69436,-13.89728 2.34718,-5.61593 2.34717,-3.52925 2.34718,10.27854 4.69436,-14.19524 2.34718,-5.25433 4.69435,-13.73355 2.34718,-9.8511 2.34718,-5.09333 2.34718,-5.88966 2.34718,-6.95768 2.34718,8.0839 2.34717,-7.30095 2.34718,-5.49659 2.34718,-1.40998 2.34718,-5.86804 2.34718,-6.9871 2.34718,-6.08699 2.34717,-5.40669 2.34718,6.13755 2.34718,-4.67878 2.34718,-3.596 2.34718,8.80412 2.34718,7.93222 2.34717,-6.4294 4.69436,-11.65397 2.34718,-5.81843 4.69436,-10.44156 7.04153,-15.73985 2.34718,7.09034 2.34718,-6.51249 2.34718,-5.29345 2.34718,3.54594 2.34717,-4.11027 2.34718,-5.66513 2.34718,-5.05758 2.34718,3.49487 7.04153,-17.14561 2.34718,-1.93172 2.34718,-5.35297 2.34718,-4.5764 2.34718,6.22428 2.34717,-7.96812 2.34718,-3.37644 2.34718,-4.9887 2.34718,-1.16852 2.34718,-4.90538 2.34718,9.66813 2.34717,-3.63217 2.34718,8.8257 2.34718,-1.35428 2.34718,-4.94373 7.04153,-13.66671 2.34718,6.08862 2.34718,3.83866 2.34718,-3.43577 2.34718,-4.21015 2.34718,7.33859 2.34717,-3.63337 2.34718,0.7995 2.34718,6.65334 2.34718,-3.09308 4.69436,-8.62147 2.34717,-3.57081 2.34718,6.99892 2.34718,-7.45269 2.34718,-6.68671 2.34718,-7.64235 2.34718,7.49993 2.34717,6.30787 2.34718,5.71394 2.34718,6.27415 2.34718,-4.6404 2.34718,-7.18616 7.04153,17.95261 2.34718,-5.04385 2.34718,7.41877 2.34718,-4.60097 2.34718,-4.06213 2.34717,7.81091 2.34718,-4.81801 2.34718,-4.49038 2.34718,6.97313 2.34718,5.28263 2.34718,-8.36382 2.34717,19.77181 2.34718,7.87872 2.34718,8.5947 2.34718,-1.72274 7.04154,-14.95974 2.34717,-10.2113 2.34718,-2.38332 2.34718,-6.17927 2.34718,-2.65973 2.34718,-3.70458 2.34717,-1.18796 2.34718,-2.88068 2.34718,-5.96835 4.69436,-7.55452 2.34718,5.86002 2.34717,-3.9069 2.34718,-4.2093 2.34718,-4.69348 2.34718,8.22603 2.34718,-4.18295 2.34718,-5.01148 2.34717,-3.35056 2.34718,-5.66464 4.69436,-7.49937 2.34718,-3.73941 2.34718,-4.11091 2.34717,-3.04151 2.34718,-3.43041 2.34718,5.33013 2.34718,-4.40548 2.34718,-3.30156 2.34718,-1.7617 2.34717,-4.38398 2.34718,-3.30678 2.34718,-2.95253 2.34718,-2.4981 2.34718,-6.63692 2.34718,6.01558 4.69435,-4.43172 4.69436,9.43098 2.34718,-1.79445 2.34718,4.75143 2.34717,-3.95708 2.34718,5.26812 2.34718,-1.69372 2.34718,7.60022 2.34718,-3.07135 4.69435,-6.72164 2.34718,-4.0146 2.34718,-3.16853 2.34718,-3.42825 2.34718,-1.63949 2.34718,-3.87962 2.34717,-3.60715 2.34718,-2.57381 2.34718,-3.37957 2.34718,4.52544 4.69436,-6.4327 2.34717,3.24878 2.34718,-7.42376 2.34718,-3.10847 2.34718,4.39498 7.04153,-8.41539 2.34718,-3.6034 2.34718,-3.23736 2.34718,-1.85959 2.34718,-3.85195 2.34718,4.33018 2.34717,1.81501 2.34718,4.20888 4.69436,-4.90155 2.34718,-2.84708 2.34718,-7.70521 4.69435,13.38752 2.34718,3.18398 2.34718,2.55555 2.34718,-2.44279 2.34718,-2.66493 2.34717,-3.27955 2.34718,-2.84077 2.34718,-2.47163 2.34718,-3.63136 4.69436,-5.23573 2.34717,-2.19172 2.34718,-3.43763 2.34718,-2.60479 2.34718,-2.32757 2.34718,-2.08553 2.34718,3.58355 2.34717,4.50083 2.34718,3.65296 2.34718,-1.74319 2.34718,-2.6124 2.34718,2.98208 2.34718,3.76958 2.34717,9.98 2.34718,4.23823 2.34718,-3.06397 2.34718,2.68699 2.34718,-2.71864 2.34718,5.30427 2.34717,-2.56034 2.34718,-1.52354 2.34718,-2.42983 2.34718,-4.56758 2.34718,-1.47795 2.34718,-2.43963 2.34717,-2.71215 2.34718,3.78146 2.34718,4.00953 2.34718,-2.48536 2.34718,-2.29488 4.69435,-3.81693 4.69436,-4.54447 2.34718,-1.77167 2.34718,-2.47385 2.34718,4.21382 2.34717,-2.4745 2.34718,4.03158 2.34718,3.67882 2.34718,-2.08959 2.34718,-2.40982 2.34718,-6.94634 2.34717,0.0824 2.34718,8.56148 2.34718,-1.37166 2.34718,2.9998 4.69436,-4.48271 2.34717,-1.84268 2.34718,-1.99893 2.34718,3.69882 2.34718,-1.96648 2.34718,-1.04143 2.34718,-2.27004 2.34717,-2.43967 2.34718,3.78674 2.34718,-3.27225 2.34718,-1.91172 2.34718,4.33971 2.34718,-1.32241 2.34717,0.007 2.34718,-1.62488 2.34718,-2.48149 2.34718,4.84863 2.34718,-2.02231 2.34718,-2.40737 2.34717,1.27609 2.34718,-2.2271 2.34718,-2.49837 2.34718,-1.28631 2.34718,3.26768 2.34718,-4.02465 2.34717,-2.99261 2.34718,-2.46115 2.34718,-3.22906 2.34718,-2.52043 2.34718,-2.29961 2.34718,3.27627 2.34717,-2.31717 4.69436,-4.2125 2.34718,3.10152 4.69436,-4.75123 2.34717,-1.75299 2.34718,-2.03959 7.04154,-5.45915 2.34718,-1.69363 2.34717,-1.47907 2.34718,-0.49789 2.34718,-1.37428 2.34718,1.96231 2.34718,-2.3193 2.34718,-2.80106 2.34717,-1.66927 2.34718,-2.71892 2.34718,-0.63864 2.34718,3.17107 2.34718,-1.973 2.34718,-1.79346 2.34717,0.68919 2.34718,-2.42368 2.34718,-1.69191 2.34718,-1.13452 7.04153,-5.95667 2.34718,-1.34292 2.34718,-2.13984 2.34718,-1.01079 2.34718,-1.33939 11.73589,-7.68452 2.34718,2.52536 2.34717,-2.14191 2.34718,-1.83121 4.69436,-3.2781 2.34718,-1.02476 2.34718,2.09756 2.34717,-1.89544 2.34718,2.30347 2.34718,-1.72007 2.34718,-1.51319 2.34718,2.34461 2.34718,-1.37725 2.34717,-1.94862 2.34718,-1.1987 2.34718,-1.76272 2.34718,0.66235 2.34718,-1.54971 2.34718,-2.08978 2.34718,-1.42872 2.34717,2.58305 2.34718,-1.48098 2.34718,-1.1021 2.34718,1.24041 4.69435,-2.76103 2.34719,1.99509 2.3472,-1.65613 7.0415,-3.20925 2.3472,-1.53751 2.3472,1.95555 4.6943,-2.84477 2.3472,-0.89433 4.6944,-2.63507 2.3471,-1.16783 2.3472,2.37433 4.6944,-2.78747 4.6943,-2.2722 4.6944,-2.46372 2.3472,-1.01124 2.3471,1.94554 2.3472,-1.45323 2.3472,-1.13119 2.3472,-1.583 2.3472,-0.67203 2.3471,-1.20044 2.3472,1.12403 2.3472,0.78002 2.3472,-0.74895 4.6943,-2.87606 2.3472,-1.08255 2.3472,-0.45115 2.3472,1.5604 2.3471,-1.82886 2.3472,-0.71912 2.3472,0.57438 2.3472,-0.82025 2.3471,-1.26888 2.3472,-1.04953 2.3472,-0.9162 2.3472,-1.115 2.3472,-1.39666 2.3471,-0.96574 2.3472,-1.4394 2.3472,-0.67428 2.3472,-0.86389 2.3472,1.35036 4.6943,-1.90347 2.3472,0.83317 7.0415,-2.92045 2.3472,-1.16821 2.3472,-0.49906 2.3472,-0.99269 2.3471,1.33952 4.6944,0.802 4.6944,-1.82093 2.3471,-0.79241 2.3472,1.26716 2.3472,-0.65604 2.3472,-0.83861 2.3471,1.30846 2.3472,1.58327 2.3472,0.5378 2.3472,-1.06764 4.6943,-1.59897 4.6944,-1.784 2.3472,1.39298 4.6943,-1.37328 2.3472,1.38156 2.3472,-0.87805 2.3472,-1.17862 2.3471,1.19839 2.3472,0.81056 2.3472,0.386 2.3472,-0.76175 2.3472,1.25608 2.3471,-1.24836 2.3472,-0.68373 2.3472,-0.80815 2.3472,1.41951 4.6943,-1.85809 2.3472,1.58767 v 0"
                        style="fill:none;stroke:#0000ff;stroke-width:1.5;stroke-linecap:square;stroke-linejoin:round;stroke-miterlimit:10;stroke-dasharray:none;stroke-opacity:1"
                        id="path234"/>
            </g>
        </g>
        <g
                id="g236">
            <path
                    d="M 124.656,78.996667 V 651.04"
                    style="fill:none;stroke:#000000;stroke-width:0.8;stroke-linecap:square;stroke-linejoin:miter;stroke-miterlimit:10;stroke-dasharray:none;stroke-opacity:1"
                    id="path238"/>
            <path
                    d="M 1268.436,78.996667 V 651.04"
                    style="fill:none;stroke:#000000;stroke-width:0.8;stroke-linecap:square;stroke-linejoin:miter;stroke-miterlimit:10;stroke-dasharray:none;stroke-opacity:1"
                    id="path240"/>
            <path
                    d="m 124.656,78.996667 h 1143.78"
                    style="fill:none;stroke:#000000;stroke-width:0.8;stroke-linecap:square;stroke-linejoin:miter;stroke-miterlimit:10;stroke-dasharray:none;stroke-opacity:1"
                    id="path242"/>
            <path
                    d="m 124.656,651.04 h 1143.78"
                    style="fill:none;stroke:#000000;stroke-width:0.8;stroke-linecap:square;stroke-linejoin:miter;stroke-miterlimit:10;stroke-dasharray:none;stroke-opacity:1"
                    id="path244"/>
            <path
                    d="m 1084.2329,88.996667 h 170.2031 c 2.6667,0 4,1.333333 4,4 v 56.718753 c 0,2.66666 -1.3333,4 -4,4 h -170.2031 c -2.6667,0 -4,-1.33334 -4,-4 V 92.996667 c 0,-2.666667 1.3333,-4 4,-4 z"
                    style="fill:#ffffff;fill-opacity:0.8;fill-rule:nonzero;stroke:#cccccc;stroke-width:1;stroke-linecap:butt;stroke-linejoin:miter;stroke-miterlimit:10;stroke-dasharray:none;stroke-opacity:0.8"
                    id="path246"/>
            <path
                    d="m 1088.2329,137.51229 h 20 20"
                    style="fill:none;stroke:#0000ff;stroke-width:1.5;stroke-linecap:square;stroke-linejoin:round;stroke-miterlimit:10;stroke-dasharray:none;stroke-opacity:1"
                    id="path248"/>
            <g
                    id="g250"
                    transform="translate(1144.2329,130.51229)">
                <text
                        xml:space="preserve"
                        transform="scale(1,-1)"
                        style="font-variant:normal;font-weight:normal;font-size:20px;font-family:'DejaVu Sans';-inkscape-font-specification:DejaVuSans;writing-mode:lr-tb;fill:#000000;fill-opacity:1;fill-rule:nonzero;stroke:none"
                        id="text254"><tspan
             x="0 12.64 25.34 38.02 43.580002 51.419998"
             y="0"
             id="tspan252">Equity</tspan></text>
            </g>
            <path
                    d="m 1088.2329,101.15292 h 40 v 14 h -40 z"
                    style="fill:#ff0000;fill-opacity:0.3;fill-rule:nonzero;stroke:#ff0000;stroke-width:1;stroke-linecap:butt;stroke-linejoin:miter;stroke-miterlimit:10;stroke-dasharray:none;stroke-opacity:0.3"
                    id="path256"/>
            <g
                    id="g258"
                    transform="translate(1144.2329,101.15292)">
                <text
                        xml:space="preserve"
                        transform="scale(1,-1)"
                        style="font-variant:normal;font-weight:normal;font-size:20px;font-family:'DejaVu Sans';-inkscape-font-specification:DejaVuSans;writing-mode:lr-tb;fill:#000000;fill-opacity:1;fill-rule:nonzero;stroke:none"
                        id="text262"><tspan
             x="0 15.4 23.620001 35.880001 52.240002 64.940002 77.18 93.540001"
             y="0"
             id="tspan260">Drawdown</tspan></text>
            </g>
        </g>
        <g
                id="g264">
            <g
                    id="g266"
                    clip-path="url(#clipPath270)">
                <path
                        d="m 176.646,625.03803 v 0 l 2.34718,-8.17929 2.34718,-8.11976 2.34717,-8.59567 2.34718,-7.10288 2.34718,-6.19087 2.34718,-5.73776 2.34718,-6.4291 2.34718,4.51067 2.34717,-5.89164 2.34718,8.95424 2.34718,-6.45276 2.34718,-6.87705 2.34718,-7.02023 2.34718,-5.61593 2.34717,-3.52925 2.34718,10.27854 2.34718,-7.25448 2.34718,-6.94076 2.34718,-5.25433 2.34718,-7.00962 2.34717,-6.72393 2.34718,-9.8511 2.34718,-5.09333 2.34718,-5.88966 2.34718,-6.95768 2.34718,8.0839 2.34717,-7.30095 2.34718,-5.49659 2.34718,-1.40998 2.34718,-5.86804 2.34718,-6.9871 2.34718,-6.08699 2.34717,-5.40669 2.34718,6.13755 2.34718,-4.67878 2.34718,-3.596 2.34718,8.80412 2.34718,7.93222 2.34717,-6.4294 2.34718,-5.72369 2.34718,-5.93028 2.34718,-5.81843 2.34718,-5.35362 2.34718,-5.08794 2.34717,-5.33034 2.34718,-5.44362 2.34718,-4.96589 2.34718,7.09034 2.34718,-6.51249 2.34718,-5.29345 2.34718,3.54594 2.34717,-4.11027 2.34718,-5.66513 2.34718,-5.05758 2.34718,3.49487 2.34718,-5.71746 2.34717,-5.48546 2.34718,-5.94269 2.34718,-1.93172 2.34718,-5.35297 2.34718,-4.5764 2.34718,6.22428 2.34717,-7.96812 2.34718,-3.37644 2.34718,-4.9887 2.34718,-1.16852 2.34718,-4.90538 2.34718,9.66813 2.34717,-3.63217 2.34718,8.8257 2.34718,-1.35428 2.34718,-4.94373 2.34718,-4.60823 2.34718,-4.66143 2.34717,-4.39705 2.34718,6.08862 2.34718,3.83866 2.34718,-3.43577 2.34718,-4.21015 2.34718,7.33859 2.34717,-3.63337 2.34718,0.7995 2.34718,6.65334 2.34718,-3.09308 2.34718,-4.28013 2.34718,-4.34134 2.34717,-3.57081 2.34718,6.99892 2.34718,-7.45269 2.34718,-6.68671 2.34718,-7.64235 2.34718,7.49993 2.34717,6.30787 2.34718,5.71394 2.34718,6.27415 2.34718,-4.6404 2.34718,-7.18616 2.34718,5.95989 2.34717,6.0058 2.34718,5.98692 2.34718,-5.04385 2.34718,7.41877 2.34718,-4.60097 2.34718,-4.06213 2.34717,7.81091 2.34718,-4.81801 2.34718,-4.49038 2.34718,6.97313 2.34718,5.28263 2.34718,-8.36382 2.34717,19.77181 2.34718,7.87872 2.34718,8.5947 2.34718,-1.72274 2.34718,-4.9913 2.34718,-4.75492 2.34718,-5.21352 2.34717,-10.2113 2.34718,-2.38332 2.34718,-6.17927 2.34718,-2.65973 2.34718,-3.70458 2.34717,-1.18796 2.34718,-2.88068 2.34718,-5.96835 2.34718,-3.84836 2.34718,-3.70616 2.34718,5.86002 2.34717,-3.9069 2.34718,-4.2093 2.34718,-4.69348 2.34718,8.22603 2.34718,-4.18295 2.34718,-5.01148 2.34717,-3.35056 2.34718,-5.66464 2.34718,-3.67108 2.34718,-3.82829 2.34718,-3.73941 2.34718,-4.11091 2.34717,-3.04151 2.34718,-3.43041 2.34718,5.33013 2.34718,-4.40548 2.34718,-3.30156 2.34718,-1.7617 2.34717,-4.38398 2.34718,-3.30678 2.34718,-2.95253 2.34718,-2.4981 2.34718,-6.63692 2.34718,6.01558 2.34717,-2.27496 2.34718,-2.15676 2.34718,4.69033 2.34718,4.74065 2.34718,-1.79445 2.34718,4.75143 2.34717,-3.95708 2.34718,5.26812 2.34718,-1.69372 2.34718,7.60022 2.34718,-3.07135 2.34718,-3.32123 2.34717,-3.40041 2.34718,-4.0146 2.34718,-3.16853 2.34718,-3.42825 2.34718,-1.63949 2.34718,-3.87962 2.34717,-3.60715 2.34718,-2.57381 2.34718,-3.37957 2.34718,4.52544 2.34718,-3.23648 2.34718,-3.19622 2.34717,3.24878 2.34718,-7.42376 2.34718,-3.10847 2.34718,4.39498 2.34718,-2.84138 2.34718,-2.76664 2.34717,-2.80737 2.34718,-3.6034 2.34718,-3.23736 2.34718,-1.85959 2.34718,-3.85195 2.34718,4.33018 2.34717,1.81501 2.34718,4.20888 2.34718,-2.51153 2.34718,-2.39002 2.34718,-2.84708 2.34718,-7.70521 2.34717,6.594 2.34718,6.79352 2.34718,3.18398 2.34718,2.55555 2.34718,-2.44279 2.34718,-2.66493 2.34717,-3.27955 2.34718,-2.84077 2.34718,-2.47163 2.34718,-3.63136 2.34718,-2.67553 2.34718,-2.5602 2.34717,-2.19172 2.34718,-3.43763 2.34718,-2.60479 2.34718,-2.32757 2.34718,-2.08553 2.34718,3.58355 2.34717,4.50083 2.34718,3.65296 2.34718,-1.74319 2.34718,-2.6124 2.34718,2.98208 2.34718,3.76958 2.34717,9.98 2.34718,4.23823 2.34718,-3.06397 2.34718,2.68699 2.34718,-2.71864 2.34718,5.30427 2.34717,-2.56034 2.34718,-1.52354 2.34718,-2.42983 2.34718,-4.56758 2.34718,-1.47795 2.34718,-2.43963 2.34717,-2.71215 2.34718,3.78146 2.34718,4.00953 2.34718,-2.48536 2.34718,-2.29488 2.34718,-1.88674 2.34717,-1.93019 2.34718,-2.30768 2.34718,-2.23679 2.34718,-1.77167 2.34718,-2.47385 2.34718,4.21382 2.34717,-2.4745 2.34718,4.03158 2.34718,3.67882 2.34718,-2.08959 2.34718,-2.40982 2.34718,-6.94634 2.34717,0.0824 2.34718,8.56148 2.34718,-1.37166 2.34718,2.9998 2.34718,-2.21863 2.34718,-2.26408 2.34717,-1.84268 2.34718,-1.99893 2.34718,3.69882 2.34718,-1.96648 2.34718,-1.04143 2.34718,-2.27004 2.34717,-2.43967 2.34718,3.78674 2.34718,-3.27225 2.34718,-1.91172 2.34718,4.33971 2.34718,-1.32241 2.34717,0.007 2.34718,-1.62488 2.34718,-2.48149 2.34718,4.84863 2.34718,-2.02231 2.34718,-2.40737 2.34717,1.27609 2.34718,-2.2271 2.34718,-2.49837 2.34718,-1.28631 2.34718,3.26768 2.34718,-4.02465 2.34717,-2.99261 2.34718,-2.46115 2.34718,-3.22906 2.34718,-2.52043 2.34718,-2.29961 2.34718,3.27627 2.34717,-2.31717 2.34718,-2.04877 2.34718,-2.16373 2.34718,3.10152 2.34718,-2.40075 2.34718,-2.35048 2.34717,-1.75299 2.34718,-2.03959 2.34718,-1.8521 2.34718,-1.78335 2.34718,-1.8237 2.34718,-1.69363 2.34717,-1.47907 2.34718,-0.49789 2.34718,-1.37428 2.34718,1.96231 2.34718,-2.3193 2.34718,-2.80106 2.34717,-1.66927 2.34718,-2.71892 2.34718,-0.63864 2.34718,3.17107 2.34718,-1.973 2.34718,-1.79346 2.34717,0.68919 2.34718,-2.42368 2.34718,-1.69191 2.34718,-1.13452 2.34718,-1.98277 2.34717,-2.02373 2.34718,-1.95017 2.34718,-1.34292 2.34718,-2.13984 2.34718,-1.01079 2.34718,-1.33939 2.34717,-1.56197 2.34718,-1.66573 2.34718,-1.57515 2.34718,-1.33105 2.34718,-1.55062 2.34718,2.52536 2.34717,-2.14191 2.34718,-1.83121 2.34718,-1.57551 2.34718,-1.70259 2.34718,-1.02476 2.34718,2.09756 2.34717,-1.89544 2.34718,2.30347 2.34718,-1.72007 2.34718,-1.51319 2.34718,2.34461 2.34718,-1.37725 2.34717,-1.94862 2.34718,-1.1987 2.34718,-1.76272 2.34718,0.66235 2.34718,-1.54971 2.34718,-2.08978 2.34718,-1.42872 2.34717,2.58305 2.34718,-1.48098 2.34718,-1.1021 2.34718,1.24041 2.34718,-1.40452 2.34717,-1.35651 2.34719,1.99509 2.3472,-1.65613 2.3472,-1.0907 2.3471,-1.13916 2.3472,-0.97939 2.3472,-1.53751 2.3472,1.95555 2.3471,-1.44585 2.3472,-1.39892 2.3472,-0.89433 2.3472,-1.33972 2.3472,-1.29535 2.3471,-1.16783 2.3472,2.37433 2.3472,-1.40229 2.3472,-1.38518 2.3471,-1.13794 2.3472,-1.13426 2.3472,-1.29351 2.3472,-1.17021 2.3472,-1.01124 2.3471,1.94554 2.3472,-1.45323 2.3472,-1.13119 2.3472,-1.583 2.3472,-0.67203 2.3471,-1.20044 2.3472,1.12403 2.3472,0.78002 2.3472,-0.74895 2.3471,-1.40204 2.3472,-1.47402 2.3472,-1.08255 2.3472,-0.45115 2.3472,1.5604 2.3471,-1.82886 2.3472,-0.71912 2.3472,0.57438 2.3472,-0.82025 2.3471,-1.26888 2.3472,-1.04953 2.3472,-0.9162 2.3472,-1.115 2.3472,-1.39666 2.3471,-0.96574 2.3472,-1.4394 2.3472,-0.67428 2.3472,-0.86389 2.3472,1.35036 2.3471,-0.89587 2.3472,-1.0076 2.3472,0.83317 2.3472,-0.95807 2.3471,-0.9505 2.3472,-1.01188 2.3472,-1.16821 2.3472,-0.49906 2.3472,-0.99269 2.3471,1.33952 2.3472,0.37373 2.3472,0.42827 2.3472,-0.91539 2.3472,-0.90554 2.3471,-0.79241 2.3472,1.26716 2.3472,-0.65604 2.3472,-0.83861 2.3471,1.30846 2.3472,1.58327 2.3472,0.5378 2.3472,-1.06764 2.3472,-0.75304 2.3471,-0.84593 2.3472,-0.93529 2.3472,-0.84871 2.3472,1.39298 2.3471,-0.66159 2.3472,-0.71169 2.3472,1.38156 2.3472,-0.87805 2.3472,-1.17862 2.3471,1.19839 2.3472,0.81056 2.3472,0.386 2.3472,-0.76175 2.3472,1.25608 2.3471,-1.24836 2.3472,-0.68373 2.3472,-0.80815 2.3472,1.41951 2.3471,-0.86991 2.3472,-0.98818 2.3472,1.58767 v 518.45172 0 h -2.3472 -2.3472 -2.3471 -2.3472 -2.3472 -2.3472 -2.3471 -2.3472 -2.3472 -2.3472 -2.3472 -2.3471 -2.3472 -2.3472 -2.3472 -2.3472 -2.3471 -2.3472 -2.3472 -2.3472 -2.3471 -2.3472 -2.3472 -2.3472 -2.3472 -2.3471 -2.3472 -2.3472 -2.3472 -2.3471 -2.3472 -2.3472 -2.3472 -2.3472 -2.3471 -2.3472 -2.3472 -2.3472 -2.3472 -2.3471 -2.3472 -2.3472 -2.3472 -2.3471 -2.3472 -2.3472 -2.3472 -2.3472 -2.3471 -2.3472 -2.3472 -2.3472 -2.3472 -2.3471 -2.3472 -2.3472 -2.3472 -2.3471 -2.3472 -2.3472 -2.3472 -2.3472 -2.3471 -2.3472 -2.3472 -2.3472 -2.3471 -2.3472 -2.3472 -2.3472 -2.3472 -2.3471 -2.3472 -2.3472 -2.3472 -2.3472 -2.3471 -2.3472 -2.3472 -2.3472 -2.3471 -2.3472 -2.3472 -2.3472 -2.3472 -2.3471 -2.3472 -2.3472 -2.3472 -2.3471 -2.3472 -2.3472 -2.34719 -2.34717 -2.34718 -2.34718 -2.34718 -2.34718 -2.34717 -2.34718 -2.34718 -2.34718 -2.34718 -2.34718 -2.34718 -2.34717 -2.34718 -2.34718 -2.34718 -2.34718 -2.34718 -2.34717 -2.34718 -2.34718 -2.34718 -2.34718 -2.34718 -2.34717 -2.34718 -2.34718 -2.34718 -2.34718 -2.34718 -2.34717 -2.34718 -2.34718 -2.34718 -2.34718 -2.34718 -2.34717 -2.34718 -2.34718 -2.34718 -2.34718 -2.34717 -2.34718 -2.34718 -2.34718 -2.34718 -2.34718 -2.34717 -2.34718 -2.34718 -2.34718 -2.34718 -2.34718 -2.34717 -2.34718 -2.34718 -2.34718 -2.34718 -2.34718 -2.34717 -2.34718 -2.34718 -2.34718 -2.34718 -2.34718 -2.34717 -2.34718 -2.34718 -2.34718 -2.34718 -2.34718 -2.34717 -2.34718 -2.34718 -2.34718 -2.34718 -2.34718 -2.34717 -2.34718 -2.34718 -2.34718 -2.34718 -2.34718 -2.34717 -2.34718 -2.34718 -2.34718 -2.34718 -2.34718 -2.34717 -2.34718 -2.34718 -2.34718 -2.34718 -2.34718 -2.34717 -2.34718 -2.34718 -2.34718 -2.34718 -2.34718 -2.34717 -2.34718 -2.34718 -2.34718 -2.34718 -2.34718 -2.34717 -2.34718 -2.34718 -2.34718 -2.34718 -2.34718 -2.34717 -2.34718 -2.34718 -2.34718 -2.34718 -2.34718 -2.34717 -2.34718 -2.34718 -2.34718 -2.34718 -2.34718 -2.34717 -2.34718 -2.34718 -2.34718 -2.34718 -2.34718 -2.34717 -2.34718 -2.34718 -2.34718 -2.34718 -2.34718 -2.34717 -2.34718 -2.34718 -2.34718 -2.34718 -2.34718 -2.34717 -2.34718 -2.34718 -2.34718 -2.34718 -2.34718 -2.34717 -2.34718 -2.34718 -2.34718 -2.34718 -2.34718 -2.34717 -2.34718 -2.34718 -2.34718 -2.34718 -2.34718 -2.34717 -2.34718 -2.34718 -2.34718 -2.34718 -2.34718 -2.34717 -2.34718 -2.34718 -2.34718 -2.34718 -2.34718 -2.34717 -2.34718 -2.34718 -2.34718 -2.34718 -2.34718 -2.34717 -2.34718 -2.34718 -2.34718 -2.34718 -2.34718 -2.34717 -2.34718 -2.34718 -2.34718 -2.34718 -2.34718 -2.34717 -2.34718 -2.34718 -2.34718 -2.34718 -2.34718 -2.34717 -2.34718 -2.34718 -2.34718 -2.34718 -2.34718 -2.34717 -2.34718 -2.34718 -2.34718 -2.34718 -2.34718 -2.34717 -2.34718 -2.34718 -2.34718 -2.34718 -2.34718 -2.34717 -2.34718 -2.34718 -2.34718 -2.34718 -2.34718 -2.34717 -2.34718 -2.34718 -2.34718 -2.34718 -2.34718 -2.34717 -2.34718 -2.34718 -2.34718 -2.34718 -2.34717 -2.34718 -2.34718 -2.34718 -2.34718 -2.34718 -2.34718 -2.34717 -2.34718 -2.34718 -2.34718 -2.34718 -2.34718 -2.34717 -2.34718 -2.34718 -2.34718 -2.34718 -2.34718 -2.34717 -2.34718 -2.34718 -2.34718 -2.34718 -2.34718 -2.34717 -2.34718 -2.34718 -2.34718 -2.34718 -2.34718 -2.34717 -2.34718 -2.34718 -2.34718 -2.34718 -2.34718 -2.34717 -2.34718 -2.34718 -2.34718 -2.34718 -2.34718 -2.34717 -2.34718 -2.34718 -2.34718 -2.34718 -2.34718 -2.34717 -2.34718 -2.34718 -2.34718 -2.34718 -2.34718 -2.34717 -2.34718 -2.34718 -2.34718 -2.34718 -2.34718 -2.34717 -2.34718 -2.34718 -2.34718 -2.34718 -2.34717 -2.34718 -2.34718 -2.34718 -2.34718 -2.34718 -2.34718 -2.34717 -2.34718 -2.34718 -2.34718 -2.34718 -2.34718 -2.34717 -2.34718 -2.34718 -2.34718 -2.34718 -2.34718 -2.34717 -2.34718 -2.34718 -2.34718 -2.34718 -2.34718 -2.34717 -2.34718 -2.34718 -2.34718 -2.34718 -2.34718 -2.34717 -2.34718 -2.34718 -2.34718 -2.34718 -2.34718 -2.34717 -2.34718 -2.34718 -2.34718 -2.34718 -2.34718 -2.34717 -2.34718 -2.34718 -2.34718 -2.34718 -2.34718 -2.34717 -2.34718 -2.34718 z"
                        style="fill:#ff0000;fill-opacity:0.3;fill-rule:nonzero;stroke:#ff0000;stroke-width:1;stroke-linecap:butt;stroke-linejoin:round;stroke-miterlimit:10;stroke-dasharray:none;stroke-opacity:0.3"
                        id="path272"/>
            </g>
        </g>
        <g
                id="g274">
            <path
                    d="m 1268.436,148.75045 h 3.5"
                    style="fill:#000000;fill-opacity:1;fill-rule:nonzero;stroke:#000000;stroke-width:0.8;stroke-linecap:butt;stroke-linejoin:round;stroke-miterlimit:10;stroke-dasharray:none;stroke-opacity:1"
                    id="path276"/>
            <g
                    id="g278"
                    transform="translate(1275.436,141.14889)">
                <text
                        xml:space="preserve"
                        transform="matrix(1,0,0,-1,16.757812,0)"
                        style="font-variant:normal;font-weight:normal;font-size:20px;font-family:'DejaVu Sans';-inkscape-font-specification:DejaVuSans;writing-mode:lr-tb;fill:#ff0000;fill-opacity:1;fill-rule:nonzero;stroke:none"
                        id="text282"><tspan
             x="0 12.72"
             y="0"
             id="tspan280">80</tspan></text>
                <g
                        id="g284"
                        transform="scale(0.02)">
                    <g
                            id="g286">
                        <g
                                id="g288"
                                clip-path="url(#clipPath292)">
                            <path
                                    d="M 106,355 H 732 V 272 H 106 Z"
                                    style="fill:#ff0000;fill-opacity:1;fill-rule:nonzero;stroke:none"
                                    id="path294"/>
                        </g>
                    </g>
                </g>
            </g>
            <path
                    d="m 1268.436,267.82234 h 3.5"
                    style="fill:#000000;fill-opacity:1;fill-rule:nonzero;stroke:#000000;stroke-width:0.8;stroke-linecap:butt;stroke-linejoin:round;stroke-miterlimit:10;stroke-dasharray:none;stroke-opacity:1"
                    id="path296"/>
            <g
                    id="g298"
                    transform="translate(1275.436,260.22078)">
                <text
                        xml:space="preserve"
                        transform="matrix(1,0,0,-1,16.757812,0)"
                        style="font-variant:normal;font-weight:normal;font-size:20px;font-family:'DejaVu Sans';-inkscape-font-specification:DejaVuSans;writing-mode:lr-tb;fill:#ff0000;fill-opacity:1;fill-rule:nonzero;stroke:none"
                        id="text302"><tspan
             x="0 12.72"
             y="0"
             id="tspan300">60</tspan></text>
                <g
                        id="g304"
                        transform="scale(0.02)">
                    <g
                            id="g306">
                        <g
                                id="g308"
                                clip-path="url(#clipPath312)">
                            <path
                                    d="M 106,355 H 732 V 272 H 106 Z"
                                    style="fill:#ff0000;fill-opacity:1;fill-rule:nonzero;stroke:none"
                                    id="path314"/>
                        </g>
                    </g>
                </g>
            </g>
            <path
                    d="m 1268.436,386.89424 h 3.5"
                    style="fill:#000000;fill-opacity:1;fill-rule:nonzero;stroke:#000000;stroke-width:0.8;stroke-linecap:butt;stroke-linejoin:round;stroke-miterlimit:10;stroke-dasharray:none;stroke-opacity:1"
                    id="path316"/>
            <g
                    id="g318"
                    transform="translate(1275.436,379.29268)">
                <text
                        xml:space="preserve"
                        transform="matrix(1,0,0,-1,16.757812,0)"
                        style="font-variant:normal;font-weight:normal;font-size:20px;font-family:'DejaVu Sans';-inkscape-font-specification:DejaVuSans;writing-mode:lr-tb;fill:#ff0000;fill-opacity:1;fill-rule:nonzero;stroke:none"
                        id="text322"><tspan
             x="0 12.72"
             y="0"
             id="tspan320">40</tspan></text>
                <g
                        id="g324"
                        transform="scale(0.02)">
                    <g
                            id="g326">
                        <g
                                id="g328"
                                clip-path="url(#clipPath332)">
                            <path
                                    d="M 106,355 H 732 V 272 H 106 Z"
                                    style="fill:#ff0000;fill-opacity:1;fill-rule:nonzero;stroke:none"
                                    id="path334"/>
                        </g>
                    </g>
                </g>
            </g>
            <path
                    d="m 1268.436,505.96613 h 3.5"
                    style="fill:#000000;fill-opacity:1;fill-rule:nonzero;stroke:#000000;stroke-width:0.8;stroke-linecap:butt;stroke-linejoin:round;stroke-miterlimit:10;stroke-dasharray:none;stroke-opacity:1"
                    id="path336"/>
            <g
                    id="g338"
                    transform="translate(1275.436,498.36457)">
                <text
                        xml:space="preserve"
                        transform="matrix(1,0,0,-1,16.757812,0)"
                        style="font-variant:normal;font-weight:normal;font-size:20px;font-family:'DejaVu Sans';-inkscape-font-specification:DejaVuSans;writing-mode:lr-tb;fill:#ff0000;fill-opacity:1;fill-rule:nonzero;stroke:none"
                        id="text342"><tspan
             x="0 12.72"
             y="0"
             id="tspan340">20</tspan></text>
                <g
                        id="g344"
                        transform="scale(0.02)">
                    <g
                            id="g346">
                        <g
                                id="g348"
                                clip-path="url(#clipPath352)">
                            <path
                                    d="M 106,355 H 732 V 272 H 106 Z"
                                    style="fill:#ff0000;fill-opacity:1;fill-rule:nonzero;stroke:none"
                                    id="path354"/>
                        </g>
                    </g>
                </g>
            </g>
            <path
                    d="m 1268.436,625.03803 h 3.5"
                    style="fill:#000000;fill-opacity:1;fill-rule:nonzero;stroke:#000000;stroke-width:0.8;stroke-linecap:butt;stroke-linejoin:round;stroke-miterlimit:10;stroke-dasharray:none;stroke-opacity:1"
                    id="path356"/>
            <g
                    id="g358"
                    transform="translate(1275.436,617.43647)">
                <text
                        xml:space="preserve"
                        transform="scale(1,-1)"
                        style="font-variant:normal;font-weight:normal;font-size:20px;font-family:'DejaVu Sans';-inkscape-font-specification:DejaVuSans;writing-mode:lr-tb;fill:#ff0000;fill-opacity:1;fill-rule:nonzero;stroke:none"
                        id="text362"><tspan
             x="0"
             y="0"
             id="tspan360">0</tspan></text>
            </g>
            <g
                    id="g364"
                    transform="rotate(90,522.70102,814.14123)">
                <text
                        xml:space="preserve"
                        transform="scale(1,-1)"
                        style="font-variant:normal;font-weight:normal;font-size:20px;font-family:'DejaVu Sans';-inkscape-font-specification:DejaVuSans;writing-mode:lr-tb;fill:#ff0000;fill-opacity:1;fill-rule:nonzero;stroke:none"
                        id="text368"><tspan
             x="0 15.4 23.620001 35.880001 52.240002 64.940002 77.18 93.540001 106.22 112.58 120.38 139.38"
             y="0"
             id="tspan366">Drawdown (%)</tspan></text>
            </g>
            <path
                    d="M 124.656,78.996667 V 651.04"
                    style="fill:none;stroke:#000000;stroke-width:0.8;stroke-linecap:square;stroke-linejoin:miter;stroke-miterlimit:10;stroke-dasharray:none;stroke-opacity:1"
                    id="path370"/>
            <path
                    d="M 1268.436,78.996667 V 651.04"
                    style="fill:none;stroke:#000000;stroke-width:0.8;stroke-linecap:square;stroke-linejoin:miter;stroke-miterlimit:10;stroke-dasharray:none;stroke-opacity:1"
                    id="path372"/>
            <path
                    d="m 124.656,78.996667 h 1143.78"
                    style="fill:none;stroke:#000000;stroke-width:0.8;stroke-linecap:square;stroke-linejoin:miter;stroke-miterlimit:10;stroke-dasharray:none;stroke-opacity:1"
                    id="path374"/>
            <path
                    d="m 124.656,651.04 h 1143.78"
                    style="fill:none;stroke:#000000;stroke-width:0.8;stroke-linecap:square;stroke-linejoin:miter;stroke-miterlimit:10;stroke-dasharray:none;stroke-opacity:1"
                    id="path376"/>
            <g
                    id="g378"
                    transform="translate(339.47569,657.04)">
                <text
                        xml:space="preserve"
                        transform="scale(1,-1)"
                        style="font-variant:normal;font-weight:normal;font-size:25px;font-family:'DejaVu Sans';-inkscape-font-specification:DejaVuSans;writing-mode:lr-tb;fill:#000000;fill-opacity:1;fill-rule:nonzero;stroke:none"
                        id="text382"><tspan
             x="0 17.15 32.450001 39.400002 46.349998 53.299999 69.150002 85.025002 100.4 110.675 118.625 135.77499 151.10001 166.95 182.825 195.85001 203.8 219.675 229.47501 239.75 255.075 264.875 280.25 296.125 310.92499 318.875 338.54999 354.39999 364.20001 373.67813 388.97812 396.41876 405.44376 421.31876 436.64374 460.99374 476.86874 483.81876 499.19376 507.14374 524.29376 539.61877 553.36877 567.84375 577.64374 593.01874 606.04376 615.84375 623.79376 640.05939 655.43439 668.45935 684.30939 691.2594 701.05939"
             y="0"
             id="tspan380">Bollinger Bands Strategy Out-of-Sample Backtest Results</tspan></text>
            </g>
        </g>
    </g>
</svg>
