<?xml version="1.0" encoding="UTF-8" standalone="no"?>
<!-- Created with Inkscape (http://www.inkscape.org/) -->

<svg
        xmlns:svg="http://www.w3.org/2000/svg"
        version="1.1"
        id="svg2"
        width="1843.2"
        height="936"
        viewBox="0 0 1843.2 936"
        xmlns="http://www.w3.org/2000/svg">
    <defs
            id="defs6">
        <clipPath
                clipPathUnits="userSpaceOnUse"
                id="clipPath20">
            <path
                    d="M 139.992,78.996667 H 1268.328 V 651.04 H 139.992 Z"
                    id="path18"/>
        </clipPath>
        <clipPath
                clipPathUnits="userSpaceOnUse"
                id="clipPath40">
            <path
                    d="M 139.992,78.996667 H 1268.328 V 651.04 H 139.992 Z"
                    id="path38"/>
        </clipPath>
        <clipPath
                clipPathUnits="userSpaceOnUse"
                id="clipPath60">
            <path
                    d="M 139.992,78.996667 H 1268.328 V 651.04 H 139.992 Z"
                    id="path58"/>
        </clipPath>
        <clipPath
                clipPathUnits="userSpaceOnUse"
                id="clipPath80">
            <path
                    d="M 139.992,78.996667 H 1268.328 V 651.04 H 139.992 Z"
                    id="path78"/>
        </clipPath>
        <clipPath
                clipPathUnits="userSpaceOnUse"
                id="clipPath100">
            <path
                    d="M 139.992,78.996667 H 1268.328 V 651.04 H 139.992 Z"
                    id="path98"/>
        </clipPath>
        <clipPath
                clipPathUnits="userSpaceOnUse"
                id="clipPath120">
            <path
                    d="M 139.992,78.996667 H 1268.328 V 651.04 H 139.992 Z"
                    id="path118"/>
        </clipPath>
        <clipPath
                clipPathUnits="userSpaceOnUse"
                id="clipPath146">
            <path
                    d="M 139.992,78.996667 H 1268.328 V 651.04 H 139.992 Z"
                    id="path144"/>
        </clipPath>
        <clipPath
                clipPathUnits="userSpaceOnUse"
                id="clipPath166">
            <path
                    d="M 139.992,78.996667 H 1268.328 V 651.04 H 139.992 Z"
                    id="path164"/>
        </clipPath>
        <clipPath
                clipPathUnits="userSpaceOnUse"
                id="clipPath186">
            <path
                    d="M 139.992,78.996667 H 1268.328 V 651.04 H 139.992 Z"
                    id="path184"/>
        </clipPath>
        <clipPath
                clipPathUnits="userSpaceOnUse"
                id="clipPath206">
            <path
                    d="M 139.992,78.996667 H 1268.328 V 651.04 H 139.992 Z"
                    id="path204"/>
        </clipPath>
        <clipPath
                clipPathUnits="userSpaceOnUse"
                id="clipPath226">
            <path
                    d="M 139.992,78.996667 H 1268.328 V 651.04 H 139.992 Z"
                    id="path224"/>
        </clipPath>
        <clipPath
                clipPathUnits="userSpaceOnUse"
                id="clipPath246">
            <path
                    d="M 139.992,78.996667 H 1268.328 V 651.04 H 139.992 Z"
                    id="path244"/>
        </clipPath>
        <clipPath
                clipPathUnits="userSpaceOnUse"
                id="clipPath266">
            <path
                    d="M 139.992,78.996667 H 1268.328 V 651.04 H 139.992 Z"
                    id="path264"/>
        </clipPath>
        <clipPath
                clipPathUnits="userSpaceOnUse"
                id="clipPath292">
            <path
                    d="M 139.992,78.996667 H 1268.328 V 651.04 H 139.992 Z"
                    id="path290"/>
        </clipPath>
        <clipPath
                clipPathUnits="userSpaceOnUse"
                id="clipPath330">
            <path
                    d="M 139.992,78.996667 H 1268.328 V 651.04 H 139.992 Z"
                    id="path328"/>
        </clipPath>
        <clipPath
                clipPathUnits="userSpaceOnUse"
                id="clipPath352">
            <path
                    d="M -1021,-463 H 1794 V 1233 H -1021 Z"
                    id="path350"/>
        </clipPath>
        <clipPath
                clipPathUnits="userSpaceOnUse"
                id="clipPath372">
            <path
                    d="M -1021,-463 H 1794 V 1233 H -1021 Z"
                    id="path370"/>
        </clipPath>
        <clipPath
                clipPathUnits="userSpaceOnUse"
                id="clipPath392">
            <path
                    d="M -1021,-463 H 1794 V 1233 H -1021 Z"
                    id="path390"/>
        </clipPath>
        <clipPath
                clipPathUnits="userSpaceOnUse"
                id="clipPath412">
            <path
                    d="M -1021,-463 H 1794 V 1233 H -1021 Z"
                    id="path410"/>
        </clipPath>
        <clipPath
                clipPathUnits="userSpaceOnUse"
                id="clipPath432">
            <path
                    d="M -1021,-463 H 1794 V 1233 H -1021 Z"
                    id="path430"/>
        </clipPath>
    </defs>
    <g
            id="g8"
            transform="matrix(1.3333333,0,0,-1.3333333,0,936)">
        <path
                d="M 0,0 H 1382.4 V 702 H 0 Z"
                style="fill:#ffffff;fill-opacity:1;fill-rule:nonzero;stroke:none"
                id="path10"/>
        <path
                d="M 139.992,78.996667 H 1268.328 V 651.04 H 139.992 Z"
                style="fill:#ffffff;fill-opacity:1;fill-rule:nonzero;stroke:none"
                id="path12"/>
        <g
                id="g14">
            <g
                    id="g16"
                    clip-path="url(#clipPath20)">
                <path
                        d="M 191.28,78.996667 V 651.04"
                        style="fill:none;stroke:#b0b0b0;stroke-width:0.8;stroke-linecap:square;stroke-linejoin:round;stroke-miterlimit:10;stroke-dasharray:none;stroke-opacity:1"
                        id="path22"/>
            </g>
        </g>
        <g
                id="g24">
            <path
                    d="m 191.28,78.996667 v -3.5"
                    style="fill:#000000;fill-opacity:1;fill-rule:nonzero;stroke:#000000;stroke-width:0.8;stroke-linecap:butt;stroke-linejoin:round;stroke-miterlimit:10;stroke-dasharray:none;stroke-opacity:1"
                    id="path26"/>
            <g
                    id="g28"
                    transform="translate(184.92062,56.793542)">
                <text
                        xml:space="preserve"
                        transform="scale(1,-1)"
                        style="font-variant:normal;font-weight:normal;font-size:20px;font-family:'DejaVu Sans';-inkscape-font-specification:DejaVuSans;writing-mode:lr-tb;fill:#000000;fill-opacity:1;fill-rule:nonzero;stroke:none"
                        id="text32"><tspan
             x="0"
             y="0"
             id="tspan30">0</tspan></text>
            </g>
        </g>
        <g
                id="g34">
            <g
                    id="g36"
                    clip-path="url(#clipPath40)">
                <path
                        d="M 385.55273,78.996667 V 651.04"
                        style="fill:none;stroke:#b0b0b0;stroke-width:0.8;stroke-linecap:square;stroke-linejoin:round;stroke-miterlimit:10;stroke-dasharray:none;stroke-opacity:1"
                        id="path42"/>
            </g>
        </g>
        <g
                id="g44">
            <path
                    d="m 385.55273,78.996667 v -3.5"
                    style="fill:#000000;fill-opacity:1;fill-rule:nonzero;stroke:#000000;stroke-width:0.8;stroke-linecap:butt;stroke-linejoin:round;stroke-miterlimit:10;stroke-dasharray:none;stroke-opacity:1"
                    id="path46"/>
            <g
                    id="g48"
                    transform="translate(372.83398,56.793542)">
                <text
                        xml:space="preserve"
                        transform="scale(1,-1)"
                        style="font-variant:normal;font-weight:normal;font-size:20px;font-family:'DejaVu Sans';-inkscape-font-specification:DejaVuSans;writing-mode:lr-tb;fill:#000000;fill-opacity:1;fill-rule:nonzero;stroke:none"
                        id="text52"><tspan
             x="0 12.72"
             y="0"
             id="tspan50">50</tspan></text>
            </g>
        </g>
        <g
                id="g54">
            <g
                    id="g56"
                    clip-path="url(#clipPath60)">
                <path
                        d="M 579.82545,78.996667 V 651.04"
                        style="fill:none;stroke:#b0b0b0;stroke-width:0.8;stroke-linecap:square;stroke-linejoin:round;stroke-miterlimit:10;stroke-dasharray:none;stroke-opacity:1"
                        id="path62"/>
            </g>
        </g>
        <g
                id="g64">
            <path
                    d="m 579.82545,78.996667 v -3.5"
                    style="fill:#000000;fill-opacity:1;fill-rule:nonzero;stroke:#000000;stroke-width:0.8;stroke-linecap:butt;stroke-linejoin:round;stroke-miterlimit:10;stroke-dasharray:none;stroke-opacity:1"
                    id="path66"/>
            <g
                    id="g68"
                    transform="translate(560.74733,56.793542)">
                <text
                        xml:space="preserve"
                        transform="scale(1,-1)"
                        style="font-variant:normal;font-weight:normal;font-size:20px;font-family:'DejaVu Sans';-inkscape-font-specification:DejaVuSans;writing-mode:lr-tb;fill:#000000;fill-opacity:1;fill-rule:nonzero;stroke:none"
                        id="text72"><tspan
             x="0 12.72 25.440001"
             y="0"
             id="tspan70">100</tspan></text>
            </g>
        </g>
        <g
                id="g74">
            <g
                    id="g76"
                    clip-path="url(#clipPath80)">
                <path
                        d="M 774.09818,78.996667 V 651.04"
                        style="fill:none;stroke:#b0b0b0;stroke-width:0.8;stroke-linecap:square;stroke-linejoin:round;stroke-miterlimit:10;stroke-dasharray:none;stroke-opacity:1"
                        id="path82"/>
            </g>
        </g>
        <g
                id="g84">
            <path
                    d="m 774.09818,78.996667 v -3.5"
                    style="fill:#000000;fill-opacity:1;fill-rule:nonzero;stroke:#000000;stroke-width:0.8;stroke-linecap:butt;stroke-linejoin:round;stroke-miterlimit:10;stroke-dasharray:none;stroke-opacity:1"
                    id="path86"/>
            <g
                    id="g88"
                    transform="translate(755.02006,56.793542)">
                <text
                        xml:space="preserve"
                        transform="scale(1,-1)"
                        style="font-variant:normal;font-weight:normal;font-size:20px;font-family:'DejaVu Sans';-inkscape-font-specification:DejaVuSans;writing-mode:lr-tb;fill:#000000;fill-opacity:1;fill-rule:nonzero;stroke:none"
                        id="text92"><tspan
             x="0 12.72 25.440001"
             y="0"
             id="tspan90">150</tspan></text>
            </g>
        </g>
        <g
                id="g94">
            <g
                    id="g96"
                    clip-path="url(#clipPath100)">
                <path
                        d="M 968.37091,78.996667 V 651.04"
                        style="fill:none;stroke:#b0b0b0;stroke-width:0.8;stroke-linecap:square;stroke-linejoin:round;stroke-miterlimit:10;stroke-dasharray:none;stroke-opacity:1"
                        id="path102"/>
            </g>
        </g>
        <g
                id="g104">
            <path
                    d="m 968.37091,78.996667 v -3.5"
                    style="fill:#000000;fill-opacity:1;fill-rule:nonzero;stroke:#000000;stroke-width:0.8;stroke-linecap:butt;stroke-linejoin:round;stroke-miterlimit:10;stroke-dasharray:none;stroke-opacity:1"
                    id="path106"/>
            <g
                    id="g108"
                    transform="translate(949.29278,56.793542)">
                <text
                        xml:space="preserve"
                        transform="scale(1,-1)"
                        style="font-variant:normal;font-weight:normal;font-size:20px;font-family:'DejaVu Sans';-inkscape-font-specification:DejaVuSans;writing-mode:lr-tb;fill:#000000;fill-opacity:1;fill-rule:nonzero;stroke:none"
                        id="text112"><tspan
             x="0 12.72 25.440001"
             y="0"
             id="tspan110">200</tspan></text>
            </g>
        </g>
        <g
                id="g114">
            <g
                    id="g116"
                    clip-path="url(#clipPath120)">
                <path
                        d="M 1162.6436,78.996667 V 651.04"
                        style="fill:none;stroke:#b0b0b0;stroke-width:0.8;stroke-linecap:square;stroke-linejoin:round;stroke-miterlimit:10;stroke-dasharray:none;stroke-opacity:1"
                        id="path122"/>
            </g>
        </g>
        <g
                id="g124">
            <path
                    d="m 1162.6436,78.996667 v -3.5"
                    style="fill:#000000;fill-opacity:1;fill-rule:nonzero;stroke:#000000;stroke-width:0.8;stroke-linecap:butt;stroke-linejoin:round;stroke-miterlimit:10;stroke-dasharray:none;stroke-opacity:1"
                    id="path126"/>
            <g
                    id="g128"
                    transform="translate(1143.5655,56.793542)">
                <text
                        xml:space="preserve"
                        transform="scale(1,-1)"
                        style="font-variant:normal;font-weight:normal;font-size:20px;font-family:'DejaVu Sans';-inkscape-font-specification:DejaVuSans;writing-mode:lr-tb;fill:#000000;fill-opacity:1;fill-rule:nonzero;stroke:none"
                        id="text132"><tspan
             x="0 12.72 25.440001"
             y="0"
             id="tspan130">250</tspan></text>
            </g>
            <g
                    id="g134"
                    transform="translate(646.0975,33.434167)">
                <text
                        xml:space="preserve"
                        transform="scale(1,-1)"
                        style="font-variant:normal;font-weight:normal;font-size:20px;font-family:'DejaVu Sans';-inkscape-font-specification:DejaVuSans;writing-mode:lr-tb;fill:#000000;fill-opacity:1;fill-rule:nonzero;stroke:none"
                        id="text138"><tspan
             x="0 9.2825003 17.502501 29.762501 42.462502 54.762501 61.122501 67.022499 79.702499 92.402496 104.35875"
             y="0"
             id="tspan136">Trade Index</tspan></text>
            </g>
        </g>
        <g
                id="g140">
            <g
                    id="g142"
                    clip-path="url(#clipPath146)">
                <path
                        d="M 139.992,83.252826 H 1268.328"
                        style="fill:none;stroke:#b0b0b0;stroke-width:0.8;stroke-linecap:square;stroke-linejoin:round;stroke-miterlimit:10;stroke-dasharray:none;stroke-opacity:1"
                        id="path148"/>
            </g>
        </g>
        <g
                id="g150">
            <path
                    d="m 139.992,83.252826 h -3.5"
                    style="fill:#000000;fill-opacity:1;fill-rule:nonzero;stroke:#000000;stroke-width:0.8;stroke-linecap:butt;stroke-linejoin:round;stroke-miterlimit:10;stroke-dasharray:none;stroke-opacity:1"
                    id="path152"/>
            <g
                    id="g154"
                    transform="translate(120.27325,75.651263)">
                <text
                        xml:space="preserve"
                        transform="scale(1,-1)"
                        style="font-variant:normal;font-weight:normal;font-size:20px;font-family:'DejaVu Sans';-inkscape-font-specification:DejaVuSans;writing-mode:lr-tb;fill:#0000ff;fill-opacity:1;fill-rule:nonzero;stroke:none"
                        id="text158"><tspan
             x="0"
             y="0"
             id="tspan156">0</tspan></text>
            </g>
        </g>
        <g
                id="g160">
            <g
                    id="g162"
                    clip-path="url(#clipPath166)">
                <path
                        d="M 139.992,169.19709 H 1268.328"
                        style="fill:none;stroke:#b0b0b0;stroke-width:0.8;stroke-linecap:square;stroke-linejoin:round;stroke-miterlimit:10;stroke-dasharray:none;stroke-opacity:1"
                        id="path168"/>
            </g>
        </g>
        <g
                id="g170">
            <path
                    d="m 139.992,169.19709 h -3.5"
                    style="fill:#000000;fill-opacity:1;fill-rule:nonzero;stroke:#000000;stroke-width:0.8;stroke-linecap:butt;stroke-linejoin:round;stroke-miterlimit:10;stroke-dasharray:none;stroke-opacity:1"
                    id="path172"/>
            <g
                    id="g174"
                    transform="translate(69.39825,161.59552)">
                <text
                        xml:space="preserve"
                        transform="scale(1,-1)"
                        style="font-variant:normal;font-weight:normal;font-size:20px;font-family:'DejaVu Sans';-inkscape-font-specification:DejaVuSans;writing-mode:lr-tb;fill:#0000ff;fill-opacity:1;fill-rule:nonzero;stroke:none"
                        id="text178"><tspan
             x="0 12.72 25.440001 38.16 50.880001"
             y="0"
             id="tspan176">10000</tspan></text>
            </g>
        </g>
        <g
                id="g180">
            <g
                    id="g182"
                    clip-path="url(#clipPath186)">
                <path
                        d="M 139.992,255.14135 H 1268.328"
                        style="fill:none;stroke:#b0b0b0;stroke-width:0.8;stroke-linecap:square;stroke-linejoin:round;stroke-miterlimit:10;stroke-dasharray:none;stroke-opacity:1"
                        id="path188"/>
            </g>
        </g>
        <g
                id="g190">
            <path
                    d="m 139.992,255.14135 h -3.5"
                    style="fill:#000000;fill-opacity:1;fill-rule:nonzero;stroke:#000000;stroke-width:0.8;stroke-linecap:butt;stroke-linejoin:round;stroke-miterlimit:10;stroke-dasharray:none;stroke-opacity:1"
                    id="path192"/>
            <g
                    id="g194"
                    transform="translate(69.39825,247.53979)">
                <text
                        xml:space="preserve"
                        transform="scale(1,-1)"
                        style="font-variant:normal;font-weight:normal;font-size:20px;font-family:'DejaVu Sans';-inkscape-font-specification:DejaVuSans;writing-mode:lr-tb;fill:#0000ff;fill-opacity:1;fill-rule:nonzero;stroke:none"
                        id="text198"><tspan
             x="0 12.72 25.440001 38.16 50.880001"
             y="0"
             id="tspan196">20000</tspan></text>
            </g>
        </g>
        <g
                id="g200">
            <g
                    id="g202"
                    clip-path="url(#clipPath206)">
                <path
                        d="M 139.992,341.08561 H 1268.328"
                        style="fill:none;stroke:#b0b0b0;stroke-width:0.8;stroke-linecap:square;stroke-linejoin:round;stroke-miterlimit:10;stroke-dasharray:none;stroke-opacity:1"
                        id="path208"/>
            </g>
        </g>
        <g
                id="g210">
            <path
                    d="m 139.992,341.08561 h -3.5"
                    style="fill:#000000;fill-opacity:1;fill-rule:nonzero;stroke:#000000;stroke-width:0.8;stroke-linecap:butt;stroke-linejoin:round;stroke-miterlimit:10;stroke-dasharray:none;stroke-opacity:1"
                    id="path212"/>
            <g
                    id="g214"
                    transform="translate(69.39825,333.48405)">
                <text
                        xml:space="preserve"
                        transform="scale(1,-1)"
                        style="font-variant:normal;font-weight:normal;font-size:20px;font-family:'DejaVu Sans';-inkscape-font-specification:DejaVuSans;writing-mode:lr-tb;fill:#0000ff;fill-opacity:1;fill-rule:nonzero;stroke:none"
                        id="text218"><tspan
             x="0 12.72 25.440001 38.16 50.880001"
             y="0"
             id="tspan216">30000</tspan></text>
            </g>
        </g>
        <g
                id="g220">
            <g
                    id="g222"
                    clip-path="url(#clipPath226)">
                <path
                        d="M 139.992,427.02987 H 1268.328"
                        style="fill:none;stroke:#b0b0b0;stroke-width:0.8;stroke-linecap:square;stroke-linejoin:round;stroke-miterlimit:10;stroke-dasharray:none;stroke-opacity:1"
                        id="path228"/>
            </g>
        </g>
        <g
                id="g230">
            <path
                    d="m 139.992,427.02987 h -3.5"
                    style="fill:#000000;fill-opacity:1;fill-rule:nonzero;stroke:#000000;stroke-width:0.8;stroke-linecap:butt;stroke-linejoin:round;stroke-miterlimit:10;stroke-dasharray:none;stroke-opacity:1"
                    id="path232"/>
            <g
                    id="g234"
                    transform="translate(69.39825,419.42831)">
                <text
                        xml:space="preserve"
                        transform="scale(1,-1)"
                        style="font-variant:normal;font-weight:normal;font-size:20px;font-family:'DejaVu Sans';-inkscape-font-specification:DejaVuSans;writing-mode:lr-tb;fill:#0000ff;fill-opacity:1;fill-rule:nonzero;stroke:none"
                        id="text238"><tspan
             x="0 12.72 25.440001 38.16 50.880001"
             y="0"
             id="tspan236">40000</tspan></text>
            </g>
        </g>
        <g
                id="g240">
            <g
                    id="g242"
                    clip-path="url(#clipPath246)">
                <path
                        d="M 139.992,512.97413 H 1268.328"
                        style="fill:none;stroke:#b0b0b0;stroke-width:0.8;stroke-linecap:square;stroke-linejoin:round;stroke-miterlimit:10;stroke-dasharray:none;stroke-opacity:1"
                        id="path248"/>
            </g>
        </g>
        <g
                id="g250">
            <path
                    d="m 139.992,512.97413 h -3.5"
                    style="fill:#000000;fill-opacity:1;fill-rule:nonzero;stroke:#000000;stroke-width:0.8;stroke-linecap:butt;stroke-linejoin:round;stroke-miterlimit:10;stroke-dasharray:none;stroke-opacity:1"
                    id="path252"/>
            <g
                    id="g254"
                    transform="translate(69.39825,505.37257)">
                <text
                        xml:space="preserve"
                        transform="scale(1,-1)"
                        style="font-variant:normal;font-weight:normal;font-size:20px;font-family:'DejaVu Sans';-inkscape-font-specification:DejaVuSans;writing-mode:lr-tb;fill:#0000ff;fill-opacity:1;fill-rule:nonzero;stroke:none"
                        id="text258"><tspan
             x="0 12.72 25.440001 38.16 50.880001"
             y="0"
             id="tspan256">50000</tspan></text>
            </g>
        </g>
        <g
                id="g260">
            <g
                    id="g262"
                    clip-path="url(#clipPath266)">
                <path
                        d="M 139.992,598.91839 H 1268.328"
                        style="fill:none;stroke:#b0b0b0;stroke-width:0.8;stroke-linecap:square;stroke-linejoin:round;stroke-miterlimit:10;stroke-dasharray:none;stroke-opacity:1"
                        id="path268"/>
            </g>
        </g>
        <g
                id="g270">
            <path
                    d="m 139.992,598.91839 h -3.5"
                    style="fill:#000000;fill-opacity:1;fill-rule:nonzero;stroke:#000000;stroke-width:0.8;stroke-linecap:butt;stroke-linejoin:round;stroke-miterlimit:10;stroke-dasharray:none;stroke-opacity:1"
                    id="path272"/>
            <g
                    id="g274"
                    transform="translate(69.39825,591.31683)">
                <text
                        xml:space="preserve"
                        transform="scale(1,-1)"
                        style="font-variant:normal;font-weight:normal;font-size:20px;font-family:'DejaVu Sans';-inkscape-font-specification:DejaVuSans;writing-mode:lr-tb;fill:#0000ff;fill-opacity:1;fill-rule:nonzero;stroke:none"
                        id="text278"><tspan
             x="0 12.72 25.440001 38.16 50.880001"
             y="0"
             id="tspan276">60000</tspan></text>
            </g>
            <g
                    id="g280"
                    transform="rotate(90,-114.29832,175.54032)">
                <text
                        xml:space="preserve"
                        transform="scale(1,-1)"
                        style="font-variant:normal;font-weight:normal;font-size:20px;font-family:'DejaVu Sans';-inkscape-font-specification:DejaVuSans;writing-mode:lr-tb;fill:#0000ff;fill-opacity:1;fill-rule:nonzero;stroke:none"
                        id="text284"><tspan
             x="0 13.33625 24.33625 35.33625 47.576248 60.256248 72.936249 80.776253 87.136253 99.776253 112.47625 125.15625 130.71625 138.55624"
             y="0"
             id="tspan282">Account Equity</tspan></text>
            </g>
        </g>
        <g
                id="g286">
            <g
                    id="g288"
                    clip-path="url(#clipPath292)">
                <path
                        d="m 191.28,125.71652 7.77091,-1.2725 7.77091,-1.20021 7.77091,-1.1603 7.77091,-1.24549 7.7709,-1.09475 15.54182,-1.34701 7.77091,-0.83649 34.96909,-3.73748 19.42728,-2.02689 11.65636,-1.34043 23.31273,-3.08129 7.77091,-1.02154 11.65636,-1.15428 3.88545,-0.19922 3.88546,3.12498 3.88545,-0.3621 23.31273,14.54708 3.88545,-0.34731 3.88546,2.03875 3.88545,-0.34885 11.65637,6.11647 19.42727,12.08161 7.77091,2.25548 7.77091,4.32212 11.65636,-0.97381 7.77091,4.31667 11.65636,-0.91944 11.65637,2.66753 11.65636,1.37563 7.77091,0.86785 23.31273,2.86714 11.65636,6.75845 11.65637,-1.08619 3.88545,-0.34487 31.08364,17.9211 15.54182,18.21264 3.88545,5.16381 3.88545,-0.497 7.77091,10.32083 7.77091,3.98493 38.85455,48.85395 46.62545,23.96839 46.62546,25.8725 19.42727,8.57707 7.77091,-0.35719 7.77091,-1.6097 34.96909,17.09949 23.31273,-4.06874 7.77091,8.80981 3.88545,4.29664 77.70909,80.63706 42.74,35.08349 3.88545,-0.8208 7.77096,6.37574 7.7709,-2.52825 15.5418,27.60545 3.8854,-0.96863 58.2819,103.52538 7.7709,-0.70206 3.8854,-1.15958 3.8855,0.0838 3.8854,1.77793 3.8855,1.96605 7.7709,0.0121 3.8854,1.57046 3.8855,-1.02595 3.8855,-1.19696 3.8854,-0.99298 3.8855,1.71357 3.8854,0.0117 3.8855,-0.97223 11.6563,24.53827 23.3128,-10.01152 7.7709,-4.1669 3.8854,-1.74888 3.8855,-1.60981 15.5418,-3.51776 v 0"
                        style="fill:none;stroke:#0000ff;stroke-width:1.5;stroke-linecap:square;stroke-linejoin:round;stroke-miterlimit:10;stroke-dasharray:none;stroke-opacity:1"
                        id="path294"/>
            </g>
        </g>
        <g
                id="g296">
            <path
                    d="M 139.992,78.996667 V 651.04"
                    style="fill:none;stroke:#000000;stroke-width:0.8;stroke-linecap:square;stroke-linejoin:miter;stroke-miterlimit:10;stroke-dasharray:none;stroke-opacity:1"
                    id="path298"/>
            <path
                    d="M 1268.328,78.996667 V 651.04"
                    style="fill:none;stroke:#000000;stroke-width:0.8;stroke-linecap:square;stroke-linejoin:miter;stroke-miterlimit:10;stroke-dasharray:none;stroke-opacity:1"
                    id="path300"/>
            <path
                    d="M 139.992,78.996667 H 1268.328"
                    style="fill:none;stroke:#000000;stroke-width:0.8;stroke-linecap:square;stroke-linejoin:miter;stroke-miterlimit:10;stroke-dasharray:none;stroke-opacity:1"
                    id="path302"/>
            <path
                    d="M 139.992,651.04 H 1268.328"
                    style="fill:none;stroke:#000000;stroke-width:0.8;stroke-linecap:square;stroke-linejoin:miter;stroke-miterlimit:10;stroke-dasharray:none;stroke-opacity:1"
                    id="path304"/>
            <path
                    d="m 1084.1249,88.996667 h 170.2031 c 2.6667,0 4,1.333333 4,4 v 56.718753 c 0,2.66666 -1.3333,4 -4,4 h -170.2031 c -2.6667,0 -4,-1.33334 -4,-4 V 92.996667 c 0,-2.666667 1.3333,-4 4,-4 z"
                    style="fill:#ffffff;fill-opacity:0.8;fill-rule:nonzero;stroke:#cccccc;stroke-width:1;stroke-linecap:butt;stroke-linejoin:miter;stroke-miterlimit:10;stroke-dasharray:none;stroke-opacity:0.8"
                    id="path306"/>
            <path
                    d="m 1088.1249,137.51229 h 20 20"
                    style="fill:none;stroke:#0000ff;stroke-width:1.5;stroke-linecap:square;stroke-linejoin:round;stroke-miterlimit:10;stroke-dasharray:none;stroke-opacity:1"
                    id="path308"/>
            <g
                    id="g310"
                    transform="translate(1144.1249,130.51229)">
                <text
                        xml:space="preserve"
                        transform="scale(1,-1)"
                        style="font-variant:normal;font-weight:normal;font-size:20px;font-family:'DejaVu Sans';-inkscape-font-specification:DejaVuSans;writing-mode:lr-tb;fill:#000000;fill-opacity:1;fill-rule:nonzero;stroke:none"
                        id="text314"><tspan
             x="0 12.64 25.34 38.02 43.580002 51.419998"
             y="0"
             id="tspan312">Equity</tspan></text>
            </g>
            <path
                    d="m 1088.1249,101.15292 h 40 v 14 h -40 z"
                    style="fill:#ff0000;fill-opacity:0.3;fill-rule:nonzero;stroke:#ff0000;stroke-width:1;stroke-linecap:butt;stroke-linejoin:miter;stroke-miterlimit:10;stroke-dasharray:none;stroke-opacity:0.3"
                    id="path316"/>
            <g
                    id="g318"
                    transform="translate(1144.1249,101.15292)">
                <text
                        xml:space="preserve"
                        transform="scale(1,-1)"
                        style="font-variant:normal;font-weight:normal;font-size:20px;font-family:'DejaVu Sans';-inkscape-font-specification:DejaVuSans;writing-mode:lr-tb;fill:#000000;fill-opacity:1;fill-rule:nonzero;stroke:none"
                        id="text322"><tspan
             x="0 15.4 23.620001 35.880001 52.240002 64.940002 77.18 93.540001"
             y="0"
             id="tspan320">Drawdown</tspan></text>
            </g>
        </g>
        <g
                id="g324">
            <g
                    id="g326"
                    clip-path="url(#clipPath330)">
                <path
                        d="m 191.28,625.03803 v 0 l 3.88545,-17.28732 3.88546,-14.6535 3.88545,-15.62002 3.88546,-14.50663 3.88545,-13.48528 3.88546,-15.63922 3.88545,-16.97056 3.88546,-14.29266 3.88545,-13.97116 3.88545,-13.50811 3.88546,-7.758 3.88545,-9.4022 3.88546,-8.53047 3.88545,-8.1205 3.88546,-9.47988 3.88545,-11.5168 3.88546,-10.72274 3.88545,-10.19841 3.88546,-10.31062 3.88545,-9.45183 3.88545,-11.35251 3.88546,-10.64909 3.88546,-10.60594 3.88545,-10.46568 3.88545,-10.05787 3.88546,-9.69752 3.88545,-9.71263 3.88546,-8.70712 3.88545,-12.14888 3.88546,-10.61069 3.88545,-10.63658 3.88546,-12.44643 3.88545,-10.56322 3.88545,-12.62574 3.88546,-12.92761 3.88545,-13.19538 3.88546,-13.09613 3.88545,-13.60733 3.88546,-11.89128 3.88545,-14.07384 3.88546,-11.56779 3.88545,-10.2566 3.88546,-8.82226 3.88545,-9.89466 3.88545,-5.0007 3.88546,78.44018 3.88545,-9.08914 3.88546,60.91696 3.88545,60.91755 3.88546,60.91835 3.88545,60.9256 3.88546,60.78757 3.88545,60.68028 3.88545,-8.71774 3.88546,51.17457 3.88545,-8.75658 3.88546,51.17669 3.88545,0.6651 h 3.88546 3.88545 3.88546 3.88545 3.88546 3.88545 3.88545 3.88546 3.88545 3.88546 l 3.88545,-5.20866 3.88546,-5.50419 3.88545,-5.21317 3.88546,15.92602 h 3.88545 l 3.88546,-4.57304 3.88545,-4.557 3.88545,-5.17333 3.88546,13.83296 3.88546,0.47041 h 3.88545 3.88545 3.88546 3.88545 3.88546 3.88545 3.88546 3.88545 3.88545 3.88546 3.88546 3.88545 3.88545 3.88546 3.88545 l 3.88546,-5.0132 3.88545,-4.4833 3.88546,-4.59932 3.88545,-4.4755 3.88545,18.57132 h 3.88546 3.88545 3.88546 3.88545 3.88546 3.88545 3.88546 3.88545 3.88546 3.88545 3.88546 3.88545 l 3.88545,-4.34213 3.88546,4.34213 h 3.88545 3.88546 3.88545 3.88546 3.88545 3.88546 3.88545 3.88545 3.88546 3.88545 3.88546 3.88545 3.88546 3.88545 3.88546 3.88545 3.88546 3.88545 3.88546 3.88545 3.88545 3.88546 3.88545 3.88546 3.88545 3.88546 3.88545 3.88546 3.88545 3.88545 3.88546 3.88546 3.88545 3.88545 3.88546 3.88545 3.88546 3.88545 3.88546 3.88545 3.88545 3.88546 l 3.88545,-1.0066 3.88546,-0.55962 3.88545,-3.59963 3.88546,-3.45872 3.88545,8.33098 3.88546,0.29359 h 3.88545 3.88546 3.88545 3.88546 3.88545 3.88545 3.88546 l 3.88545,-2.76687 3.88546,-2.73743 3.88545,-3.20819 3.88546,-2.74903 3.88545,-2.70528 3.88546,-2.62854 3.88545,16.79534 h 3.88546 3.88545 3.88545 3.88546 3.88545 3.88546 3.88545 3.88546 3.88545 3.88546 3.88545 3.88546 3.88545 3.88545 3.88546 3.88545 3.88546 3.88545 3.88546 3.88545 3.88546 3.88545 3.88546 3.88545 3.88545 3.88546 3.88545 3.88546 3.88545 3.88546 3.88545 3.88546 3.88545 l 3.88545,-2.28441 3.88546,2.28441 h 3.8855 l 3.8854,-3.3328 3.8855,-3.60319 3.8854,6.93599 h 3.8855 3.8854 3.8855 l 3.8854,-2.49622 3.8855,2.49622 h 3.8854 3.8855 3.8855 3.8854 3.8855 3.8854 3.8855 3.8854 3.8855 3.8854 3.8855 3.8854 3.8855 3.8855 l 3.8854,-0.68077 3.8855,-0.769 3.8854,-2.39455 3.8855,0.17314 3.8854,3.67118 h 3.8855 3.8854 3.8855 3.8854 l 3.8855,-2.10414 3.8855,-2.45487 3.8854,-2.03651 3.8855,3.51438 3.8854,0.024 3.8855,-1.99396 3.8854,5.05106 h 3.8855 3.8854 l 3.8855,-3.30633 3.8854,-3.0929 3.8855,-3.50495 3.8855,-3.26109 3.8854,-3.16943 3.8855,-3.36147 3.8854,-4.15518 3.8855,-4.04255 3.8854,-3.44066 3.8855,-3.16706 3.8854,-1.69824 3.8855,-1.49896 3.8854,-1.87809 3.8855,-1.84539 v 41.4223 0 h -3.8855 -3.8854 -3.8855 -3.8854 -3.8855 -3.8854 -3.8855 -3.8854 -3.8855 -3.8854 -3.8855 -3.8855 -3.8854 -3.8855 -3.8854 -3.8855 -3.8854 -3.8855 -3.8854 -3.8855 -3.8854 -3.8855 -3.8855 -3.8854 -3.8855 -3.8854 -3.8855 -3.8854 -3.8855 -3.8854 -3.8855 -3.8854 -3.8855 -3.8855 -3.8854 -3.8855 -3.8854 -3.8855 -3.8854 -3.8855 -3.8854 -3.8855 -3.8854 -3.8855 -3.8855 -3.8854 -3.8855 -3.8854 -3.8855 -3.8854 -3.8855 -3.8854 -3.8855 -3.8854 -3.8855 -3.88546 -3.88545 -3.88545 -3.88546 -3.88545 -3.88546 -3.88545 -3.88546 -3.88545 -3.88546 -3.88545 -3.88545 -3.88546 -3.88545 -3.88546 -3.88545 -3.88546 -3.88545 -3.88546 -3.88545 -3.88546 -3.88545 -3.88545 -3.88546 -3.88545 -3.88546 -3.88545 -3.88546 -3.88545 -3.88546 -3.88545 -3.88546 -3.88545 -3.88545 -3.88546 -3.88545 -3.88546 -3.88545 -3.88546 -3.88545 -3.88546 -3.88545 -3.88546 -3.88545 -3.88545 -3.88546 -3.88545 -3.88546 -3.88545 -3.88546 -3.88545 -3.88546 -3.88545 -3.88546 -3.88545 -3.88546 -3.88545 -3.88545 -3.88546 -3.88545 -3.88546 -3.88545 -3.88546 -3.88545 -3.88545 -3.88546 -3.88546 -3.88545 -3.88545 -3.88546 -3.88545 -3.88546 -3.88545 -3.88546 -3.88545 -3.88546 -3.88545 -3.88545 -3.88546 -3.88545 -3.88546 -3.88545 -3.88546 -3.88545 -3.88546 -3.88545 -3.88546 -3.88545 -3.88546 -3.88545 -3.88545 -3.88546 -3.88545 -3.88546 -3.88545 -3.88546 -3.88545 -3.88546 -3.88545 -3.88545 -3.88546 -3.88545 -3.88546 -3.88545 -3.88546 -3.88545 -3.88546 -3.88545 -3.88546 -3.88545 -3.88546 -3.88545 -3.88545 -3.88546 -3.88545 -3.88546 -3.88545 -3.88546 -3.88545 -3.88545 -3.88546 -3.88546 -3.88545 -3.88545 -3.88546 -3.88545 -3.88546 -3.88545 -3.88546 -3.88545 -3.88545 -3.88546 -3.88546 -3.88545 -3.88545 -3.88546 -3.88545 -3.88546 -3.88545 -3.88546 -3.88545 -3.88546 -3.88545 -3.88546 -3.88545 -3.88545 -3.88546 -3.88545 -3.88546 -3.88545 -3.88546 -3.88545 -3.88546 -3.88545 -3.88546 -3.88545 -3.88545 -3.88546 -3.88545 -3.88546 -3.88545 -3.88546 -3.88545 -3.88546 -3.88545 -3.88545 -3.88546 -3.88545 -3.88546 -3.88545 -3.88546 -3.88545 -3.88546 -3.88545 -3.88546 -3.88545 -3.88545 -3.88546 -3.88545 -3.88546 -3.88545 -3.88546 -3.88545 -3.88546 -3.88545 -3.88545 -3.88546 -3.88546 -3.88545 -3.88545 -3.88546 -3.88545 -3.88546 -3.88545 -3.88546 -3.88545 -3.88546 -3.88545 -3.88546 -3.88545 -3.88545 -3.88546 -3.88545 -3.88546 -3.88545 -3.88546 -3.88545 -3.88546 -3.88545 z"
                        style="fill:#ff0000;fill-opacity:0.3;fill-rule:nonzero;stroke:#ff0000;stroke-width:1;stroke-linecap:butt;stroke-linejoin:round;stroke-miterlimit:10;stroke-dasharray:none;stroke-opacity:0.3"
                        id="path332"/>
            </g>
        </g>
        <g
                id="g334">
            <path
                    d="m 1268.328,92.097572 h 3.5"
                    style="fill:#000000;fill-opacity:1;fill-rule:nonzero;stroke:#000000;stroke-width:0.8;stroke-linecap:butt;stroke-linejoin:round;stroke-miterlimit:10;stroke-dasharray:none;stroke-opacity:1"
                    id="path336"/>
            <g
                    id="g338"
                    transform="translate(1275.328,84.496009)">
                <text
                        xml:space="preserve"
                        transform="matrix(1,0,0,-1,16.757812,0)"
                        style="font-variant:normal;font-weight:normal;font-size:20px;font-family:'DejaVu Sans';-inkscape-font-specification:DejaVuSans;writing-mode:lr-tb;fill:#ff0000;fill-opacity:1;fill-rule:nonzero;stroke:none"
                        id="text342"><tspan
             x="0 12.72"
             y="0"
             id="tspan340">50</tspan></text>
                <g
                        id="g344"
                        transform="scale(0.02)">
                    <g
                            id="g346">
                        <g
                                id="g348"
                                clip-path="url(#clipPath352)">
                            <path
                                    d="M 106,355 H 732 V 272 H 106 Z"
                                    style="fill:#ff0000;fill-opacity:1;fill-rule:nonzero;stroke:none"
                                    id="path354"/>
                        </g>
                    </g>
                </g>
            </g>
            <path
                    d="m 1268.328,198.68566 h 3.5"
                    style="fill:#000000;fill-opacity:1;fill-rule:nonzero;stroke:#000000;stroke-width:0.8;stroke-linecap:butt;stroke-linejoin:round;stroke-miterlimit:10;stroke-dasharray:none;stroke-opacity:1"
                    id="path356"/>
            <g
                    id="g358"
                    transform="translate(1275.328,191.0841)">
                <text
                        xml:space="preserve"
                        transform="matrix(1,0,0,-1,16.757812,0)"
                        style="font-variant:normal;font-weight:normal;font-size:20px;font-family:'DejaVu Sans';-inkscape-font-specification:DejaVuSans;writing-mode:lr-tb;fill:#ff0000;fill-opacity:1;fill-rule:nonzero;stroke:none"
                        id="text362"><tspan
             x="0 12.72"
             y="0"
             id="tspan360">40</tspan></text>
                <g
                        id="g364"
                        transform="scale(0.02)">
                    <g
                            id="g366">
                        <g
                                id="g368"
                                clip-path="url(#clipPath372)">
                            <path
                                    d="M 106,355 H 732 V 272 H 106 Z"
                                    style="fill:#ff0000;fill-opacity:1;fill-rule:nonzero;stroke:none"
                                    id="path374"/>
                        </g>
                    </g>
                </g>
            </g>
            <path
                    d="m 1268.328,305.27375 h 3.5"
                    style="fill:#000000;fill-opacity:1;fill-rule:nonzero;stroke:#000000;stroke-width:0.8;stroke-linecap:butt;stroke-linejoin:round;stroke-miterlimit:10;stroke-dasharray:none;stroke-opacity:1"
                    id="path376"/>
            <g
                    id="g378"
                    transform="translate(1275.328,297.67219)">
                <text
                        xml:space="preserve"
                        transform="matrix(1,0,0,-1,16.757812,0)"
                        style="font-variant:normal;font-weight:normal;font-size:20px;font-family:'DejaVu Sans';-inkscape-font-specification:DejaVuSans;writing-mode:lr-tb;fill:#ff0000;fill-opacity:1;fill-rule:nonzero;stroke:none"
                        id="text382"><tspan
             x="0 12.72"
             y="0"
             id="tspan380">30</tspan></text>
                <g
                        id="g384"
                        transform="scale(0.02)">
                    <g
                            id="g386">
                        <g
                                id="g388"
                                clip-path="url(#clipPath392)">
                            <path
                                    d="M 106,355 H 732 V 272 H 106 Z"
                                    style="fill:#ff0000;fill-opacity:1;fill-rule:nonzero;stroke:none"
                                    id="path394"/>
                        </g>
                    </g>
                </g>
            </g>
            <path
                    d="m 1268.328,411.86185 h 3.5"
                    style="fill:#000000;fill-opacity:1;fill-rule:nonzero;stroke:#000000;stroke-width:0.8;stroke-linecap:butt;stroke-linejoin:round;stroke-miterlimit:10;stroke-dasharray:none;stroke-opacity:1"
                    id="path396"/>
            <g
                    id="g398"
                    transform="translate(1275.328,404.26028)">
                <text
                        xml:space="preserve"
                        transform="matrix(1,0,0,-1,16.757812,0)"
                        style="font-variant:normal;font-weight:normal;font-size:20px;font-family:'DejaVu Sans';-inkscape-font-specification:DejaVuSans;writing-mode:lr-tb;fill:#ff0000;fill-opacity:1;fill-rule:nonzero;stroke:none"
                        id="text402"><tspan
             x="0 12.72"
             y="0"
             id="tspan400">20</tspan></text>
                <g
                        id="g404"
                        transform="scale(0.02)">
                    <g
                            id="g406">
                        <g
                                id="g408"
                                clip-path="url(#clipPath412)">
                            <path
                                    d="M 106,355 H 732 V 272 H 106 Z"
                                    style="fill:#ff0000;fill-opacity:1;fill-rule:nonzero;stroke:none"
                                    id="path414"/>
                        </g>
                    </g>
                </g>
            </g>
            <path
                    d="m 1268.328,518.44994 h 3.5"
                    style="fill:#000000;fill-opacity:1;fill-rule:nonzero;stroke:#000000;stroke-width:0.8;stroke-linecap:butt;stroke-linejoin:round;stroke-miterlimit:10;stroke-dasharray:none;stroke-opacity:1"
                    id="path416"/>
            <g
                    id="g418"
                    transform="translate(1275.328,510.84838)">
                <text
                        xml:space="preserve"
                        transform="matrix(1,0,0,-1,16.757812,0)"
                        style="font-variant:normal;font-weight:normal;font-size:20px;font-family:'DejaVu Sans';-inkscape-font-specification:DejaVuSans;writing-mode:lr-tb;fill:#ff0000;fill-opacity:1;fill-rule:nonzero;stroke:none"
                        id="text422"><tspan
             x="0 12.72"
             y="0"
             id="tspan420">10</tspan></text>
                <g
                        id="g424"
                        transform="scale(0.02)">
                    <g
                            id="g426">
                        <g
                                id="g428"
                                clip-path="url(#clipPath432)">
                            <path
                                    d="M 106,355 H 732 V 272 H 106 Z"
                                    style="fill:#ff0000;fill-opacity:1;fill-rule:nonzero;stroke:none"
                                    id="path434"/>
                        </g>
                    </g>
                </g>
            </g>
            <path
                    d="m 1268.328,625.03803 h 3.5"
                    style="fill:#000000;fill-opacity:1;fill-rule:nonzero;stroke:#000000;stroke-width:0.8;stroke-linecap:butt;stroke-linejoin:round;stroke-miterlimit:10;stroke-dasharray:none;stroke-opacity:1"
                    id="path436"/>
            <g
                    id="g438"
                    transform="translate(1275.328,617.43647)">
                <text
                        xml:space="preserve"
                        transform="scale(1,-1)"
                        style="font-variant:normal;font-weight:normal;font-size:20px;font-family:'DejaVu Sans';-inkscape-font-specification:DejaVuSans;writing-mode:lr-tb;fill:#ff0000;fill-opacity:1;fill-rule:nonzero;stroke:none"
                        id="text442"><tspan
             x="0"
             y="0"
             id="tspan440">0</tspan></text>
            </g>
            <g
                    id="g444"
                    transform="rotate(90,522.64702,814.08723)">
                <text
                        xml:space="preserve"
                        transform="scale(1,-1)"
                        style="font-variant:normal;font-weight:normal;font-size:20px;font-family:'DejaVu Sans';-inkscape-font-specification:DejaVuSans;writing-mode:lr-tb;fill:#ff0000;fill-opacity:1;fill-rule:nonzero;stroke:none"
                        id="text448"><tspan
             x="0 15.4 23.620001 35.880001 52.240002 64.940002 77.18 93.540001 106.22 112.58 120.38 139.38"
             y="0"
             id="tspan446">Drawdown (%)</tspan></text>
            </g>
            <path
                    d="M 139.992,78.996667 V 651.04"
                    style="fill:none;stroke:#000000;stroke-width:0.8;stroke-linecap:square;stroke-linejoin:miter;stroke-miterlimit:10;stroke-dasharray:none;stroke-opacity:1"
                    id="path450"/>
            <path
                    d="M 1268.328,78.996667 V 651.04"
                    style="fill:none;stroke:#000000;stroke-width:0.8;stroke-linecap:square;stroke-linejoin:miter;stroke-miterlimit:10;stroke-dasharray:none;stroke-opacity:1"
                    id="path452"/>
            <path
                    d="M 139.992,78.996667 H 1268.328"
                    style="fill:none;stroke:#000000;stroke-width:0.8;stroke-linecap:square;stroke-linejoin:miter;stroke-miterlimit:10;stroke-dasharray:none;stroke-opacity:1"
                    id="path454"/>
            <path
                    d="M 139.992,651.04 H 1268.328"
                    style="fill:none;stroke:#000000;stroke-width:0.8;stroke-linecap:square;stroke-linejoin:miter;stroke-miterlimit:10;stroke-dasharray:none;stroke-opacity:1"
                    id="path456"/>
            <g
                    id="g458"
                    transform="translate(440.21469,657.04)">
                <text
                        xml:space="preserve"
                        transform="scale(1,-1)"
                        style="font-variant:normal;font-weight:normal;font-size:25px;font-family:'DejaVu Sans';-inkscape-font-specification:DejaVuSans;writing-mode:lr-tb;fill:#000000;fill-opacity:1;fill-rule:nonzero;stroke:none"
                        id="text462"><tspan
             x="0 17.450001 24.4 39.724998 52.75 65.775002 72.724998 81.525002 88.474998 102.225 117.55 127.35 134.3 149.60001 165.45 173.39999 190.5 197.875 205.825 221.7 231.5 241.77499 257.10001 266.89999 282.27499 298.14999 312.95001 320.89999 338.04999 353.375 367.125 381.60001 391.39999 406.77499 419.79999 429.60001 437.54999 453.81561 469.19061 482.21564 498.06561 505.01562 514.81561"
             y="0"
             id="tspan460">Classification AI Strategy Backtest Results</tspan></text>
            </g>
        </g>
    </g>
</svg>
