<?xml version="1.0" encoding="UTF-8" standalone="no"?>
<!-- Created with Inkscape (http://www.inkscape.org/) -->

<svg
        xmlns:svg="http://www.w3.org/2000/svg"
        version="1.1"
        id="svg2"
        width="1843.2"
        height="936"
        viewBox="0 0 1843.2 936"
        xmlns="http://www.w3.org/2000/svg">
    <defs
            id="defs6">
        <clipPath
                clipPathUnits="userSpaceOnUse"
                id="clipPath20">
            <path
                    d="M 139.884,78.996667 H 1268.436 V 651.04 H 139.884 Z"
                    id="path18"/>
        </clipPath>
        <clipPath
                clipPathUnits="userSpaceOnUse"
                id="clipPath40">
            <path
                    d="M 139.884,78.996667 H 1268.436 V 651.04 H 139.884 Z"
                    id="path38"/>
        </clipPath>
        <clipPath
                clipPathUnits="userSpaceOnUse"
                id="clipPath60">
            <path
                    d="M 139.884,78.996667 H 1268.436 V 651.04 H 139.884 Z"
                    id="path58"/>
        </clipPath>
        <clipPath
                clipPathUnits="userSpaceOnUse"
                id="clipPath80">
            <path
                    d="M 139.884,78.996667 H 1268.436 V 651.04 H 139.884 Z"
                    id="path78"/>
        </clipPath>
        <clipPath
                clipPathUnits="userSpaceOnUse"
                id="clipPath100">
            <path
                    d="M 139.884,78.996667 H 1268.436 V 651.04 H 139.884 Z"
                    id="path98"/>
        </clipPath>
        <clipPath
                clipPathUnits="userSpaceOnUse"
                id="clipPath126">
            <path
                    d="M 139.884,78.996667 H 1268.436 V 651.04 H 139.884 Z"
                    id="path124"/>
        </clipPath>
        <clipPath
                clipPathUnits="userSpaceOnUse"
                id="clipPath146">
            <path
                    d="M 139.884,78.996667 H 1268.436 V 651.04 H 139.884 Z"
                    id="path144"/>
        </clipPath>
        <clipPath
                clipPathUnits="userSpaceOnUse"
                id="clipPath166">
            <path
                    d="M 139.884,78.996667 H 1268.436 V 651.04 H 139.884 Z"
                    id="path164"/>
        </clipPath>
        <clipPath
                clipPathUnits="userSpaceOnUse"
                id="clipPath186">
            <path
                    d="M 139.884,78.996667 H 1268.436 V 651.04 H 139.884 Z"
                    id="path184"/>
        </clipPath>
        <clipPath
                clipPathUnits="userSpaceOnUse"
                id="clipPath206">
            <path
                    d="M 139.884,78.996667 H 1268.436 V 651.04 H 139.884 Z"
                    id="path204"/>
        </clipPath>
        <clipPath
                clipPathUnits="userSpaceOnUse"
                id="clipPath226">
            <path
                    d="M 139.884,78.996667 H 1268.436 V 651.04 H 139.884 Z"
                    id="path224"/>
        </clipPath>
        <clipPath
                clipPathUnits="userSpaceOnUse"
                id="clipPath252">
            <path
                    d="M 139.884,78.996667 H 1268.436 V 651.04 H 139.884 Z"
                    id="path250"/>
        </clipPath>
        <clipPath
                clipPathUnits="userSpaceOnUse"
                id="clipPath290">
            <path
                    d="M 139.884,78.996667 H 1268.436 V 651.04 H 139.884 Z"
                    id="path288"/>
        </clipPath>
        <clipPath
                clipPathUnits="userSpaceOnUse"
                id="clipPath312">
            <path
                    d="M -1021,-463 H 1794 V 1233 H -1021 Z"
                    id="path310"/>
        </clipPath>
        <clipPath
                clipPathUnits="userSpaceOnUse"
                id="clipPath332">
            <path
                    d="M -1021,-463 H 1794 V 1233 H -1021 Z"
                    id="path330"/>
        </clipPath>
        <clipPath
                clipPathUnits="userSpaceOnUse"
                id="clipPath352">
            <path
                    d="M -1021,-463 H 1794 V 1233 H -1021 Z"
                    id="path350"/>
        </clipPath>
        <clipPath
                clipPathUnits="userSpaceOnUse"
                id="clipPath372">
            <path
                    d="M -1021,-463 H 1794 V 1233 H -1021 Z"
                    id="path370"/>
        </clipPath>
        <clipPath
                clipPathUnits="userSpaceOnUse"
                id="clipPath392">
            <path
                    d="M -1021,-463 H 1794 V 1233 H -1021 Z"
                    id="path390"/>
        </clipPath>
    </defs>
    <g
            id="g8"
            transform="matrix(1.3333333,0,0,-1.3333333,0,936)">
        <path
                d="M 0,0 H 1382.4 V 702 H 0 Z"
                style="fill:#ffffff;fill-opacity:1;fill-rule:nonzero;stroke:none"
                id="path10"/>
        <path
                d="M 139.884,78.996667 H 1268.436 V 651.04 H 139.884 Z"
                style="fill:#ffffff;fill-opacity:1;fill-rule:nonzero;stroke:none"
                id="path12"/>
        <g
                id="g14">
            <g
                    id="g16"
                    clip-path="url(#clipPath20)">
                <path
                        d="M 191.18182,78.996667 V 651.04"
                        style="fill:none;stroke:#b0b0b0;stroke-width:0.8;stroke-linecap:square;stroke-linejoin:round;stroke-miterlimit:10;stroke-dasharray:none;stroke-opacity:1"
                        id="path22"/>
            </g>
        </g>
        <g
                id="g24">
            <path
                    d="m 191.18182,78.996667 v -3.5"
                    style="fill:#000000;fill-opacity:1;fill-rule:nonzero;stroke:#000000;stroke-width:0.8;stroke-linecap:butt;stroke-linejoin:round;stroke-miterlimit:10;stroke-dasharray:none;stroke-opacity:1"
                    id="path26"/>
            <g
                    id="g28"
                    transform="translate(184.82244,56.793542)">
                <text
                        xml:space="preserve"
                        transform="scale(1,-1)"
                        style="font-variant:normal;font-weight:normal;font-size:20px;font-family:'DejaVu Sans';-inkscape-font-specification:DejaVuSans;writing-mode:lr-tb;fill:#000000;fill-opacity:1;fill-rule:nonzero;stroke:none"
                        id="text32"><tspan
             x="0"
             y="0"
             id="tspan30">0</tspan></text>
            </g>
        </g>
        <g
                id="g34">
            <g
                    id="g36"
                    clip-path="url(#clipPath40)">
                <path
                        d="M 427.30526,78.996667 V 651.04"
                        style="fill:none;stroke:#b0b0b0;stroke-width:0.8;stroke-linecap:square;stroke-linejoin:round;stroke-miterlimit:10;stroke-dasharray:none;stroke-opacity:1"
                        id="path42"/>
            </g>
        </g>
        <g
                id="g44">
            <path
                    d="m 427.30526,78.996667 v -3.5"
                    style="fill:#000000;fill-opacity:1;fill-rule:nonzero;stroke:#000000;stroke-width:0.8;stroke-linecap:butt;stroke-linejoin:round;stroke-miterlimit:10;stroke-dasharray:none;stroke-opacity:1"
                    id="path46"/>
            <g
                    id="g48"
                    transform="translate(408.22714,56.793542)">
                <text
                        xml:space="preserve"
                        transform="scale(1,-1)"
                        style="font-variant:normal;font-weight:normal;font-size:20px;font-family:'DejaVu Sans';-inkscape-font-specification:DejaVuSans;writing-mode:lr-tb;fill:#000000;fill-opacity:1;fill-rule:nonzero;stroke:none"
                        id="text52"><tspan
             x="0 12.72 25.440001"
             y="0"
             id="tspan50">200</tspan></text>
            </g>
        </g>
        <g
                id="g54">
            <g
                    id="g56"
                    clip-path="url(#clipPath60)">
                <path
                        d="M 663.42871,78.996667 V 651.04"
                        style="fill:none;stroke:#b0b0b0;stroke-width:0.8;stroke-linecap:square;stroke-linejoin:round;stroke-miterlimit:10;stroke-dasharray:none;stroke-opacity:1"
                        id="path62"/>
            </g>
        </g>
        <g
                id="g64">
            <path
                    d="m 663.42871,78.996667 v -3.5"
                    style="fill:#000000;fill-opacity:1;fill-rule:nonzero;stroke:#000000;stroke-width:0.8;stroke-linecap:butt;stroke-linejoin:round;stroke-miterlimit:10;stroke-dasharray:none;stroke-opacity:1"
                    id="path66"/>
            <g
                    id="g68"
                    transform="translate(644.35058,56.793542)">
                <text
                        xml:space="preserve"
                        transform="scale(1,-1)"
                        style="font-variant:normal;font-weight:normal;font-size:20px;font-family:'DejaVu Sans';-inkscape-font-specification:DejaVuSans;writing-mode:lr-tb;fill:#000000;fill-opacity:1;fill-rule:nonzero;stroke:none"
                        id="text72"><tspan
             x="0 12.72 25.440001"
             y="0"
             id="tspan70">400</tspan></text>
            </g>
        </g>
        <g
                id="g74">
            <g
                    id="g76"
                    clip-path="url(#clipPath80)">
                <path
                        d="M 899.55215,78.996667 V 651.04"
                        style="fill:none;stroke:#b0b0b0;stroke-width:0.8;stroke-linecap:square;stroke-linejoin:round;stroke-miterlimit:10;stroke-dasharray:none;stroke-opacity:1"
                        id="path82"/>
            </g>
        </g>
        <g
                id="g84">
            <path
                    d="m 899.55215,78.996667 v -3.5"
                    style="fill:#000000;fill-opacity:1;fill-rule:nonzero;stroke:#000000;stroke-width:0.8;stroke-linecap:butt;stroke-linejoin:round;stroke-miterlimit:10;stroke-dasharray:none;stroke-opacity:1"
                    id="path86"/>
            <g
                    id="g88"
                    transform="translate(880.47402,56.793542)">
                <text
                        xml:space="preserve"
                        transform="scale(1,-1)"
                        style="font-variant:normal;font-weight:normal;font-size:20px;font-family:'DejaVu Sans';-inkscape-font-specification:DejaVuSans;writing-mode:lr-tb;fill:#000000;fill-opacity:1;fill-rule:nonzero;stroke:none"
                        id="text92"><tspan
             x="0 12.72 25.440001"
             y="0"
             id="tspan90">600</tspan></text>
            </g>
        </g>
        <g
                id="g94">
            <g
                    id="g96"
                    clip-path="url(#clipPath100)">
                <path
                        d="M 1135.6756,78.996667 V 651.04"
                        style="fill:none;stroke:#b0b0b0;stroke-width:0.8;stroke-linecap:square;stroke-linejoin:round;stroke-miterlimit:10;stroke-dasharray:none;stroke-opacity:1"
                        id="path102"/>
            </g>
        </g>
        <g
                id="g104">
            <path
                    d="m 1135.6756,78.996667 v -3.5"
                    style="fill:#000000;fill-opacity:1;fill-rule:nonzero;stroke:#000000;stroke-width:0.8;stroke-linecap:butt;stroke-linejoin:round;stroke-miterlimit:10;stroke-dasharray:none;stroke-opacity:1"
                    id="path106"/>
            <g
                    id="g108"
                    transform="translate(1116.5975,56.793542)">
                <text
                        xml:space="preserve"
                        transform="scale(1,-1)"
                        style="font-variant:normal;font-weight:normal;font-size:20px;font-family:'DejaVu Sans';-inkscape-font-specification:DejaVuSans;writing-mode:lr-tb;fill:#000000;fill-opacity:1;fill-rule:nonzero;stroke:none"
                        id="text112"><tspan
             x="0 12.72 25.440001"
             y="0"
             id="tspan110">800</tspan></text>
            </g>
            <g
                    id="g114"
                    transform="translate(646.0975,33.434167)">
                <text
                        xml:space="preserve"
                        transform="scale(1,-1)"
                        style="font-variant:normal;font-weight:normal;font-size:20px;font-family:'DejaVu Sans';-inkscape-font-specification:DejaVuSans;writing-mode:lr-tb;fill:#000000;fill-opacity:1;fill-rule:nonzero;stroke:none"
                        id="text118"><tspan
             x="0 9.2825003 17.502501 29.762501 42.462502 54.762501 61.122501 67.022499 79.702499 92.402496 104.35875"
             y="0"
             id="tspan116">Trade Index</tspan></text>
            </g>
        </g>
        <g
                id="g120">
            <g
                    id="g122"
                    clip-path="url(#clipPath126)">
                <path
                        d="M 139.884,156.81407 H 1268.436"
                        style="fill:none;stroke:#b0b0b0;stroke-width:0.8;stroke-linecap:square;stroke-linejoin:round;stroke-miterlimit:10;stroke-dasharray:none;stroke-opacity:1"
                        id="path128"/>
            </g>
        </g>
        <g
                id="g130">
            <path
                    d="m 139.884,156.81407 h -3.5"
                    style="fill:#000000;fill-opacity:1;fill-rule:nonzero;stroke:#000000;stroke-width:0.8;stroke-linecap:butt;stroke-linejoin:round;stroke-miterlimit:10;stroke-dasharray:none;stroke-opacity:1"
                    id="path132"/>
            <g
                    id="g134"
                    transform="translate(82.009,149.21251)">
                <text
                        xml:space="preserve"
                        transform="scale(1,-1)"
                        style="font-variant:normal;font-weight:normal;font-size:20px;font-family:'DejaVu Sans';-inkscape-font-specification:DejaVuSans;writing-mode:lr-tb;fill:#0000ff;fill-opacity:1;fill-rule:nonzero;stroke:none"
                        id="text138"><tspan
             x="0 12.72 25.440001 38.16"
             y="0"
             id="tspan136">6000</tspan></text>
            </g>
        </g>
        <g
                id="g140">
            <g
                    id="g142"
                    clip-path="url(#clipPath146)">
                <path
                        d="M 139.884,253.17708 H 1268.436"
                        style="fill:none;stroke:#b0b0b0;stroke-width:0.8;stroke-linecap:square;stroke-linejoin:round;stroke-miterlimit:10;stroke-dasharray:none;stroke-opacity:1"
                        id="path148"/>
            </g>
        </g>
        <g
                id="g150">
            <path
                    d="m 139.884,253.17708 h -3.5"
                    style="fill:#000000;fill-opacity:1;fill-rule:nonzero;stroke:#000000;stroke-width:0.8;stroke-linecap:butt;stroke-linejoin:round;stroke-miterlimit:10;stroke-dasharray:none;stroke-opacity:1"
                    id="path152"/>
            <g
                    id="g154"
                    transform="translate(82.009,245.57551)">
                <text
                        xml:space="preserve"
                        transform="scale(1,-1)"
                        style="font-variant:normal;font-weight:normal;font-size:20px;font-family:'DejaVu Sans';-inkscape-font-specification:DejaVuSans;writing-mode:lr-tb;fill:#0000ff;fill-opacity:1;fill-rule:nonzero;stroke:none"
                        id="text158"><tspan
             x="0 12.72 25.440001 38.16"
             y="0"
             id="tspan156">8000</tspan></text>
            </g>
        </g>
        <g
                id="g160">
            <g
                    id="g162"
                    clip-path="url(#clipPath166)">
                <path
                        d="M 139.884,349.54009 H 1268.436"
                        style="fill:none;stroke:#b0b0b0;stroke-width:0.8;stroke-linecap:square;stroke-linejoin:round;stroke-miterlimit:10;stroke-dasharray:none;stroke-opacity:1"
                        id="path168"/>
            </g>
        </g>
        <g
                id="g170">
            <path
                    d="m 139.884,349.54009 h -3.5"
                    style="fill:#000000;fill-opacity:1;fill-rule:nonzero;stroke:#000000;stroke-width:0.8;stroke-linecap:butt;stroke-linejoin:round;stroke-miterlimit:10;stroke-dasharray:none;stroke-opacity:1"
                    id="path172"/>
            <g
                    id="g174"
                    transform="translate(69.29025,341.93852)">
                <text
                        xml:space="preserve"
                        transform="scale(1,-1)"
                        style="font-variant:normal;font-weight:normal;font-size:20px;font-family:'DejaVu Sans';-inkscape-font-specification:DejaVuSans;writing-mode:lr-tb;fill:#0000ff;fill-opacity:1;fill-rule:nonzero;stroke:none"
                        id="text178"><tspan
             x="0 12.72 25.440001 38.16 50.880001"
             y="0"
             id="tspan176">10000</tspan></text>
            </g>
        </g>
        <g
                id="g180">
            <g
                    id="g182"
                    clip-path="url(#clipPath186)">
                <path
                        d="M 139.884,445.9031 H 1268.436"
                        style="fill:none;stroke:#b0b0b0;stroke-width:0.8;stroke-linecap:square;stroke-linejoin:round;stroke-miterlimit:10;stroke-dasharray:none;stroke-opacity:1"
                        id="path188"/>
            </g>
        </g>
        <g
                id="g190">
            <path
                    d="m 139.884,445.9031 h -3.5"
                    style="fill:#000000;fill-opacity:1;fill-rule:nonzero;stroke:#000000;stroke-width:0.8;stroke-linecap:butt;stroke-linejoin:round;stroke-miterlimit:10;stroke-dasharray:none;stroke-opacity:1"
                    id="path192"/>
            <g
                    id="g194"
                    transform="translate(69.29025,438.30153)">
                <text
                        xml:space="preserve"
                        transform="scale(1,-1)"
                        style="font-variant:normal;font-weight:normal;font-size:20px;font-family:'DejaVu Sans';-inkscape-font-specification:DejaVuSans;writing-mode:lr-tb;fill:#0000ff;fill-opacity:1;fill-rule:nonzero;stroke:none"
                        id="text198"><tspan
             x="0 12.72 25.440001 38.16 50.880001"
             y="0"
             id="tspan196">12000</tspan></text>
            </g>
        </g>
        <g
                id="g200">
            <g
                    id="g202"
                    clip-path="url(#clipPath206)">
                <path
                        d="M 139.884,542.2661 H 1268.436"
                        style="fill:none;stroke:#b0b0b0;stroke-width:0.8;stroke-linecap:square;stroke-linejoin:round;stroke-miterlimit:10;stroke-dasharray:none;stroke-opacity:1"
                        id="path208"/>
            </g>
        </g>
        <g
                id="g210">
            <path
                    d="m 139.884,542.2661 h -3.5"
                    style="fill:#000000;fill-opacity:1;fill-rule:nonzero;stroke:#000000;stroke-width:0.8;stroke-linecap:butt;stroke-linejoin:round;stroke-miterlimit:10;stroke-dasharray:none;stroke-opacity:1"
                    id="path212"/>
            <g
                    id="g214"
                    transform="translate(69.29025,534.66454)">
                <text
                        xml:space="preserve"
                        transform="scale(1,-1)"
                        style="font-variant:normal;font-weight:normal;font-size:20px;font-family:'DejaVu Sans';-inkscape-font-specification:DejaVuSans;writing-mode:lr-tb;fill:#0000ff;fill-opacity:1;fill-rule:nonzero;stroke:none"
                        id="text218"><tspan
             x="0 12.72 25.440001 38.16 50.880001"
             y="0"
             id="tspan216">14000</tspan></text>
            </g>
        </g>
        <g
                id="g220">
            <g
                    id="g222"
                    clip-path="url(#clipPath226)">
                <path
                        d="M 139.884,638.62911 H 1268.436"
                        style="fill:none;stroke:#b0b0b0;stroke-width:0.8;stroke-linecap:square;stroke-linejoin:round;stroke-miterlimit:10;stroke-dasharray:none;stroke-opacity:1"
                        id="path228"/>
            </g>
        </g>
        <g
                id="g230">
            <path
                    d="m 139.884,638.62911 h -3.5"
                    style="fill:#000000;fill-opacity:1;fill-rule:nonzero;stroke:#000000;stroke-width:0.8;stroke-linecap:butt;stroke-linejoin:round;stroke-miterlimit:10;stroke-dasharray:none;stroke-opacity:1"
                    id="path232"/>
            <g
                    id="g234"
                    transform="translate(69.29025,631.02755)">
                <text
                        xml:space="preserve"
                        transform="scale(1,-1)"
                        style="font-variant:normal;font-weight:normal;font-size:20px;font-family:'DejaVu Sans';-inkscape-font-specification:DejaVuSans;writing-mode:lr-tb;fill:#0000ff;fill-opacity:1;fill-rule:nonzero;stroke:none"
                        id="text238"><tspan
             x="0 12.72 25.440001 38.16 50.880001"
             y="0"
             id="tspan236">16000</tspan></text>
            </g>
            <g
                    id="g240"
                    transform="rotate(90,-114.35232,175.48632)">
                <text
                        xml:space="preserve"
                        transform="scale(1,-1)"
                        style="font-variant:normal;font-weight:normal;font-size:20px;font-family:'DejaVu Sans';-inkscape-font-specification:DejaVuSans;writing-mode:lr-tb;fill:#0000ff;fill-opacity:1;fill-rule:nonzero;stroke:none"
                        id="text244"><tspan
             x="0 13.33625 24.33625 35.33625 47.576248 60.256248 72.936249 80.776253 87.136253 99.776253 112.47625 125.15625 130.71625 138.55624"
             y="0"
             id="tspan242">Account Equity</tspan></text>
            </g>
        </g>
        <g
                id="g246">
            <g
                    id="g248"
                    clip-path="url(#clipPath252)">
                <path
                        d="m 191.18182,110.41895 1.18062,1.23231 1.18061,-2.70125 1.18062,-1.13146 1.18062,7.22212 1.18061,20.83013 1.18062,17.0381 1.18062,6.7622 1.18062,4.96301 1.18061,0.92578 1.18062,-2.60664 1.18062,-1.47438 1.18061,-2.27199 3.54186,-8.12186 1.18061,-1.9856 1.18062,-2.62188 1.18062,-1.51108 1.18061,-4.12917 1.18062,-2.41907 1.18062,30.50846 1.18062,-2.39985 1.18061,-0.34882 1.18062,-4.24048 1.18062,-1.19033 1.18062,-3.14284 1.18061,-2.45877 1.18062,0.053 1.18062,0.31738 1.18061,22.88787 1.18062,-3.91928 1.18062,11.28689 1.18062,0.0182 1.18061,-3.16906 1.18062,1.51878 2.36123,-7.09631 1.18062,-2.70817 3.54185,-9.40884 1.18062,-2.87062 1.18062,2.50974 1.18062,-4.21226 1.18061,-3.14448 1.18062,-2.66872 1.18062,-3.18497 1.18062,-2.23985 1.18061,-2.68076 1.18062,-2.25203 1.18062,-2.56697 1.18061,-2.14685 1.18062,-2.60389 1.18062,6.45793 1.18061,0.11186 1.18062,0.4237 1.18062,0.67708 1.18062,6.31011 1.18061,3.39182 1.18062,0.0428 1.18062,1.11402 1.18062,0.0341 1.18061,0.39318 1.18062,0.13338 1.18062,6.26032 1.18061,0.55339 1.18062,-1.82207 2.36124,-4.31471 1.18061,-0.25251 1.18062,-0.0171 3.54185,-6.38859 1.18062,-2.63988 1.18062,-2.24314 1.18061,-3.04031 1.18062,-2.04615 1.18062,-1.68198 1.18062,-2.15638 1.18061,-1.91484 1.18062,-2.37368 1.18062,1.44685 1.18062,-2.01757 4.72246,-9.03917 1.18062,-4.13233 1.18062,-1.71038 1.18062,-4.37843 1.18061,-1.77884 1.18062,0.14727 1.18062,0.28755 1.18061,0.056 1.18062,-1.39446 1.18062,0.54827 1.18062,-1.61491 1.18061,1.01525 1.18062,-1.94296 1.18062,-0.69578 1.18062,-1.67455 1.18061,31.83997 2.36124,-4.98174 2.36123,0.30922 1.18062,2.06284 2.36123,-3.56827 1.18062,-0.0354 1.18062,-2.11081 1.18061,-1.59851 1.18062,-0.75371 1.18062,-1.53529 1.18062,-3.75423 2.36123,-4.21402 1.18062,-1.5141 1.18062,-0.34728 1.18061,12.14565 1.18062,23.3276 1.18062,12.14441 1.18061,23.32551 1.18062,8.22599 4.72247,28.75781 1.18062,0.005 1.18061,-2.04098 2.36124,-5.67058 2.36123,-6.9723 1.18062,8.03092 1.18062,-2.77927 1.18061,-3.50881 1.18062,-2.7005 1.18062,7.91288 1.18062,34.58984 1.18061,-2.44706 1.18062,-1.93908 1.18062,-1.49789 1.18061,-0.38831 2.36124,-3.20779 1.18062,-1.36771 2.36123,-3.39839 4.72247,-6.46124 1.18062,-1.27095 1.18061,-1.44159 1.18062,9.98279 1.18062,2.88246 2.36123,-2.16548 1.18062,-1.73916 1.18062,0.11336 1.18062,0.40181 2.36123,27.51622 2.36123,28.55059 1.18062,-1.61856 1.18062,0.57553 2.36123,-2.82491 1.18062,13.30298 4.72247,-5.19059 1.18062,-1.84417 1.18061,-0.88593 1.18062,0.18394 3.54185,-5.4924 1.18062,1.37294 1.18062,-0.0944 1.18061,5.5756 1.18062,1.71372 1.18062,1.32354 1.18061,-1.85028 1.18062,0.0392 1.18062,0.70437 1.18062,-0.73481 1.18061,-1.81546 1.18062,2.67679 1.18062,2.24185 1.18062,-0.6046 1.18061,0.999 1.18062,4.11005 1.18062,0.0165 1.18062,0.61627 2.36123,-3.23961 1.18062,-2.51506 2.36123,-2.89912 1.18062,0.34815 1.18061,-1.38739 1.18062,0.24706 1.18062,5.04767 1.18062,1.60974 1.18061,2.51556 1.18062,0.0102 1.18062,-1.76391 1.18062,-0.97652 1.18061,-0.78621 4.72247,-5.79864 2.36124,-2.5423 2.36123,-2.21208 1.18062,-1.12554 1.18062,0.007 2.36123,-2.34021 1.18062,-2.32389 1.18061,0.64819 1.18062,0.0843 2.36124,23.36762 8.26432,-9.10725 1.18061,-0.002 1.18062,13.00915 1.18062,6.65577 2.36123,-2.73464 1.18062,13.00974 1.18062,-1.18388 2.36123,25.80515 1.18062,2.41213 1.18062,9.92488 1.18061,-1.23567 1.18062,9.92453 1.18062,0.0315 1.18061,-2.50154 1.18062,0.79001 1.18062,-3.40031 1.18062,-2.30666 1.18061,-3.854 1.18062,-2.38703 2.36124,-3.88221 1.18061,0.27432 1.18062,17.3732 2.36123,-4.00473 1.18062,0.0467 1.18062,4.43284 1.18062,-2.30632 1.18061,0.47795 1.18062,-1.2125 1.18062,-1.72106 1.18062,-2.09562 1.18061,19.249 1.18062,-1.84295 1.18062,-2.13219 1.18061,-2.72946 2.36124,-3.12132 1.18062,-2.15624 1.18061,-1.56273 2.36124,-3.48032 1.18061,-1.43283 1.18062,-6.14602 1.18062,-0.002 2.36123,-4.20308 1.18062,-2.43259 2.36123,-4.11011 1.18062,-2.93276 1.18062,-2.07773 2.36123,0.21587 1.18062,3.00838 1.18062,2.0465 1.18061,0.77238 1.18062,1.17461 1.18062,-1.57934 1.18062,-2.40057 1.18061,-1.55075 1.18062,-3.4381 1.18062,8.41143 1.18062,3.45585 1.18061,-1.81879 1.18062,1.99745 1.18062,0.008 1.18061,-2.19154 1.18062,-2.67018 1.18062,-3.36088 1.18062,-1.83454 1.18061,-1.58387 1.18062,-3.20135 1.18062,-2.5767 1.18061,32.70709 3.54186,-4.86531 1.18061,-2.05002 3.54186,0.0955 1.18061,1.84722 3.54185,0.0904 1.18062,8.15738 4.72247,-5.72934 1.18062,-2.20951 1.18062,-1.64858 2.36123,-6.69807 1.18062,-1.35311 1.18061,-1.83241 2.36124,-4.02223 1.18062,-1.23626 1.18061,-1.46605 2.36124,-2.4302 1.18061,1.36281 1.18062,0.13638 1.18062,-0.44046 1.18062,-1.35836 1.18061,1.3 1.18062,-1.42868 1.18062,-2.51817 1.18061,-1.38698 1.18062,-1.79563 3.54185,-3.08128 1.18062,2.02746 1.18062,2.68708 1.18061,1.73377 1.18062,0.93028 1.18062,-0.29782 1.18062,-1.88386 3.54185,-2.92574 1.18062,5.48375 2.36123,-1.95983 1.18062,5.47961 1.18061,-0.8368 1.18062,-0.6089 1.18062,5.46602 1.18062,-0.92633 1.18061,9.01985 1.18062,5.46154 1.18062,9.01554 2.36123,-1.68723 2.36124,17.68197 1.18061,-0.76531 1.18062,5.93414 1.18062,0.3734 1.18062,-1.98063 1.18061,0.006 1.18062,6.31091 2.36123,-4.15322 5.90309,31.60946 1.18062,-1.29946 1.18062,15.36384 1.18061,6.49744 1.18062,22.18041 1.18062,0.19093 1.18061,40.26519 1.18062,-4.15631 1.18062,-2.13127 1.18062,-1.79124 1.18061,-2.14134 1.18062,-2.4 1.18062,-1.58372 1.18061,2.97693 1.18062,0.006 1.18062,-1.44632 1.18062,-2.20279 1.18061,-1.1166 1.18062,-1.3757 1.18062,-1.669 1.18061,0.54102 2.36124,0.0558 2.36123,2.09214 2.36124,-3.42913 1.18062,12.72649 1.18061,-1.63026 1.18062,-2.26082 1.18062,1.45399 1.18061,-1.84927 1.18062,-1.5459 1.18062,0.98832 1.18062,-1.31853 1.18061,-1.64637 1.18062,-2.038 1.18062,4.06727 1.18061,-4.19498 1.18062,-1.31695 1.18062,-1.87087 1.18062,-1.25505 2.36123,-4.40017 1.18062,1.6453 2.36123,-5.57473 1.18062,-3.39175 1.18062,42.19877 1.18062,-4.17842 1.18061,2.94124 1.18062,2.08536 1.18062,0.13108 1.18061,-2.39179 2.36124,-3.91363 2.36123,-3.54201 1.18062,4.05298 1.18062,-1.89083 1.18061,2.41324 2.36124,-3.91046 1.18062,-1.98071 1.18061,-1.10632 1.18062,-2.89125 1.18062,-1.61939 1.18061,1.69166 1.18062,-0.44423 1.18062,-0.0115 1.18062,-0.74209 2.36123,-3.26699 1.18062,-1.8187 1.18061,-2.81573 2.36124,-4.27222 1.18062,-1.49192 4.72247,-5.29 1.18061,-2.81344 1.18062,-1.32366 1.18062,-2.03011 1.18061,-2.55205 1.18062,-0.95593 1.18062,-1.25435 1.18062,-0.78472 1.18061,-0.19295 1.18062,5.07984 1.18062,-1.17983 1.18061,1.01646 1.18062,-1.13683 1.18062,-6.54228 1.18062,-1.79794 1.18061,-2.89792 2.36124,-0.92924 1.18062,-0.73674 1.18061,11.59168 2.36124,15.64933 1.18061,11.61389 1.18062,8.99209 1.18062,-0.91406 1.18062,8.87978 1.18061,-1.18651 1.18062,-0.93112 1.18062,-2.63021 1.18062,-0.98729 1.18061,-2.02579 2.36124,0.0733 1.18061,6.17429 1.18062,5.22982 1.18062,-0.84001 1.18062,3.71957 1.18061,-1.05815 1.18062,-3.63467 2.36123,-5.84064 1.18062,-2.17895 1.18062,-0.7427 1.18062,-1.47412 1.18061,-1.24249 1.18062,-0.96407 1.18062,-1.70836 1.18061,-2.0947 1.18062,-1.08823 3.54185,0.0956 1.18062,2.39494 2.36124,-2.05627 1.18061,-2.78063 1.18062,-1.24663 1.18062,-1.05544 2.36123,0.0516 1.18062,7.61375 2.36123,0.0203 1.18062,1.07341 1.18062,7.95555 1.18062,-1.10296 1.18061,-0.93732 3.54185,0.0683 1.18062,3.11202 1.18062,-2.83368 2.36123,-2.22707 1.18062,-2.66482 1.18062,-1.03161 1.18061,-2.75699 4.72247,-4.98319 1.18062,-1.10145 1.18062,7.88282 1.18062,-1.04536 1.18061,2.00884 1.18062,-0.14564 1.18062,0.11833 1.18061,1.54052 1.18062,-2.76975 1.18062,-2.47666 1.18062,-1.10635 3.54185,-2.72055 1.18061,8.06641 1.18062,0.41791 1.18062,-0.11295 1.18062,-0.43302 1.18061,1.47547 1.18062,0.9769 2.36124,-1.87537 1.18061,-1.6767 1.18062,-0.50929 1.18062,-2.19448 2.36123,-1.55207 1.18062,3.24875 2.36123,-1.75796 1.18062,0.42956 1.18062,-0.16198 1.18061,0.53758 1.18062,-0.79582 1.18062,-0.56384 2.36123,16.21822 1.18062,0.0239 1.18062,8.37111 1.18061,-0.75827 1.18062,-0.92256 2.36124,16.74441 2.36123,-4.1305 1.18062,-2.17125 2.36123,16.77233 1.18062,2.06243 3.54185,16.15768 1.18062,1.00801 1.18062,-1.36813 1.18061,-2.67863 1.18062,-1.01542 1.18062,0.0252 1.18062,12.58988 1.18061,-1.68929 1.18062,-2.58358 1.18062,23.52111 1.18061,8.20493 1.18062,-0.75289 1.18062,1.72242 1.18061,-2.94355 1.18062,-0.56638 1.18062,-0.96446 1.18062,-1.3503 1.18061,-1.65074 1.18062,-0.89136 1.18062,-1.98987 1.18062,-0.76379 1.18061,-1.53211 1.18062,-1.78606 1.18062,-2.5652 1.18061,-1.72747 1.18062,1.38751 1.18062,-0.87151 1.18062,-0.71927 1.18061,-2.51147 2.36124,-2.15358 1.18062,0.0209 1.18061,-1.24823 1.18062,-0.83439 1.18062,-3.73569 1.18061,41.84122 1.18062,-3.88467 1.18062,-1.70677 1.18062,-0.79861 3.54185,-1.9699 1.18062,-3.13418 1.18061,-1.58642 1.18062,-3.77197 1.18062,-2.22211 1.18061,-0.88016 1.18062,-0.69992 1.18062,-1.01576 1.18061,-2.42505 2.36124,0.0405 1.18062,1.26869 1.18061,-0.78407 1.18062,-1.41513 1.18062,-0.67745 2.36123,-1.55735 1.18062,-0.3674 2.36123,-1.45041 1.18062,-3.51599 2.36124,-1.00372 1.18061,-1.79661 1.18062,-0.66308 1.18062,-4.49627 1.18062,-0.73745 2.36123,-1.11442 2.36123,0.1034 1.18062,3.75776 1.18062,3.32615 1.18062,-2.47429 1.18061,-2.05035 1.18062,-0.68196 2.36123,0.51208 2.36124,0.13067 1.18062,0.0309 1.18061,2.146 1.18059,1.39464 4.7225,-2.0715 2.3612,-0.87071 2.3613,-1.01386 1.1806,1.79457 3.5418,-1.27231 2.3613,0.0469 2.3612,0.98155 1.1806,-0.32598 2.3613,-0.81244 1.1806,-0.32461 1.1806,-0.0308 1.1806,-2.02259 1.1806,-3.94957 1.1806,-1.70195 1.1807,-0.35106 1.1806,-2.42731 3.5418,-1.08316 1.1806,-4.76844 2.3613,0.0451 1.1806,0.67892 1.1806,-0.1084 1.1806,-0.31279 1.1807,7.34791 2.3612,-0.61385 1.1806,7.35039 1.1806,-0.30578 1.1806,10.86579 2.3613,-0.53438 1.1806,1.02978 1.1806,0.0687 1.1806,-0.27347 1.1806,2.91957 1.1807,1.38686 1.1806,-0.53322 1.1806,-2.43796 1.1806,-2.90944 1.1806,-4.44126 1.1806,-1.91504 1.1807,-3.20404 1.1806,-0.45719 2.3612,-0.68491 1.1806,0.74265 1.1806,-0.40481 1.1807,3.41439 2.3612,0.10522 1.1806,-0.34497 3.5419,0.0108 1.1806,0.21134 1.1806,1.23681 1.1806,-0.33617 1.1806,0.38755 2.3613,-0.67797 1.1806,-2.40368 1.1806,-3.72822 1.1806,8.06846 1.1806,-2.26513 1.1807,0.79382 1.1806,-0.23784 1.1806,0.10752 1.1806,3.96354 1.1806,-0.54571 2.3613,-0.75933 1.1806,-1.85696 1.1806,-0.0689 1.1806,-0.30206 1.1806,1.46754 1.1806,-0.75844 1.1807,0.0406 1.1806,2.19192 2.3612,3.2396 1.1806,-0.3076 1.1806,0.38021 1.1807,4.61933 1.1806,-0.3061 1.1806,1.38176 1.1806,-1.087 2.3613,-0.37168 1.1806,-2.54416 1.1806,-2.85092 2.3612,-0.68202 1.1806,-0.26675 1.1807,-0.40721 1.1806,-2.80255 1.1806,-1.98316 2.3612,0.0135 3.5419,-0.91016 2.3612,0.004 2.3612,-0.52442 1.1807,-0.3865 1.1806,0.3396 1.1806,-0.0968 1.1806,-2.63303 1.1806,-1.8561 1.1806,-0.31776 1.1807,-1.81967 1.1806,0.001 4.7225,-1.0416 1.1806,-1.43657 2.3612,-0.44143 2.3612,0.0695 2.3613,-0.46054 3.5418,-0.77647 1.1806,-1.83608 1.1807,-2.34886 7.0837,-1.23558 1.1806,-3.73548 1.1806,3.692 1.1806,0.0213 1.1806,0.63721 1.1806,-0.17994 1.1807,-2.31043 2.3612,-0.36416 1.1806,11.37414 5.9031,-0.86268 1.1806,-1.05078 3.5419,-0.48757 1.1806,-0.14282 1.1806,-2.08586 5.9031,-0.72119 1.1806,-2.43386 1.1806,-0.12226 1.1806,-2.4696 3.5419,-0.35942 1.1806,0.0834 1.1806,-0.0462 2.3613,0.19418 1.1806,-0.12853 v 0"
                        style="fill:none;stroke:#0000ff;stroke-width:1.5;stroke-linecap:square;stroke-linejoin:round;stroke-miterlimit:10;stroke-dasharray:none;stroke-opacity:1"
                        id="path254"/>
            </g>
        </g>
        <g
                id="g256">
            <path
                    d="M 139.884,78.996667 V 651.04"
                    style="fill:none;stroke:#000000;stroke-width:0.8;stroke-linecap:square;stroke-linejoin:miter;stroke-miterlimit:10;stroke-dasharray:none;stroke-opacity:1"
                    id="path258"/>
            <path
                    d="M 1268.436,78.996667 V 651.04"
                    style="fill:none;stroke:#000000;stroke-width:0.8;stroke-linecap:square;stroke-linejoin:miter;stroke-miterlimit:10;stroke-dasharray:none;stroke-opacity:1"
                    id="path260"/>
            <path
                    d="M 139.884,78.996667 H 1268.436"
                    style="fill:none;stroke:#000000;stroke-width:0.8;stroke-linecap:square;stroke-linejoin:miter;stroke-miterlimit:10;stroke-dasharray:none;stroke-opacity:1"
                    id="path262"/>
            <path
                    d="M 139.884,651.04 H 1268.436"
                    style="fill:none;stroke:#000000;stroke-width:0.8;stroke-linecap:square;stroke-linejoin:miter;stroke-miterlimit:10;stroke-dasharray:none;stroke-opacity:1"
                    id="path264"/>
            <path
                    d="m 1084.2329,88.996667 h 170.2031 c 2.6667,0 4,1.333333 4,4 v 56.718753 c 0,2.66666 -1.3333,4 -4,4 h -170.2031 c -2.6667,0 -4,-1.33334 -4,-4 V 92.996667 c 0,-2.666667 1.3333,-4 4,-4 z"
                    style="fill:#ffffff;fill-opacity:0.8;fill-rule:nonzero;stroke:#cccccc;stroke-width:1;stroke-linecap:butt;stroke-linejoin:miter;stroke-miterlimit:10;stroke-dasharray:none;stroke-opacity:0.8"
                    id="path266"/>
            <path
                    d="m 1088.2329,137.51229 h 20 20"
                    style="fill:none;stroke:#0000ff;stroke-width:1.5;stroke-linecap:square;stroke-linejoin:round;stroke-miterlimit:10;stroke-dasharray:none;stroke-opacity:1"
                    id="path268"/>
            <g
                    id="g270"
                    transform="translate(1144.2329,130.51229)">
                <text
                        xml:space="preserve"
                        transform="scale(1,-1)"
                        style="font-variant:normal;font-weight:normal;font-size:20px;font-family:'DejaVu Sans';-inkscape-font-specification:DejaVuSans;writing-mode:lr-tb;fill:#000000;fill-opacity:1;fill-rule:nonzero;stroke:none"
                        id="text274"><tspan
             x="0 12.64 25.34 38.02 43.580002 51.419998"
             y="0"
             id="tspan272">Equity</tspan></text>
            </g>
            <path
                    d="m 1088.2329,101.15292 h 40 v 14 h -40 z"
                    style="fill:#ff0000;fill-opacity:0.3;fill-rule:nonzero;stroke:#ff0000;stroke-width:1;stroke-linecap:butt;stroke-linejoin:miter;stroke-miterlimit:10;stroke-dasharray:none;stroke-opacity:0.3"
                    id="path276"/>
            <g
                    id="g278"
                    transform="translate(1144.2329,101.15292)">
                <text
                        xml:space="preserve"
                        transform="scale(1,-1)"
                        style="font-variant:normal;font-weight:normal;font-size:20px;font-family:'DejaVu Sans';-inkscape-font-specification:DejaVuSans;writing-mode:lr-tb;fill:#000000;fill-opacity:1;fill-rule:nonzero;stroke:none"
                        id="text282"><tspan
             x="0 15.4 23.620001 35.880001 52.240002 64.940002 77.18 93.540001"
             y="0"
             id="tspan280">Drawdown</tspan></text>
            </g>
        </g>
        <g
                id="g284">
            <g
                    id="g286"
                    clip-path="url(#clipPath290)">
                <path
                        d="m 191.18182,625.03803 v 0 h 1.18062 l 1.18061,-22.67226 1.18062,-9.49659 1.18062,32.16885 h 1.18061 1.18062 1.18062 1.18062 1.18061 l 1.18062,-17.91815 1.18062,-10.13496 1.18061,-15.6178 1.18062,-18.35175 1.18062,-18.17372 1.18062,-19.30467 1.18061,-13.64916 1.18062,-18.02293 1.18062,-10.38725 1.18061,-28.38413 1.18062,-16.62883 1.18062,186.57335 1.18062,-16.31228 1.18061,-2.37105 1.18062,-28.82344 1.18062,-8.09097 1.18062,-21.36255 1.18061,-16.71276 1.18062,0.36032 1.18062,2.15734 1.18061,91.15539 1.18062,-25.82754 1.18062,25.82754 h 1.18062 l 1.18061,-20.39875 1.18062,9.77611 1.18062,-23.00726 1.18061,-22.67057 1.18062,-17.43208 1.18062,-20.56098 1.18062,-20.86775 1.18061,-19.13458 1.18062,-18.47775 1.18062,16.15481 1.18062,-27.11365 1.18061,-20.24056 1.18062,-17.17816 1.18062,-20.50119 1.18062,-14.41758 1.18061,-17.25561 1.18062,-14.49599 1.18062,-16.52316 1.18061,-13.81899 1.18062,-16.76087 1.18062,41.56874 1.18061,0.72004 1.18062,2.72725 1.18062,4.35833 1.18062,40.61718 1.18061,21.83264 1.18062,0.27548 1.18062,7.17084 1.18062,0.21964 1.18061,2.53084 1.18062,0.85856 1.18062,40.29673 1.18061,3.56211 1.18062,-11.72841 1.18062,-13.35175 1.18062,-14.42138 1.18061,-1.62536 1.18062,-0.10976 1.18062,-13.6172 1.18061,-13.62896 1.18062,-13.8762 1.18062,-16.99254 1.18062,-14.43873 1.18061,-19.57007 1.18062,-13.17071 1.18062,-10.82667 1.18062,-13.88028 1.18061,-12.32552 1.18062,-15.27902 1.18062,9.3131 1.18062,-12.98678 1.18061,-14.78439 1.18062,-13.58323 1.18062,-15.63059 1.18061,-14.18558 1.18062,-26.59913 1.18062,-11.00946 1.18062,-28.18334 1.18061,-11.45008 1.18062,0.94794 1.18062,1.85092 1.18061,0.3607 1.18062,-8.97592 1.18062,3.52913 1.18062,-10.39497 1.18061,6.53504 1.18062,-12.50656 1.18062,-4.4786 1.18062,-10.77885 1.18061,204.94913 1.18062,-15.55504 1.18062,-16.51168 1.18061,1.03934 1.18062,0.95104 1.18062,13.27823 1.18062,-11.48887 1.18061,-11.47956 1.18062,-0.22797 1.18062,-13.58693 1.18061,-10.28939 1.18062,-4.85154 1.18062,-9.8824 1.18062,-24.1654 1.18061,-13.19973 1.18062,-13.92528 1.18062,-9.74605 1.18062,-2.23542 1.18061,78.17973 1.18062,150.1563 1.18062,78.17171 1.18061,150.14282 1.18062,0.31635 h 1.18062 1.18061 1.18062 1.18062 1.18062 l 1.18061,-11.77045 1.18062,-15.97194 1.18062,-16.73072 1.18062,-21.02367 1.18061,-19.18602 1.18062,46.31485 1.18062,-16.02825 1.18061,-20.23556 1.18062,-15.57396 1.18062,45.63414 1.18062,44.57158 1.18061,-13.1197 1.18062,-10.39617 1.18062,-8.0308 1.18061,-2.08186 1.18062,-8.54481 1.18062,-8.65344 1.18062,-7.33286 1.18061,-9.3626 1.18062,-8.85752 1.18062,-8.79778 1.18062,-8.32927 1.18061,-8.81933 1.18062,-8.6949 1.18062,-6.81409 1.18061,-7.72897 1.18062,53.52177 1.18062,15.45402 1.18062,-5.78047 1.18061,-5.82954 1.18062,-9.32435 1.18062,0.60778 1.18062,2.15426 1.18061,70.99416 1.18062,3.76647 h 1.18062 1.18061 l 1.18062,-7.81564 1.18062,2.77912 1.18061,-7.14062 1.18062,-6.50017 1.18062,18.67731 1.18062,-6.11492 1.18061,-5.84967 1.18062,-6.59017 1.18062,-5.96369 1.18062,-8.71122 1.18061,-4.18479 1.18062,0.86886 1.18062,-8.36256 1.18061,-8.52652 1.18062,-9.05502 1.18062,6.48524 1.18062,-0.44572 1.18061,26.33711 1.18062,8.09502 1.18062,6.25191 1.18061,-8.74005 1.18062,0.18519 1.18062,3.32719 1.18062,-3.47101 1.18061,-8.57557 1.18062,12.6442 1.18062,10.58968 1.18062,-2.8559 1.18061,4.71889 1.18062,7.94352 h 1.18062 1.18062 l 1.18061,-7.81877 1.18062,-7.37668 1.18062,-11.79691 1.18061,-7.135 1.18062,-6.46335 1.18062,1.63302 1.18061,-6.50759 1.18062,1.15882 1.18062,23.67615 1.18062,7.55051 1.18061,11.79929 1.18062,0.0478 1.18062,-8.27364 1.18062,-4.58039 1.18061,-3.6877 1.18062,-6.95911 1.18062,-6.76066 1.18061,-6.94982 1.18062,-6.529 1.18062,-6.00858 1.18062,-5.9161 1.18061,-4.89119 1.18062,-5.48459 1.18062,-5.27938 1.18062,0.0349 1.18061,-5.8141 1.18062,-5.16266 1.18062,-10.90023 1.18061,3.04034 1.18062,0.39553 1.18062,53.94022 1.18062,37.0188 1.18061,-5.95226 1.18062,-5.68687 1.18062,-5.64141 1.18061,-6.39318 1.18062,-6.02758 1.18062,-6.56601 1.18062,-6.06479 1.18061,-0.0103 1.18062,42.34242 h 1.18062 l 1.18061,-6.33739 1.18062,-6.07621 1.18062,12.4136 1.18062,-5.25442 1.18061,5.25442 h 1.18062 1.18062 1.18062 l 1.18061,-5.07744 1.18062,5.07744 h 1.18062 l 1.18061,-10.10217 1.18062,3.19036 1.18062,-13.73175 1.18062,-9.31519 1.18061,-15.56392 1.18062,-9.63974 1.18062,-8.09375 1.18062,-7.58408 1.18061,1.10782 1.18062,69.73242 1.18062,-7.71707 1.18061,-8.45218 1.18062,0.18867 1.18062,15.98058 1.18062,-9.30313 1.18061,1.92794 1.18062,-4.89096 1.18062,-6.94235 1.18062,-8.45323 1.18061,27.66173 1.18062,-7.25684 1.18062,-8.39576 1.18061,-10.74762 1.18062,-6.20407 1.18062,-6.08652 1.18062,-8.49046 1.18061,-6.15345 1.18062,-6.97024 1.18062,-6.73399 1.18061,-5.64192 1.18062,-24.20075 1.18062,-0.006 1.18062,-8.17626 1.18061,-8.3739 1.18062,-9.57865 1.18062,-7.85466 1.18061,-8.32943 1.18062,-11.54809 1.18062,-8.18135 1.18062,0.45538 1.18061,0.39462 1.18062,11.84588 1.18062,8.05838 1.18061,3.04135 1.18062,4.62516 1.18062,-6.21884 1.18062,-9.45256 1.18061,-6.10629 1.18062,-13.53795 1.18062,33.12108 1.18062,13.60787 1.18061,-7.16174 1.18062,7.86521 1.18062,0.032 1.18061,-8.6295 1.18062,-10.51416 1.18062,-13.23388 1.18062,-7.22376 1.18061,-6.23669 1.18062,-12.60572 1.18062,-10.14607 1.18061,128.78832 1.18062,-6.29434 1.18062,-6.88888 1.18062,-5.97454 1.18061,-8.07223 1.18062,0.0286 1.18062,0.24315 1.18062,0.10449 1.18061,7.27369 1.18062,0.026 1.18062,0.11207 1.18061,0.2178 1.18062,32.12071 1.18062,-5.55001 1.18062,-5.83349 1.18061,-5.49997 1.18062,-5.67653 1.18062,-8.70022 1.18062,-6.49149 1.18061,-13.08981 1.18062,-13.28469 1.18062,-5.32803 1.18061,-7.21535 1.18062,-8.07331 1.18062,-7.76475 1.18062,-4.86795 1.18061,-5.77273 1.18062,-4.67006 1.18062,-4.89918 1.18061,5.36626 1.18062,0.537 1.18062,-1.73437 1.18062,-5.34871 1.18061,5.11891 1.18062,-5.6256 1.18062,-9.91561 1.18061,-5.46144 1.18062,-7.0705 1.18062,-3.97847 1.18062,-4.01647 1.18061,-4.138 1.18062,7.98339 1.18062,10.58072 1.18061,6.82695 1.18062,3.66309 1.18062,-1.1727 1.18062,-7.41796 1.18061,-3.87809 1.18062,-3.65511 1.18062,-3.98729 1.18062,21.59298 1.18061,-4.01991 1.18062,-3.69717 1.18062,21.57668 1.18061,-3.295 1.18062,-2.39766 1.18062,21.52318 1.18062,-3.64755 1.18061,35.51682 1.18062,21.50549 1.18062,35.49985 1.18061,-3.52196 1.18062,-3.12174 1.18062,34.81233 1.18062,16.98102 1.18061,-2.9875 1.18062,2.9875 h 1.18062 l 1.18062,-7.65079 1.18061,0.0247 1.18062,7.62608 1.18062,-7.88723 1.18061,-8.02565 1.18062,15.91288 h 1.18062 1.18062 1.18061 1.18062 l 1.18062,-4.73551 1.18062,4.73551 h 1.18061 1.18062 1.18062 1.18061 l 1.18062,-13.1927 1.18062,-6.76499 1.18062,-5.68565 1.18061,-6.79693 1.18062,-7.61794 1.18062,-5.02697 1.18061,9.44922 1.18062,0.018 1.18062,-4.59082 1.18062,-6.99198 1.18061,-3.54427 1.18062,-4.36666 1.18062,-5.29765 1.18061,1.71728 1.18062,-0.0135 1.18062,0.19076 1.18062,3.46186 1.18061,3.1789 1.18062,-5.50499 1.18062,-5.37957 1.18062,40.39572 1.18061,-5.17469 1.18062,-7.17617 1.18062,4.61519 1.18061,-5.86986 1.18062,-4.9069 1.18062,3.13708 1.18062,-4.18522 1.18061,-5.22583 1.18062,-6.46891 1.18062,12.91013 1.18061,-13.31549 1.18062,-4.1802 1.18062,-5.9384 1.18062,-3.98372 1.18061,-7.35741 1.18062,-6.60937 1.18062,5.2224 1.18062,-8.7978 1.18061,-8.89719 1.18062,-10.76592 1.18062,105.33121 1.18062,-13.08009 1.18061,9.20725 1.18062,3.87284 h 1.18062 l 1.18061,-7.47606 1.18062,-6.34126 1.18062,-5.89165 1.18061,-5.24815 1.18062,-5.82315 1.18062,12.66847 1.18062,-5.9102 1.18061,7.54309 1.18062,-5.91224 1.18062,-6.31075 1.18062,-6.19111 1.18061,-3.45804 1.18062,-9.03725 1.18062,-5.06176 1.18061,5.28767 1.18062,-1.38855 1.18062,-0.036 1.18062,-2.31957 1.18061,-4.82052 1.18062,-5.39118 1.18062,-5.68471 1.18061,-8.80118 1.18062,-6.6439 1.18062,-6.70983 1.18062,-4.66333 1.18061,-4.07946 1.18062,-3.98127 1.18062,-4.5215 1.18062,-3.95281 1.18061,-8.794 1.18062,-4.13741 1.18062,-6.34553 1.18061,-7.97699 1.18062,-2.98797 1.18062,-3.92074 1.18062,-2.45279 1.18061,-0.60312 1.18062,15.87814 1.18062,-3.68782 1.18061,3.17718 1.18062,-3.55342 1.18062,-20.44929 1.18062,-5.61985 1.18061,-9.05808 1.18062,-1.53627 1.18062,-1.36828 1.18062,-2.30284 1.18061,36.23229 1.18062,24.45811 1.18062,24.45726 1.18061,36.30171 1.18062,28.1067 1.18062,-2.85708 1.18062,27.75566 1.18061,-3.7087 1.18062,-2.91041 1.18062,-8.22128 1.18062,-3.08599 1.18061,-6.33206 1.18062,0.0935 1.18062,0.13569 1.18061,19.29907 1.18062,6.17078 1.18062,-2.61264 1.18062,2.61264 1.18061,-3.27679 1.18062,-11.25552 1.18062,-8.6979 1.18061,-9.38887 1.18062,-6.74756 1.18062,-2.29992 1.18062,-4.56494 1.18061,-3.84763 1.18062,-2.98542 1.18062,-5.29031 1.18061,-6.48668 1.18062,-3.36993 1.18062,0.0671 1.18062,0.2052 1.18061,0.0238 1.18062,7.41646 1.18062,-3.23288 1.18062,-3.1348 1.18061,-8.6108 1.18062,-3.86045 1.18062,-3.26839 1.18061,0.0679 1.18062,0.0918 1.18062,23.57757 1.18062,0.0246 1.18061,0.0381 1.18062,3.32403 1.18062,24.63603 1.18062,-3.41554 1.18061,-2.9026 1.18062,0.0225 1.18062,0.12779 1.18061,0.0613 1.18062,9.637 1.18062,-8.77507 1.18062,-3.62005 1.18061,-3.27655 1.18062,-8.25218 1.18062,-3.19458 1.18061,-8.5376 1.18062,-3.95127 1.18062,-4.04734 1.18062,-3.81435 1.18061,-3.61854 1.18062,-3.41086 1.18062,24.41081 1.18062,-3.23718 1.18061,6.22079 1.18062,-0.45101 1.18062,0.36643 1.18061,4.77054 1.18062,-8.57711 1.18062,-7.66947 1.18062,-3.42605 1.18061,-2.93913 1.18062,-2.90251 1.18062,-2.58312 1.18061,24.97933 1.18062,1.29413 1.18062,-0.34975 1.18062,-1.34096 1.18061,4.5691 1.18062,3.02518 1.18062,-2.99048 1.18062,-2.81698 1.18061,-5.19225 1.18062,-1.57713 1.18062,-6.79567 1.18061,-2.3935 1.18062,-2.41281 1.18062,10.06043 1.18061,-2.77716 1.18062,-2.66671 1.18062,1.33022 1.18062,-0.50161 1.18061,1.66471 1.18062,-2.4644 1.18062,-1.74606 1.18062,25.10887 1.18061,25.11425 1.18062,0.074 1.18062,16.63631 1.18061,-2.33755 1.18062,-2.84401 1.18062,5.18156 h 1.18062 l 1.18061,-5.92244 1.18062,-6.52835 1.18062,-6.54492 1.18062,18.99571 h 1.18061 1.18062 1.18062 1.18061 1.18062 1.18062 l 1.18062,-3.95126 1.18061,-7.73608 1.18062,-2.9326 1.18062,0.0728 1.18062,14.54719 1.18061,-4.82735 1.18062,-7.3829 1.18062,12.21025 h 1.18061 l 1.18062,-2.07208 1.18062,2.07208 1.18061,-8.09059 1.18062,-1.55675 1.18062,-2.6509 1.18062,-3.71139 1.18061,-4.53721 1.18062,-2.44998 1.18062,-5.4693 1.18062,-2.09936 1.18061,-4.21113 1.18062,-4.90914 1.18062,-7.05065 1.18061,-4.7481 1.18062,3.81368 1.18062,-2.39542 1.18062,-1.97697 1.18061,-6.90298 1.18062,-3.00632 1.18062,-2.91297 1.18062,0.0574 1.18061,-3.43084 1.18062,-2.2934 1.18062,-10.26787 1.18061,80.80021 1.18062,-10.50189 1.18062,-4.61412 1.18062,-2.15896 1.18061,-1.72144 1.18062,-1.54088 1.18062,-2.06316 1.18062,-8.473 1.18061,-4.28874 1.18062,-10.19721 1.18062,-6.00731 1.18061,-2.37943 1.18062,-1.89219 1.18062,-2.74602 1.18061,-6.55593 1.18062,0.0743 1.18062,0.0352 1.18062,3.42979 1.18061,-2.11965 1.18062,-3.8257 1.18062,-1.83143 1.18062,-2.21931 1.18061,-1.99086 1.18062,-0.99322 1.18062,-1.97996 1.18061,-1.94112 1.18062,-9.5052 1.18062,-1.28119 1.18062,-1.43227 1.18061,-4.85701 1.18062,-1.79257 1.18062,-12.15529 1.18062,-1.99365 1.18061,-1.43505 1.18062,-1.5777 1.18062,0.13889 1.18061,0.14065 1.18062,10.1588 1.18062,8.99198 1.18062,-6.68905 1.18061,-5.54294 1.18062,-1.84364 1.18062,0.7853 1.18061,0.59908 1.18062,0.24767 1.18062,0.10559 1.18062,0.0834 1.18061,5.80153 1.18059,3.77029 1.1806,-1.40072 1.1807,-1.35963 1.1806,-1.454 1.1806,-1.38577 1.1806,-1.05674 1.1806,-1.29716 1.1807,-1.25208 1.1806,-1.48881 1.1806,4.85146 1.1806,-1.21925 1.1806,-0.98141 1.1806,-1.2389 1.1807,0.0366 1.1806,0.0901 1.1806,1.23676 1.1806,1.41677 1.1806,-0.88125 1.1806,-1.19553 1.1807,-1.00083 1.1806,-0.87756 1.1806,-0.0832 1.1806,-5.4679 1.1806,-10.67733 1.1806,-4.60108 1.1807,-0.94907 1.1806,-6.56204 1.1806,-1.06153 1.1806,-0.86911 1.1806,-0.9976 1.1806,-12.89106 1.1807,0.0141 1.1806,0.1079 1.1806,1.83543 1.1806,-0.29307 1.1806,-0.84559 1.1807,19.86449 1.1806,-0.85674 1.1806,-0.80276 1.1806,19.87116 1.1806,-0.82664 1.1806,29.37478 1.1807,-0.79008 1.1806,-0.65458 1.1806,2.78393 1.1806,0.1856 1.1806,-0.73932 1.1806,7.89282 1.1807,3.74927 1.1806,-1.44153 1.1806,-6.59082 1.1806,-7.86543 1.1806,-12.00657 1.1806,-5.17717 1.1807,-8.66187 1.1806,-1.23597 1.1806,-0.88915 1.1806,-0.96243 1.1806,2.00768 1.1806,-1.09438 1.1807,9.23054 1.1806,0.20636 1.1806,0.0781 1.1806,-0.93258 1.1806,-10e-4 1.1807,0.0236 1.1806,0.007 1.1806,0.57134 1.1806,3.34361 1.1806,-0.90881 1.1806,1.04772 1.1807,-0.93338 1.1806,-0.89946 1.1806,-6.49815 1.1806,-10.07892 1.1806,21.81241 1.1806,-6.1236 1.1807,2.14602 1.1806,-0.64298 1.1806,0.29068 1.1806,10.71511 1.1806,-1.47529 1.1806,-0.89763 1.1807,-1.15515 1.1806,-5.02014 1.1806,-0.1863 1.1806,-0.8166 1.1806,3.96737 1.1806,-2.05036 1.1807,0.10977 1.1806,5.92569 1.1806,4.39722 1.1806,4.36076 1.1806,-0.83157 1.1806,1.02789 1.1807,12.48796 1.1806,-0.82752 1.1806,3.73548 1.1806,-2.93862 1.1806,-0.43533 1.1807,-0.56946 1.1806,-6.87794 1.1806,-7.70722 1.1806,-0.96222 1.1806,-0.88156 1.1806,-0.72114 1.1807,-1.10088 1.1806,-7.57645 1.1806,-5.36133 1.1806,-0.005 1.1806,0.0412 1.1806,-0.80847 1.1807,-0.83858 1.1806,-0.81349 1.1806,0.0883 1.1806,-0.0788 1.1806,-0.65026 1.1806,-0.76748 1.1807,-1.04486 1.1806,0.91808 1.1806,-0.26178 1.1806,-7.11819 1.1806,-5.0178 1.1806,-0.85903 1.1807,-4.91933 1.1806,0.003 1.1806,-0.73472 1.1806,-0.46968 1.1806,-0.90443 1.1807,-0.70703 1.1806,-3.88366 1.1806,-0.58901 1.1806,-0.60438 1.1806,0.19515 1.1806,-0.007 1.1807,-0.54056 1.1806,-0.70447 1.1806,-0.76468 1.1806,-0.80115 1.1806,-0.5333 1.1806,-4.96368 1.1807,-6.34996 1.1806,-0.6076 1.1806,-0.64481 1.1806,-0.52306 1.1806,-0.51001 1.1806,-0.49725 1.1807,-0.55755 1.1806,-10.09857 1.1806,9.981 1.1806,0.0577 1.1806,1.72264 1.1806,-0.48645 1.1807,-6.24607 1.1806,-0.50008 1.1806,-0.48439 1.1806,30.74904 1.1806,-0.48727 1.1807,-0.50402 1.1806,-0.48213 1.1806,-0.41123 1.1806,-0.44754 1.1806,-2.84068 1.1806,-0.50823 1.1807,-0.21615 1.1806,-0.59372 1.1806,-0.38612 1.1806,-5.63894 1.1806,-0.34412 1.1806,-0.44111 1.1807,-0.39427 1.1806,-0.39842 1.1806,-0.37178 1.1806,-6.57972 1.1806,-0.33052 1.1806,-6.67638 1.1807,-0.33156 1.1806,-0.31061 1.1806,-0.32949 1.1806,0.22538 1.1806,-0.12494 1.1806,0.37252 1.1807,0.15244 1.1806,-0.34748 v 158.26327 0 h -1.1806 -1.1807 -1.1806 -1.1806 -1.1806 -1.1806 -1.1806 -1.1807 -1.1806 -1.1806 -1.1806 -1.1806 -1.1806 -1.1807 -1.1806 -1.1806 -1.1806 -1.1806 -1.1806 -1.1807 -1.1806 -1.1806 -1.1806 -1.1806 -1.1806 -1.1807 -1.1806 -1.1806 -1.1806 -1.1806 -1.1807 -1.1806 -1.1806 -1.1806 -1.1806 -1.1806 -1.1807 -1.1806 -1.1806 -1.1806 -1.1806 -1.1806 -1.1807 -1.1806 -1.1806 -1.1806 -1.1806 -1.1806 -1.1807 -1.1806 -1.1806 -1.1806 -1.1806 -1.1806 -1.1807 -1.1806 -1.1806 -1.1806 -1.1806 -1.1807 -1.1806 -1.1806 -1.1806 -1.1806 -1.1806 -1.1807 -1.1806 -1.1806 -1.1806 -1.1806 -1.1806 -1.1807 -1.1806 -1.1806 -1.1806 -1.1806 -1.1806 -1.1807 -1.1806 -1.1806 -1.1806 -1.1806 -1.1806 -1.1807 -1.1806 -1.1806 -1.1806 -1.1806 -1.1807 -1.1806 -1.1806 -1.1806 -1.1806 -1.1806 -1.1807 -1.1806 -1.1806 -1.1806 -1.1806 -1.1806 -1.1807 -1.1806 -1.1806 -1.1806 -1.1806 -1.1806 -1.1807 -1.1806 -1.1806 -1.1806 -1.1806 -1.1806 -1.1807 -1.1806 -1.1806 -1.1806 -1.1806 -1.1806 -1.1807 -1.1806 -1.1806 -1.1806 -1.1806 -1.1807 -1.1806 -1.1806 -1.1806 -1.1806 -1.1806 -1.1807 -1.1806 -1.1806 -1.1806 -1.1806 -1.1806 -1.1807 -1.1806 -1.1806 -1.1806 -1.1806 -1.1806 -1.1807 -1.1806 -1.1806 -1.1806 -1.1806 -1.1806 -1.1807 -1.1806 -1.1806 -1.1806 -1.1806 -1.1807 -1.1806 -1.1806 -1.1806 -1.1806 -1.1806 -1.1807 -1.1806 -1.1806 -1.1806 -1.1806 -1.1806 -1.1807 -1.1806 -1.1806 -1.1806 -1.1806 -1.1806 -1.1807 -1.1806 -1.1806 -1.1806 -1.1806 -1.1806 -1.1807 -1.1806 -1.1806 -1.1806 -1.1806 -1.1807 -1.1806 -1.18059 -1.18061 -1.18062 -1.18062 -1.18062 -1.18061 -1.18062 -1.18062 -1.18061 -1.18062 -1.18062 -1.18062 -1.18061 -1.18062 -1.18062 -1.18061 -1.18062 -1.18062 -1.18062 -1.18061 -1.18062 -1.18062 -1.18062 -1.18061 -1.18062 -1.18062 -1.18061 -1.18062 -1.18062 -1.18062 -1.18061 -1.18062 -1.18062 -1.18062 -1.18061 -1.18062 -1.18062 -1.18061 -1.18062 -1.18062 -1.18061 -1.18062 -1.18062 -1.18062 -1.18061 -1.18062 -1.18062 -1.18062 -1.18061 -1.18062 -1.18062 -1.18061 -1.18062 -1.18062 -1.18062 -1.18061 -1.18062 -1.18062 -1.18062 -1.18061 -1.18062 -1.18062 -1.18061 -1.18062 -1.18062 -1.18062 -1.18061 -1.18062 -1.18062 -1.18062 -1.18061 -1.18062 -1.18062 -1.18061 -1.18062 -1.18062 -1.18061 -1.18062 -1.18062 -1.18062 -1.18061 -1.18062 -1.18062 -1.18062 -1.18061 -1.18062 -1.18062 -1.18061 -1.18062 -1.18062 -1.18062 -1.18061 -1.18062 -1.18062 -1.18062 -1.18061 -1.18062 -1.18062 -1.18061 -1.18062 -1.18062 -1.18062 -1.18061 -1.18062 -1.18062 -1.18062 -1.18061 -1.18062 -1.18062 -1.18061 -1.18062 -1.18062 -1.18061 -1.18062 -1.18062 -1.18062 -1.18061 -1.18062 -1.18062 -1.18062 -1.18061 -1.18062 -1.18062 -1.18061 -1.18062 -1.18062 -1.18062 -1.18061 -1.18062 -1.18062 -1.18061 -1.18062 -1.18062 -1.18062 -1.18061 -1.18062 -1.18062 -1.18062 -1.18061 -1.18062 -1.18062 -1.18061 -1.18062 -1.18062 -1.18062 -1.18061 -1.18062 -1.18062 -1.18061 -1.18062 -1.18062 -1.18062 -1.18061 -1.18062 -1.18062 -1.18062 -1.18061 -1.18062 -1.18062 -1.18061 -1.18062 -1.18062 -1.18062 -1.18061 -1.18062 -1.18062 -1.18062 -1.18061 -1.18062 -1.18062 -1.18061 -1.18062 -1.18062 -1.18062 -1.18061 -1.18062 -1.18062 -1.18061 -1.18062 -1.18062 -1.18062 -1.18061 -1.18062 -1.18062 -1.18061 -1.18062 -1.18062 -1.18062 -1.18061 -1.18062 -1.18062 -1.18062 -1.18061 -1.18062 -1.18062 -1.18061 -1.18062 -1.18062 -1.18062 -1.18061 -1.18062 -1.18062 -1.18062 -1.18061 -1.18062 -1.18062 -1.18061 -1.18062 -1.18062 -1.18062 -1.18061 -1.18062 -1.18062 -1.18061 -1.18062 -1.18062 -1.18062 -1.18061 -1.18062 -1.18062 -1.18062 -1.18061 -1.18062 -1.18062 -1.18061 -1.18062 -1.18062 -1.18062 -1.18061 -1.18062 -1.18062 -1.18061 -1.18062 -1.18062 -1.18062 -1.18061 -1.18062 -1.18062 -1.18062 -1.18061 -1.18062 -1.18062 -1.18061 -1.18062 -1.18062 -1.18061 -1.18062 -1.18062 -1.18062 -1.18061 -1.18062 -1.18062 -1.18062 -1.18061 -1.18062 -1.18062 -1.18062 -1.18061 -1.18062 -1.18062 -1.18061 -1.18062 -1.18062 -1.18062 -1.18061 -1.18062 -1.18062 -1.18061 -1.18062 -1.18062 -1.18062 -1.18061 -1.18062 -1.18062 -1.18062 -1.18061 -1.18062 -1.18062 -1.18061 -1.18062 -1.18062 -1.18062 -1.18061 -1.18062 -1.18062 -1.18061 -1.18062 -1.18062 -1.18062 -1.18061 -1.18062 -1.18062 -1.18061 -1.18062 -1.18062 -1.18062 -1.18061 -1.18062 -1.18062 -1.18062 -1.18061 -1.18062 -1.18062 -1.18061 -1.18062 -1.18062 -1.18062 -1.18061 -1.18062 -1.18062 -1.18062 -1.18061 -1.18062 -1.18062 -1.18061 -1.18062 -1.18062 -1.18062 -1.18061 -1.18062 -1.18062 -1.18061 -1.18062 -1.18062 -1.18062 -1.18061 -1.18062 -1.18062 -1.18062 -1.18061 -1.18062 -1.18062 -1.18061 -1.18062 -1.18062 -1.18062 -1.18061 -1.18062 -1.18062 -1.18061 -1.18062 -1.18062 -1.18062 -1.18061 -1.18062 -1.18062 -1.18061 -1.18062 -1.18062 -1.18062 -1.18061 -1.18062 -1.18062 -1.18061 -1.18062 -1.18062 -1.18062 -1.18061 -1.18062 -1.18062 -1.18062 -1.18061 -1.18062 -1.18062 -1.18061 -1.18062 -1.18062 -1.18062 -1.18061 -1.18062 -1.18062 -1.18062 -1.18061 -1.18062 -1.18062 -1.18061 -1.18062 -1.18062 -1.18062 -1.18061 -1.18062 -1.18062 -1.18061 -1.18062 -1.18062 -1.18062 -1.18061 -1.18062 -1.18062 -1.18062 -1.18061 -1.18062 -1.18062 -1.18061 -1.18062 -1.18062 -1.18062 -1.18061 -1.18062 -1.18062 -1.18061 -1.18062 -1.18062 -1.18062 -1.18061 -1.18062 -1.18062 -1.18061 -1.18062 -1.18062 -1.18062 -1.18061 -1.18062 -1.18062 -1.18061 -1.18062 -1.18062 -1.18062 -1.18061 -1.18062 -1.18062 -1.18062 -1.18061 -1.18062 -1.18062 -1.18061 -1.18062 -1.18062 -1.18062 -1.18061 -1.18062 -1.18062 -1.18062 -1.18061 -1.18062 -1.18062 -1.18061 -1.18062 -1.18062 -1.18062 -1.18061 -1.18062 -1.18062 -1.18062 -1.18061 -1.18062 -1.18062 -1.18061 -1.18062 -1.18062 -1.18062 -1.18061 -1.18062 -1.18062 -1.18061 -1.18062 -1.18062 -1.18062 -1.18061 -1.18062 -1.18062 -1.18061 -1.18062 -1.18062 -1.18062 -1.18061 -1.18062 -1.18062 -1.18062 -1.18061 -1.18062 -1.18062 -1.18061 -1.18062 -1.18062 -1.18062 -1.18061 -1.18062 -1.18062 -1.18062 -1.18061 -1.18062 -1.18062 -1.18061 -1.18062 -1.18062 -1.18061 -1.18062 -1.18062 -1.18062 -1.18061 -1.18062 -1.18062 -1.18062 -1.18061 -1.18062 -1.18062 -1.18062 -1.18061 -1.18062 -1.18062 -1.18061 -1.18062 -1.18062 -1.18062 -1.18061 -1.18062 -1.18062 -1.18061 -1.18062 -1.18062 -1.18062 -1.18061 -1.18062 -1.18062 -1.18062 -1.18061 -1.18062 -1.18062 -1.18061 -1.18062 -1.18062 -1.18061 -1.18062 -1.18062 -1.18062 -1.18061 -1.18062 -1.18062 -1.18062 -1.18061 -1.18062 -1.18062 -1.18061 -1.18062 -1.18062 -1.18062 -1.18061 -1.18062 -1.18062 -1.18062 -1.18061 -1.18062 -1.18062 -1.18061 -1.18062 -1.18062 -1.18062 -1.18061 -1.18062 -1.18062 -1.18061 -1.18062 -1.18062 -1.18062 -1.18061 -1.18062 -1.18062 -1.18062 -1.18061 -1.18062 -1.18062 -1.18061 -1.18062 -1.18062 -1.18061 -1.18062 -1.18062 -1.18062 -1.18061 -1.18062 -1.18062 -1.18062 -1.18061 -1.18062 -1.18062 -1.18061 -1.18062 -1.18062 -1.18062 -1.18061 -1.18062 -1.18062 -1.18061 -1.18062 -1.18062 -1.18062 -1.18061 -1.18062 -1.18062 -1.18062 -1.18061 -1.18062 -1.18062 -1.18061 -1.18062 -1.18062 -1.18062 -1.18061 -1.18062 -1.18062 -1.18061 -1.18062 -1.18062 -1.18062 -1.18061 -1.18062 -1.18062 -1.18062 -1.18061 -1.18062 -1.18062 -1.18062 -1.18061 -1.18062 -1.18062 -1.18061 -1.18062 -1.18062 -1.18062 -1.18061 -1.18062 -1.18062 -1.18061 -1.18062 -1.18062 -1.18062 -1.18061 -1.18062 -1.18062 -1.18062 -1.18061 -1.18062 -1.18062 -1.18061 -1.18062 -1.18062 -1.18061 -1.18062 -1.18062 -1.18062 -1.18061 -1.18062 -1.18062 -1.18062 -1.18061 -1.18062 -1.18062 -1.18062 -1.18061 -1.18062 -1.18062 -1.18061 -1.18062 -1.18062 -1.18062 -1.18061 -1.18062 -1.18062 -1.18061 -1.18062 -1.18062 -1.18062 -1.18061 -1.18062 -1.18062 -1.18062 -1.18061 -1.18062 -1.18062 -1.18061 -1.18062 -1.18062 -1.18062 -1.18061 -1.18062 -1.18062 -1.18061 -1.18062 -1.18062 -1.18062 -1.18061 -1.18062 -1.18062 -1.18061 -1.18062 z"
                        style="fill:#ff0000;fill-opacity:0.3;fill-rule:nonzero;stroke:#ff0000;stroke-width:1;stroke-linecap:butt;stroke-linejoin:round;stroke-miterlimit:10;stroke-dasharray:none;stroke-opacity:0.3"
                        id="path292"/>
            </g>
        </g>
        <g
                id="g294">
            <path
                    d="m 1268.436,113.20459 h 3.5"
                    style="fill:#000000;fill-opacity:1;fill-rule:nonzero;stroke:#000000;stroke-width:0.8;stroke-linecap:butt;stroke-linejoin:round;stroke-miterlimit:10;stroke-dasharray:none;stroke-opacity:1"
                    id="path296"/>
            <g
                    id="g298"
                    transform="translate(1275.436,105.60303)">
                <text
                        xml:space="preserve"
                        transform="matrix(1,0,0,-1,16.757812,0)"
                        style="font-variant:normal;font-weight:normal;font-size:20px;font-family:'DejaVu Sans';-inkscape-font-specification:DejaVuSans;writing-mode:lr-tb;fill:#ff0000;fill-opacity:1;fill-rule:nonzero;stroke:none"
                        id="text302"><tspan
             x="0 12.72"
             y="0"
             id="tspan300">25</tspan></text>
                <g
                        id="g304"
                        transform="scale(0.02)">
                    <g
                            id="g306">
                        <g
                                id="g308"
                                clip-path="url(#clipPath312)">
                            <path
                                    d="M 106,355 H 732 V 272 H 106 Z"
                                    style="fill:#ff0000;fill-opacity:1;fill-rule:nonzero;stroke:none"
                                    id="path314"/>
                        </g>
                    </g>
                </g>
            </g>
            <path
                    d="m 1268.436,215.57128 h 3.5"
                    style="fill:#000000;fill-opacity:1;fill-rule:nonzero;stroke:#000000;stroke-width:0.8;stroke-linecap:butt;stroke-linejoin:round;stroke-miterlimit:10;stroke-dasharray:none;stroke-opacity:1"
                    id="path316"/>
            <g
                    id="g318"
                    transform="translate(1275.436,207.96971)">
                <text
                        xml:space="preserve"
                        transform="matrix(1,0,0,-1,16.757812,0)"
                        style="font-variant:normal;font-weight:normal;font-size:20px;font-family:'DejaVu Sans';-inkscape-font-specification:DejaVuSans;writing-mode:lr-tb;fill:#ff0000;fill-opacity:1;fill-rule:nonzero;stroke:none"
                        id="text322"><tspan
             x="0 12.72"
             y="0"
             id="tspan320">20</tspan></text>
                <g
                        id="g324"
                        transform="scale(0.02)">
                    <g
                            id="g326">
                        <g
                                id="g328"
                                clip-path="url(#clipPath332)">
                            <path
                                    d="M 106,355 H 732 V 272 H 106 Z"
                                    style="fill:#ff0000;fill-opacity:1;fill-rule:nonzero;stroke:none"
                                    id="path334"/>
                        </g>
                    </g>
                </g>
            </g>
            <path
                    d="m 1268.436,317.93796 h 3.5"
                    style="fill:#000000;fill-opacity:1;fill-rule:nonzero;stroke:#000000;stroke-width:0.8;stroke-linecap:butt;stroke-linejoin:round;stroke-miterlimit:10;stroke-dasharray:none;stroke-opacity:1"
                    id="path336"/>
            <g
                    id="g338"
                    transform="translate(1275.436,310.3364)">
                <text
                        xml:space="preserve"
                        transform="matrix(1,0,0,-1,16.757812,0)"
                        style="font-variant:normal;font-weight:normal;font-size:20px;font-family:'DejaVu Sans';-inkscape-font-specification:DejaVuSans;writing-mode:lr-tb;fill:#ff0000;fill-opacity:1;fill-rule:nonzero;stroke:none"
                        id="text342"><tspan
             x="0 12.72"
             y="0"
             id="tspan340">15</tspan></text>
                <g
                        id="g344"
                        transform="scale(0.02)">
                    <g
                            id="g346">
                        <g
                                id="g348"
                                clip-path="url(#clipPath352)">
                            <path
                                    d="M 106,355 H 732 V 272 H 106 Z"
                                    style="fill:#ff0000;fill-opacity:1;fill-rule:nonzero;stroke:none"
                                    id="path354"/>
                        </g>
                    </g>
                </g>
            </g>
            <path
                    d="m 1268.436,420.30465 h 3.5"
                    style="fill:#000000;fill-opacity:1;fill-rule:nonzero;stroke:#000000;stroke-width:0.8;stroke-linecap:butt;stroke-linejoin:round;stroke-miterlimit:10;stroke-dasharray:none;stroke-opacity:1"
                    id="path356"/>
            <g
                    id="g358"
                    transform="translate(1275.436,412.70309)">
                <text
                        xml:space="preserve"
                        transform="matrix(1,0,0,-1,16.757812,0)"
                        style="font-variant:normal;font-weight:normal;font-size:20px;font-family:'DejaVu Sans';-inkscape-font-specification:DejaVuSans;writing-mode:lr-tb;fill:#ff0000;fill-opacity:1;fill-rule:nonzero;stroke:none"
                        id="text362"><tspan
             x="0 12.72"
             y="0"
             id="tspan360">10</tspan></text>
                <g
                        id="g364"
                        transform="scale(0.02)">
                    <g
                            id="g366">
                        <g
                                id="g368"
                                clip-path="url(#clipPath372)">
                            <path
                                    d="M 106,355 H 732 V 272 H 106 Z"
                                    style="fill:#ff0000;fill-opacity:1;fill-rule:nonzero;stroke:none"
                                    id="path374"/>
                        </g>
                    </g>
                </g>
            </g>
            <path
                    d="m 1268.436,522.67134 h 3.5"
                    style="fill:#000000;fill-opacity:1;fill-rule:nonzero;stroke:#000000;stroke-width:0.8;stroke-linecap:butt;stroke-linejoin:round;stroke-miterlimit:10;stroke-dasharray:none;stroke-opacity:1"
                    id="path376"/>
            <g
                    id="g378"
                    transform="translate(1275.436,515.06978)">
                <text
                        xml:space="preserve"
                        transform="matrix(1,0,0,-1,16.757812,0)"
                        style="font-variant:normal;font-weight:normal;font-size:20px;font-family:'DejaVu Sans';-inkscape-font-specification:DejaVuSans;writing-mode:lr-tb;fill:#ff0000;fill-opacity:1;fill-rule:nonzero;stroke:none"
                        id="text382"><tspan
             x="0"
             y="0"
             id="tspan380">5</tspan></text>
                <g
                        id="g384"
                        transform="scale(0.02)">
                    <g
                            id="g386">
                        <g
                                id="g388"
                                clip-path="url(#clipPath392)">
                            <path
                                    d="M 106,355 H 732 V 272 H 106 Z"
                                    style="fill:#ff0000;fill-opacity:1;fill-rule:nonzero;stroke:none"
                                    id="path394"/>
                        </g>
                    </g>
                </g>
            </g>
            <path
                    d="m 1268.436,625.03803 h 3.5"
                    style="fill:#000000;fill-opacity:1;fill-rule:nonzero;stroke:#000000;stroke-width:0.8;stroke-linecap:butt;stroke-linejoin:round;stroke-miterlimit:10;stroke-dasharray:none;stroke-opacity:1"
                    id="path396"/>
            <g
                    id="g398"
                    transform="translate(1275.436,617.43647)">
                <text
                        xml:space="preserve"
                        transform="scale(1,-1)"
                        style="font-variant:normal;font-weight:normal;font-size:20px;font-family:'DejaVu Sans';-inkscape-font-specification:DejaVuSans;writing-mode:lr-tb;fill:#ff0000;fill-opacity:1;fill-rule:nonzero;stroke:none"
                        id="text402"><tspan
             x="0"
             y="0"
             id="tspan400">0</tspan></text>
            </g>
            <g
                    id="g404"
                    transform="rotate(90,522.70102,814.14123)">
                <text
                        xml:space="preserve"
                        transform="scale(1,-1)"
                        style="font-variant:normal;font-weight:normal;font-size:20px;font-family:'DejaVu Sans';-inkscape-font-specification:DejaVuSans;writing-mode:lr-tb;fill:#ff0000;fill-opacity:1;fill-rule:nonzero;stroke:none"
                        id="text408"><tspan
             x="0 15.4 23.620001 35.880001 52.240002 64.940002 77.18 93.540001 106.22 112.58 120.38 139.38"
             y="0"
             id="tspan406">Drawdown (%)</tspan></text>
            </g>
            <path
                    d="M 139.884,78.996667 V 651.04"
                    style="fill:none;stroke:#000000;stroke-width:0.8;stroke-linecap:square;stroke-linejoin:miter;stroke-miterlimit:10;stroke-dasharray:none;stroke-opacity:1"
                    id="path410"/>
            <path
                    d="M 1268.436,78.996667 V 651.04"
                    style="fill:none;stroke:#000000;stroke-width:0.8;stroke-linecap:square;stroke-linejoin:miter;stroke-miterlimit:10;stroke-dasharray:none;stroke-opacity:1"
                    id="path412"/>
            <path
                    d="M 139.884,78.996667 H 1268.436"
                    style="fill:none;stroke:#000000;stroke-width:0.8;stroke-linecap:square;stroke-linejoin:miter;stroke-miterlimit:10;stroke-dasharray:none;stroke-opacity:1"
                    id="path414"/>
            <path
                    d="M 139.884,651.04 H 1268.436"
                    style="fill:none;stroke:#000000;stroke-width:0.8;stroke-linecap:square;stroke-linejoin:miter;stroke-miterlimit:10;stroke-dasharray:none;stroke-opacity:1"
                    id="path416"/>
            <g
                    id="g418"
                    transform="translate(323.27719,657.04)">
                <text
                        xml:space="preserve"
                        transform="scale(1,-1)"
                        style="font-variant:normal;font-weight:normal;font-size:25px;font-family:'DejaVu Sans';-inkscape-font-specification:DejaVuSans;writing-mode:lr-tb;fill:#000000;fill-opacity:1;fill-rule:nonzero;stroke:none"
                        id="text422"><tspan
             x="0 11.603125 21.878124 28.828125 44.703125 51.653126 67.028122 74.978127 90.778122 105.57812 121.45312 136.75313 152.60312 167.97812 183.82812 193.62813 200.57812 215.90312 222.85312 230.80313 252.37813 267.67813 282.47812 289.42813 305.27814 321.15314 329.10312 344.75 359.54999 374.92499 385.20001 400.52499 416.39999 431.77499 439.72501 455.60001 465.39999 475.67499 491 500.79999 516.17499 532.04999 546.84998 554.79999 571.95001 587.27502 601.02502 615.5 625.29999 640.67499 653.70001 663.5 671.45001 687.71564 703.09064 716.1156 731.96564 738.91565 748.71564"
             y="0"
             id="tspan420">Triple Exponential Moving Average Strategy Backtest Results</tspan></text>
            </g>
        </g>
    </g>
</svg>
