<?xml version="1.0" encoding="UTF-8" standalone="no"?>
<!-- Created with Inkscape (http://www.inkscape.org/) -->

<svg
        xmlns:svg="http://www.w3.org/2000/svg"
        version="1.1"
        id="svg2"
        width="1843.2"
        height="936"
        viewBox="0 0 1843.2 936"
        xmlns="http://www.w3.org/2000/svg">
    <defs
            id="defs6">
        <clipPath
                clipPathUnits="userSpaceOnUse"
                id="clipPath20">
            <path
                    d="M 124.656,78.996667 H 1268.328 V 651.04 H 124.656 Z"
                    id="path18"/>
        </clipPath>
        <clipPath
                clipPathUnits="userSpaceOnUse"
                id="clipPath40">
            <path
                    d="M 124.656,78.996667 H 1268.328 V 651.04 H 124.656 Z"
                    id="path38"/>
        </clipPath>
        <clipPath
                clipPathUnits="userSpaceOnUse"
                id="clipPath60">
            <path
                    d="M 124.656,78.996667 H 1268.328 V 651.04 H 124.656 Z"
                    id="path58"/>
        </clipPath>
        <clipPath
                clipPathUnits="userSpaceOnUse"
                id="clipPath80">
            <path
                    d="M 124.656,78.996667 H 1268.328 V 651.04 H 124.656 Z"
                    id="path78"/>
        </clipPath>
        <clipPath
                clipPathUnits="userSpaceOnUse"
                id="clipPath100">
            <path
                    d="M 124.656,78.996667 H 1268.328 V 651.04 H 124.656 Z"
                    id="path98"/>
        </clipPath>
        <clipPath
                clipPathUnits="userSpaceOnUse"
                id="clipPath120">
            <path
                    d="M 124.656,78.996667 H 1268.328 V 651.04 H 124.656 Z"
                    id="path118"/>
        </clipPath>
        <clipPath
                clipPathUnits="userSpaceOnUse"
                id="clipPath146">
            <path
                    d="M 124.656,78.996667 H 1268.328 V 651.04 H 124.656 Z"
                    id="path144"/>
        </clipPath>
        <clipPath
                clipPathUnits="userSpaceOnUse"
                id="clipPath166">
            <path
                    d="M 124.656,78.996667 H 1268.328 V 651.04 H 124.656 Z"
                    id="path164"/>
        </clipPath>
        <clipPath
                clipPathUnits="userSpaceOnUse"
                id="clipPath186">
            <path
                    d="M 124.656,78.996667 H 1268.328 V 651.04 H 124.656 Z"
                    id="path184"/>
        </clipPath>
        <clipPath
                clipPathUnits="userSpaceOnUse"
                id="clipPath206">
            <path
                    d="M 124.656,78.996667 H 1268.328 V 651.04 H 124.656 Z"
                    id="path204"/>
        </clipPath>
        <clipPath
                clipPathUnits="userSpaceOnUse"
                id="clipPath226">
            <path
                    d="M 124.656,78.996667 H 1268.328 V 651.04 H 124.656 Z"
                    id="path224"/>
        </clipPath>
        <clipPath
                clipPathUnits="userSpaceOnUse"
                id="clipPath246">
            <path
                    d="M 124.656,78.996667 H 1268.328 V 651.04 H 124.656 Z"
                    id="path244"/>
        </clipPath>
        <clipPath
                clipPathUnits="userSpaceOnUse"
                id="clipPath272">
            <path
                    d="M 124.656,78.996667 H 1268.328 V 651.04 H 124.656 Z"
                    id="path270"/>
        </clipPath>
        <clipPath
                clipPathUnits="userSpaceOnUse"
                id="clipPath310">
            <path
                    d="M 124.656,78.996667 H 1268.328 V 651.04 H 124.656 Z"
                    id="path308"/>
        </clipPath>
        <clipPath
                clipPathUnits="userSpaceOnUse"
                id="clipPath332">
            <path
                    d="M -1021,-463 H 1794 V 1233 H -1021 Z"
                    id="path330"/>
        </clipPath>
        <clipPath
                clipPathUnits="userSpaceOnUse"
                id="clipPath352">
            <path
                    d="M -1021,-463 H 1794 V 1233 H -1021 Z"
                    id="path350"/>
        </clipPath>
        <clipPath
                clipPathUnits="userSpaceOnUse"
                id="clipPath372">
            <path
                    d="M -1021,-463 H 1794 V 1233 H -1021 Z"
                    id="path370"/>
        </clipPath>
        <clipPath
                clipPathUnits="userSpaceOnUse"
                id="clipPath392">
            <path
                    d="M -1021,-463 H 1794 V 1233 H -1021 Z"
                    id="path390"/>
        </clipPath>
    </defs>
    <g
            id="g8"
            transform="matrix(1.3333333,0,0,-1.3333333,0,936)">
        <path
                d="M 0,0 H 1382.4 V 702 H 0 Z"
                style="fill:#ffffff;fill-opacity:1;fill-rule:nonzero;stroke:none"
                id="path10"/>
        <path
                d="M 124.656,78.996667 H 1268.328 V 651.04 H 124.656 Z"
                style="fill:#ffffff;fill-opacity:1;fill-rule:nonzero;stroke:none"
                id="path12"/>
        <g
                id="g14">
            <g
                    id="g16"
                    clip-path="url(#clipPath20)">
                <path
                        d="M 176.64109,78.996667 V 651.04"
                        style="fill:none;stroke:#b0b0b0;stroke-width:0.8;stroke-linecap:square;stroke-linejoin:round;stroke-miterlimit:10;stroke-dasharray:none;stroke-opacity:1"
                        id="path22"/>
            </g>
        </g>
        <g
                id="g24">
            <path
                    d="m 176.64109,78.996667 v -3.5"
                    style="fill:#000000;fill-opacity:1;fill-rule:nonzero;stroke:#000000;stroke-width:0.8;stroke-linecap:butt;stroke-linejoin:round;stroke-miterlimit:10;stroke-dasharray:none;stroke-opacity:1"
                    id="path26"/>
            <g
                    id="g28"
                    transform="translate(170.28172,56.793542)">
                <text
                        xml:space="preserve"
                        transform="scale(1,-1)"
                        style="font-variant:normal;font-weight:normal;font-size:20px;font-family:'DejaVu Sans';-inkscape-font-specification:DejaVuSans;writing-mode:lr-tb;fill:#000000;fill-opacity:1;fill-rule:nonzero;stroke:none"
                        id="text32"><tspan
             x="0"
             y="0"
             id="tspan30">0</tspan></text>
            </g>
        </g>
        <g
                id="g34">
            <g
                    id="g36"
                    clip-path="url(#clipPath40)">
                <path
                        d="M 364.99287,78.996667 V 651.04"
                        style="fill:none;stroke:#b0b0b0;stroke-width:0.8;stroke-linecap:square;stroke-linejoin:round;stroke-miterlimit:10;stroke-dasharray:none;stroke-opacity:1"
                        id="path42"/>
            </g>
        </g>
        <g
                id="g44">
            <path
                    d="m 364.99287,78.996667 v -3.5"
                    style="fill:#000000;fill-opacity:1;fill-rule:nonzero;stroke:#000000;stroke-width:0.8;stroke-linecap:butt;stroke-linejoin:round;stroke-miterlimit:10;stroke-dasharray:none;stroke-opacity:1"
                    id="path46"/>
            <g
                    id="g48"
                    transform="translate(345.91474,56.793542)">
                <text
                        xml:space="preserve"
                        transform="scale(1,-1)"
                        style="font-variant:normal;font-weight:normal;font-size:20px;font-family:'DejaVu Sans';-inkscape-font-specification:DejaVuSans;writing-mode:lr-tb;fill:#000000;fill-opacity:1;fill-rule:nonzero;stroke:none"
                        id="text52"><tspan
             x="0 12.72 25.440001"
             y="0"
             id="tspan50">100</tspan></text>
            </g>
        </g>
        <g
                id="g54">
            <g
                    id="g56"
                    clip-path="url(#clipPath60)">
                <path
                        d="M 553.34465,78.996667 V 651.04"
                        style="fill:none;stroke:#b0b0b0;stroke-width:0.8;stroke-linecap:square;stroke-linejoin:round;stroke-miterlimit:10;stroke-dasharray:none;stroke-opacity:1"
                        id="path62"/>
            </g>
        </g>
        <g
                id="g64">
            <path
                    d="m 553.34465,78.996667 v -3.5"
                    style="fill:#000000;fill-opacity:1;fill-rule:nonzero;stroke:#000000;stroke-width:0.8;stroke-linecap:butt;stroke-linejoin:round;stroke-miterlimit:10;stroke-dasharray:none;stroke-opacity:1"
                    id="path66"/>
            <g
                    id="g68"
                    transform="translate(534.26652,56.793542)">
                <text
                        xml:space="preserve"
                        transform="scale(1,-1)"
                        style="font-variant:normal;font-weight:normal;font-size:20px;font-family:'DejaVu Sans';-inkscape-font-specification:DejaVuSans;writing-mode:lr-tb;fill:#000000;fill-opacity:1;fill-rule:nonzero;stroke:none"
                        id="text72"><tspan
             x="0 12.72 25.440001"
             y="0"
             id="tspan70">200</tspan></text>
            </g>
        </g>
        <g
                id="g74">
            <g
                    id="g76"
                    clip-path="url(#clipPath80)">
                <path
                        d="M 741.69643,78.996667 V 651.04"
                        style="fill:none;stroke:#b0b0b0;stroke-width:0.8;stroke-linecap:square;stroke-linejoin:round;stroke-miterlimit:10;stroke-dasharray:none;stroke-opacity:1"
                        id="path82"/>
            </g>
        </g>
        <g
                id="g84">
            <path
                    d="m 741.69643,78.996667 v -3.5"
                    style="fill:#000000;fill-opacity:1;fill-rule:nonzero;stroke:#000000;stroke-width:0.8;stroke-linecap:butt;stroke-linejoin:round;stroke-miterlimit:10;stroke-dasharray:none;stroke-opacity:1"
                    id="path86"/>
            <g
                    id="g88"
                    transform="translate(722.6183,56.793542)">
                <text
                        xml:space="preserve"
                        transform="scale(1,-1)"
                        style="font-variant:normal;font-weight:normal;font-size:20px;font-family:'DejaVu Sans';-inkscape-font-specification:DejaVuSans;writing-mode:lr-tb;fill:#000000;fill-opacity:1;fill-rule:nonzero;stroke:none"
                        id="text92"><tspan
             x="0 12.72 25.440001"
             y="0"
             id="tspan90">300</tspan></text>
            </g>
        </g>
        <g
                id="g94">
            <g
                    id="g96"
                    clip-path="url(#clipPath100)">
                <path
                        d="M 930.04821,78.996667 V 651.04"
                        style="fill:none;stroke:#b0b0b0;stroke-width:0.8;stroke-linecap:square;stroke-linejoin:round;stroke-miterlimit:10;stroke-dasharray:none;stroke-opacity:1"
                        id="path102"/>
            </g>
        </g>
        <g
                id="g104">
            <path
                    d="m 930.04821,78.996667 v -3.5"
                    style="fill:#000000;fill-opacity:1;fill-rule:nonzero;stroke:#000000;stroke-width:0.8;stroke-linecap:butt;stroke-linejoin:round;stroke-miterlimit:10;stroke-dasharray:none;stroke-opacity:1"
                    id="path106"/>
            <g
                    id="g108"
                    transform="translate(910.97008,56.793542)">
                <text
                        xml:space="preserve"
                        transform="scale(1,-1)"
                        style="font-variant:normal;font-weight:normal;font-size:20px;font-family:'DejaVu Sans';-inkscape-font-specification:DejaVuSans;writing-mode:lr-tb;fill:#000000;fill-opacity:1;fill-rule:nonzero;stroke:none"
                        id="text112"><tspan
             x="0 12.72 25.440001"
             y="0"
             id="tspan110">400</tspan></text>
            </g>
        </g>
        <g
                id="g114">
            <g
                    id="g116"
                    clip-path="url(#clipPath120)">
                <path
                        d="M 1118.4,78.996667 V 651.04"
                        style="fill:none;stroke:#b0b0b0;stroke-width:0.8;stroke-linecap:square;stroke-linejoin:round;stroke-miterlimit:10;stroke-dasharray:none;stroke-opacity:1"
                        id="path122"/>
            </g>
        </g>
        <g
                id="g124">
            <path
                    d="m 1118.4,78.996667 v -3.5"
                    style="fill:#000000;fill-opacity:1;fill-rule:nonzero;stroke:#000000;stroke-width:0.8;stroke-linecap:butt;stroke-linejoin:round;stroke-miterlimit:10;stroke-dasharray:none;stroke-opacity:1"
                    id="path126"/>
            <g
                    id="g128"
                    transform="translate(1099.3219,56.793542)">
                <text
                        xml:space="preserve"
                        transform="scale(1,-1)"
                        style="font-variant:normal;font-weight:normal;font-size:20px;font-family:'DejaVu Sans';-inkscape-font-specification:DejaVuSans;writing-mode:lr-tb;fill:#000000;fill-opacity:1;fill-rule:nonzero;stroke:none"
                        id="text132"><tspan
             x="0 12.72 25.440001"
             y="0"
             id="tspan130">500</tspan></text>
            </g>
            <g
                    id="g134"
                    transform="translate(638.4295,33.434167)">
                <text
                        xml:space="preserve"
                        transform="scale(1,-1)"
                        style="font-variant:normal;font-weight:normal;font-size:20px;font-family:'DejaVu Sans';-inkscape-font-specification:DejaVuSans;writing-mode:lr-tb;fill:#000000;fill-opacity:1;fill-rule:nonzero;stroke:none"
                        id="text138"><tspan
             x="0 9.2825003 17.502501 29.762501 42.462502 54.762501 61.122501 67.022499 79.702499 92.402496 104.35875"
             y="0"
             id="tspan136">Trade Index</tspan></text>
            </g>
        </g>
        <g
                id="g140">
            <g
                    id="g142"
                    clip-path="url(#clipPath146)">
                <path
                        d="M 124.656,99.595334 H 1268.328"
                        style="fill:none;stroke:#b0b0b0;stroke-width:0.8;stroke-linecap:square;stroke-linejoin:round;stroke-miterlimit:10;stroke-dasharray:none;stroke-opacity:1"
                        id="path148"/>
            </g>
        </g>
        <g
                id="g150">
            <path
                    d="m 124.656,99.595334 h -3.5"
                    style="fill:#000000;fill-opacity:1;fill-rule:nonzero;stroke:#000000;stroke-width:0.8;stroke-linecap:butt;stroke-linejoin:round;stroke-miterlimit:10;stroke-dasharray:none;stroke-opacity:1"
                    id="path152"/>
            <g
                    id="g154"
                    transform="translate(66.781,91.993772)">
                <text
                        xml:space="preserve"
                        transform="scale(1,-1)"
                        style="font-variant:normal;font-weight:normal;font-size:20px;font-family:'DejaVu Sans';-inkscape-font-specification:DejaVuSans;writing-mode:lr-tb;fill:#0000ff;fill-opacity:1;fill-rule:nonzero;stroke:none"
                        id="text158"><tspan
             x="0 12.72 25.440001 38.16"
             y="0"
             id="tspan156">4000</tspan></text>
            </g>
        </g>
        <g
                id="g160">
            <g
                    id="g162"
                    clip-path="url(#clipPath166)">
                <path
                        d="M 124.656,203.68187 H 1268.328"
                        style="fill:none;stroke:#b0b0b0;stroke-width:0.8;stroke-linecap:square;stroke-linejoin:round;stroke-miterlimit:10;stroke-dasharray:none;stroke-opacity:1"
                        id="path168"/>
            </g>
        </g>
        <g
                id="g170">
            <path
                    d="m 124.656,203.68187 h -3.5"
                    style="fill:#000000;fill-opacity:1;fill-rule:nonzero;stroke:#000000;stroke-width:0.8;stroke-linecap:butt;stroke-linejoin:round;stroke-miterlimit:10;stroke-dasharray:none;stroke-opacity:1"
                    id="path172"/>
            <g
                    id="g174"
                    transform="translate(66.781,196.0803)">
                <text
                        xml:space="preserve"
                        transform="scale(1,-1)"
                        style="font-variant:normal;font-weight:normal;font-size:20px;font-family:'DejaVu Sans';-inkscape-font-specification:DejaVuSans;writing-mode:lr-tb;fill:#0000ff;fill-opacity:1;fill-rule:nonzero;stroke:none"
                        id="text178"><tspan
             x="0 12.72 25.440001 38.16"
             y="0"
             id="tspan176">5000</tspan></text>
            </g>
        </g>
        <g
                id="g180">
            <g
                    id="g182"
                    clip-path="url(#clipPath186)">
                <path
                        d="M 124.656,307.7684 H 1268.328"
                        style="fill:none;stroke:#b0b0b0;stroke-width:0.8;stroke-linecap:square;stroke-linejoin:round;stroke-miterlimit:10;stroke-dasharray:none;stroke-opacity:1"
                        id="path188"/>
            </g>
        </g>
        <g
                id="g190">
            <path
                    d="m 124.656,307.7684 h -3.5"
                    style="fill:#000000;fill-opacity:1;fill-rule:nonzero;stroke:#000000;stroke-width:0.8;stroke-linecap:butt;stroke-linejoin:round;stroke-miterlimit:10;stroke-dasharray:none;stroke-opacity:1"
                    id="path192"/>
            <g
                    id="g194"
                    transform="translate(66.781,300.16684)">
                <text
                        xml:space="preserve"
                        transform="scale(1,-1)"
                        style="font-variant:normal;font-weight:normal;font-size:20px;font-family:'DejaVu Sans';-inkscape-font-specification:DejaVuSans;writing-mode:lr-tb;fill:#0000ff;fill-opacity:1;fill-rule:nonzero;stroke:none"
                        id="text198"><tspan
             x="0 12.72 25.440001 38.16"
             y="0"
             id="tspan196">6000</tspan></text>
            </g>
        </g>
        <g
                id="g200">
            <g
                    id="g202"
                    clip-path="url(#clipPath206)">
                <path
                        d="M 124.656,411.85493 H 1268.328"
                        style="fill:none;stroke:#b0b0b0;stroke-width:0.8;stroke-linecap:square;stroke-linejoin:round;stroke-miterlimit:10;stroke-dasharray:none;stroke-opacity:1"
                        id="path208"/>
            </g>
        </g>
        <g
                id="g210">
            <path
                    d="m 124.656,411.85493 h -3.5"
                    style="fill:#000000;fill-opacity:1;fill-rule:nonzero;stroke:#000000;stroke-width:0.8;stroke-linecap:butt;stroke-linejoin:round;stroke-miterlimit:10;stroke-dasharray:none;stroke-opacity:1"
                    id="path212"/>
            <g
                    id="g214"
                    transform="translate(66.781,404.25337)">
                <text
                        xml:space="preserve"
                        transform="scale(1,-1)"
                        style="font-variant:normal;font-weight:normal;font-size:20px;font-family:'DejaVu Sans';-inkscape-font-specification:DejaVuSans;writing-mode:lr-tb;fill:#0000ff;fill-opacity:1;fill-rule:nonzero;stroke:none"
                        id="text218"><tspan
             x="0 12.72 25.440001 38.16"
             y="0"
             id="tspan216">7000</tspan></text>
            </g>
        </g>
        <g
                id="g220">
            <g
                    id="g222"
                    clip-path="url(#clipPath226)">
                <path
                        d="M 124.656,515.94146 H 1268.328"
                        style="fill:none;stroke:#b0b0b0;stroke-width:0.8;stroke-linecap:square;stroke-linejoin:round;stroke-miterlimit:10;stroke-dasharray:none;stroke-opacity:1"
                        id="path228"/>
            </g>
        </g>
        <g
                id="g230">
            <path
                    d="m 124.656,515.94146 h -3.5"
                    style="fill:#000000;fill-opacity:1;fill-rule:nonzero;stroke:#000000;stroke-width:0.8;stroke-linecap:butt;stroke-linejoin:round;stroke-miterlimit:10;stroke-dasharray:none;stroke-opacity:1"
                    id="path232"/>
            <g
                    id="g234"
                    transform="translate(66.781,508.3399)">
                <text
                        xml:space="preserve"
                        transform="scale(1,-1)"
                        style="font-variant:normal;font-weight:normal;font-size:20px;font-family:'DejaVu Sans';-inkscape-font-specification:DejaVuSans;writing-mode:lr-tb;fill:#0000ff;fill-opacity:1;fill-rule:nonzero;stroke:none"
                        id="text238"><tspan
             x="0 12.72 25.440001 38.16"
             y="0"
             id="tspan236">8000</tspan></text>
            </g>
        </g>
        <g
                id="g240">
            <g
                    id="g242"
                    clip-path="url(#clipPath246)">
                <path
                        d="M 124.656,620.02799 H 1268.328"
                        style="fill:none;stroke:#b0b0b0;stroke-width:0.8;stroke-linecap:square;stroke-linejoin:round;stroke-miterlimit:10;stroke-dasharray:none;stroke-opacity:1"
                        id="path248"/>
            </g>
        </g>
        <g
                id="g250">
            <path
                    d="m 124.656,620.02799 h -3.5"
                    style="fill:#000000;fill-opacity:1;fill-rule:nonzero;stroke:#000000;stroke-width:0.8;stroke-linecap:butt;stroke-linejoin:round;stroke-miterlimit:10;stroke-dasharray:none;stroke-opacity:1"
                    id="path252"/>
            <g
                    id="g254"
                    transform="translate(66.781,612.42643)">
                <text
                        xml:space="preserve"
                        transform="scale(1,-1)"
                        style="font-variant:normal;font-weight:normal;font-size:20px;font-family:'DejaVu Sans';-inkscape-font-specification:DejaVuSans;writing-mode:lr-tb;fill:#0000ff;fill-opacity:1;fill-rule:nonzero;stroke:none"
                        id="text258"><tspan
             x="0 12.72 25.440001 38.16"
             y="0"
             id="tspan256">9000</tspan></text>
            </g>
            <g
                    id="g260"
                    transform="rotate(90,-115.60695,174.2317)">
                <text
                        xml:space="preserve"
                        transform="scale(1,-1)"
                        style="font-variant:normal;font-weight:normal;font-size:20px;font-family:'DejaVu Sans';-inkscape-font-specification:DejaVuSans;writing-mode:lr-tb;fill:#0000ff;fill-opacity:1;fill-rule:nonzero;stroke:none"
                        id="text264"><tspan
             x="0 13.33625 24.33625 35.33625 47.576248 60.256248 72.936249 80.776253 87.136253 99.776253 112.47625 125.15625 130.71625 138.55624"
             y="0"
             id="tspan262">Account Equity</tspan></text>
            </g>
        </g>
        <g
                id="g266">
            <g
                    id="g268"
                    clip-path="url(#clipPath272)">
                <path
                        d="m 176.64109,197.28095 3.76704,-12.96631 3.76703,-11.04526 3.76704,-13.27776 1.88351,-5.07468 1.88352,-8.19656 1.88352,-5.45899 1.88352,-7.35354 1.88352,-4.70082 1.88351,-5.71241 1.88352,-6.83583 1.88352,-6.1608 1.88352,-5.49935 3.76703,34.6833 3.76704,112.48202 1.88352,18.0713 1.88351,-2.40493 1.88352,-6.0006 1.88352,13.30586 7.53407,-25.00903 1.88352,-7.06453 1.88352,-5.86999 1.88351,-4.74634 1.88352,-6.60632 3.76704,33.99428 1.88352,22.52427 1.88351,24.91779 1.88352,81.06139 3.76704,37.39241 1.88351,-9.55538 1.88352,-6.63992 3.76704,-20.88325 1.88352,-10.85702 1.88351,-9.8966 1.88352,23.80233 1.88352,10.41119 1.88352,6.12855 1.88352,0.67533 1.88351,-7.18599 1.88352,-1.98681 1.88352,-0.53984 1.88352,-7.25686 1.88351,-3.40774 1.88352,-8.80809 1.88352,-7.26047 1.88352,-7.83452 1.88351,-5.91993 1.88352,-9.95974 1.88352,-6.74722 1.88352,-7.26391 3.76703,-16.2616 1.88352,-7.65028 3.76704,-12.61913 1.88351,82.11999 1.88352,25.28535 1.88352,0.19239 1.88352,-9.51717 1.88352,-7.68161 1.88351,-6.53122 1.88352,-14.1099 1.88352,-21.60575 1.88352,-8.39531 1.88351,27.04515 1.88352,-11.99415 3.76704,-19.35238 1.88352,-13.76662 3.76703,-13.75912 1.88352,-6.89445 1.88352,-4.0557 1.88351,-0.002 1.88352,5.60937 1.88352,-10.84357 1.88352,1.09107 1.88352,-7.51845 1.88351,-0.5574 1.88352,3.23672 1.88352,-6.02984 1.88352,-7.19047 1.88351,-11.48944 1.88352,-6.10089 1.88352,-3.73346 1.88352,-9.96143 5.65055,-18.00547 3.76704,-14.72429 1.88351,-4.46435 1.88352,-6.95048 1.88352,-10.94269 1.88352,-13.38507 3.76703,-12.31464 3.76704,-12.39342 1.88352,-3.80125 1.88351,-6.11886 1.88352,-5.52779 1.88352,14.07566 3.76704,-9.9242 3.76703,115.614 3.76704,35.56186 1.88351,-8.14782 1.88352,-7.23185 1.88352,-9.95249 1.88352,-8.36401 1.88352,-2.96425 1.88351,-4.89498 1.88352,-7.83663 3.76704,-11.65843 1.88352,-7.17508 1.88351,-6.67693 1.88352,-7.43472 1.88352,-6.53913 1.88352,-7.55381 3.76703,-10.64628 1.88352,-10.95797 3.76703,40.79623 1.88352,14.87856 1.88352,-5.101 1.88352,-7.67668 1.88352,-4.88573 1.88351,-7.89037 1.88352,63.99899 1.88352,14.76165 1.88352,-6.2483 1.88352,-5.71727 1.88351,-6.39166 3.76704,132.9438 1.88352,20.50412 1.88351,-6.992 1.88352,97.59031 1.88352,22.53101 1.88352,-6.99889 3.76703,52.20869 1.88352,-8.67593 1.88352,61.03505 1.88352,-13.51798 1.88351,-0.63101 1.88352,-8.78794 1.88352,-11.23364 1.88352,-13.77655 1.88352,-11.35081 5.65055,-20.32379 1.88352,-7.53895 1.88351,-9.13458 1.88352,-7.33991 1.88352,-9.8378 1.88352,-11.78086 1.88352,-11.03625 1.88351,2.18247 1.88352,-1.98938 1.88352,-8.78252 1.88352,-16.55212 1.88352,-10.72292 3.76703,-17.00738 1.88352,23.16278 1.88352,-0.0577 3.76703,-16.85892 1.88352,-10.33294 1.88352,-9.09613 1.88351,-8.14175 1.88352,-4.81567 1.88352,-7.65041 1.88352,-6.71128 1.88352,-9.46427 1.88351,-7.16962 1.88352,-6.40642 1.88352,-7.00175 1.88352,3.90855 1.88352,-10.61763 3.76703,-13.93492 3.76704,-17.8882 1.88351,-6.77065 1.88352,-8.18956 1.88352,-6.71874 1.88352,18.44211 1.88351,3.36357 1.88352,6.69966 1.88352,-11.01315 1.88352,3.81163 1.88352,-1.15485 3.76703,-16.78439 1.88352,-7.00559 1.88352,-8.81531 1.88351,-7.96508 1.88352,27.11129 1.88352,-2.74322 1.88352,-6.91878 1.88352,-5.12671 3.76703,-12.9543 1.88352,-5.94854 1.88352,-6.82868 1.88352,-9.30797 1.88351,17.98398 1.88352,-6.70106 1.88352,-7.52456 1.88352,-6.2502 1.88351,-4.93882 1.88352,-6.89202 1.88352,-7.35361 1.88352,-8.35511 1.88352,-5.59712 1.88351,-8.01582 1.88352,-7.20387 1.88352,-9.19537 1.88352,-6.98704 3.76703,6.03682 1.88352,-4.53973 1.88352,67.58522 3.76703,-7.57624 1.88352,-6.28971 3.76704,-9.78004 1.88351,-6.57496 3.76704,-13.66963 1.88352,21.78742 1.88351,70.76466 1.88352,-7.79589 1.88352,-4.39047 1.88352,69.27083 1.88352,-9.0025 1.88351,89.07177 1.88352,-9.92567 1.88352,-5.35592 1.88352,30.87459 1.88351,-4.00908 1.88352,10.50179 1.88352,11.67693 1.88352,-1.97652 1.88352,-5.82463 1.88351,-6.93071 1.88352,-4.92486 1.88352,-9.10802 1.88352,-0.90831 1.88351,-7.497 1.88352,-10.76457 1.88352,-8.09865 3.76704,-32.47421 1.88351,-7.58033 1.88352,-5.64635 1.88352,-4.92771 1.88352,28.48678 1.88352,-7.89726 1.88351,-6.6687 1.88352,-9.00417 3.76704,57.00212 1.88351,-1.78037 1.88352,-8.39071 1.88352,-7.00899 1.88352,-8.13663 1.88352,-7.48772 1.88351,-8.9272 1.88352,-4.32975 1.88352,4.61461 3.76703,-18.08766 1.88352,-1.0701 1.88352,-3.31137 3.76704,-13.99784 1.88351,-7.2776 1.88352,-8.50369 1.88352,84.79303 3.76704,-15.35715 1.88351,-7.13095 1.88352,-8.41584 1.88352,91.56175 1.88352,28.32467 1.88351,-8.09533 1.88352,-2.53243 1.88352,-16.91943 1.88352,-9.38435 1.88351,-8.15889 5.65056,-21.99181 3.76703,-17.64295 1.88352,-10.43571 3.76704,-15.99706 1.88351,-7.32247 1.88352,-6.44656 1.88352,-8.90538 1.88352,-6.70612 1.88352,-7.77566 1.88351,-9.68485 3.76704,-14.77995 1.88352,-6.76267 1.88351,-7.87783 3.76704,-12.10764 1.88352,-6.81135 1.88352,-3.56105 1.88351,-8.35955 1.88352,79.4463 1.88352,24.39333 1.88352,-7.02663 1.88351,-8.68691 3.76704,-15.2739 1.88352,-8.54584 3.76703,-12.06364 1.88352,-6.60476 1.88352,-6.15144 3.76703,-8.81315 1.88352,-7.66222 1.88352,-3.71031 3.76704,37.82158 1.88351,-6.47065 1.88352,-9.28003 1.88352,24.23259 1.88352,-5.99247 1.88352,85.43992 1.88351,-7.65605 1.88352,-12.2598 1.88352,-7.82732 1.88352,13.24408 1.88351,-4.98088 1.88352,9.26749 1.88352,-0.4081 1.88352,-1.22194 1.88351,-6.27758 1.88352,2.3775 1.88352,-1.45402 1.88352,-5.21382 1.88352,-6.62785 1.88351,37.35675 1.88352,15.64787 1.88352,97.50062 1.88352,-8.9634 1.88351,-7.03052 1.88352,-8.07167 1.88352,-5.4112 1.88352,-7.45052 1.88352,-8.72976 1.88351,-7.37896 1.88352,-8.05574 1.88352,-6.88414 1.88352,-5.38984 1.88352,-6.59871 1.88351,-7.91033 1.88352,-9.96485 5.65055,-24.51025 1.88352,-6.48659 1.88352,-5.74411 1.88352,-7.59684 1.88351,-10.9181 1.88352,-7.94176 1.88352,-7.2984 3.76704,-16.6488 1.88351,-6.17275 1.88352,-12.27366 1.88352,-4.98874 3.76704,-14.09437 1.88351,-6.75782 3.76704,-15.35386 1.88352,-6.33389 1.88351,-4.70963 3.76704,-11.03616 1.88352,-11.28854 1.88352,-5.46759 1.88351,-6.12976 1.88352,-6.96284 1.88352,-5.67768 3.76703,37.83658 1.88352,19.22002 1.88352,1.68761 1.88352,-0.16858 1.88352,20.49239 1.88351,-7.51646 1.88352,0.39638 1.88352,8.61027 1.88352,-6.00587 1.88351,-7.89441 1.88352,-7.07129 1.88352,-6.13169 1.88352,-7.41436 1.88352,-5.97757 1.88351,-6.85202 1.88352,-6.10603 1.88352,-7.0008 1.88352,-14.43825 1.88352,-6.74115 1.88351,-9.41464 1.88352,3.83546 1.88352,-4.67389 1.88352,-4.17079 1.88351,-4.54903 1.88354,-4.89823 3.767,-12.99344 1.8835,-6.47587 3.7671,-13.86949 1.8835,-6.59104 1.8835,-5.72321 1.8835,-4.19456 1.8835,-4.75337 1.8836,62.09051 1.8835,-3.36033 3.767,-11.06461 1.8835,14.21355 1.8835,-5.37609 1.8836,-3.51811 1.8835,-4.59219 1.8835,-7.15352 1.8835,-5.70962 1.8835,66.44013 1.8836,15.40794 1.8835,20.54977 3.767,-12.05125 1.8835,-5.92387 1.8835,-8.94433 1.8836,-7.53792 3.767,-11.99197 1.8835,-5.68016 1.8835,-0.15678 1.8836,-6.01112 1.8835,-5.22068 1.8835,-7.96385 1.8835,-5.53681 1.8835,-6.8164 1.8835,67.78815 1.8836,15.65958 1.8835,-6.86731 1.8835,-7.90874 3.767,-13.67812 1.8835,-7.26422 1.8836,-6.58769 1.8835,-7.06653 1.8835,-5.19469 1.8835,-8.23793 3.7671,-12.49745 1.8835,-5.82581 1.8835,-7.4553 3.767,-12.94046 1.8835,65.25686 1.8836,15.14846 1.8835,65.48286 1.8835,15.15802 1.8835,-7.4653 1.8835,-6.48845 1.8835,-3.92903 1.8836,-6.85214 1.8835,-7.67735 1.8835,-6.27205 1.8835,-7.5552 1.8835,-6.0633 1.8836,-7.80002 5.6505,-20.40436 1.8835,-8.70605 1.8835,-5.10265 1.8836,17.03376 1.8835,-8.07898 1.8835,0.16365 1.8835,-5.78312 1.8835,-5.1753 1.8836,-4.52234 3.767,-13.20567 1.8835,-7.943 1.8835,-6.16677 1.8835,-5.42996 1.8836,-4.18827 1.8835,-5.75426 1.8835,-3.23385 1.8835,-5.38985 1.8835,-4.79216 1.8835,-6.59948 1.8836,1.67651 1.8835,-6.2136 1.8835,-4.59674 1.8835,-8.19755 1.8835,-4.55054 1.8836,22.24442 3.767,124.69438 1.8835,-6.36521 1.8835,14.43407 1.8835,-4.99903 1.8836,-6.10201 1.8835,13.96674 5.6505,-24.65743 1.8835,-10.44701 13.1847,-45.98703 3.767,-11.93672 v 0"
                        style="fill:none;stroke:#0000ff;stroke-width:1.5;stroke-linecap:square;stroke-linejoin:round;stroke-miterlimit:10;stroke-dasharray:none;stroke-opacity:1"
                        id="path274"/>
            </g>
        </g>
        <g
                id="g276">
            <path
                    d="M 124.656,78.996667 V 651.04"
                    style="fill:none;stroke:#000000;stroke-width:0.8;stroke-linecap:square;stroke-linejoin:miter;stroke-miterlimit:10;stroke-dasharray:none;stroke-opacity:1"
                    id="path278"/>
            <path
                    d="M 1268.328,78.996667 V 651.04"
                    style="fill:none;stroke:#000000;stroke-width:0.8;stroke-linecap:square;stroke-linejoin:miter;stroke-miterlimit:10;stroke-dasharray:none;stroke-opacity:1"
                    id="path280"/>
            <path
                    d="M 124.656,78.996667 H 1268.328"
                    style="fill:none;stroke:#000000;stroke-width:0.8;stroke-linecap:square;stroke-linejoin:miter;stroke-miterlimit:10;stroke-dasharray:none;stroke-opacity:1"
                    id="path282"/>
            <path
                    d="M 124.656,651.04 H 1268.328"
                    style="fill:none;stroke:#000000;stroke-width:0.8;stroke-linecap:square;stroke-linejoin:miter;stroke-miterlimit:10;stroke-dasharray:none;stroke-opacity:1"
                    id="path284"/>
            <path
                    d="m 1084.1249,88.996667 h 170.2031 c 2.6667,0 4,1.333333 4,4 v 56.718753 c 0,2.66666 -1.3333,4 -4,4 h -170.2031 c -2.6667,0 -4,-1.33334 -4,-4 V 92.996667 c 0,-2.666667 1.3333,-4 4,-4 z"
                    style="fill:#ffffff;fill-opacity:0.8;fill-rule:nonzero;stroke:#cccccc;stroke-width:1;stroke-linecap:butt;stroke-linejoin:miter;stroke-miterlimit:10;stroke-dasharray:none;stroke-opacity:0.8"
                    id="path286"/>
            <path
                    d="m 1088.1249,137.51229 h 20 20"
                    style="fill:none;stroke:#0000ff;stroke-width:1.5;stroke-linecap:square;stroke-linejoin:round;stroke-miterlimit:10;stroke-dasharray:none;stroke-opacity:1"
                    id="path288"/>
            <g
                    id="g290"
                    transform="translate(1144.1249,130.51229)">
                <text
                        xml:space="preserve"
                        transform="scale(1,-1)"
                        style="font-variant:normal;font-weight:normal;font-size:20px;font-family:'DejaVu Sans';-inkscape-font-specification:DejaVuSans;writing-mode:lr-tb;fill:#000000;fill-opacity:1;fill-rule:nonzero;stroke:none"
                        id="text294"><tspan
             x="0 12.64 25.34 38.02 43.580002 51.419998"
             y="0"
             id="tspan292">Equity</tspan></text>
            </g>
            <path
                    d="m 1088.1249,101.15292 h 40 v 14 h -40 z"
                    style="fill:#ff0000;fill-opacity:0.3;fill-rule:nonzero;stroke:#ff0000;stroke-width:1;stroke-linecap:butt;stroke-linejoin:miter;stroke-miterlimit:10;stroke-dasharray:none;stroke-opacity:0.3"
                    id="path296"/>
            <g
                    id="g298"
                    transform="translate(1144.1249,101.15292)">
                <text
                        xml:space="preserve"
                        transform="scale(1,-1)"
                        style="font-variant:normal;font-weight:normal;font-size:20px;font-family:'DejaVu Sans';-inkscape-font-specification:DejaVuSans;writing-mode:lr-tb;fill:#000000;fill-opacity:1;fill-rule:nonzero;stroke:none"
                        id="text302"><tspan
             x="0 15.4 23.620001 35.880001 52.240002 64.940002 77.18 93.540001"
             y="0"
             id="tspan300">Drawdown</tspan></text>
            </g>
        </g>
        <g
                id="g304">
            <g
                    id="g306"
                    clip-path="url(#clipPath310)">
                <path
                        d="m 176.64109,625.03803 v 0 l 1.88352,-14.03977 1.88352,-14.06311 1.88351,-12.32063 1.88352,-11.61859 1.88352,-14.60789 1.88352,-14.17002 1.88351,-10.99874 1.88352,-17.76502 1.88352,-11.83169 1.88352,-15.93789 1.88352,-10.18845 1.88351,-12.38095 1.88352,-14.8158 1.88352,-13.35277 1.88352,-11.91918 1.88351,37.54929 1.88352,37.62247 1.88352,121.8033 1.88352,3.03544 h 1.88352 l 1.88351,-4.56456 1.88352,-11.38915 1.88352,15.95371 1.88352,-11.91046 1.88352,-11.95886 1.88351,-11.57782 1.88352,-11.62703 1.88352,-13.29749 1.88352,-11.049 1.88351,-8.93397 1.88352,-12.435 1.88352,32.12828 1.88352,31.85872 1.88352,28.80263 h 1.88351 1.88352 1.88352 1.88352 l 1.88351,-14.33796 1.88352,-9.96327 1.88352,-15.35835 1.88352,-15.97721 1.88352,-16.29108 1.88351,-14.84995 1.88352,35.71566 1.88352,15.62211 1.88352,9.19596 1.88352,1.01334 1.88351,-10.78266 1.88352,-2.98123 1.88352,-0.81003 1.88352,-10.88901 1.88351,-5.11336 1.88352,-13.21663 1.88352,-10.89441 1.88352,-11.7558 1.88351,-8.88291 1.88352,-14.94472 1.88352,-10.12428 1.88352,-10.89957 1.88352,-12.51281 1.88351,-11.88791 1.88352,-11.47933 1.88352,-9.60872 1.88352,-9.32643 1.88351,123.22199 1.88352,37.94094 1.88352,0.28869 1.88352,-14.28062 1.88352,-11.52635 1.88351,-9.80017 1.88352,-21.17206 1.88352,-32.41967 1.88352,-12.59726 1.88351,40.58156 1.88352,-17.99737 1.88352,-14.22325 1.88352,-14.81521 1.88352,-20.65698 1.88351,-10.01996 1.88352,-10.62575 1.88352,-10.3452 1.88352,-6.08563 1.88351,-0.002 1.88352,8.41693 1.88352,-16.2709 1.88352,1.63716 1.88352,-11.28152 1.88351,-0.83639 1.88352,4.85675 1.88352,-9.04786 1.88352,-10.78937 1.88351,-17.24004 1.88352,-9.15446 1.88352,-5.60209 1.88352,-14.94724 1.88352,-8.97647 1.88351,-8.67929 1.88352,-9.36166 1.88352,-11.23748 1.88352,-10.85648 1.88351,-6.69881 1.88352,-10.42928 1.88352,-16.41963 1.88352,-20.08445 1.88352,-9.5228 1.88351,-8.95546 1.88352,-9.4526 1.88352,-9.14387 1.88352,-5.70382 1.88351,-9.18141 1.88352,-8.29452 1.88352,21.12069 1.88352,-7.46348 1.88352,-7.42789 1.88351,86.72789 1.88352,86.75223 1.88352,26.68643 1.88352,26.67456 1.88351,-12.2259 1.88352,-10.85148 1.88352,-14.93383 1.88352,-12.55029 1.88352,-4.44789 1.88351,-7.34496 1.88352,-11.75897 1.88352,-8.66834 1.88352,-8.82527 1.88352,-10.76628 1.88351,-10.01881 1.88352,-11.15588 1.88352,-9.81204 1.88352,-11.33458 1.88351,-8.16806 1.88352,-7.80681 1.88352,-16.44255 1.88352,29.88544 1.88351,31.32977 1.88352,22.32544 1.88352,-7.6541 1.88352,-11.51894 1.88352,-7.3311 1.88351,-11.83959 1.88352,96.03121 1.88352,22.15003 1.88352,-9.37565 1.88352,-8.57883 1.88351,-9.59076 1.88352,99.7286 1.88352,99.75509 1.88352,30.76668 1.88351,-10.49158 1.88352,27.58199 h 1.88352 l 1.88352,-9.2363 1.88352,9.2363 h 1.88351 l 1.88352,-10.86748 1.88352,10.86748 1.88352,-15.99125 1.88351,-0.74646 1.88352,-10.3958 1.88352,-13.28897 1.88352,-16.29713 1.88352,-13.42757 1.88351,-7.96248 1.88352,-7.87922 1.88352,-8.20057 1.88352,-8.91829 1.88351,-10.80586 1.88352,-8.68284 1.88352,-11.63773 1.88352,-13.93631 1.88352,-13.05547 1.88351,2.58178 1.88352,-2.35336 1.88352,-10.38938 1.88352,-19.58053 1.88352,-12.68481 1.88351,-10.3534 1.88352,-9.76567 1.88352,27.40068 1.88352,-0.0683 1.88351,-9.74508 1.88352,-10.19838 1.88352,-12.22347 1.88352,-10.76037 1.88351,-9.63138 1.88352,-5.69676 1.88352,-9.05014 1.88352,-7.93919 1.88352,-11.19587 1.88351,-8.48138 1.88352,-7.57855 1.88352,-8.28281 1.88352,4.62366 1.88352,-12.56024 1.88351,-8.2993 1.88352,-8.18518 1.88352,-10.50702 1.88352,-10.65404 1.88351,-8.00942 1.88352,-9.68793 1.88352,-7.94802 1.88352,21.81631 1.88351,3.97897 1.88352,7.92545 1.88352,-13.02813 1.88352,4.50901 1.88352,-1.36615 1.88351,-9.73379 1.88352,-10.1215 1.88352,-8.28734 1.88352,-10.42818 1.88351,-9.42239 1.88352,32.07163 1.88352,-3.24512 1.88352,-8.18467 1.88352,-6.06469 1.88351,-7.84781 1.88352,-7.47663 1.88352,-7.0369 1.88352,-8.07807 1.88352,-11.01098 1.88351,21.27437 1.88352,-7.9271 1.88352,-8.90126 1.88352,-7.39375 1.88351,-5.84244 1.88352,-8.153 1.88352,-8.69903 1.88352,-9.88377 1.88352,-6.62119 1.88351,-9.48241 1.88352,-8.5219 1.88352,-10.87778 1.88352,-8.2654 1.88351,3.66545 1.88352,3.47589 1.88352,-5.37033 1.88352,79.95073 1.88351,-4.52027 1.88352,-4.44213 1.88352,-7.44049 1.88352,-5.6745 1.88352,-5.89492 1.88351,-7.77792 1.88352,-8.31542 1.88352,-7.85523 1.88352,25.77369 1.88351,83.71189 1.88352,-9.22225 1.88352,-5.19375 1.88352,81.94475 1.88352,-10.64962 1.88351,105.3685 1.88352,-11.74169 1.88352,-6.33585 1.88352,36.52346 1.88351,-4.74259 1.88352,12.42322 1.88352,13.81337 1.88352,-2.33816 1.88352,-6.89031 1.88351,-8.19876 1.88352,-5.82593 1.88352,-10.77444 1.88352,-1.07449 1.88351,-8.86867 1.88352,-12.73407 1.88352,-9.5804 1.88352,-18.90982 1.88352,-19.50593 1.88351,-8.96723 1.88352,-6.67943 1.88352,-5.82928 1.88352,33.69877 1.88352,-9.34215 1.88351,-7.88883 1.88352,-10.65158 1.88352,33.71484 1.88352,33.71648 1.88351,-2.1061 1.88352,-9.92589 1.88352,-8.29138 1.88352,-9.62531 1.88352,-8.85769 1.88351,-10.56054 1.88352,-5.12193 1.88352,5.45891 1.88352,-10.44291 1.88351,-10.9541 1.88352,-1.26589 1.88352,-3.91722 1.88352,-8.10048 1.88352,-8.45843 1.88351,-8.60913 1.88352,-10.05953 1.88352,100.30691 1.88352,-9.20678 1.88352,-8.96014 1.88351,-8.43564 1.88352,-9.95562 1.88352,108.31405 1.88352,33.507 1.88351,-9.57647 1.88352,-2.99576 1.88352,-20.01503 1.88352,-11.10133 1.88351,-9.65166 1.88352,-8.80004 1.88352,-8.4339 1.88352,-8.78153 1.88352,-10.26086 1.88351,-10.61007 1.88352,-12.34505 1.88352,-9.60996 1.88352,-9.31396 1.88351,-8.6622 1.88352,-7.62604 1.88352,-10.53471 1.88352,-7.93309 1.88352,-9.19831 1.88351,-11.45681 1.88352,-8.78474 1.88352,-8.69937 1.88352,-7.99998 1.88351,-9.31917 1.88352,-7.16082 1.88352,-7.16205 1.88352,-8.05758 1.88352,-4.21258 1.88351,-9.88903 1.88352,93.98194 1.88352,28.85638 1.88352,-8.31225 1.88351,-10.27628 1.88352,-8.91871 1.88352,-9.14972 1.88352,-10.1094 1.88352,-7.13786 1.88351,-7.13297 1.88352,-7.81318 1.88352,-7.27691 1.88352,-5.08471 1.88351,-5.34092 1.88352,-9.06411 1.88352,-4.38916 1.88352,22.37094 1.88352,22.37055 1.88351,-7.65454 1.88352,-10.97791 1.88352,28.66622 1.88352,-7.08886 1.88352,101.07217 1.88351,-9.05682 1.88352,-14.50288 1.88352,-9.25942 1.88352,15.66725 1.88351,-5.8922 1.88352,10.96309 1.88352,-0.48277 1.88352,-1.44551 1.88351,-7.42613 1.88352,2.81249 1.88352,-1.72005 1.88352,-6.16775 1.88352,-7.84049 1.88351,44.1916 1.88352,18.51084 1.88352,115.33951 1.88352,-10.60336 1.88351,-8.31684 1.88352,-9.54848 1.88352,-6.40124 1.88352,-8.81369 1.88352,-10.32696 1.88351,-8.72904 1.88352,-9.52962 1.88352,-8.14368 1.88352,-6.37597 1.88352,-7.80603 1.88351,-9.35761 1.88352,-11.78804 1.88352,-9.65577 1.88352,-9.88677 1.88351,-9.45215 1.88352,-7.67339 1.88352,-6.79506 1.88352,-8.98678 1.88351,-12.91569 1.88352,-9.3948 1.88352,-8.63373 1.88352,-10.13305 1.88352,-9.56185 1.88351,-7.30212 1.88352,-14.51927 1.88352,-5.90149 1.88352,-8.4513 1.88352,-8.2218 1.88351,-7.99424 1.88352,-9.05465 1.88352,-9.10838 1.88352,-7.49276 1.88351,-5.5713 1.88352,-6.55982 1.88352,-6.49554 1.88352,-13.35391 1.88352,-6.46795 1.88351,-7.25127 1.88352,-8.23678 1.88352,-6.71647 1.88352,21.98646 1.88351,22.77276 1.88352,22.73655 1.88352,1.99639 1.88352,-0.19944 1.88352,24.24172 1.88351,-8.89168 1.88352,0.46889 1.88352,10.18562 1.88352,-7.10471 1.88351,-9.33878 1.88352,-8.36506 1.88352,-7.25357 1.88352,-8.77089 1.88352,-7.07124 1.88351,-8.10569 1.88352,-7.2232 1.88352,-8.28167 1.88352,-17.0799 1.88352,-7.97452 1.88351,-11.13716 1.88352,4.5372 1.88352,-5.52903 1.88352,-4.93389 1.88351,-5.38133 1.88354,-5.79441 1.8835,-7.84816 1.8835,-7.52259 1.8835,-7.66071 1.8836,-8.43128 1.8835,-7.9758 1.8835,-7.79694 1.8835,-6.77033 1.8835,-4.96201 1.8835,-5.62305 1.8836,73.4507 1.8835,-3.97515 1.8835,-6.72464 1.8835,-6.36437 1.8835,16.81409 1.8835,-6.35971 1.8836,-4.16179 1.8835,-5.43239 1.8835,-8.46234 1.8835,-6.75426 1.8835,78.59613 1.8836,18.22701 1.8835,24.30959 1.8835,-7.33489 1.8835,-6.92128 1.8835,-7.00771 1.8835,-10.5808 1.8836,-8.91708 1.8835,-7.1783 1.8835,-7.00774 1.8835,-6.71941 1.8835,-0.18545 1.8836,-7.11094 1.8835,-6.17586 1.8835,-9.42094 1.8835,-6.54982 1.8835,-8.06354 1.8835,80.19079 1.8836,18.52468 1.8835,-8.12377 1.8835,-9.35574 1.8835,-7.87005 1.8835,-8.31063 1.8835,-8.5933 1.8836,-7.79299 1.8835,-8.35944 1.8835,-6.14511 1.8835,-9.74515 1.8835,-7.53144 1.8836,-7.25257 1.8835,-6.89171 1.8835,-8.81934 1.8835,-7.684 1.8835,-7.62407 1.8835,77.19637 1.8836,17.92005 1.8835,77.46373 1.8835,17.93135 1.8835,-8.83116 1.8835,-7.67559 1.8835,-4.6479 1.8836,-8.10581 1.8835,-9.08201 1.8835,-7.41959 1.8835,-8.93752 1.8835,-7.17265 1.8836,-9.22713 1.8835,-8.07118 1.8835,-8.13817 1.8835,-7.92823 1.8835,-10.29892 1.8835,-6.03624 1.8836,20.15029 1.8835,-9.55713 1.8835,0.19359 1.8835,-6.84121 1.8835,-6.12218 1.8836,-5.34976 1.8835,-7.918 1.8835,-7.7038 1.8835,-9.39626 1.8835,-7.29506 1.8835,-6.42344 1.8836,-4.95455 1.8835,-6.80708 1.8835,-3.82551 1.8835,-6.376 1.8835,-5.66894 1.8835,-7.80693 1.8836,1.98325 1.8835,-7.35045 1.8835,-5.43777 1.8835,-9.69739 1.8835,-5.38311 1.8836,26.31429 1.8835,73.7532 1.8835,73.75549 1.8835,-7.52979 1.8835,17.07495 1.8835,-5.91366 1.8836,-7.21846 1.8835,16.52213 1.8835,-9.64596 1.8835,-9.89264 1.8835,-9.63019 1.8835,-12.35843 1.8836,-7.7268 1.8835,-8.1251 1.8835,-6.9165 1.8835,-8.60476 1.8835,-7.42268 1.8836,-7.9866 1.8835,-7.61845 1.8835,-6.87569 1.8835,-7.245 v 429.37281 0 h -1.8835 -1.8835 -1.8835 -1.8836 -1.8835 -1.8835 -1.8835 -1.8835 -1.8836 -1.8835 -1.8835 -1.8835 -1.8835 -1.8835 -1.8836 -1.8835 -1.8835 -1.8835 -1.8835 -1.8835 -1.8836 -1.8835 -1.8835 -1.8835 -1.8835 -1.8836 -1.8835 -1.8835 -1.8835 -1.8835 -1.8835 -1.8836 -1.8835 -1.8835 -1.8835 -1.8835 -1.8835 -1.8836 -1.8835 -1.8835 -1.8835 -1.8835 -1.8836 -1.8835 -1.8835 -1.8835 -1.8835 -1.8835 -1.8836 -1.8835 -1.8835 -1.8835 -1.8835 -1.8836 -1.8835 -1.8835 -1.8835 -1.8835 -1.8835 -1.8836 -1.8835 -1.8835 -1.8835 -1.8835 -1.8835 -1.8836 -1.8835 -1.8835 -1.8835 -1.8835 -1.8836 -1.8835 -1.8835 -1.8835 -1.8835 -1.8835 -1.8836 -1.8835 -1.8835 -1.8835 -1.8835 -1.8835 -1.8836 -1.8835 -1.8835 -1.8835 -1.8835 -1.8836 -1.8835 -1.8835 -1.8835 -1.8835 -1.8835 -1.8836 -1.8835 -1.8835 -1.8835 -1.8835 -1.8836 -1.8835 -1.8835 -1.8835 -1.8835 -1.8835 -1.8836 -1.8835 -1.8835 -1.8835 -1.8835 -1.8835 -1.8836 -1.8835 -1.8835 -1.8835 -1.88354 -1.88351 -1.88352 -1.88352 -1.88352 -1.88351 -1.88352 -1.88352 -1.88352 -1.88352 -1.88351 -1.88352 -1.88352 -1.88352 -1.88352 -1.88351 -1.88352 -1.88352 -1.88352 -1.88351 -1.88352 -1.88352 -1.88352 -1.88352 -1.88351 -1.88352 -1.88352 -1.88352 -1.88351 -1.88352 -1.88352 -1.88352 -1.88352 -1.88351 -1.88352 -1.88352 -1.88352 -1.88351 -1.88352 -1.88352 -1.88352 -1.88352 -1.88351 -1.88352 -1.88352 -1.88352 -1.88352 -1.88351 -1.88352 -1.88352 -1.88352 -1.88351 -1.88352 -1.88352 -1.88352 -1.88351 -1.88352 -1.88352 -1.88352 -1.88352 -1.88351 -1.88352 -1.88352 -1.88352 -1.88352 -1.88351 -1.88352 -1.88352 -1.88352 -1.88351 -1.88352 -1.88352 -1.88352 -1.88352 -1.88351 -1.88352 -1.88352 -1.88352 -1.88351 -1.88352 -1.88352 -1.88352 -1.88351 -1.88352 -1.88352 -1.88352 -1.88352 -1.88351 -1.88352 -1.88352 -1.88352 -1.88352 -1.88351 -1.88352 -1.88352 -1.88352 -1.88351 -1.88352 -1.88352 -1.88352 -1.88352 -1.88351 -1.88352 -1.88352 -1.88352 -1.88351 -1.88352 -1.88352 -1.88352 -1.88352 -1.88351 -1.88352 -1.88352 -1.88352 -1.88351 -1.88352 -1.88352 -1.88352 -1.88352 -1.88351 -1.88352 -1.88352 -1.88352 -1.88351 -1.88352 -1.88352 -1.88352 -1.88352 -1.88351 -1.88352 -1.88352 -1.88352 -1.88351 -1.88352 -1.88352 -1.88352 -1.88351 -1.88352 -1.88352 -1.88352 -1.88352 -1.88351 -1.88352 -1.88352 -1.88352 -1.88352 -1.88351 -1.88352 -1.88352 -1.88352 -1.88351 -1.88352 -1.88352 -1.88352 -1.88352 -1.88351 -1.88352 -1.88352 -1.88352 -1.88351 -1.88352 -1.88352 -1.88352 -1.88352 -1.88351 -1.88352 -1.88352 -1.88352 -1.88352 -1.88351 -1.88352 -1.88352 -1.88352 -1.88351 -1.88352 -1.88352 -1.88352 -1.88352 -1.88351 -1.88352 -1.88352 -1.88352 -1.88351 -1.88352 -1.88352 -1.88352 -1.88352 -1.88351 -1.88352 -1.88352 -1.88352 -1.88351 -1.88352 -1.88352 -1.88352 -1.88352 -1.88351 -1.88352 -1.88352 -1.88352 -1.88351 -1.88352 -1.88352 -1.88352 -1.88351 -1.88352 -1.88352 -1.88352 -1.88352 -1.88351 -1.88352 -1.88352 -1.88352 -1.88351 -1.88352 -1.88352 -1.88352 -1.88352 -1.88351 -1.88352 -1.88352 -1.88352 -1.88352 -1.88351 -1.88352 -1.88352 -1.88352 -1.88351 -1.88352 -1.88352 -1.88352 -1.88352 -1.88351 -1.88352 -1.88352 -1.88352 -1.88351 -1.88352 -1.88352 -1.88352 -1.88351 -1.88352 -1.88352 -1.88352 -1.88352 -1.88351 -1.88352 -1.88352 -1.88352 -1.88352 -1.88351 -1.88352 -1.88352 -1.88352 -1.88351 -1.88352 -1.88352 -1.88352 -1.88351 -1.88352 -1.88352 -1.88352 -1.88352 -1.88351 -1.88352 -1.88352 -1.88352 -1.88352 -1.88351 -1.88352 -1.88352 -1.88352 -1.88351 -1.88352 -1.88352 -1.88352 -1.88352 -1.88351 -1.88352 -1.88352 -1.88352 -1.88351 -1.88352 -1.88352 -1.88352 -1.88352 -1.88351 -1.88352 -1.88352 -1.88352 -1.88351 -1.88352 -1.88352 -1.88352 -1.88352 -1.88351 -1.88352 -1.88352 -1.88352 -1.88352 -1.88351 -1.88352 -1.88352 -1.88352 -1.88351 -1.88352 -1.88352 -1.88352 -1.88351 -1.88352 -1.88352 -1.88352 -1.88352 -1.88351 -1.88352 -1.88352 -1.88352 -1.88352 -1.88351 -1.88352 -1.88352 -1.88352 -1.88351 -1.88352 -1.88352 -1.88352 -1.88352 -1.88351 -1.88352 -1.88352 -1.88352 -1.88351 -1.88352 -1.88352 -1.88352 -1.88352 -1.88351 -1.88352 -1.88352 -1.88352 -1.88351 -1.88352 -1.88352 -1.88352 -1.88352 -1.88351 -1.88352 -1.88352 -1.88352 -1.88351 -1.88352 -1.88352 -1.88352 -1.88352 -1.88351 -1.88352 -1.88352 -1.88352 -1.88351 -1.88352 -1.88352 -1.88352 -1.88352 -1.88351 -1.88352 -1.88352 -1.88352 -1.88351 -1.88352 -1.88352 -1.88352 -1.88352 -1.88351 -1.88352 -1.88352 -1.88352 -1.88351 -1.88352 -1.88352 -1.88352 -1.88352 -1.88351 -1.88352 -1.88352 -1.88352 -1.88351 -1.88352 -1.88352 -1.88352 -1.88351 -1.88352 -1.88352 -1.88352 -1.88352 -1.88351 -1.88352 -1.88352 -1.88352 -1.88352 -1.88351 -1.88352 -1.88352 -1.88352 -1.88351 -1.88352 -1.88352 -1.88352 -1.88352 -1.88351 -1.88352 -1.88352 -1.88352 -1.88351 -1.88352 -1.88352 -1.88352 -1.88352 -1.88351 -1.88352 -1.88352 -1.88352 -1.88352 -1.88351 -1.88352 -1.88352 -1.88352 -1.88351 -1.88352 -1.88352 -1.88352 -1.88352 -1.88351 -1.88352 -1.88352 -1.88352 -1.88351 -1.88352 -1.88352 z"
                        style="fill:#ff0000;fill-opacity:0.3;fill-rule:nonzero;stroke:#ff0000;stroke-width:1;stroke-linecap:butt;stroke-linejoin:round;stroke-miterlimit:10;stroke-dasharray:none;stroke-opacity:0.3"
                        id="path312"/>
            </g>
        </g>
        <g
                id="g314">
            <path
                    d="m 1268.328,179.39795 h 3.5"
                    style="fill:#000000;fill-opacity:1;fill-rule:nonzero;stroke:#000000;stroke-width:0.8;stroke-linecap:butt;stroke-linejoin:round;stroke-miterlimit:10;stroke-dasharray:none;stroke-opacity:1"
                    id="path316"/>
            <g
                    id="g318"
                    transform="translate(1275.328,171.79639)">
                <text
                        xml:space="preserve"
                        transform="matrix(1,0,0,-1,16.757812,0)"
                        style="font-variant:normal;font-weight:normal;font-size:20px;font-family:'DejaVu Sans';-inkscape-font-specification:DejaVuSans;writing-mode:lr-tb;fill:#ff0000;fill-opacity:1;fill-rule:nonzero;stroke:none"
                        id="text322"><tspan
             x="0 12.72"
             y="0"
             id="tspan320">40</tspan></text>
                <g
                        id="g324"
                        transform="scale(0.02)">
                    <g
                            id="g326">
                        <g
                                id="g328"
                                clip-path="url(#clipPath332)">
                            <path
                                    d="M 106,355 H 732 V 272 H 106 Z"
                                    style="fill:#ff0000;fill-opacity:1;fill-rule:nonzero;stroke:none"
                                    id="path334"/>
                        </g>
                    </g>
                </g>
            </g>
            <path
                    d="m 1268.328,290.80797 h 3.5"
                    style="fill:#000000;fill-opacity:1;fill-rule:nonzero;stroke:#000000;stroke-width:0.8;stroke-linecap:butt;stroke-linejoin:round;stroke-miterlimit:10;stroke-dasharray:none;stroke-opacity:1"
                    id="path336"/>
            <g
                    id="g338"
                    transform="translate(1275.328,283.20641)">
                <text
                        xml:space="preserve"
                        transform="matrix(1,0,0,-1,16.757812,0)"
                        style="font-variant:normal;font-weight:normal;font-size:20px;font-family:'DejaVu Sans';-inkscape-font-specification:DejaVuSans;writing-mode:lr-tb;fill:#ff0000;fill-opacity:1;fill-rule:nonzero;stroke:none"
                        id="text342"><tspan
             x="0 12.72"
             y="0"
             id="tspan340">30</tspan></text>
                <g
                        id="g344"
                        transform="scale(0.02)">
                    <g
                            id="g346">
                        <g
                                id="g348"
                                clip-path="url(#clipPath352)">
                            <path
                                    d="M 106,355 H 732 V 272 H 106 Z"
                                    style="fill:#ff0000;fill-opacity:1;fill-rule:nonzero;stroke:none"
                                    id="path354"/>
                        </g>
                    </g>
                </g>
            </g>
            <path
                    d="m 1268.328,402.21799 h 3.5"
                    style="fill:#000000;fill-opacity:1;fill-rule:nonzero;stroke:#000000;stroke-width:0.8;stroke-linecap:butt;stroke-linejoin:round;stroke-miterlimit:10;stroke-dasharray:none;stroke-opacity:1"
                    id="path356"/>
            <g
                    id="g358"
                    transform="translate(1275.328,394.61643)">
                <text
                        xml:space="preserve"
                        transform="matrix(1,0,0,-1,16.757812,0)"
                        style="font-variant:normal;font-weight:normal;font-size:20px;font-family:'DejaVu Sans';-inkscape-font-specification:DejaVuSans;writing-mode:lr-tb;fill:#ff0000;fill-opacity:1;fill-rule:nonzero;stroke:none"
                        id="text362"><tspan
             x="0 12.72"
             y="0"
             id="tspan360">20</tspan></text>
                <g
                        id="g364"
                        transform="scale(0.02)">
                    <g
                            id="g366">
                        <g
                                id="g368"
                                clip-path="url(#clipPath372)">
                            <path
                                    d="M 106,355 H 732 V 272 H 106 Z"
                                    style="fill:#ff0000;fill-opacity:1;fill-rule:nonzero;stroke:none"
                                    id="path374"/>
                        </g>
                    </g>
                </g>
            </g>
            <path
                    d="m 1268.328,513.62801 h 3.5"
                    style="fill:#000000;fill-opacity:1;fill-rule:nonzero;stroke:#000000;stroke-width:0.8;stroke-linecap:butt;stroke-linejoin:round;stroke-miterlimit:10;stroke-dasharray:none;stroke-opacity:1"
                    id="path376"/>
            <g
                    id="g378"
                    transform="translate(1275.328,506.02645)">
                <text
                        xml:space="preserve"
                        transform="matrix(1,0,0,-1,16.757812,0)"
                        style="font-variant:normal;font-weight:normal;font-size:20px;font-family:'DejaVu Sans';-inkscape-font-specification:DejaVuSans;writing-mode:lr-tb;fill:#ff0000;fill-opacity:1;fill-rule:nonzero;stroke:none"
                        id="text382"><tspan
             x="0 12.72"
             y="0"
             id="tspan380">10</tspan></text>
                <g
                        id="g384"
                        transform="scale(0.02)">
                    <g
                            id="g386">
                        <g
                                id="g388"
                                clip-path="url(#clipPath392)">
                            <path
                                    d="M 106,355 H 732 V 272 H 106 Z"
                                    style="fill:#ff0000;fill-opacity:1;fill-rule:nonzero;stroke:none"
                                    id="path394"/>
                        </g>
                    </g>
                </g>
            </g>
            <path
                    d="m 1268.328,625.03803 h 3.5"
                    style="fill:#000000;fill-opacity:1;fill-rule:nonzero;stroke:#000000;stroke-width:0.8;stroke-linecap:butt;stroke-linejoin:round;stroke-miterlimit:10;stroke-dasharray:none;stroke-opacity:1"
                    id="path396"/>
            <g
                    id="g398"
                    transform="translate(1275.328,617.43647)">
                <text
                        xml:space="preserve"
                        transform="scale(1,-1)"
                        style="font-variant:normal;font-weight:normal;font-size:20px;font-family:'DejaVu Sans';-inkscape-font-specification:DejaVuSans;writing-mode:lr-tb;fill:#ff0000;fill-opacity:1;fill-rule:nonzero;stroke:none"
                        id="text402"><tspan
             x="0"
             y="0"
             id="tspan400">0</tspan></text>
            </g>
            <g
                    id="g404"
                    transform="rotate(90,522.64702,814.08723)">
                <text
                        xml:space="preserve"
                        transform="scale(1,-1)"
                        style="font-variant:normal;font-weight:normal;font-size:20px;font-family:'DejaVu Sans';-inkscape-font-specification:DejaVuSans;writing-mode:lr-tb;fill:#ff0000;fill-opacity:1;fill-rule:nonzero;stroke:none"
                        id="text408"><tspan
             x="0 15.4 23.620001 35.880001 52.240002 64.940002 77.18 93.540001 106.22 112.58 120.38 139.38"
             y="0"
             id="tspan406">Drawdown (%)</tspan></text>
            </g>
            <path
                    d="M 124.656,78.996667 V 651.04"
                    style="fill:none;stroke:#000000;stroke-width:0.8;stroke-linecap:square;stroke-linejoin:miter;stroke-miterlimit:10;stroke-dasharray:none;stroke-opacity:1"
                    id="path410"/>
            <path
                    d="M 1268.328,78.996667 V 651.04"
                    style="fill:none;stroke:#000000;stroke-width:0.8;stroke-linecap:square;stroke-linejoin:miter;stroke-miterlimit:10;stroke-dasharray:none;stroke-opacity:1"
                    id="path412"/>
            <path
                    d="M 124.656,78.996667 H 1268.328"
                    style="fill:none;stroke:#000000;stroke-width:0.8;stroke-linecap:square;stroke-linejoin:miter;stroke-miterlimit:10;stroke-dasharray:none;stroke-opacity:1"
                    id="path414"/>
            <path
                    d="M 124.656,651.04 H 1268.328"
                    style="fill:none;stroke:#000000;stroke-width:0.8;stroke-linecap:square;stroke-linejoin:miter;stroke-miterlimit:10;stroke-dasharray:none;stroke-opacity:1"
                    id="path416"/>
            <g
                    id="g418"
                    transform="translate(221.46856,657.04)">
                <text
                        xml:space="preserve"
                        transform="scale(1,-1)"
                        style="font-variant:normal;font-weight:normal;font-size:25px;font-family:'DejaVu Sans';-inkscape-font-specification:DejaVuSans;writing-mode:lr-tb;fill:#000000;fill-opacity:1;fill-rule:nonzero;stroke:none"
                        id="text422"><tspan
             x="0 11.603125 21.878124 28.828125 44.703125 51.653126 67.028122 74.978127 90.778122 105.57812 121.45312 136.75313 152.60312 167.97812 183.82812 193.62813 200.57812 215.90312 222.85312 230.80313 252.37813 267.67813 282.47812 289.42813 305.27814 321.15314 329.10312 344.75 359.54999 374.92499 385.20001 400.52499 416.39999 431.77499 439.72501 455.60001 465.39999 475.67499 491 500.79999 516.17499 532.04999 546.84998 554.79999 574.47498 590.32501 600.125 609.60315 624.90314 632.34375 641.36877 657.24377 672.56873 696.91876 712.79376 719.74377 735.11877 743.06873 760.21875 775.54376 789.29376 803.76874 813.56873 828.94373 841.96875 851.76874 859.71875 875.98438 891.35938 904.3844 920.23438 927.18439 936.98438"
             y="0"
             id="tspan420">Triple Exponential Moving Average Strategy Out-of-Sample Backtest Results</tspan></text>
            </g>
        </g>
    </g>
</svg>
